<svg id="Artwork_-_Primary" data-name="Artwork - Primary" xmlns="http://www.w3.org/2000/svg" xmlns:xlink="http://www.w3.org/1999/xlink" viewBox="0 0 250 250"><defs><style>.cls-1{fill:none;}.cls-2{fill:#efefef;}.cls-3{fill:#116572;}.cls-4{fill:#0c4f60;}.cls-5{clip-path:url(#clip-path);}.cls-6{fill:#0b4654;}.cls-7{fill:#fff5ca;}.cls-8{clip-path:url(#clip-path-2);}.cls-9{fill:#f2dcb1;}.cls-10{fill:#f2b814;}.cls-11{fill:#ffc513;}.cls-12{fill:#ffd95f;}.cls-13{fill:#003d32;}.cls-14{clip-path:url(#clip-path-3);}.cls-15{fill:#ec2044;}.cls-16{clip-path:url(#clip-path-4);}.cls-17{fill:#c11e49;}.cls-18{fill:#ffa300;}.cls-19{clip-path:url(#clip-path-5);}.cls-20{fill:#ea301c;}.cls-21{fill:#ff6243;}.cls-22{clip-path:url(#clip-path-6);}.cls-23{fill:#ffa192;}.cls-24{fill:#72c900;}</style><clipPath id="clip-path"><path class="cls-1" d="M30.46,147.26l123.26-35.94a22,22,0,0,1,6.08-1.16,21.48,21.48,0,0,1,4.43.61c18.84,3.9,38.12,8,54.48,18.1-5.91,4.45-12.81,7.35-19.66,10.17-37.45,15.4-75.4,29.65-114.09,41.64a16.53,16.53,0,0,1-4.8,1,15.6,15.6,0,0,1-4.75-1,125.51,125.51,0,0,1-50.25-31Z"/></clipPath><clipPath id="clip-path-2"><path class="cls-1" d="M151.8,100.19c3,3.47,4.14,8.76,8.23,10.86,1.53.79,3.32,1,4.8,1.89a17.78,17.78,0,0,1,3,2.72c3.12,3,9,5.9,11.36,6.18s11.7-4.92,14.39-8.32,1.09-8-.48-12.06c-1.74-4.46-6.14-5.87-9-9.72-2-2.68-3.32-5.86-5.73-8.16a23.93,23.93,0,0,0-5.86-3.76,26.6,26.6,0,0,0-5.84-2.43c-5.67-1.36-13.33.09-16.55,4.92-1.27,1.91-1.33,6.16-2,8.35C147,95,149.14,97.12,151.8,100.19Z"/></clipPath><clipPath id="clip-path-3"><path class="cls-1" d="M113.7,122.31c4.48,1.08,8.46,4.73,13,4.06,1.7-.25,3.29-1.11,5-1.25a18,18,0,0,1,4.06.45c4.28.64,10.23-1.36,12.28-2.47s7.21-9.9,7.43-14.23-3.77-7.16-7.4-9.54c-4-2.62-8.41-1.21-13-2.69-3.17-1-6.11-2.84-9.4-3.32a24.32,24.32,0,0,0-7,.35,27.09,27.09,0,0,0-6.17,1.41c-5.4,2.19-10.79,7.82-10.61,13.62.07,2.3,2.49,5.79,3.27,7.93C106.79,120.86,109.75,121.37,113.7,122.31Z"/></clipPath><clipPath id="clip-path-4"><path class="cls-1" d="M101.36,102.51a6.2,6.2,0,0,0,4.19,2.43,41.29,41.29,0,0,0,5,.28c10.74.59,19.84,8.71,30.53,9.88,3.76.41,7.79-.13,10.83-2.38s4.81-6.45,3.46-10A14.6,14.6,0,0,0,151.83,98a29.23,29.23,0,0,0-5.19-4.5,27.6,27.6,0,0,0-8.39-3q-5.66-1.35-11.36-2.52a26.67,26.67,0,0,0-6.4-.76,26.3,26.3,0,0,0-5.06.89c-4.29,1-8.87,2.32-11.63,5.75C102.24,95.77,99.78,100.13,101.36,102.51Z"/></clipPath><clipPath id="clip-path-5"><path class="cls-1" d="M64.19,138c4,2.3,6.76,6.94,11.32,7.58,1.7.24,3.46-.13,5.15.22a17.86,17.86,0,0,1,3.76,1.58c3.93,1.83,10.47,2.62,12.75,2.14s9.46-8.48,10.89-12.57-1.59-7.93-4.39-11.24C100.58,122,96,122.12,92,119.4c-2.74-1.89-5.05-4.45-8.07-5.84a24.38,24.38,0,0,0-6.77-1.64,26.81,26.81,0,0,0-6.32-.39c-5.8.56-12.56,4.43-14,10-.58,2.22.75,6.26.89,8.53C58,134.6,60.67,135.92,64.19,138Z"/></clipPath><clipPath id="clip-path-6"><path class="cls-1" d="M65.65,116.52a110.32,110.32,0,0,0,13.29,3.2c2.21.35,4.44.56,6.6,1.12a31.67,31.67,0,0,1,5.95,2.33,60.61,60.61,0,0,1,8.1,4.81c1.18.83,2.47,1.75,3.92,1.64a4.61,4.61,0,0,0,2.09-.79,7.63,7.63,0,0,0,2-1.82,8.16,8.16,0,0,0,.9-7.35,16.84,16.84,0,0,0-4.23-6.34,37.79,37.79,0,0,0-32.51-10.7,53.14,53.14,0,0,0-7,1.72c-3.47,1.06-7,2.43-9.71,5-.61.58-3.16,3-1.6,3.39,1.87.51,3.67,1.21,5.52,1.82C61.16,115.24,63.41,115.88,65.65,116.52Z"/></clipPath></defs><path class="cls-2" d="M209.55,139.25a19.75,19.75,0,0,0-4.82,7.36,12.63,12.63,0,0,0-.31,8.93c1.11,2.83,3.94,5.1,7,4.92a9.57,9.57,0,0,0,5.52-2.68c4.55-3.95,9.14-11.73,7.63-18.1C222.85,132.56,213.17,135.77,209.55,139.25Z"/><path class="cls-2" d="M98.94,60.62c-.06-6.8,2.85-13.35,6.91-18.79A48,48,0,0,1,151.44,23.7c3.78.66,7.75,2,10,5.05s2.37,7.48,1,11.11-4,6.65-6.7,9.4c-10,10.11-22.32,17.68-35.15,23.66-4.06,1.89-9.44,4.81-14,2.91C101.26,73.57,99,65.88,98.94,60.62Z"/><path class="cls-2" d="M92.59,177c-15.19,4.44-32.17-1.35-43.68-12.2s-18.09-26.1-21.32-41.59c-5-24-1.6-51.36,15.46-69,5.89-6.09,15.05-11,22.62-7.13a20.73,20.73,0,0,1,6.56,5.89c8.15,10.14,14.2,23.19,26.2,28.23,7.75,3.25,16.7,2.4,24.69-.24S138.41,74,146,70.27a169.7,169.7,0,0,1,34.3-12.57c6.48-1.61,13.18-2.84,19.83-2.14s13.3,3.56,17.37,8.86a26.07,26.07,0,0,1,4.76,12.26c1.7,11.83-2.08,24-8.61,34S198,128.78,188.33,135.87c-10.75,7.91-22.5,14.84-35.47,18"/><path class="cls-2" d="M62,183.89l-11.3,1s-7.1.26-7.3,1.32,18.82,14.94,21,16.94a134.91,134.91,0,0,0,21.94,16c1.26.72,2.77,4.74,8,7.46s59-14.09,67.28-15.48,43.84-11.84,43-13.53-35.23-26.14-49.38-32.71"/><path class="cls-3" d="M165.65,159.6c4.8,2.91,13.95,6.54,18.94,9.09a13.71,13.71,0,0,1,1.18.74,12.28,12.28,0,0,0,.6-1.24,16.26,16.26,0,0,0,.29-4.83q-.25-6-.93-12l-14.89,4.18"/><path class="cls-4" d="M185.77,169.43c2.62-.87,6-2.36,6-2.36l4.7-2.76c-.25-5.77-.3-9-1.12-13.23a1.88,1.88,0,0,0-.35-.93,2,2,0,0,0-1.9-.29,44,44,0,0,0-7.78,2.38,2.21,2.21,0,0,0-1,.63,2.28,2.28,0,0,0-.31,1.13c-.19,2.34.59,3.92.56,6.27Z"/><path class="cls-3" d="M92.52,187q7.2,4.37,14.7,8.19a12.84,12.84,0,0,1,1.18.74s.54-1,.6-1.24a16.69,16.69,0,0,0,.29-4.84q-.27-6-.93-12L93.46,182"/><path class="cls-4" d="M25.16,149.65c.42,3.49,1.11,6.85,1.53,10.34a13.83,13.83,0,0,0,.4,3.08,17.68,17.68,0,0,0,3.15,2.67Q48.68,178.57,68,190.11a20,20,0,0,0,6.15,2.79c3.28.68,6.65-.27,9.85-1.23,16.1-4.8,32.11-9.91,48-15.48A800,800,0,0,0,220,139.85c.41-3.15.13-10.53-1.31-11a65.58,65.58,0,0,0-12.38-2.8c-9.52-1-19.14-.26-28.67.62A872.44,872.44,0,0,0,63.8,144.75"/><path class="cls-3" d="M30.46,147.26l123.26-35.94a22,22,0,0,1,6.08-1.16,21.48,21.48,0,0,1,4.43.61c18.84,3.9,38.12,8,54.48,18.1-5.91,4.45-12.81,7.35-19.66,10.17-37.45,15.4-75.4,29.65-114.09,41.64a16.53,16.53,0,0,1-4.8,1,15.6,15.6,0,0,1-4.75-1,125.51,125.51,0,0,1-50.25-31Z"/><g class="cls-5"><path class="cls-6" d="M116.29,133.69c-1.36.42-2.9,1.2-3,2.62-.11,1.17.84,2.15,1.74,2.9A37.94,37.94,0,0,0,146.73,147a10.52,10.52,0,0,0,4.9-2.1,4.43,4.43,0,0,0,1.39-4.85,6.22,6.22,0,0,0-2.57-2.51c-4.8-3-11.29-6-17.08-5.49S121.88,132,116.29,133.69Z"/><path class="cls-6" d="M75.35,139.86a23.09,23.09,0,0,0-9,6.34,6.88,6.88,0,0,0-1.92,3.7c-.22,2.18,1.31,4.12,2.86,5.66a43.65,43.65,0,0,0,40.84,11.09c1.47-.38,3-.94,3.8-2.26a5.15,5.15,0,0,0,.35-3.25,14.9,14.9,0,0,0-3-6.87,24.83,24.83,0,0,0-7.23-5.79A74.57,74.57,0,0,0,80.17,140"/><path class="cls-6" d="M159.6,124.39a2,2,0,0,0,.37,1.27,10.23,10.23,0,0,0,4.35,3.39,83.74,83.74,0,0,0,10.88,4.58c3.12,1.07,6.54,2,9.67.9a16.69,16.69,0,0,0,4.6-2.74c.5-.38,1-.84,1-1.46a2,2,0,0,0-.85-1.38c-3.74-3.32-8.18-5.73-12.58-8.11-3-1.61-6.2-3.09-9.45-1.56C165.93,120.08,159.86,122.52,159.6,124.39Z"/></g><path class="cls-4" d="M108.4,195.93c2.61-.88,6-2.36,6-2.36l4.7-2.77c-.25-5.76-.29-9-1.11-13.23a2,2,0,0,0-.36-.93,2,2,0,0,0-1.9-.29,43.18,43.18,0,0,0-7.78,2.39,2.05,2.05,0,0,0-1,.63,2.13,2.13,0,0,0-.3,1.12c-.2,2.35.58,3.92.56,6.27Z"/><path class="cls-7" d="M151.8,100.19c3,3.47,3.68,5.75,7.78,7.85,1.53.78,3.77,4,5.25,4.9a17.78,17.78,0,0,1,3,2.72c3.12,3,9,5.9,11.36,6.18s11.7-4.92,14.39-8.32,1.09-8-.48-12.06c-1.74-4.46-6.14-5.87-9-9.72-2-2.68-3.32-5.86-5.73-8.16a23.93,23.93,0,0,0-5.86-3.76,26.6,26.6,0,0,0-5.84-2.43c-5.67-1.36-13.33.09-16.55,4.92-1.27,1.91-1.33,6.16-2,8.35C147,95,149.14,97.12,151.8,100.19Z"/><g class="cls-8"><path class="cls-9" d="M153.61,73.45a8.66,8.66,0,0,0-.86,10.16,18,18,0,0,0,2.06,2.47q7.51,7.94,14.75,16.11a6.39,6.39,0,0,1,1.06,1.43c.64,1.32.33,2.94.94,4.27.74,1.62,2.6,2.42,3.61,3.88.6.84.87,1.88,1.48,2.72a8.46,8.46,0,0,0,3.58,2.46l4.77,2.18a4.09,4.09,0,0,0,4.49-.14l6.72-3.24a8.29,8.29,0,0,0,1.86-1.1,6.06,6.06,0,0,0,1.76-5,31.2,31.2,0,0,0-1.17-5.37c-.9-3.67-1.07-7.53-2.48-11a27.68,27.68,0,0,0-4-6.46c-4.08-5.27-8.88-10.17-14.85-13.13s-13.27-3.77-19.3-.92"/></g><path class="cls-10" d="M153.88,74.44a6,6,0,0,0-.36,4.3,5.93,5.93,0,0,0,.76,1.34c3.25,4.68,7.76,8.32,11.36,12.73,2.07,2.53,3.83,5.3,6,7.71a44.19,44.19,0,0,1,3.42,3.82c.75,1,1.33,2.17,2,3.24a43,43,0,0,0,5.24,6.34,2.21,2.21,0,0,0,.78.62,2.27,2.27,0,0,0,1.34,0,44.81,44.81,0,0,0,8.32-2.59c2.93-1.24,7-3.32,6.82-6.12-2.08-1.82-4.44-3.89-6.33-5.92-2.82-3-5.16-6.49-8-9.48-6.05-6.35-14.12-10.33-22.16-13.85-1.26-.56-2.52-1.1-3.73-1.77"/><path class="cls-11" d="M178.7,104.69a31.18,31.18,0,0,0,2.46,4.46,6.37,6.37,0,0,0,4.14,2.72,8.59,8.59,0,0,0,4.38-1,92.37,92.37,0,0,0,9.92-5,63.76,63.76,0,0,0-15.38-21.89c-1.6-1.49-3.28-2.89-5-4.29l-4.84-4a13.67,13.67,0,0,0-4.29-2.75,13.7,13.7,0,0,0-4.95-.34l-7.75.41c-1.11.06-3.5.27-3.59,1.78-.06,1,1.67,2.81,2.21,3.56a60,60,0,0,0,5.47,6.44c3.94,4.13,8.24,7.94,11.93,12.3A41.08,41.08,0,0,1,178.7,104.69Z"/><path class="cls-12" d="M172.29,87.37a62.9,62.9,0,0,1,10.93,15.4c.67,1.34,1.52,2.87,3,3.09a4.55,4.55,0,0,0,1.82-.23l3.86-1a1.25,1.25,0,0,0,.66-.35,1.11,1.11,0,0,0,.07-.93c-1.11-5-5-8.87-8.57-12.53Q177.8,84.38,172,77.58c-1-1.23-2.35-2.58-4-2.43l13.82,16.29c2.74,3.23,5.51,6.51,7.35,10.33a.87.87,0,0,1,.13.44c0,.31-.31.52-.6.63a3.46,3.46,0,0,1-3.34-.71,10.29,10.29,0,0,1-2.19-2.79A74.8,74.8,0,0,0,176.05,89c-3.16-3.62-7-6.66-9.52-10.77-.51-.85-1.32-2.49-2.52-1.78-1.41.82-.18,2.3.48,3.06C166.9,82.28,169.71,84.71,172.29,87.37Z"/><path class="cls-13" d="M161.75,88.15a2.33,2.33,0,0,1,.49-.74,2.31,2.31,0,0,1,.91-.46,74.77,74.77,0,0,1,13.47-2.53l3.52-.44c1.78-.22,4.1-1.36,5.36-.07,1.08,1.1,3.17,2.3,3.12,3.39s-8.17.78-12.77,1.29c-2.56.28-5.09.79-7.62,1.31a4.48,4.48,0,0,0-2.1.82,4.13,4.13,0,0,0-.94,1.44c-2.23,4.85-3.41,10.11-4.81,15.27-.16.61-.42,1.32-1,1.51a1.93,1.93,0,0,1-1.64-.61c-1.21-1-2.81-1.72-2.44-3.43a50.48,50.48,0,0,1,1.88-5.73A115.36,115.36,0,0,1,161.75,88.15Z"/><path class="cls-9" d="M145.26,68.38a7.27,7.27,0,0,0-1.18,3.28.36.36,0,0,0,0,.18c.09.15.31.1.47,0a8.46,8.46,0,0,0,2.81-2.65c.5-.66,2.39-2.46,1-3.15S145.78,67.45,145.26,68.38Z"/><path class="cls-9" d="M184.11,76.58a4.38,4.38,0,0,0,2.33,2,3.48,3.48,0,0,0-.46-2.12c-.29-.63-1.18-3.28-2.14-3S183.79,76,184.11,76.58Z"/><path class="cls-7" d="M113.7,122.31c4.48,1.08,8.46,4.73,13,4.06,1.7-.25,3.29-1.11,5-1.25a18,18,0,0,1,4.06.45c4.28.64,10.23-1.36,12.28-2.47s7.21-9.9,7.43-14.23-3.77-7.16-7.4-9.54c-4-2.62-8.41-1.21-13-2.69-3.17-1-6.11-2.84-9.4-3.32a24.32,24.32,0,0,0-7,.35,27.09,27.09,0,0,0-6.17,1.41c-5.4,2.19-10.79,7.82-10.61,13.62.07,2.3,2.49,5.79,3.27,7.93C106.79,120.86,109.75,121.37,113.7,122.31Z"/><path class="cls-9" d="M137.68,122.62c-.29.17-.28.57-.22.9a7.37,7.37,0,0,0,1.8,3.6c.62.67,1.66,1.24,2.4.7a1.45,1.45,0,0,0,.38-1.63,3.69,3.69,0,0,0-1-1.43,24,24,0,0,0-2.23-1.92,1.1,1.1,0,0,0-.69-.31c-.26,0-.51.29-.39.52"/><g class="cls-14"><path class="cls-9" d="M99.71,99a8.65,8.65,0,0,0,5.08,8.84,16.56,16.56,0,0,0,3.1.86q10.68,2.27,21.29,4.86a6.65,6.65,0,0,1,1.69.59c1.27.72,1.94,2.22,3.2,3,1.52.92,3.51.51,5.17,1.14,1,.36,1.79,1,2.76,1.4a8.51,8.51,0,0,0,4.34,0l5.17-.92a5.43,5.43,0,0,0,1.94-.61,5.53,5.53,0,0,0,1.68-2.05l3.68-6.49a8.29,8.29,0,0,0,.9-2,6.06,6.06,0,0,0-1.39-5.12,31.68,31.68,0,0,0-4-3.75c-2.83-2.5-5.16-5.59-8.32-7.66a27.66,27.66,0,0,0-7-3.05c-6.36-2-13.09-3.31-19.68-2.35S106.29,90.17,103,95.94"/></g><path class="cls-15" d="M101.36,102.51a6.2,6.2,0,0,0,4.19,2.43,41.29,41.29,0,0,0,5,.28c10.74.59,19.84,8.71,30.53,9.88,3.76.41,7.79-.13,10.83-2.38s4.81-6.45,3.46-10A14.6,14.6,0,0,0,151.83,98a29.23,29.23,0,0,0-5.19-4.5,27.6,27.6,0,0,0-8.39-3q-5.66-1.35-11.36-2.52a26.67,26.67,0,0,0-6.4-.76,26.3,26.3,0,0,0-5.06.89c-4.29,1-8.87,2.32-11.63,5.75C102.24,95.77,99.78,100.13,101.36,102.51Z"/><g class="cls-16"><path class="cls-17" d="M97.06,98.84c5.57,2.35,11.89,1.82,17.81,3,9,1.83,16.7,7.57,25.59,9.72a9,9,0,0,0,4.46.22c1.9-.51,3.33-2,4.66-3.49l8-8.77a1.82,1.82,0,0,1,.63-.51c.63-.28,1.33.18,1.81.67,2.39,2.42,3,6.19,2.26,9.5a22.1,22.1,0,0,1-4.81,8.88c-2.2,2.7-4.77,5.25-8,6.53-3.54,1.4-7.52,1.15-11.26.39a45.69,45.69,0,0,1-19.33-9,28.13,28.13,0,0,0-4.07-3,6.71,6.71,0,0,0-4.86-.8c-2,.55-3.55,2.36-5.61,2.68a7.06,7.06,0,0,1-3.95-.83,24.49,24.49,0,0,1-11.29-10.61"/><path class="cls-17" d="M141.58,101c3.26-3.19,6.77-6.12,10.27-9,.4,1-.48,2-1.28,2.73A169.5,169.5,0,0,0,138,107.38a8,8,0,0,0-1.52,2.2c-.69,1.72,0,4.25-1,5.75-1.07-1.37-.71-4.27-.17-5.79a17.77,17.77,0,0,1,2.7-4.68C138.89,103.77,140.31,101.53,141.58,101Z"/><path class="cls-17" d="M128.39,100.33a60.1,60.1,0,0,1,8.23-8.19A13.83,13.83,0,0,1,142,88.76l-9,9.18c-1.28,1.3-2.57,2.6-3.72,4-1,1.23-1.74,3.49-2.83,4.48-1.39,1.28-1.28-.48-.74-1.62A24.71,24.71,0,0,1,128.39,100.33Z"/><path class="cls-17" d="M126.43,88.8a4.06,4.06,0,0,1,2.82-1.58,54.64,54.64,0,0,1-6.81,8.37c-1.34,1.36-2.76,2.65-4,4.14s-1.55,3-2.51,4.37C112.84,101.7,124.64,90.6,126.43,88.8Z"/><path class="cls-17" d="M114.88,87.21c.29-.32.93-.59,1.05-.17a.59.59,0,0,1-.06.39,13.17,13.17,0,0,1-2,3,57.9,57.9,0,0,0-8.18,12.88c-2.55-.67,2.1-6.71,2.92-7.94A71,71,0,0,1,114.88,87.21Z"/></g><path class="cls-9" d="M117,117.13a1.37,1.37,0,0,0,.91-.34c1.57-1.87-7.23-3.54-9-1.74C105.94,118,115.49,117.32,117,117.13Z"/><path class="cls-18" d="M109.72,67.36a2.32,2.32,0,0,0,2,1.17,3.85,3.85,0,0,0,2.27-.78,1.44,1.44,0,0,0,.55-.6,1.33,1.33,0,0,0,0-.79c-.34-1.34-1.88-3-3.4-2.83C109.48,63.73,109.07,66.07,109.72,67.36Z"/><path class="cls-18" d="M118.17,87.08a2.34,2.34,0,0,0,2,1.18,3.89,3.89,0,0,0,2.28-.79,1.44,1.44,0,0,0,.55-.6,1.33,1.33,0,0,0,0-.79c-.34-1.34-1.87-3-3.4-2.83S117.52,85.79,118.17,87.08Z"/><path class="cls-18" d="M127.33,78.92a2.32,2.32,0,0,0,2,1.17,3.85,3.85,0,0,0,2.27-.78,1.44,1.44,0,0,0,.55-.6,1.33,1.33,0,0,0,0-.79c-.34-1.34-1.88-3-3.4-2.83C127.09,75.29,126.67,77.63,127.33,78.92Z"/><path class="cls-18" d="M132.52,92a2.33,2.33,0,0,0,2,1.17,3.88,3.88,0,0,0,2.28-.78,1.51,1.51,0,0,0,.55-.6,1.33,1.33,0,0,0,0-.79c-.34-1.34-1.87-3-3.4-2.83C132.28,88.38,131.87,90.72,132.52,92Z"/><path class="cls-18" d="M123.4,50.75a2.31,2.31,0,0,0,.32,2.31,3.87,3.87,0,0,0,2,1.3,1.44,1.44,0,0,0,.82.06,1.32,1.32,0,0,0,.61-.49c.85-1.09,1.21-3.33.13-4.42S124,49.43,123.4,50.75Z"/><path class="cls-9" d="M94.88,77c.48,1.75,2.09,2.9,3.59,3.91.65.43,1.47.88,2.17.53a1.49,1.49,0,0,0,.58-1.79A3.68,3.68,0,0,0,100,78C99.11,77.36,94,73.73,94.88,77Z"/><path class="cls-7" d="M64.19,138c4,2.3,6.76,6.94,11.32,7.58,1.7.24,3.46-.13,5.15.22a17.86,17.86,0,0,1,3.76,1.58c3.93,1.83,10.47,2.62,12.75,2.14s9.46-8.48,10.89-12.57-1.59-7.93-4.39-11.24C100.58,122,96,122.12,92,119.4c-2.74-1.89-5.05-4.45-8.07-5.84a24.38,24.38,0,0,0-6.77-1.64,26.81,26.81,0,0,0-6.32-.39c-5.8.56-12.56,4.43-14,10-.58,2.22.75,6.26.89,8.53C58,134.6,60.67,135.92,64.19,138Z"/><g class="cls-19"><path class="cls-9" d="M51.45,110.7A17.74,17.74,0,0,0,60,119.3a51.41,51.41,0,0,0,5.26,1.88,59.12,59.12,0,0,1,21.89,13.1,14.75,14.75,0,0,0,4.7,3.49,22.35,22.35,0,0,0,4.17.75,15.85,15.85,0,0,1,5.29,1.83,3.54,3.54,0,0,0,2.57.72,3.24,3.24,0,0,0,1.27-.91c1.51-1.52,3.11-3.23,3.3-5.37a7,7,0,0,0-.72-3.47c-1.57-3.53-4.51-6.23-7.47-8.72a52.21,52.21,0,0,0-6.1-4.58,61.61,61.61,0,0,0-8.07-4L73.32,108.5c-2.69-1.17-5.38-2.33-8.17-3.23-4.37-1.41-9.29-2.1-13.45-.15"/></g><path class="cls-20" d="M50.45,114.32a65.12,65.12,0,0,0,13-2.27l-4.81-4c-1.76-1.47-3.52-2.94-5.35-4.33a70,70,0,0,0-12.07-7.33,33.16,33.16,0,0,0,4.75,7.8c2.16,2.4,5,4.13,7.11,6.56-2.66-.41-5.34-.75-8-1a17.49,17.49,0,0,0-3.47-.09l-5.51.62s4.5,2.54,5.28,2.82A24.58,24.58,0,0,0,50.45,114.32Z"/><path class="cls-21" d="M65.65,116.52a110.32,110.32,0,0,0,13.29,3.2c2.21.35,4.44.56,6.6,1.12a31.67,31.67,0,0,1,5.95,2.33,60.61,60.61,0,0,1,8.1,4.81c1.18.83,2.47,1.75,3.92,1.64a4.61,4.61,0,0,0,2.09-.79,7.63,7.63,0,0,0,2-1.82,8.16,8.16,0,0,0,.9-7.35,16.84,16.84,0,0,0-4.23-6.34,37.79,37.79,0,0,0-32.51-10.7,53.14,53.14,0,0,0-7,1.72c-3.47,1.06-7,2.43-9.71,5-.61.58-3.16,3-1.6,3.39,1.87.51,3.67,1.21,5.52,1.82C61.16,115.24,63.41,115.88,65.65,116.52Z"/><g class="cls-22"><path class="cls-23" d="M62.27,109.31a4.3,4.3,0,0,0,1.29-1.53c.55-1.39-.46-2.89-.48-4.38a1.39,1.39,0,0,1,.51-1.23,2.44,2.44,0,0,1,1.27-.2c1,0,2.17-.54,3,.09a2.59,2.59,0,0,1,.71,1.9l.31,3.55a56,56,0,0,0-8.2,7.79c-.72.85-1.62,1.9-2.85,1.78a1.48,1.48,0,0,1-1.36-2,6.56,6.56,0,0,1,2.34-2.73Z"/><path class="cls-23" d="M71.53,111.79A6.43,6.43,0,0,0,74,108.63a7.21,7.21,0,0,0-.15-2.88,24.31,24.31,0,0,1-.3-4.82c0-.29,0-.63.3-.77a.91.91,0,0,1,.59,0l3.91.7a1.62,1.62,0,0,1,1,.45,1.55,1.55,0,0,1,.26.85L80.3,108a5,5,0,0,1,0,1.69c-.35,1.46-1.88,2.24-3.18,3a24,24,0,0,0-5,3.73,19.29,19.29,0,0,1-2.41,2.2,4.27,4.27,0,0,1-3.07.85c-.64-.11-1.88-.72-1.95-1.49s1-1.3,1.56-1.73Z"/><path class="cls-23" d="M84.9,113.62a8.53,8.53,0,0,0,1.65-2.18c.72-1.57.47-3.38.3-5.09-.13-1.28-.21-2.57-.23-3.86,0-.28,0-.63.29-.74a.75.75,0,0,1,.42,0,24.77,24.77,0,0,1,5.25,1.7,2.85,2.85,0,0,1,1,.66,3.06,3.06,0,0,1,.53,1.89l.27,5.62a1.73,1.73,0,0,1-.06.75,1.81,1.81,0,0,1-.54.69l-5,4.69a49.56,49.56,0,0,1-6.49,5.45,3.84,3.84,0,0,1-2.62.86,4.22,4.22,0,0,1-1.7-.89c-.66-.49-2.05-1.23-1.61-2.14s2.17-1.67,2.89-2.26A62.13,62.13,0,0,0,84.9,113.62Z"/><path class="cls-23" d="M89,126.57l2.33-.81A34.52,34.52,0,0,0,97,123.41c.87-.49,1.69-1,2.51-1.61l2.55-1.74a2.89,2.89,0,0,0,1.08-1.06,3,3,0,0,0-.08-2,38.35,38.35,0,0,1-1.24-7.37.59.59,0,0,1,.07-.42.6.6,0,0,1,.43-.18,14.48,14.48,0,0,1,4.31.19,3.2,3.2,0,0,1,1.38.54c.88.69.89,2,.78,3.12a84.9,84.9,0,0,1-1.46,8.82,4.26,4.26,0,0,1-.47,1.45,3.61,3.61,0,0,1-.82.88,27.47,27.47,0,0,1-7,3.84,11.45,11.45,0,0,1-5.56,1.3,11.3,11.3,0,0,1-2.43-.64l-3-1"/></g><path class="cls-9" d="M83.4,97.24a3.69,3.69,0,0,0,2-.37.66.66,0,0,0,.24-.2.68.68,0,0,0-.22-.82,3,3,0,0,0-1.7-.55c-.79-.07-3.37-.4-3.76.57C79.54,97,82.76,97.21,83.4,97.24Z"/><path class="cls-9" d="M81.46,146.5A5.75,5.75,0,0,0,83,148.83c.13.12.32.25.48.16a.33.33,0,0,0,.14-.17,1.81,1.81,0,0,0,.22-.76,3.38,3.38,0,0,0-.15-1.05c-.2-.82-.44-1.63-.71-2.42s-.8-1.68-1.43-.76A3.39,3.39,0,0,0,81.46,146.5Z"/><path class="cls-9" d="M63.21,128.7c-.33,0-.53.36-.64.67a7.3,7.3,0,0,0-.26,4c.19.9.8,1.92,1.72,1.82A1.46,1.46,0,0,0,65.18,134a3.7,3.7,0,0,0-.19-1.77,25.3,25.3,0,0,0-.95-2.78,1.13,1.13,0,0,0-.44-.62c-.23-.12-.59,0-.6.26"/><path class="cls-24" d="M195.84,115.24c1.73-1.3,3.61-1.92,5.34-3.21,1.13-.84,2.17-1.94,3.29-2.81s2.39-1.49,3.47-1.19c2,.54,2.4,3.75,3.68,5.64a5.53,5.53,0,0,1,.8,1.31,5.69,5.69,0,0,1,.23,1.4l.35,4.55a3,3,0,0,1-.15,1.5,2.5,2.5,0,0,1-1.13,1.06c-2.4,1.38-4.85,2.78-7.28,3.14-3.38.5-6.35-1-9.19-2.58-1.25-.67-3.31-.91-2.86-3.29A9.38,9.38,0,0,1,195.84,115.24Z"/><path class="cls-24" d="M204.05,104.55s3.73-5.72-.32-6.76c-3.82-1-2.71,3.86-1.42,6.08C202.75,104.62,204.05,104.55,204.05,104.55Z"/><path class="cls-24" d="M212.77,103.6a1.52,1.52,0,0,0-1.76-.06,3.55,3.55,0,0,0,.34,1.15,1.17,1.17,0,0,0,1,.62.85.85,0,0,0,.76-.51.87.87,0,0,0-.14-.9"/><path class="cls-9" d="M72.74,127.55c-.2,1.79.86,3.46,1.88,5,.44.65,1,1.38,1.81,1.31a1.5,1.5,0,0,0,1.21-1.45,3.59,3.59,0,0,0-.6-1.93C76.52,129.5,73.13,124.21,72.74,127.55Z"/><path class="cls-2" d="M84.12,48.69a3.43,3.43,0,0,0,2.5,1.43c3.74-.2,4.91-10.23,4.26-12.89-.74-3.07-3.81-5.59-6.76-6.42C73.14,27.72,80.85,45.1,84.12,48.69Z"/></svg>