<svg id="Artwork_-_Primary" data-name="Artwork - Primary" xmlns="http://www.w3.org/2000/svg" viewBox="0 0 250 250"><defs><style>.cls-1{fill:none}.cls-2{fill:#efefef}.cls-3{fill:#0c4f60}.cls-4{clip-path:url(#clip-path)}.cls-5{fill:#ffc513}.cls-6{fill:#ffda71}.cls-7{fill:#e59f13}.cls-8{fill:#f22222}.cls-9{fill:#360}.cls-10{fill:#093b47}.cls-11{fill:#116977}.cls-12{fill:#960}</style><clipPath id="clip-path"><ellipse class="cls-1" cx="123.08" cy="122.48" rx="77.37" ry="36.14" transform="rotate(-6.21 122.967 122.411)"/></clipPath></defs><path class="cls-2" d="M67.51 123.26C56.3 115.52 45.85 106 40 93.69s-6.42-27.76 1.24-39c4.41-6.47 11-11 17.18-15.88 9.06-7.14 17.71-15.38 28.66-19a38.9 38.9 0 0 1 24.82.15c7.16 2.48 13.41 7 20 10.77a108.29 108.29 0 0 0 62.32 14c6.09-.5 12.84-1.35 17.74 2.29a19.52 19.52 0 0 1 5.39 7.16 66.73 66.73 0 0 1 5.67 16 39.21 39.21 0 0 1 .74 14.35c-1.07 6.72-4.61 12.94-5 19.74-.3 5.2 1.27 10.35 1.27 15.56 0 9.12-4.92 17.74-11.69 23.86s-15.24 10-23.83 13.07a162.82 162.82 0 0 1-45.87 9.24c-15.13.83-31.74-1-42.6-11.61-7.72-7.51-11.61-18.59-20.28-25M34 98.43a9.39 9.39 0 0 0-2.9-2.54 3.68 3.68 0 0 0-3.69.11c-3.41 2.46-1.41 9.3 1.5 11.39s7.77 1.15 10.61-.4c-.89-3.06-3.52-6.14-5.52-8.56zm-3.1 16.73c3.72-1.72 8.22-1.08 11.78.94a24.21 24.21 0 0 1 8.39 8.78 22.27 22.27 0 0 1 2.56 5.62 15.56 15.56 0 0 1-8.78 17.83 3.12 3.12 0 0 1-1.74.32 3.63 3.63 0 0 1-2-1.53C39.6 145.18 38 143 38 140.57c0-1.58.67-3.13.39-4.68-1-5.8-9.93-4.12-12.62-8.54-2.52-4.13 1.23-10.41 5.13-12.19zm146.89 94.93a51.71 51.71 0 0 0-12.19-2.24l-15.34-1.56c-9.49-1-19-1.93-28.56-1.62a194.26 194.26 0 0 0-21 2.13c-6.7 1-13.44 2-19.85 4.19a27.83 27.83 0 0 0-7.74 3.83c-1.61 1.2-3.13 2.94-2.94 4.94a5.82 5.82 0 0 0 1.11 2.64c2.62 3.83 6.85 6.32 11.27 7.69s9.1 1.73 13.72 2.09c22.29 1.72 44.68 3.43 67 1.66 8.05-.64 16.7-2 22.41-7.74 2.55-2.55 3.9-6.11 1.51-9.1a20.65 20.65 0 0 0-9.4-6.91z"/><path class="cls-3" d="M46.07 129.38c1.17 16.21 3.39 38 9.74 53s18 28.43 33.41 33.45a74.65 74.65 0 0 0 14.62 2.81 177 177 0 0 0 39.25-.22c30.82-3.35 45.91-26.2 47.71-28.95 5.15-7.86 9.24-16.6 10.93-25.84a59.69 59.69 0 0 0 .79-9.15c.4-14-1.06-26.9-2.52-40.32"/><ellipse class="cls-3" cx="123.08" cy="122.48" rx="77.37" ry="36.14" transform="rotate(-6.21 122.967 122.411)"/><ellipse class="cls-3" cx="123.08" cy="122.48" rx="77.37" ry="36.14" transform="rotate(-6.21 122.967 122.411)"/><g class="cls-4"><ellipse class="cls-5" cx="124.49" cy="135.41" rx="72.13" ry="33.69" transform="rotate(-6.21 124.392 135.338)"/></g><path class="cls-6" d="M101.91 129.81a23.87 23.87 0 0 0-2 1.42c-3 1.94-8.27 1.46-12.5 2.33a2.31 2.31 0 0 0-1 .36c-.66.58 1 1 1.08 1.64s-1.5 1.09-2.74 1.24a65.39 65.39 0 0 1-7.25.49c-2.05 0-4.38-.15-5.22-1.11-1-1.11.76-2.66 3-3.35a36.27 36.27 0 0 1 7.1-1c2.4-.23 5-.7 6.55-1.82 1.19-.87 1.57-2 3.06-2.75a12.64 12.64 0 0 1 4.38-.83c3.61-.25 13.14-1.81 15.5.17 2.53 2.11-8.11 2.27-9.96 3.21zm45.6-11.08c-3.81.61-7.61.24-11.44.41-3.52.16-7.35.93-10 3a.44.44 0 0 0 .16.78 22.54 22.54 0 0 0 5.37-.07c3.09-.12 6 .59 9 1.07a60.61 60.61 0 0 0 15.14.49c3.49-.32 10.6-3.11 6.73-6.36-3.42-2.9-10.79.01-14.96.68z"/><path class="cls-5" d="M98 137.9s7.9-5.32 13.65-5.72 3.62-7.75 14.27-8.24 4.08 16.27 4.08 16.27l-17.19 3.21"/><path class="cls-5" d="M123.67 128s6-3.49 11.46-1.25 16-.87 15.66 2.51-4.52 10.52-4.52 10.52l-15.39-2.15"/><path class="cls-3" d="M49.15 129.49s-10.93-16.76-10.94-20.68 9.44-17 12.43-16.38 8 19.86 8 19.86l-3 2.84S52 99.46 50.38 99s-7.68 8.09-7.38 10.81 7 15.3 7 15.3m146.79-11.67s7.08-18.72 6.24-22.55-12.87-14.56-15.66-13.33-3.56 21.12-3.56 21.12l3.55 2.13s.23-16.09 1.67-16.92 9.24 6.28 9.54 9-3.57 16.45-3.57 16.45"/><path class="cls-6" d="M137.33 131.05c-1.92.3-3.72 1-5.64 1.32-2.18.36-4.73.31-6.24 1.46-.27.2-.49.48-.35.71a1 1 0 0 0 .61.31c2.91.72 6.27-.41 9.47-.67 2.93-.24 5.78.25 8.69.3 2.58 0 6.62 0 9.09-.79 2.11-.65 2.47-2 .16-2.36-1.93-.3-4.71.3-6.83.1-2.94-.28-5.89-.85-8.96-.38zm-27.76 3.45a1.42 1.42 0 0 0-.9.47 1.18 1.18 0 0 0 .45 1.59 3.34 3.34 0 0 0 1.8.34c1.29 0 6.65.76 5.78-1.27s-5.7-1.44-7.13-1.13zm-9.7 4.42c.46-.15 1-.59.75-1a.76.76 0 0 0-.42-.32c-.86-.39-3.82-1.08-4.15.38-.37 1.63 2.95 1.22 3.82.94zm10.73-20.35a.83.83 0 0 0-.24.45c0 .31.27.55.54.69a6.53 6.53 0 0 0 3.26.43c1.52-.07 7.25.48 4.72-2.58-1.41-1.7-6.96-.48-8.28 1.01zm-25.35 6.85a5.79 5.79 0 0 0-2.52 0 2.15 2.15 0 0 0-1.16.56 1 1 0 0 0-.17 1.19 1.4 1.4 0 0 0 1.24.41 7.78 7.78 0 0 0 2.69-.63 1.26 1.26 0 0 0 .77-.69c.09-.35-.3-.77-.6-.58m85.88-1.6a1.48 1.48 0 0 0-1.12.6c-.18.38.1.81.53 1a4 4 0 0 0 1.52.35c1.58.13 7 .38 5.89-1.77s-4.89-.45-6.82-.18zm-79.06 24.49c-2 0-4.27-.14-5.93 1.13a1.3 1.3 0 0 0-.5.61c-.25.78.65 1.42 1.4 1.63 4.7 1.35 9.58-.3 14.41-.49a47.48 47.48 0 0 1 4.77.12c1.37.09 2.73.17 4.09.15a57.06 57.06 0 0 0 6.65-.61c11.25-1.48 22.55-3 33.45-6.24a5.18 5.18 0 0 0 2.52-1.33c-1.93-1.13-4.25-.95-6.42-.74l-11.57 1.11c-3.21.32-6.55 1-9.79.75-7.19-.49-13.83.84-20.83 2.31a59.61 59.61 0 0 1-12.25 1.6z"/><path class="cls-7" d="M116.58 126.2a2.58 2.58 0 0 0-.89.67 2.82 2.82 0 0 0-.42 1l-.76 2.7a.76.76 0 0 0 0 .42.58.58 0 0 0 .46.3c1 .2 2-.32 3-.37.66 0 1.32.12 2 .1a1.76 1.76 0 0 0 1.62-.92 1.54 1.54 0 0 1 .17-.42 1.09 1.09 0 0 1 .4-.27 12.22 12.22 0 0 0 1.86-1.06c.35-.23.72-.58.63-1s-.56-.54-.68-.89.13-.89 0-1.37a2.17 2.17 0 0 0-2-1.35c-.72 0-1.38.65-2 1-1.21.51-2.34.89-3.39 1.46z"/><path class="cls-8" d="M160.28 129.5a2.38 2.38 0 0 0-.8.43 1.9 1.9 0 0 0-.45 1.36 5.94 5.94 0 0 0 1.2 3.7 1.21 1.21 0 0 0 .4.38 1.18 1.18 0 0 0 .64.08 4.09 4.09 0 0 0 2.45-1.1c.44-.42.79-.93 1.26-1.31s1.15-.65 1.7-1c1.54-1 2.21-4.05 0-4.72-1.99-.61-4.68 1.52-6.4 2.18z"/><path class="cls-7" d="M71.11 139.62a8.17 8.17 0 0 1 4.23 3.45.31.31 0 0 1 .07.24c0 .1-.12.16-.22.21-2.35 1.12-5.06 1.13-7.66 1a7.88 7.88 0 0 1-4.07-1.06c-.34-.24-.67-.62-.56-1s.39-.47.65-.65c1.27-.86 1.18-2.18 2.73-2.42a9.89 9.89 0 0 1 4.83.23z"/><path class="cls-8" d="M62.76 92.42a1.73 1.73 0 0 0-.9.78 2.31 2.31 0 0 0-.12.78v1.17a1.18 1.18 0 0 0 .15.77 1.06 1.06 0 0 0 .82.34 4.77 4.77 0 0 0 2.85-.72c.87-.55 1.62-2.08 1-3.07s-2.86-.47-3.8-.05z"/><path class="cls-9" d="M98.35 145.45a4.23 4.23 0 0 0 1.94 1.33c.51.2 1 .37 1.53.57a2.46 2.46 0 0 0 .58.19 2 2 0 0 0 .54 0c1.89-.21 4.32-.46 1.69-2.14a6.87 6.87 0 0 0-2.81-1c-.44-.09-3.77.6-3.47 1.05zm67.27-95.88a8.48 8.48 0 0 1 2.53-1.19 3 3 0 0 1 2.65.55c-.65 1.3-2.09 2-3.23 2.86s-3.09 2.85-4.61 1.51c-1.91-1.68 1.54-3.05 2.66-3.73zm-96.47 1.98A3.68 3.68 0 0 0 70.37 53a3.6 3.6 0 0 0 2.57.44 2.29 2.29 0 0 0 1.91-1.64.54.54 0 0 0-.06-.43c-.21-.27-.8-.33-1.32-.35a18.66 18.66 0 0 0-4.28.41"/><path class="cls-5" d="M169.4 102.33c-3.33-.42-6.72 0-10.06-.39-2.7-.31-5.3-1.16-8-1.63-9.07-1.59-18.27 1.22-27.45 2-4 .36-8 .34-12 .53-13.1.6-26.41 3.49-37.34 10.74-2.4 1.59-4.65 3.37-6.9 5.14l-6.23 4.91c-2.24 1.77-4.53 3.59-6 6s-1.85 5-2.62 9.37a75 75 0 0 0 10.23-9.45c11.35-12.27 28.09-17.89 44.38-21.68 12.13-2.82 24.55-4.9 37-4.39s25 3.72 35.3 10.75c2.23 1.53 4.35 3.23 6.61 4.73a7.3 7.3 0 0 0 3.49 1.47c1.27.08 5 2.35 4.48 1.16-1.12-2.79-2-5.31-2.75-6.2-5.2-6.08-13.99-12.02-22.14-13.06z"/><path class="cls-10" d="M160.9 193.67c-7.71 5.73-17 8.73-25.77 12.72-1.2.55-2.61 1.76-1.93 2.88a2.35 2.35 0 0 0 2 .82c11.74.77 23.52-3.06 33.31-9.58a74 74 0 0 0 14.91-13.3c3.73-4.31 9.92-10.79 11.07-16.55.83-4.2-3.26-9.66-7.92-7.8-4.49 1.79-8.25 10.92-11 14.77-4.19 5.93-8.8 11.68-14.67 16.04zm-6.71-8.91a1.45 1.45 0 0 0-.49.91c0 .86 1.27 1 2.07.66a16.7 16.7 0 0 0 5.42-4.09c1.29-1.29 8.81-7.21 3.57-6.56-3.61.45-8.24 6.56-10.57 9.08z"/><path class="cls-11" d="M74.22 103c-8 4.16-15.63 9.41-20.67 16.84-.72 1.06-.81 3.17.46 3a1.81 1.81 0 0 0 .9-.57 103.66 103.66 0 0 1 35.85-22.52 100.67 100.67 0 0 1 10.17-3.19c2.16-.56 8.68-.69 10.16-2.15 1.89-1.87.43-2.92-1.58-3.26-3.15-.52-8.41 1.69-11.47 2.52A119.36 119.36 0 0 0 74.22 103z"/><path class="cls-1" d="M46.23 136.9l.12-.52"/><path class="cls-7" d="M109.4 31.9a.91.91 0 0 0-.63.14.87.87 0 0 0-.23.47l-.68 2.42a1.82 1.82 0 0 0 .06 1.6 1.49 1.49 0 0 0 1.59.33c1.36-.35 2.57-1.44 4-1.31.31 0 .62.11.94.11 1.58 0 3.41-2.06 1.61-3.11s-4.73-.55-6.66-.65zm32.78 73.62a3.79 3.79 0 0 0-.74 1.34c-.32.86-.6 1.73-.84 2.6v.27a.51.51 0 0 0 .28.08c1.63.07 3.42-.31 4.87.14a2.68 2.68 0 0 0 .65.15 1.78 1.78 0 0 0 1.26-.62 5 5 0 0 0 1.18-3.63 1.34 1.34 0 0 0-.19-.94c-1.43-1.82-4.76-1.22-6.47.61z"/><path class="cls-8" d="M100.7 78.33C89.53 82.09 81.41 77 77.34 73.41A1.4 1.4 0 0 1 78.48 71c6.67 1 19.5 2.53 23.2-.33l8.63-7.67 3.08-8.66a4.14 4.14 0 0 1 3.81-2.75l5.75-.15a4.16 4.16 0 0 1 3.85 5.94l-4.41 9.22s-6.79 9.17-9.9 10.15-11.79 1.58-11.79 1.58z"/><path class="cls-9" d="M121.87 48.45s-9 .2-13.57 5.1h9.51l-.07 3.45 7-3.79 4.87 5.19s1.54-3.28-3.27-7.44c-3.06-2.59-4.47-2.51-4.47-2.51z"/><path class="cls-9" d="M122.09 49.59c-.19-1.79-1.43-3.38-1.41-5.18a.54.54 0 0 1 .16-.45.48.48 0 0 1 .26-.06l1.05-.09a.25.25 0 0 1 .17 0c.1 0 .13.17.15.28.34 1.94.25 4 .9 5.85"/><path class="cls-12" d="M223.79 16.23a4.69 4.69 0 0 0-3.95-.62c-2.3.67-5.74 5.4-7.52 7.08l-14.71 13.85c-9.68 9.11-10.33 10-20 19.08-4 3.75-8 7.55-12.78 10.3-.75.44-1.56.89-2.28 1.41 0 0-16.57 5.38-19.49 7.71-1.27 1-8 5-7.79 9.08.29 5.21 8.8 10.15 20.62 5.2 13.47-5.64 17-15.27 17.31-16.29 2.45-4.84 6-9.05 9.6-13.12 14.22-16 20.76-22.62 37.45-36.07a38.66 38.66 0 0 0 4.12-3.65 2.57 2.57 0 0 0-.58-3.96z"/><path class="cls-5" d="M140.55 79.27a4 4 0 0 0-.94.61c-1.16 1.11-.74 3-.22 4.55a1.52 1.52 0 0 0 1.82 1.34c2.86 0 5.7-.33 8.55-.63a20.45 20.45 0 0 0 5.7-1.18 19.1 19.1 0 0 0 4.06-2.55q5.05-3.85 9.79-8.11c.32-.29.67-.65.63-1.08s-.52-.78-1-1c-4-1.69-9.74.75-13.68 1.94a80.35 80.35 0 0 0-14.71 6.11z"/><path class="cls-7" d="M161 73.38l-1.85 1a4.16 4.16 0 0 0-1.21.9 1.32 1.32 0 0 0 1.47 2.17 3.75 3.75 0 0 0 1.7-1.33c.48-.58.93-1.4.53-2-.08-.12-.18-.23-.27-.34"/><path class="cls-6" d="M146.64 79.4a1.5 1.5 0 0 0-1 .72c-.14.4.19.8.65 1a3.74 3.74 0 0 0 1.54.18c1.59 0 7-.4 5.66-2.42s-4.96.03-6.85.52z"/><path class="cls-5" d="M152 89.94c1.4 2.6.58 6 1.91 8.59a.94.94 0 0 0 .43.49.73.73 0 0 0 .82-.27 2.08 2.08 0 0 0 .32-.87 78.46 78.46 0 0 0 1.28-8.36 2.26 2.26 0 0 1 .55-1.54 2.91 2.91 0 0 1 .8-.42 5.31 5.31 0 0 0 3.12-5.56 1.8 1.8 0 0 0-.34-.9 1.69 1.69 0 0 0-1-.55 6.1 6.1 0 0 0-3.71.56c-1.5.61-2.92 1.39-4.45 1.91a10.59 10.59 0 0 1-2.41.52c-.56 0-1.18-.09-1.57.41-.82 1 .52 2.17 1.2 2.75a11.94 11.94 0 0 1 3.05 3.24z"/><path class="cls-2" d="M170.79 36.86c13.45-.41 3.77-18.37-6.27-17-4.79.64-10.81 4.48-8 9.68 2.6 4.76 9.05 7.46 14.27 7.32z"/><path class="cls-7" d="M88.51 112a3.19 3.19 0 0 0-1.11.07 3.13 3.13 0 0 0-1.16.78 18.45 18.45 0 0 0-4.34 6.53 1.37 1.37 0 0 0 0 1.33 1 1 0 0 0 .57.3c1.07.24 2.11-.46 3.2-.65 1.26-.23 2.56.23 3.83 0 2.59-.44 4-3.44 6.48-4.32.79-.28 1.77-.41 2.16-1.15 1.38-2.57-8.38-2.81-9.63-2.89z"/></svg>