<svg viewBox="0 0 250 250" xmlns="http://www.w3.org/2000/svg" xmlns:xlink="http://www.w3.org/1999/xlink"><clipPath id="a"><path d="m48 122.23c19.61 10.25 34.26 15 55.91 16.57 29.9 2.17 51.94 10.87 78.88 5.65 8.67-1.68 17.5-5 23.89-12a8.77 8.77 0 0 0 2.11-3.34 8.59 8.59 0 0 0 -.65-5.61c-2.74-6.62-8.78-10.5-14.64-13.52-39.5-20.38-85.2-19.47-128.5-12.52-6.25 1-12.92 2.36-17.51 7.38a14.31 14.31 0 0 0 -3.89 9.16c-.07 3.45 1.61 7 4.39 8.25"/></clipPath><clipPath id="b"><path d="m166 50.68c-2.85.83-5.89.31-8.84 0a81.92 81.92 0 0 0 -18.91-.1 15.86 15.86 0 0 0 -4.67 1.06 16.14 16.14 0 0 0 -4.74 3.7 116.58 116.58 0 0 0 -8.36 9.55c-2 2.49-3.88 5.22-4.22 8.37-.39 3.67 1.43 7.21 3.63 10.17 4.28 5.77 10.12 10.23 16.34 13.84s12.85 6.41 19.37 9.43c7.53 3.48 15.12 7.29 23.36 8.29a7.81 7.81 0 0 0 4-.31 8.22 8.22 0 0 0 2.67-2.18c7.65-8.45 13.56-19.57 12-30.86a15.47 15.47 0 0 0 -1.16-4.3c-1.14-2.49-3.16-4.44-5.13-6.33l-11.52-11c-2.24-2.15-4.64-4.67-4.61-7.77 0-1.28.45-2.52.56-3.8.26-3.33-1.56-3.56-3.59-1.66a15.7 15.7 0 0 1 -6.18 3.9z"/></clipPath><clipPath id="c"><path d="m86.67 82.18c-1.26 2.69-3.64 4.63-5.86 6.61a82.32 82.32 0 0 0 -12.53 14.21 15.42 15.42 0 0 0 -2.28 4.17 15.9 15.9 0 0 0 -.34 6 118.33 118.33 0 0 0 1.67 12.58c.59 3.11 1.38 6.36 3.53 8.69 2.49 2.71 6.36 3.67 10 4 7.16.58 14.36-.88 21.16-3.18s13.3-5.44 19.86-8.36c7.59-3.37 15.45-6.57 21.63-12.11a7.86 7.86 0 0 0 2.42-3.22 8.18 8.18 0 0 0 .11-3.45c-1.31-11.32-5.78-23.1-15.31-29.35a15.23 15.23 0 0 0 -4-2c-2.61-.78-5.41-.55-8.14-.31l-15.88 1.39c-3.1.27-6.58.42-8.89-1.65-1-.85-1.6-2-2.49-2.92-2.33-2.4-3.7-1.18-3.61 1.6a15.77 15.77 0 0 1 -1.05 7.3z"/></clipPath><path d="m153.16 35.21a15.1 15.1 0 0 1 6.81.88 8.24 8.24 0 0 1 4.76 4.76c1.15 3.41-.73 7.28-3.62 9.43s-6.57 2.9-10.15 3.32c-4.67.56-19.59 1.4-16.53-7.07 2.57-6.96 11.98-10.83 18.73-11.32z" fill="#efefef"/><path d="m64.1 149.76c-11.75-4.24-20.9-14.35-25.4-26s-4.63-24.76-1.92-36.92 8.51-24.2 17.88-32.63a49.13 49.13 0 0 1 40.23-11.8c13.93 2.29 26.4 10.56 40.39 12.41 20.34 2.69 41.95-8.41 60.94-.63 14.22 5.82 23 22.64 19.55 37.63-2.08 9.14-8 17-10.25 26.14-3.57 14.29 2.15 30-2.7 43.87-3.34 9.57-11.4 17-20.53 21.37s-19.3 6.15-29.38 7.23a201.19 201.19 0 0 1 -29.24 1.12c-8.46-.33-17.35-1.46-24.12-6.53-5.77-4.32-9.26-10.94-12.57-17.33" fill="#efefef"/><path d="m122 219.48c26.31-2.58 53-3.56 78-14.14 7.7-3.25 21.45-14.47 20.55-19.4s-15.37-6.28-21.92-7.24c-23.3-3.41-46.67-.48-70 .64-19.61.94-39.34.61-58.78 4.1-8.39 1.51-16.62 4.09-25 6.06-6.11 1.46-18.7 2.48-18.36 9.39s48.24 25.22 95.51 20.59z" fill="#efefef"/><path d="m30.7 174.72c.87 2.75 41.43 21.69 91.11 26.11s89.8-9.23 91.09-11.62 4.7-45.61 3.55-47.16-11-6.58-18.83-9.28c-37.16-12.75-74.69-16.42-114-15.37-10.72.29-21.91-.56-32.27 2.24-5.52 1.49-14.54 3.38-15.8 4.94s-2.24 15.16-3.07 24.1c-.11 1.63-2.66 23.32-1.78 26.04z" fill="#ec2044"/><path d="m208.13 123.47c-2.74-6.62-8.78-10.5-14.64-13.52-39.49-20.35-85.19-19.44-128.49-12.49-6.25 1-12.92 2.36-17.51 7.38a14.31 14.31 0 0 0 -3.89 9.16c-.07 3.45 1.61 7 4.39 8.25 19.61 10.25 34.26 15 55.91 16.57 29.9 2.17 51.94 10.87 78.88 5.65 8.67-1.68 17.5-5 23.89-12a8.77 8.77 0 0 0 2.11-3.34 6.37 6.37 0 0 0 .17-.87 9.45 9.45 0 0 0 -.82-4.79z" fill="#ea5757"/><g clip-path="url(#a)"><path d="m112.93 121.57c26.25 1.05 52.57 4.94 77.22 14 4.95 1.82 9.93 3.92 13.83 7.47a7.21 7.21 0 0 1 2.16 2.92 7.63 7.63 0 0 1 .07 3.65 26 26 0 0 1 -4.08 10.7c-5.66 8.15-16.26 11.14-26.13 12.19-20.52 2.2-41.16-1.49-61.72-3.38-19.76-1.82-40.55-2.23-57.77-12.09-6.08-3.48-9.22-7.82-8-14.93.67-4.11 1.91-8.25 5-11.2 7.65-7.28 23.09-8.11 32.84-9a213 213 0 0 1 26.58-.33z" fill="#0c4f60"/></g><path d="m166 50.68c-2.85.83-5.89.31-8.84 0a81.92 81.92 0 0 0 -18.91-.1 15.86 15.86 0 0 0 -4.67 1.06 16.14 16.14 0 0 0 -4.74 3.7 116.58 116.58 0 0 0 -8.36 9.55c-2 2.49-3.88 5.22-4.22 8.37-.39 3.67 1.43 7.21 3.63 10.17 4.28 5.77 10.12 10.23 16.34 13.84s12.85 6.41 19.37 9.43c7.53 3.48 15.12 7.29 23.36 8.29a7.81 7.81 0 0 0 4-.31 8.22 8.22 0 0 0 2.67-2.18c7.65-8.45 13.56-19.57 12-30.86a15.47 15.47 0 0 0 -1.16-4.3c-1.14-2.49-3.16-4.44-5.13-6.33l-11.52-11c-2.24-2.15-4.64-4.67-4.61-7.77 0-1.28.45-2.52.56-3.8.26-3.33-1.56-3.56-3.59-1.66a15.7 15.7 0 0 1 -6.18 3.9z" fill="#ffcf8f"/><path d="m162.77 67.23a8.74 8.74 0 0 0 1.86-2 7.88 7.88 0 0 0 .8-1.92 38.65 38.65 0 0 0 1-3.81c-4.43 2.5-7.62 6.84-10.08 11.31-.33.59-1.37 2.46-.51 3s1.63-1.18 2-1.7a31.67 31.67 0 0 1 4.93-4.88z" fill="#dba17b"/><path d="m148.61 56.74a15.52 15.52 0 0 0 -8.07 4.59c.57 1 2 .93 3.14.65a28.41 28.41 0 0 0 3.36-1 22.87 22.87 0 0 1 3.26-1.13c1.11-.24 8.2-.5 7.47-2.92-.43-1.49-7.87-.47-9.16-.19z" fill="#dba17b"/><path d="m173 76.29c.09 1.3.43 2.89 1.69 3.24a.82.82 0 0 0 .49 0 .9.9 0 0 0 .39-.25 3.33 3.33 0 0 0 .83-2.47c0-.89-.2-1.77-.24-2.66-.05-1.5.35-3-.1-4.49-.37-1.18-1.27-2.13-1.67-3.3-.34-1-.29-3.12-1.49-3.28-.83 4.09-.18 9.07.1 13.21z" fill="#dba17b"/><path d="m185.26 75.88c.74 1.89 1.58 4 3.46 4.78.52-.57.22-1.47-.11-2.17l-2.32-4.94c-.26-.55-.52-1.11-.83-1.63a7.88 7.88 0 0 0 -2.52-2.76c-.94 1.38 1.75 5.28 2.32 6.72z" fill="#dba17b"/><g clip-path="url(#b)"><path d="m111.2 77.47c9.43 2.81 18.87 5.62 28 9.35 4 1.62 7.9 3.42 12.11 4.24 2.54.49 5.14.62 7.67 1.19a46.11 46.11 0 0 1 5.44 1.75c4.2 1.54 8.4 3.08 12.43 5 2.77 1.31 5.5 2.81 8.49 3.46 2.09.45 4.26.48 6.31 1.08 3.42 1 6.17 3.48 8.8 5.88.61.56 1.28 1.27 1.15 2.09a2.23 2.23 0 0 1 -.67 1.15c-3.25 3.54-8.32 5-11.45 8.66a16.31 16.31 0 0 1 -2.22 2.47 8.21 8.21 0 0 1 -3.33 1.32c-8.48 1.8-17.3-.2-25.5-3a131.54 131.54 0 0 1 -24-11c-12.86-7.53-25-18-29.46-32.25" fill="#dba17b"/></g><path d="m86.67 82.18c-1.26 2.69-3.64 4.63-5.86 6.61a82.32 82.32 0 0 0 -12.53 14.21 15.42 15.42 0 0 0 -2.28 4.17 15.9 15.9 0 0 0 -.34 6 118.33 118.33 0 0 0 1.67 12.58c.59 3.11 1.38 6.36 3.53 8.69 2.49 2.71 6.36 3.67 10 4 7.16.58 14.36-.88 21.16-3.18s13.3-5.44 19.86-8.36c7.59-3.37 15.45-6.57 21.63-12.11a7.86 7.86 0 0 0 2.42-3.22 8.18 8.18 0 0 0 .11-3.45c-1.31-11.32-5.78-23.1-15.31-29.35a15.23 15.23 0 0 0 -4-2c-2.61-.78-5.41-.55-8.14-.31l-15.88 1.39c-3.1.27-6.58.42-8.89-1.65-1-.85-1.6-2-2.49-2.92-2.33-2.4-3.7-1.18-3.61 1.6a15.77 15.77 0 0 1 -1.05 7.3z" fill="#fff5ca"/><path d="m97 95.51a8.73 8.73 0 0 0 -.26-2.7 8 8 0 0 0 -.92-1.88 37.1 37.1 0 0 0 -2.23-3.23c-1 5 .13 10.2 1.88 15 .22.63 1 2.65 1.93 2.37s.18-2 0-2.63a31.52 31.52 0 0 1 -.4-6.93z" fill="#e2b283"/><path d="m79.85 99.41a15.62 15.62 0 0 0 -1.85 9.11c1.13.23 2-.92 2.57-1.94a31.79 31.79 0 0 0 1.43-3.22 22.76 22.76 0 0 1 1.29-3.2c.55-1 5-6.5 2.73-7.54-1.4-.62-5.53 5.64-6.17 6.79z" fill="#e2b283"/><path d="m110.57 93.76c1 .79 2.46 1.58 3.55.87a.9.9 0 0 0 .34-.36.93.93 0 0 0 .07-.46 3.31 3.31 0 0 0 -1.31-2.25c-.68-.58-1.47-1-2.16-1.58-1.17-.94-2.07-2.27-3.45-2.88-1.13-.5-2.44-.44-3.58-.91-.94-.39-2.54-1.84-3.45-1 2.5 3.28 6.68 6.07 9.99 8.57z" fill="#e2b283"/><path d="m118.32 84.29c1.9.69 4.07 1.46 5.87.54-.08-.76-1-1.13-1.7-1.35l-5.25-1.48c-.58-.16-1.17-.33-1.77-.44a8 8 0 0 0 -3.74.08c.42 1.59 5.13 2.13 6.59 2.65z" fill="#e2b283"/><g clip-path="url(#c)"><path d="m55.09 127.42c7.28 1.61 14.83 0 22.29-.27 7-.21 14.06.82 20.82-.88 5.43-1.36 10.3-4.41 15.68-5.94 3-.83 6-1.2 9-2.08 8.57-2.59 15.26-9.3 23.4-13 1.18-.54 2.63-1 3.71-.28a3.28 3.28 0 0 1 1.11 1.5c2.08 4.85-.56 10.36-3.47 14.76-9.53 14.41-22.72 26.15-37.26 35.47-6.45 4.14-13.4 7.9-21 8.89a23.06 23.06 0 0 1 -6.79 0 26.88 26.88 0 0 1 -8.46-3.27c-12.35-6.94-21.85-19.81-22.36-34" fill="#e2b283"/></g><path d="m209 128.25s0 0 0 0a6.37 6.37 0 0 1 -.17.87 8.77 8.77 0 0 1 -2.11 3.34c-6.39 7-15.22 10.35-23.89 12-26.94 5.22-49-3.48-78.88-5.65-21.65-1.57-36.3-6.32-55.91-16.57-2.78-1.28-4.46-4.8-4.39-8.25-.33 6.55-.73 10.66-1.06 17.21 13 11.68 51.52 22.86 73.36 25.12 14.89 1.54 29.74 3.83 44.73 3.87s30.27-2.26 44.27-9.53a4.54 4.54 0 0 0 1.8-1.38 6.64 6.64 0 0 0 .87-2.76c.64-4.29.64-13.99 1.38-18.27z" fill="#9e1c4c"/><g fill="#ff6161"><path d="m148.5 169a49.8 49.8 0 0 0 -9.38.08c.32 1.41 2.14 1.74 3.58 1.79 18.83.55 38.11 1 56-4.86 3.31-1.1 6.9-2.41 10.18-1.21.51.2 1.09.59 1 1.14s-.55.72-1 .89c-12.1 4.94-25.42 5.83-38.47 6.44-2.64.12-5.46.3-7.59 1.87 7.38.28 14.77-.18 22.14-.63 8.72-.54 17.82-1.19 25.3-5.7 1.61-1 3.32-2.74 2.56-4.46s-3.34-2.23-3.23-4c0-.12-12 3.2-12.78 3.39a161.26 161.26 0 0 1 -15.81 3.34 159.56 159.56 0 0 1 -32.5 1.92z"/><path d="m118.85 176.55c-8.68-1.41-17.29-3.69-26.08-3.63 6.45 3 13.62 3.84 20.66 4.69l13.68 1.66c12.27 1.49 24.71 3 36.94 1.21 1.58-.23 2.19-1 .84-1.78-1.2-.69-4.95.05-6.38.06-4.45 0-8.91.05-13.37 0a188.19 188.19 0 0 1 -26.29-2.21z"/><path d="m39.18 141.89c4.34 5.71 13.73 5.27 18.24 10.84q-6.42-2.25-12.92-3.92c-.54.7.43 1.56 1.24 1.91a115.54 115.54 0 0 0 19.37 6.28 23.67 23.67 0 0 0 -3.58-3.2l19.9 5.74c1.33.38 2.83.74 4 0 .78-.47-4-2.2-4.29-2.27-1.87-.38-3.75-.66-5.6-1.15a81 81 0 0 1 -12.18-4.44c-7.95-3.45-15.7-7.61-24.18-9.79z"/><path d="m38.1 164.64c-.18-1 1.33-1.2 2.3-1l22 5.58c-.72-1.7-2.61-2.55-4.34-3.2a150.65 150.65 0 0 0 -18.36-5.6c-1.21-.29-2.6-.53-3.62.18-1.33.93-1.25 3.05-.26 4.34a9.06 9.06 0 0 0 4.06 2.55l20.75 8.3c-.89.84-2.31.58-3.5.27l-17.61-4.65c-.37.69.56 1.33 1.29 1.56q17.73 5.63 35.6 10.74c.28-.52-.37-1-.91-1.28l-12.08-5.33c5.82.48 11.26 2.71 16.75 4.5 2.43.8 13.58 4.92 14.75 1.2-8.18-2.88-16.83-4.94-25.13-7.56q-8-2.53-16-5.21c-2.66-.89-5.32-1.8-8-2.71-.88-.32-7.56-1.99-7.69-2.68z"/><path d="m143.69 190.54c-4.34-.35-8.8-.89-13 .39 2.43-.75 8.57 1.36 11.23 1.61 3.77.34 7.55.51 11.34.57 7 .11 16.17 1.2 22.91-.59 3-.8 3.73-1.79.63-2.68-2.73-.78-7.07.62-9.91.82a150.26 150.26 0 0 1 -23.2-.12z"/><path d="m190.25 182.64-11.72 1.09c-.89.08-2 .31-2.24 1.16 4.46.71 20.88 2.64 23.38-1.92-2.17-1.49-6.79-.58-9.42-.33z"/></g><path d="m211.05 120.41a7.57 7.57 0 0 1 1-4.7 5.48 5.48 0 0 1 2.09-1.63 7.14 7.14 0 0 1 6.55.12 5.5 5.5 0 0 1 2.61 5.8c-.61 2.52-3 3.9-4.27 6-1.15 1.83-1.19 5.2-3.46 6.09-4.96 1.91-4.45-8.93-4.52-11.68z" fill="#efefef"/><path d="m112.66 38.45a7.37 7.37 0 0 1 -3.09-3.9 3.74 3.74 0 0 1 .28-3 3.87 3.87 0 0 1 2.38-1.55 8.2 8.2 0 0 1 5.43.7 19.75 19.75 0 0 1 4.54 3.23c1.81 1.63 7.23 7.73 2.39 8.87-3 .68-9.59-2.8-11.93-4.35z" fill="#efefef"/></svg>