<svg viewBox="0 0 250 250" xmlns="http://www.w3.org/2000/svg" xmlns:xlink="http://www.w3.org/1999/xlink"><clipPath id="a"><path d="m76.29 148.72a319.7 319.7 0 0 0 -44.2-7c.28 4.69.78 10 4 13.38a21.31 21.31 0 0 0 5.33 3.77 43.12 43.12 0 0 0 9 3.9 20.69 20.69 0 0 0 9.86.53c6.68-1.4 13.43-8.49 16-14.59"/></clipPath><clipPath id="b"><path d="m104.36 75.45a6.27 6.27 0 0 1 1.76-2.82 6.16 6.16 0 0 1 2.73-.92l12.69-2.19a1 1 0 0 1 .67.06.91.91 0 0 1 .3.7c.25 2.15 1.55 6 .39 8-.7 1.21-6.57 6.06-9.88 7.53a32.61 32.61 0 0 1 -6.42 2.19c-1.36.29-5.27 1.19-6.47.19s.93-4.43 1.39-5.59z"/></clipPath><clipPath id="c"><path d="m99.84 178.52a260 260 0 0 1 29.54-18.58c1.34 3.19 2.7 6.82 1.49 10.12a15.53 15.53 0 0 1 -2.6 4.17 33.49 33.49 0 0 1 -5.18 5.41 17.31 17.31 0 0 1 -6.93 3.47c-5.27 1.18-12.46-1.38-16.32-4.59"/></clipPath><g fill="#efefef"><path d="m180.89 74.33c.47-4.23-3.75-7.64-4.14-11.87-.34-3.56 2.09-6.79 2.56-10.33.85-6.47-5.6-12.3-12.12-12.37s-12.43 4.28-16.06 9.7c-6.77 10.12-9.42 26.77.59 35.77 4.33 3.89 9.68 4.06 14.88 1.88 4.67-1.96 13.68-7.11 14.29-12.78zm14.67 3.81a10.7 10.7 0 0 0 -5.32 2.51c-3.14 3.06-2.54 8.56.22 12a9.09 9.09 0 0 0 6.25 3.55 8.28 8.28 0 0 0 6.77-3.2 12.86 12.86 0 0 0 2.58-7.23c.38-6-5.23-8.77-10.5-7.63z"/><path d="m143.11 190.5a99.53 99.53 0 0 0 44.89-42.63c3.88-7.22 6.87-15 7.83-23.15.83-7.08-.26-15-5.56-19.8-5.6-5-14-5-21.51-4-13.07 1.72-26.17 5.4-39.23 3.62-5.67-.78-11.81-3.11-14.14-8.33-3.15-7.06 2.18-14.74 6.46-21.18a93.84 93.84 0 0 0 11.22-23.43c2.08-6.62 3.39-14 .69-20.38s-9.29-10.86-16.19-12.35-14.1-.48-20.93 1.32a93.07 93.07 0 0 0 -55.89 42.35c-6.69 11.46-10.88 24.61-10.23 37.85s6.48 26.47 16.98 34.61c7 5.46 16.33 9 20.24 17 4.62 9.48-.35 21.08 2.47 31.24 1.79 6.46 6.7 11.76 12.55 15.06s12.59 4.7 19.24 5.18a76.32 76.32 0 0 0 46.38-11.89"/><path d="m63.55 214.91a2.46 2.46 0 0 1 .71.39 25.16 25.16 0 0 0 6.47 3.46c29.78 12.18 63.07 16.74 94.52 9.93 5.82-1.26 11.62-2.93 16.71-6.06a3.6 3.6 0 0 0 1.32-1.39c.75-1.46 0-2.42-.9-3.17a22.85 22.85 0 0 0 -7.54-4.24c-10.77-3.67-22.09-5.09-33.27-6.85-10.33-1.63-20.68-3.09-31.08-4.19-11.29-1.19-22.75-1.92-34-.15a24.38 24.38 0 0 0 -9.66 3.21 11.28 11.28 0 0 0 -4.78 6.34 2.26 2.26 0 0 0 1.48 2.72z"/></g><path d="m211.46 150a16.22 16.22 0 0 0 -4.52-5.74c-13.9-12.43-33-17.36-51.57-19a183.94 183.94 0 0 0 -109.16 24.74c-4.74 2.81-9.61 6.14-11.68 11.24a14.6 14.6 0 0 0 -.71 8.14 21 21 0 0 0 6.34 11.25c11.65 10.83 34.91 15.53 50.48 14.7 19.82-1.06 39.69-1.54 59.29-5a185.89 185.89 0 0 0 33.53-8.93c10.71-4 21.67-9.9 26.77-20.14a18 18 0 0 0 1.89-6.26v-.1a10.63 10.63 0 0 0 -.66-4.9z" fill="#0c4f60"/><path d="m103.71 169a79.92 79.92 0 0 1 -22.84-7.32c-6-3-12.09-7.34-13.68-13.85-.17-.71-.21-1.62.42-2a1.91 1.91 0 0 1 1.61.09l3.94 1.44c-5.08-3.8-8.06-9.74-10.47-15.6-1.92-4.65-3.62-9.68-2.63-14.61a4.73 4.73 0 0 1 1.94-3.29c1.65-1 3.76 0 5.31 1.11 7.4 5.37 11.13 14.52 17.93 20.63-1.5-5.31-3-11.11-.87-16.21.64-1.55 1.84-3.11 3.52-3.2s3 1.33 4.08 2.67a63.82 63.82 0 0 1 9.29 16.86 16.47 16.47 0 0 1 4.2-6.67 2.42 2.42 0 0 1 1.16-.72c.87-.14 1.61.65 2 1.42 2.71 4.89.1 11.14 1.66 16.51 3.48-.13 5.76-4.46 9.24-4.44a2.29 2.29 0 0 1 1.28.35 3 3 0 0 1 .93 1.34 18.77 18.77 0 0 1 -5 21.11c-1.78 1.51-4.12 2.71-6.37 2.14" fill="#519600"/><path d="m127.6 168.7a13.39 13.39 0 0 0 -1.47-7.6 64.21 64.21 0 0 1 -7.13-30.57c.07-3.66.57-7.59 3-10.29 1.31-.28 2.25 1.22 2.76 2.47l3.25 8.07c1.29-2 1.4-4.49 1.64-6.85a49.57 49.57 0 0 1 5-17.12 15.17 15.17 0 0 1 4.07-5.46 3.1 3.1 0 0 1 2.21-.69c1.63.21 2.1 1.79 2.34 3.17 1 6 .38 12-.24 18a24.11 24.11 0 0 1 12.07-15.83c1.08-.58 2.39-1.09 3.48.18a3 3 0 0 1 .65 2.15c-.34 4.54-1.87 8.87-3.39 13.14l-2.33 6.53a49.52 49.52 0 0 1 12-6.94 2.93 2.93 0 0 1 2.74.25c1.56 1.11.92 2.89.24 4.28a89.49 89.49 0 0 1 -7.6 12.69c1.77.86 3.73-.53 5.62-1.1a2.56 2.56 0 0 1 1.81 0 2.18 2.18 0 0 1 1.09 2.21 6.07 6.07 0 0 1 -1 2.42 65.2 65.2 0 0 1 -7.18 9.84 4.78 4.78 0 0 0 -1.44 2.48 21.82 21.82 0 0 0 .23 2.27c0 1.52-1.13 2.78-2.23 3.84a68.07 68.07 0 0 1 -20.09 13.26 10.84 10.84 0 0 1 -4.47 1.14 6.07 6.07 0 0 1 -5.67-5.63z" fill="#67ad39"/><path d="m51.73 164.86a238 238 0 0 0 -20.14-16.72 28.11 28.11 0 0 1 -4.95-4.06 8.22 8.22 0 0 1 -2.3-5.81 1.63 1.63 0 0 1 .25-.86 1.52 1.52 0 0 1 1.25-.47c2.75 0 5.24 2.08 8 1.8-2.51-3.77-4.68-7.9-4.34-12.69a9.88 9.88 0 0 1 1.5-4.56 5.52 5.52 0 0 1 1.89-1.95 5.14 5.14 0 0 1 5.16.44 15 15 0 0 1 3.76 3.9l3.26 4.33a6.33 6.33 0 0 1 1-2.16 2.11 2.11 0 0 1 2.11-.82 1.84 1.84 0 0 1 .69.4 8 8 0 0 1 2.43 5.27l1.12 11.43c0 .38.15.85.53.92a.89.89 0 0 0 .64-.24 16.27 16.27 0 0 1 3.69-2.3 4.69 4.69 0 0 1 4.2.19 4.58 4.58 0 0 1 1.86 3.37 13.79 13.79 0 0 1 -.32 3.94l-1.11 6.12c1-.29 2-.89 3-1.16a2.54 2.54 0 0 1 2.87.89 3.11 3.11 0 0 1 .06 2.25c-.8 3.43-4.49 9.27-7.28 13.12a2.48 2.48 0 0 1 -3.71.33z" fill="#519600"/><path d="m69.23 196.7c-4.3-1.79-8.6-3.76-12.21-6.71s-6.49-7-7.14-11.64a1.86 1.86 0 0 1 .07-1.1 1.78 1.78 0 0 1 .87-.72c2.9-1.37 6.37-.39 9.26 1s5.68 3.25 8.87 3.63a34.25 34.25 0 0 1 -2.52-13c0-1.63.45-3.67 2-4a3.52 3.52 0 0 1 2.94 1.23c4.9 4.61 6.65 11.74 11.14 16.74a1.18 1.18 0 0 0 .86.5c.53 0 .72-.72.81-1.24a12.14 12.14 0 0 1 8.82-9.47 5.17 5.17 0 0 1 2.89 0 4.42 4.42 0 0 1 2.61 3 13.27 13.27 0 0 1 .28 4.13l-.23 6.06a21.37 21.37 0 0 1 12.12-7.45 2.94 2.94 0 0 1 2.42.25c1.08.87.56 2.59 0 3.83l-2.8 5.65 6.27-2a6.32 6.32 0 0 1 2.7-.44 2.14 2.14 0 0 1 1.91 1.71 2.89 2.89 0 0 1 -.78 1.91c-4.41 5.86-11.66 8.83-18.75 10.67-8.25 2.14-17.44 3-24.91-1.08zm108.63-32.56a46.07 46.07 0 0 1 6.67-19.31c1.68-2.69 3.81-5.34 6.79-6.43a1.64 1.64 0 0 1 1.61.06 1.7 1.7 0 0 1 .41 1.28 20.21 20.21 0 0 1 -.81 6.23 46.13 46.13 0 0 1 18.05-18.84 16.36 16.36 0 0 1 3.06-1.35 5.12 5.12 0 0 1 2.62-.3 2.12 2.12 0 0 1 1.69 1.64 3.26 3.26 0 0 1 -.65 2q-3.06 5.11-6.39 10.06c3.8-2.55 7.82-5.07 12.36-5.67.83-.11 1.85-.06 2.26.68s-.2 1.75-.81 2.44l-5.91 6.73 3.7-.09c.78 0 1.77.09 2 .83a1.64 1.64 0 0 1 -.18 1.2c-.93 1.94-2.8 3.24-4.62 4.39a100.47 100.47 0 0 1 -11.95 6.46c1.22-.43 2.33 1.22 1.95 2.45s-1.59 2-2.7 2.66l-11.01 6.51-2.27 1.34-1 .58a101.85 101.85 0 0 1 -17.52 8.09 2.22 2.22 0 0 1 -2.68-3.13z" fill="#67ad39"/><path d="m86.39 140.07a6.07 6.07 0 0 0 -1.1 4.86 12 12 0 0 0 2.1 4.64 23.61 23.61 0 0 0 10.94 8.61 15.43 15.43 0 0 0 9.11.9 9.23 9.23 0 0 0 6.71-5.84 9.53 9.53 0 0 0 -1.82-8.41 18.19 18.19 0 0 0 -7.12-5.26 26.88 26.88 0 0 0 -13.29-2.57 7.47 7.47 0 0 0 -4.77 2.3z" fill="#3e6d00"/><path d="m86.88 143.37a7.84 7.84 0 0 0 1.55 2.48 41.44 41.44 0 0 0 7.26 6.33 38.34 38.34 0 0 0 5.36 3.47 14.17 14.17 0 0 0 6.12 1.66 5.08 5.08 0 0 0 3-.72 6.72 6.72 0 0 0 1.84-2.34 10.2 10.2 0 0 0 1.11-2.45 6.54 6.54 0 0 0 -1.6-5.65 16.83 16.83 0 0 0 -2.59-2.32q-2-1.53-4.06-3a17.75 17.75 0 0 0 -3.73-2.14 17 17 0 0 0 -4.76-.89 18.94 18.94 0 0 0 -3.45-.05 11 11 0 0 0 -5 1.82 3 3 0 0 0 -1.05 3.8z" fill="#7acc46"/><path d="m93.37 142.08a2.15 2.15 0 0 0 -.54 1.7 4.34 4.34 0 0 0 1.94 2.56l3.2 2.52a36.13 36.13 0 0 0 4.25 3 12.18 12.18 0 0 0 4.91 1.69c.64.06 1.43 0 1.69-.63a1.52 1.52 0 0 0 -.28-1.36 12.25 12.25 0 0 0 -1.13-1.45 37.33 37.33 0 0 0 -8.68-7.78 5.5 5.5 0 0 0 -3-.94c-.88.06-1.68-.07-2.36.69z" fill="#85db4d"/><path d="m99.21 146.34c.19 0 .45-.12.41-.31a.31.31 0 0 0 -.13-.17c-.4-.36-2.16-1.41-2.59-.68-.59 1.01 1.86 1.19 2.31 1.16zm1.23 5.08c.24.08.42-.2.54-.42.27-.47 1.66-2.31.2-2.14-.88.14-1.44 2.33-.74 2.56zm2.42-3.42a4.53 4.53 0 0 0 .86.89 2.57 2.57 0 0 0 1.86.84h.09c.02 0 0-.06 0-.1a1.34 1.34 0 0 0 -.35-.92 3.15 3.15 0 0 0 -.79-.61 6 6 0 0 0 -1.34-.8c-.45-.11-.59.26-.33.7zm-3.4-6.2a.51.51 0 0 1 .22-.42c.18-.08.39.07.52.23.33.4 1.11 2 .36 2.23-.97.36-1.15-1.56-1.1-2.04zm6.06 3.05a.61.61 0 0 0 -.31-.62c-.55-.34-2.27-.35-1.76.66.34.68 1.87.82 2.07-.04z" fill="#c4e8dd"/><path d="m63.68 117.74a6.08 6.08 0 0 0 4 3 12 12 0 0 0 5.1 0 23.75 23.75 0 0 0 12.34-6.45 15.46 15.46 0 0 0 4.55-7.94 9.24 9.24 0 0 0 -2.57-8.51 9.56 9.56 0 0 0 -8.44-1.84 18.29 18.29 0 0 0 -7.72 4.35 26.89 26.89 0 0 0 -7.81 11 7.45 7.45 0 0 0 .14 5.3z" fill="#3e6d00"/><path d="m66.89 118.64a8 8 0 0 0 2.9-.39 41.23 41.23 0 0 0 8.75-4 38.6 38.6 0 0 0 5.36-3.46 14.13 14.13 0 0 0 4-4.9 5 5 0 0 0 .55-3 6.45 6.45 0 0 0 -1.37-2.63 10.12 10.12 0 0 0 -1.78-2 6.53 6.53 0 0 0 -5.81-.86 16.31 16.31 0 0 0 -3.17 1.41q-2.22 1.19-4.37 2.48a17.81 17.81 0 0 0 -3.48 2.53 16.93 16.93 0 0 0 -2.77 4 19.34 19.34 0 0 0 -1.46 3.13 10.87 10.87 0 0 0 -.38 5.28 3 3 0 0 0 3.03 2.41z" fill="#7acc46"/><path d="m68.37 112.2a2.18 2.18 0 0 0 1.34 1.18 4.33 4.33 0 0 0 3.12-.71l3.62-1.89a35.6 35.6 0 0 0 4.55-2.63 12.08 12.08 0 0 0 3.55-3.78c.32-.56.56-1.32.13-1.8a1.52 1.52 0 0 0 -1.36-.31 12.3 12.3 0 0 0 -1.79.44 37.2 37.2 0 0 0 -10.65 4.73 5.54 5.54 0 0 0 -2.09 2.33c-.39.83-.79 1.5-.42 2.44z" fill="#85db4d"/><path d="m74.65 108.61c.07-.18.08-.45-.11-.49a.32.32 0 0 0 -.21 0c-.49.22-2.17 1.4-1.68 2.09.69.99 1.85-1.21 2-1.6zm5.15.97c.17-.19 0-.47-.17-.67-.32-.44-1.42-2.45-1.87-1.06-.27.84 1.54 2.27 2.04 1.73zm-2.15-3.58a4.33 4.33 0 0 0 1.16-.41c.64-.31 1.34-.68 1.53-1.35a.18.18 0 0 0 0-.1.13.13 0 0 0 -.08-.07 1.24 1.24 0 0 0 -1-.07 3.24 3.24 0 0 0 -.88.47 5.75 5.75 0 0 0 -1.28.9c-.22.37.06.63.55.63zm-7.03.52c-.14-.08-.29-.2-.29-.36s.22-.33.42-.39c.49-.13 2.24-.21 2.18.59-.07 1.03-1.93.41-2.31.16zm5.27-4.27a.62.62 0 0 0 -.7 0c-.53.36-1.25 1.93-.12 1.88.76-.01 1.52-1.35.82-1.88z" fill="#c4e8dd"/><path d="m68.46 174c.17-.29.56-.67.73-1a1.49 1.49 0 0 1 .23-.27l.49-.06s5 0 7.6-.14a19.61 19.61 0 0 0 4.88-.74 17.13 17.13 0 0 0 2.66-1.19 16.69 16.69 0 0 0 2.95-1.83 12.47 12.47 0 0 0 2.43-2.84 30.45 30.45 0 0 0 3.43-6.78 29.59 29.59 0 0 1 2.69-3.15l2.69.41-3.6 8.42-13 10.84-5-.32" fill="#cc89a7"/><path d="m78.83 177.58a19.59 19.59 0 0 0 8.72-.78 17 17 0 0 0 4.65-2.6 19.31 19.31 0 0 0 6.3-8.4c1.15-3.11.74-9.41.74-9.41l-2 .49s-1.66 4.54-2.79 6.74a16.24 16.24 0 0 1 -5 6 23 23 0 0 1 -4.25 2.27c-3.41 1.47-7.15 2.64-10.81 2.46-1.56-.08-4.56-.62-4.56-.62l-1.43.28s1.6.99 2.24 1.31a21.56 21.56 0 0 0 3.45 1.31 27.26 27.26 0 0 0 4.74.95z" fill="#9e1c4c"/><path d="m86.36 176.3a9.55 9.55 0 0 0 2.06-.67 9.08 9.08 0 0 0 1.13-.67 19.63 19.63 0 0 0 4.7-4.66 48.78 48.78 0 0 0 3.28-5.3 17.63 17.63 0 0 1 -3.08 3.62c-.62.61-1.24 1.22-1.91 1.8-1.37 1.18-3 2.2-4.3 3.39a7.53 7.53 0 0 1 -1.35 1.08 7 7 0 0 1 -2.09.69 62.66 62.66 0 0 1 -7.07 1.13 28.23 28.23 0 0 0 8.63-.41z" fill="#681436"/><path d="m103.94 107.45a8 8 0 0 0 -.11 2.23 7.62 7.62 0 0 0 1.9 3.54 11.77 11.77 0 0 0 3.92 3.55 4.32 4.32 0 0 0 4.94-.65 4.17 4.17 0 0 0 .84-3.41 10.08 10.08 0 0 0 -1.35-3.34 34.07 34.07 0 0 0 -2.16-3.26 6.73 6.73 0 0 0 -2.89-2.49c-2.98-1.06-4.71 1.25-5.09 3.83z" fill="#af6461"/><path d="m105.21 108.19c0 .08 0 .18.11.18h.06a6.36 6.36 0 0 0 2.27-2 1.07 1.07 0 0 0 .22-1c-.4-.76-1.39-.21-1.76.24a4 4 0 0 0 -.9 2.58z" fill="#6b3d3b"/><path d="m105.79 111.64a7.18 7.18 0 0 0 .95 1.42 9.16 9.16 0 0 0 3 2l1.92.88q-1.61-2-3.27-3.89a4.43 4.43 0 0 0 -.48-.49 8.12 8.12 0 0 0 -.76-.47c-.33-.2-.64-.43-1-.66s-.61-.52-.93-.46c-.48.09.4 1.37.57 1.67z" fill="#d37676"/><path d="m79.72 74a11.59 11.59 0 0 0 5.09.93 10.9 10.9 0 0 0 5-.9 4.14 4.14 0 0 0 .31-7.61 11.53 11.53 0 0 0 -4.12-1.3c-2.63-.42-6.77-.63-8.63 1.79s-.04 5.9 2.35 7.09z" fill="#af6461"/><path d="m78.07 70.58c.12.35.38.74.75.71s.59-.52.66-.93c.1-.67.51-3.89-.65-3.43s-1.06 2.84-.76 3.65z" fill="#6b3d3b"/><path d="m87 67.87a6.45 6.45 0 0 1 2.36.87c.7.5 1.15 1.29 1.83 1.81a2 2 0 0 0 -.28-2.34 5.2 5.2 0 0 0 -2.16-1.31 7.24 7.24 0 0 0 -1.7-.51 8.27 8.27 0 0 0 -1 0h-2.28c-.29 0-1.83-.17-1.16.39a7.07 7.07 0 0 0 2.14.61c.74.13 1.48.31 2.25.48z" fill="#d37676"/><path d="m146.76 61.41a16.8 16.8 0 0 0 -6.45 6.4c-2.25 3.66-3.67 8.28-2 12.25a32 32 0 0 0 3.2 5.07 43.87 43.87 0 0 0 3.4 5.27c2.67 3 6.9 4.31 11 4.34a14.1 14.1 0 0 0 5.23-.84 20.58 20.58 0 0 0 6.25-4.5c2.71-2.59 5.61-5.4 6.61-9.07a18.5 18.5 0 0 0 .38-5c-.07-2.89-.3-6-2-8.3a15.71 15.71 0 0 0 -4.27-3.67 32.12 32.12 0 0 0 -6.65-3.7 11.42 11.42 0 0 0 -7.63-.15c-2.34.68-4.83.8-7.07 1.9z" fill="#a3653b"/><path d="m163 74.72c-2.56 2.35-6.76 1.71-9.68 3.59-1.68 1.07-3 3-5 3.06-1.21 0-2.38-.65-3.58-.5a.7.7 0 0 0 -.44.18.78.78 0 0 0 -.15.54 8.5 8.5 0 0 0 1.72 5.4 7 7 0 0 0 4.92 2.7c2.09.15 4.37-.69 6.16.39.91.55 1.66 1.59 2.73 1.56a2.9 2.9 0 0 0 1.41-.57 31.89 31.89 0 0 0 10.06-10.32 1.92 1.92 0 0 0 .4-1.59c-.13-.37-.47-.63-.66-1a3.19 3.19 0 0 1 .11-2.38 10.2 10.2 0 0 0 -.09-6.37c-.79-2.09-3.57-5.51-4.91-2-.93 2.51-.84 5.36-3 7.31z" fill="#965e38"/><path d="m158.29 75.16a4 4 0 0 0 0 2.12 1.38 1.38 0 0 0 .35.83 1.48 1.48 0 0 0 .75.27 1.94 1.94 0 0 0 1.39-.13 1.52 1.52 0 0 0 .55-1c.33-1.81-1.95-4.96-3.04-2.09zm-14.74-4.54a1.17 1.17 0 0 0 .7 1.19 1.39 1.39 0 0 0 1.21-.29 3.27 3.27 0 0 0 1.3-1.91 1.29 1.29 0 0 0 -1.6-1.62c-.88.27-1.59 1.78-1.61 2.63zm21.93 9.18a1.32 1.32 0 0 0 .68 1.21 1.7 1.7 0 0 0 1 .07 1.57 1.57 0 0 0 .42-.13 1.21 1.21 0 0 0 .5-.9c.15-.83.17-2.32-1-2.4-1.02-.07-1.59 1.35-1.6 2.15zm-5.28 6.2a1.62 1.62 0 0 0 .76 1.3 1.36 1.36 0 0 0 1.24 0 1.53 1.53 0 0 0 .77-1 1.47 1.47 0 0 0 -.45-1.48 1.42 1.42 0 0 0 -2.32 1.18zm-9.3 4.9a1.89 1.89 0 0 0 1.07.34 1.23 1.23 0 0 0 1-.49 1.77 1.77 0 0 0 .25-.9 1.43 1.43 0 0 0 -.09-.82 1.35 1.35 0 0 0 -.75-.59c-.69-.29-2-.62-2.47.24s.38 1.81.99 2.22zm9.1-26.18a1.35 1.35 0 0 0 .77 1 1.12 1.12 0 0 0 1.31-.51c.52-.89-.2-1.84-1-2.26-1.08-.57-1.22.91-1.08 1.77z" fill="#845331"/><path d="m198.08 104.64a10.15 10.15 0 0 0 -7.08-2.64c-2.81.2-5.25 1.92-7.84 3-1.63.7-3.35 1.17-5 1.89a8.76 8.76 0 0 0 -4.09 3.27 9.7 9.7 0 0 0 -1 2.92 20.36 20.36 0 0 0 -.07 8.92 7 7 0 0 0 1 2.48 19.34 19.34 0 0 0 2 2c2.43 2.56 3.07 6.59 5.91 8.68a9 9 0 0 0 4.51 1.52 18.27 18.27 0 0 0 10.67-2.47 25.94 25.94 0 0 0 8.08-7.53 12 12 0 0 0 2.18-4.48 11.17 11.17 0 0 0 -.83-6.23 15.94 15.94 0 0 0 -3.44-5.89c-1.78-1.7-3.08-3.83-5-5.44z" fill="#bc7742"/><path d="m178.37 117.65c.15.44.26 1 .66 1.18a1.72 1.72 0 0 0 .81.15 8.57 8.57 0 0 1 5 2.43c1.41 1.25 2.64 2.71 4.15 3.85a4.65 4.65 0 0 0 1.63.86 6 6 0 0 0 2.65-.15 69.73 69.73 0 0 1 8.13-1.14c.25 0 .54 0 .69.17a.78.78 0 0 1 .06.62 6.39 6.39 0 0 1 -4 4.53c-.64.23-1.32.35-1.95.61-2.32 1-3.8 3.63-6.28 4a7.87 7.87 0 0 1 -5.9-1.24 33.86 33.86 0 0 1 -7.55-8.51c-1.1-1.63-1.32-3.59-2.05-5.42-.38-1-.19-4.15 1.36-4.36 1.15-.16 2.28 1.52 2.59 2.42z" fill="#a3653b"/><path d="m190.61 107.45a3.34 3.34 0 0 0 -1.19 3.78 2.33 2.33 0 0 0 1.17 1.38 2.37 2.37 0 0 0 2.07-.18 6.23 6.23 0 0 0 1.6-1.43c2.29-2.64-1.1-5.29-3.65-3.55zm-4.72-.92a6.17 6.17 0 0 0 -1.81 1.08c-.34.29-.68.74-.52 1.17a.87.87 0 0 0 .29.37 1.77 1.77 0 0 0 1.7.15 3.43 3.43 0 0 0 1.35-1.13 1.72 1.72 0 0 0 .4-.81c.11-.84-.79-1.06-1.41-.83zm4.25 18.01a1.81 1.81 0 0 0 -.8 1.08 2.55 2.55 0 0 0 .11 1.22 1.88 1.88 0 0 0 .26.64 1.32 1.32 0 0 0 1.49.36 2.81 2.81 0 0 0 1.24-1c.48-.66 1-1.41.34-2.07a2.17 2.17 0 0 0 -2.64-.23zm-9.28.11a1.1 1.1 0 0 0 -1.33.44 1.48 1.48 0 0 0 -.12.93 3 3 0 0 0 .71 1.68.79.79 0 0 0 .26.19.65.65 0 0 0 .39 0 1.72 1.72 0 0 0 .09-3.24zm16.81 4.35a1.35 1.35 0 0 0 -1.21 1.22 1.09 1.09 0 0 0 1.2 1.1 1.8 1.8 0 0 0 1-.77 1 1 0 0 0 -.99-1.55zm6.04-11.47a.53.53 0 0 0 -.52-.38 1.06 1.06 0 0 0 -.63.25.85.85 0 0 0 -.39.66.81.81 0 0 0 .15.4 1.68 1.68 0 0 0 .68.74.77.77 0 0 0 .93-.13c.26-.33.1-.81-.07-1.19" fill="#845331"/><path d="m139.62 164a14 14 0 0 0 .49 4.56c1.3 4.49 5.19 7.67 8.95 10.44a21.88 21.88 0 0 0 4.08 2.54 14.38 14.38 0 0 0 8.16.78 30 30 0 0 0 7.82-2.75 9.47 9.47 0 0 0 2.41-1.53 10.18 10.18 0 0 0 1.86-2.75l3.24-6.15c1.16-2.21 2.36-4.58 2.11-7.07a11.92 11.92 0 0 0 -2.46-5.43 85 85 0 0 0 -7.16-9 11.37 11.37 0 0 0 -2.87-2.49 10.12 10.12 0 0 0 -3.1-.94 17.06 17.06 0 0 0 -5-.2c-4.4.57-7.33 3.44-10.76 5.91a16.46 16.46 0 0 0 -6.14 7.11 19.36 19.36 0 0 0 -1.63 6.97z" fill="#bc7742"/><path d="m146.9 167.68c.95.15 1.68 1.32 2.6 1a1.75 1.75 0 0 0 .66-.43 9.06 9.06 0 0 1 3.79-2.13 4.3 4.3 0 0 1 4.07 1.06 6.8 6.8 0 0 0 1.19 1.26c.92.56 2.09.12 3.07-.33l6.14-2.83a3.2 3.2 0 0 0 .76-.44 2.6 2.6 0 0 0 .68-1.21c.62-2 .58-4.33 2.08-5.77a1.36 1.36 0 0 1 .5-.33 1.43 1.43 0 0 1 .68 0 4.1 4.1 0 0 1 3 3.95 8.16 8.16 0 0 1 -.69 2.68l-1.87 4.8a8.22 8.22 0 0 1 -1.57 2.84c-1.26 1.3-3.31 1.71-4.29 3.23-.33.5-.51 1.1-.83 1.61a5.54 5.54 0 0 1 -2.12 1.77c-2.7 1.44-6.23 1.95-8.7.14-.69-.51-1.26-1.18-2-1.68a15.33 15.33 0 0 0 -2.91-1.41 36.83 36.83 0 0 1 -4.37-2.36c-1.14-.68-2.35-1.36-2.23-2.77.14-1.05 1.01-2.86 2.36-2.65z" fill="#a3653b"/><path d="m150.75 165.26a1.26 1.26 0 0 0 -.26.88 2.16 2.16 0 0 0 2.16 2.17 1.4 1.4 0 0 0 .93-.34 1.44 1.44 0 0 0 .37-1.11 2.55 2.55 0 0 0 -1.35-2.16 1.36 1.36 0 0 0 -1.18-.08 3.42 3.42 0 0 0 -.67.64zm13.48-9.1a2.28 2.28 0 0 0 .93 1 1.93 1.93 0 0 0 2.5-.85c1.85-3.57-6.15-5.31-3.43-.15zm-16.55-1.16a3.33 3.33 0 0 0 -1 1.42 4.3 4.3 0 0 0 -.44 1.89 1.27 1.27 0 0 0 .16.66 1.23 1.23 0 0 0 1.16.57 2.49 2.49 0 0 0 1.27-.49 4 4 0 0 0 1.32-1.42 2.6 2.6 0 0 0 .24-1.91 1.59 1.59 0 0 0 -.8-1 1.7 1.7 0 0 0 -1.44.09zm8.32 19a1.06 1.06 0 0 0 -.58.52.9.9 0 0 0 0 .56 2.17 2.17 0 0 0 .9 1.12 1.25 1.25 0 0 0 .64.21.94.94 0 0 0 .83-.61 1.18 1.18 0 0 0 -.11-1.05 1.75 1.75 0 0 0 -.81-.71 1.32 1.32 0 0 0 -.7-.14.67.67 0 0 0 -.55.4m12.99-1.51a3.54 3.54 0 0 0 .9 1.1 2 2 0 0 0 1.4.56 1.63 1.63 0 0 0 .8-.39 2.84 2.84 0 0 0 1-2 2.41 2.41 0 0 0 -2-2.53c-1-.15-1.49.63-2 1.39a1.81 1.81 0 0 0 -.1 1.87z" fill="#845331"/><path d="m76.29 148.72a9.5 9.5 0 0 1 1.47 2.82 3.72 3.72 0 0 1 .12 1.69 4.28 4.28 0 0 1 -1 1.81c-3.71 4.49-11.73 7.33-17.39 8.4" fill="#c6173d"/><path d="m76.29 148.72a319.7 319.7 0 0 0 -44.2-7c.28 4.69.78 10 4 13.38a21.31 21.31 0 0 0 5.33 3.77 43.12 43.12 0 0 0 9 3.9 20.69 20.69 0 0 0 9.86.53c6.68-1.4 13.43-8.49 16-14.59" fill="#ec2044"/><g clip-path="url(#a)"><path d="m34.39 136.94a37 37 0 0 0 -.55 8.9 11.29 11.29 0 0 0 1.66 5.94 14 14 0 0 0 3.26 3 30.37 30.37 0 0 0 4.06 2.64 23.37 23.37 0 0 0 3.45 1.37 50.84 50.84 0 0 0 11.82 2.33 10.09 10.09 0 0 0 4.13-.31 10.24 10.24 0 0 0 3.1-2 59.07 59.07 0 0 0 8.87-9.3 8.32 8.32 0 0 0 1.62-2.95 5.24 5.24 0 0 0 -.07-2.55c-.73-2.83-3.14-5-5.85-6.27a45.37 45.37 0 0 0 -8.68-2.62c-4.23-1.06-8.4-2.46-12.8-2.75s-9.17.7-12.31 3.77" fill="#ff4363"/></g><path d="m37.11 144.2a61.08 61.08 0 0 0 12.16 2.67 3.34 3.34 0 0 0 -.15 1.43c.24 1.18 1.69 1.66 2.92 1.93a6.51 6.51 0 0 0 2.24.24 2.3 2.3 0 0 0 1.85-1.14c.13-.26.21-.59.49-.72a1.11 1.11 0 0 1 .48 0c2 .19 4 .57 5.92 1l6.67 1.28a22.65 22.65 0 0 1 -8.69 7.35 9.47 9.47 0 0 1 -3.67 1.11 9.55 9.55 0 0 1 -2.92-.41 43.48 43.48 0 0 1 -6.1-2.31 42.35 42.35 0 0 1 -8.88-5 7.46 7.46 0 0 1 -1.62-1.63c-1.19-1.73-1-4-1.37-6.06" fill="#ec2044"/><path d="m41.25 148.8a2.34 2.34 0 0 0 1.42-1 .55.55 0 0 0 .06-.43.5.5 0 0 0 -.37-.27 1.35 1.35 0 0 0 -.49 0c-.71.11-2.13.34-2.44 1.1-.11.28-.14.95.17 1.07s1.32-.35 1.65-.47zm4.3 3.93a1.39 1.39 0 0 0 -.2 1 .51.51 0 0 0 .34.37.87.87 0 0 0 .36 0 2.43 2.43 0 0 0 .79-.25 1.74 1.74 0 0 0 .51-.5 7.19 7.19 0 0 0 .76-1.55c.28-.73 0-1.46-.89-1a4.52 4.52 0 0 0 -1.67 1.93zm7.45 2.34a4.83 4.83 0 0 0 .64 2.46.93.93 0 0 0 .25.31.39.39 0 0 0 .39 0 .54.54 0 0 0 .2-.31 5.07 5.07 0 0 0 -.07-3.5c-.13-.33-.5-1.18-1-.84s-.41 1.47-.41 1.88zm8.65-.48c.16.06.37.09.48 0a.37.37 0 0 0 0-.37 4.08 4.08 0 0 0 -.33-.74 3.3 3.3 0 0 0 -1.31-1.48c-.37-.19-1.18-.57-1.42 0-.45 1.07 1.81 2.33 2.58 2.59z" fill="#ffc513"/><path d="m101.14 88.59a27.26 27.26 0 0 0 11.41.15 10.55 10.55 0 0 0 2.52-.73 11.2 11.2 0 0 0 2-1.37 57.15 57.15 0 0 0 7.47-7.12 3.6 3.6 0 0 0 1.06-1.94 3.69 3.69 0 0 0 -.35-1.55l-2.16-5.64a1.72 1.72 0 0 0 -1.25-.9c-.19 0 0 0-.14.11l-3.7 1.67a49.19 49.19 0 0 0 -7.2 3.66 24 24 0 0 0 -2.25 1.65c-.39.33-.81.83-.58 1.28" fill="#c6173d"/><path d="m104.36 75.45a6.27 6.27 0 0 1 1.76-2.82 6.16 6.16 0 0 1 2.73-.92l12.69-2.19a1 1 0 0 1 .67.06.91.91 0 0 1 .3.7c.25 2.15 1.55 6 .39 8-.7 1.21-6.57 6.06-9.88 7.53a32.61 32.61 0 0 1 -6.42 2.19c-1.36.29-5.27 1.19-6.47.19s.93-4.43 1.39-5.59z" fill="#ec2044"/><g clip-path="url(#b)"><path d="m98 85.24c3 .44 6.08.88 9 0a18.82 18.82 0 0 0 3.62-1.6c1.72-.93 3.41-1.91 5.11-2.89a26.17 26.17 0 0 0 4.55-3.08 3.11 3.11 0 0 0 .84-1 3.54 3.54 0 0 0 .18-1.45c0-1.27-.12-2.54-.24-3.81a1.94 1.94 0 0 0 -.24-.89 2.18 2.18 0 0 0 -.6-.53c-1.12-.75-2.25-1.48-3.39-2.2a8.76 8.76 0 0 0 -1.6-.85 7.17 7.17 0 0 0 -2.53-.33 15.56 15.56 0 0 0 -5.19.89 14.6 14.6 0 0 0 -6.75 5.3 19 19 0 0 0 -3.13 8.06 10.52 10.52 0 0 0 0 4.07" fill="#ff4363"/></g><path d="m107.31 75.5a1.13 1.13 0 0 1 .32-.4 1.23 1.23 0 0 1 .39-.16l9.11-2.57a2 2 0 0 1 .76-.11 1.29 1.29 0 0 1 .88 1.61 3.2 3.2 0 0 1 -1.26 1.61c-1.18.92-2.5 1.67-3.66 2.64-.37.31-.72.64-1.09.94a17.34 17.34 0 0 1 -2.71 1.7c-.89.47-1.78.93-2.7 1.35-.47.21-.94.42-1.43.61-.32.12-1 .5-1.3.38-.84-.29 0-1.42.17-1.85.44-.87.79-1.78 1.15-2.69a24.63 24.63 0 0 1 1.37-3.06z" fill="#ec2044"/><path d="m107.54 79c0 .27.06.59.31.7s.51-.06.69-.25a3 3 0 0 0 .77-2.75c-.06-.25-.19-.53-.45-.58-1.28-.25-1.35 2.22-1.32 2.88zm4.46-3.09a5 5 0 0 0 .82 1 1 1 0 0 0 .37.26.37.37 0 0 0 .41-.09.55.55 0 0 0 .07-.31 4.5 4.5 0 0 0 0-1 1.49 1.49 0 0 0 -.42-.86 5.08 5.08 0 0 0 -.53-.38 1.14 1.14 0 0 0 -.44-.25c-1.01-.23-.54 1.28-.28 1.63z" fill="#ffc513"/><path d="m170.52 133.8c-6 1.21-10.23.23-16.33-.32-1.08-.1-4.27-1.6-5.33-1.79-6.48-1.14-13.61-6.12-19.89-7.74.12.87 1 1.34 1.12 2.2a1.62 1.62 0 0 0 .18.65 1.79 1.79 0 0 0 .42.45c3.24 2.72 6.48 3.7 10.18 5.76a37.48 37.48 0 0 0 26.92 3.56" fill="#cc89a7"/><path d="m170.52 133.8a32.63 32.63 0 0 1 -9.87 1.6 41.2 41.2 0 0 1 -8.88-.48 43.22 43.22 0 0 1 -11.77-4.36 96.2 96.2 0 0 1 -11-6.56 6.24 6.24 0 0 0 1.17 3.33 14.15 14.15 0 0 0 2.61 3.56 13.27 13.27 0 0 0 2.88 1.83 84.17 84.17 0 0 0 13.3 5.39 38.25 38.25 0 0 0 5 1.25 23.94 23.94 0 0 0 13.59-1.84c1.31-.65 2.97-3.72 2.97-3.72z" fill="#9e1c4c"/><path d="m99.84 178.52a6.49 6.49 0 0 0 -.14 2.32 2.65 2.65 0 0 0 .47 1.15 3.19 3.19 0 0 0 1.31.89c4.14 1.8 10.85 1.15 15.28.07" fill="#c6173d"/><path d="m99.84 178.52a260 260 0 0 1 29.54-18.58c1.34 3.19 2.7 6.82 1.49 10.12a15.53 15.53 0 0 1 -2.6 4.17 33.49 33.49 0 0 1 -5.18 5.41 17.31 17.31 0 0 1 -6.93 3.47c-5.27 1.18-12.46-1.38-16.32-4.59" fill="#ec2044"/><g clip-path="url(#c)"><path d="m126.15 157.5a25.84 25.84 0 0 1 3.32 5.71 7.61 7.61 0 0 1 .75 4.45 9.73 9.73 0 0 1 -1.37 3 22.7 22.7 0 0 1 -2 3 18.38 18.38 0 0 1 -2 2 42.14 42.14 0 0 1 -7.85 5.34 8.66 8.66 0 0 1 -3.08 1.09 8.52 8.52 0 0 1 -2.88-.33 47.45 47.45 0 0 1 -9.44-3.35 6.33 6.33 0 0 1 -2.14-1.43 3.65 3.65 0 0 1 -.78-1.71c-.4-2.1.63-4.28 2.15-6a36.06 36.06 0 0 1 5.39-4.47c2.7-2 5.25-4.28 8.32-5.86s6.84-2.43 10.11-1.4" fill="#ff4363"/></g><path d="m126.58 163.16a49.48 49.48 0 0 1 -7.89 5.6 2.25 2.25 0 0 1 .58.9c.21.86-.67 1.63-1.47 2.2a5.48 5.48 0 0 1 -1.53.86 2 2 0 0 1 -1.71-.17c-.18-.13-.35-.32-.59-.32a.92.92 0 0 0 -.36.13c-1.37.75-2.66 1.62-4 2.49l-4.38 3a18.84 18.84 0 0 0 8.77 2.15 8 8 0 0 0 3-.43 7.59 7.59 0 0 0 2-1.2 33.92 33.92 0 0 0 3.64-3.44 32.33 32.33 0 0 0 4.76-6.09 5.67 5.67 0 0 0 .65-1.6c.28-1.51-.6-3-1-4.43" fill="#ec2044"/><path d="m125.1 167.51a2.06 2.06 0 0 1 -1.36-.23.44.44 0 0 1 -.18-.27.34.34 0 0 1 .18-.3 1.3 1.3 0 0 1 .36-.15c.54-.14 1.64-.44 2.11 0 .17.15.41.58.23.76s-1.06.16-1.34.19zm-1.8 3.95a1 1 0 0 1 .49.63.39.39 0 0 1 -.13.35.64.64 0 0 1 -.26.1 1.88 1.88 0 0 1 -.66.09 1.57 1.57 0 0 1 -.53-.17 5.16 5.16 0 0 1 -1-.79c-.44-.39-.45-1 .32-.93a3.74 3.74 0 0 1 1.77.72zm-4.62 3.91a3.29 3.29 0 0 1 .35 1.82.74.74 0 0 1 -.08.29.34.34 0 0 1 -.28.14.44.44 0 0 1 -.24-.13 3.57 3.57 0 0 1 -1.1-2.34c0-.26 0-.94.46-.88s.75.83.89 1.1zm-6.37 2.4c-.1.09-.24.18-.36.13s-.13-.14-.15-.23a2.41 2.41 0 0 1 0-.6 2.27 2.27 0 0 1 .51-1.36c.2-.24.66-.75 1-.46.69.56-.53 2.11-1 2.52z" fill="#ffc513"/><path d="m183.46 181.48a185.89 185.89 0 0 1 -33.53 8.93c-19.6 3.41-39.47 3.89-59.29 5-15.57.83-38.83-3.87-50.48-14.7a21 21 0 0 1 -6.34-11.25c2.41 13.86 17.35 28.81 32.16 35.85s31.54 9.14 47.94 9.12c17.25 0 34.68-2.34 50.7-8.75s30.58-17.18 39.89-31.68c4.28-6.69 7-11 7.61-18.89a18 18 0 0 1 -1.89 6.26c-5.1 10.21-16.06 16.08-26.77 20.11z" fill="#116572"/><path d="m44.41 114.21a1.62 1.62 0 0 1 .83-.62 1.52 1.52 0 0 1 1.08.37 23.41 23.41 0 0 1 3.7 3 2.28 2.28 0 0 1 .65.92c.21.66-.16 1.35-.15 2 0 1 .8 1.81 1.07 2.78.41 1.46-.44 3-1.42 4.13a13 13 0 0 0 -2.72 3.62 1.92 1.92 0 0 1 -.35.7c-.47.48-1.3.19-1.83-.23a10.83 10.83 0 0 1 -2.55-3.52 4.07 4.07 0 0 1 -.55-1.49c0-.42.08-.85 0-1.27a4.39 4.39 0 0 0 -1.07-1.6c-1-1.36.08-2.84.61-4.2a17.16 17.16 0 0 1 2.7-4.59zm72.23 36.68a3.69 3.69 0 0 1 1.3-2.93 5.12 5.12 0 0 1 1.19-.54l7.59-2.64c.48-.16 1.08-.31 1.44.05s.28.57.44.85c.55.92 2.29.88 2.41 1.95a1.78 1.78 0 0 1 -.14.75l-1.08 3.05a4.64 4.64 0 0 1 -.95 1.78 4.54 4.54 0 0 1 -2.67 1 4.71 4.71 0 0 1 -2.08 0c-.31-.11-.61-.28-.93-.36a3.56 3.56 0 0 0 -2.13.37l-1.93.79a2.85 2.85 0 0 1 -1.45.3c-1.43-.26-1.05-3.4-1.01-4.42zm7.53-56.07a4.54 4.54 0 0 0 -1.85 4.27 12.09 12.09 0 0 0 1.08 4.7 9.08 9.08 0 0 1 1.08 2.88c.12 1.5-.79 3.07-.18 4.45a4.36 4.36 0 0 0 2.18 1.86 3.4 3.4 0 0 0 2.07.58 3.57 3.57 0 0 0 1.38-.71c1.74-1.28 3.64-2.79 3.91-4.93.21-1.69-.67-3.44-.2-5.07a15.17 15.17 0 0 1 1.1-2.21 2.42 2.42 0 0 0 .07-2.36 6.13 6.13 0 0 0 -1.17-1 3 3 0 0 1 -1-2.27c0-.94.36-2.16-.48-2.6a1.53 1.53 0 0 0 -.71-.13 11.94 11.94 0 0 0 -7.28 2.54z" fill="#fff5ca"/><path d="m188.34 64.53a5.38 5.38 0 0 0 1 4 4.47 4.47 0 0 0 4.81.72 7.57 7.57 0 0 0 4.41-6.1c.43-2.88.77-8.27-5.09-6.75-5.06 1.27-5.02 5.46-5.13 8.13z" fill="#efefef"/></svg>