<svg id="Artwork_-_Primary" data-name="Artwork - Primary" xmlns="http://www.w3.org/2000/svg" viewBox="0 0 250 250"><defs><style>.cls-1{fill:none}.cls-2{fill:#efefef}.cls-3{fill:#e2b283}.cls-4{fill:#ffdba1}.cls-5{fill:#eec488}.cls-6{fill:#d99f60}.cls-7{fill:#093b47}.cls-8{fill:#116572}.cls-9{fill:#14727c}.cls-10{fill:#0b4654}.cls-11{fill:#af6461}.cls-12{fill:#fff5ca}.cls-13{clip-path:url(#clip-path)}.cls-14{fill:#f2dcb1}.cls-15{fill:#824646}.cls-16{fill:#6b3d3b}.cls-17{fill:#ec2044}.cls-18{clip-path:url(#clip-path-2)}.cls-19{fill:#d81e46}.cls-20{fill:#ce1d43}.cls-21{fill:#89cfbb}.cls-22{fill:#519600}.cls-23{clip-path:url(#clip-path-3)}.cls-24{fill:#360}.cls-25{fill:#72c900}.cls-26{clip-path:url(#clip-path-4)}</style><clipPath id="clip-path"><path class="cls-1" d="M133 136.32a6.39 6.39 0 0 1-1-2.17c-.12-1.27.94-2.47.71-3.72-.37-2-3.62-2.41-4-4.42-.14-.69.1-1.45-.16-2.11s-1.22-1.12-2-1.56c-3.17-1.89-3.8-6.56-7-8.41a25.53 25.53 0 0 0-3.55-1.31 4 4 0 0 1-2.64-2.5 16.28 16.28 0 0 1-.14-1.86 6.87 6.87 0 0 0-1.85-3.26 8.23 8.23 0 0 0-2.09-2c-1-.59-2.29-.71-3.37-1.25-2.34-1.17-3.56-4.18-6.1-4.82a7.59 7.59 0 0 1-1.66-.4 7 7 0 0 1-1-.71 5.62 5.62 0 0 0-3.34-1 10.9 10.9 0 0 0-5.2.08l-9.59 1.7a40.15 40.15 0 0 0-8.73 2.25 20.22 20.22 0 0 0-7 5c-2.08 2.31-3.6 5.07-5.65 7.41a36.68 36.68 0 0 1-4.58 4.23l-1.83.26a6.08 6.08 0 0 0-2 .5 2.15 2.15 0 0 0-1.23 1.54 5.4 5.4 0 0 1 0 1.21c-.19.57-.82.85-1.36 1.13a7.45 7.45 0 0 0-3.18 3.25 15.07 15.07 0 0 1-1.23 2.52c-.63.86-1.62 1.45-2.11 2.39a4.75 4.75 0 0 0 .29 4s.83 5.88 3.26 7.36c2 1.23 4.63 1.47 6.33 3.11a13.06 13.06 0 0 0 1.61 1.63c1.07.73 2.46.66 3.72.92 3.08.66 5.7 3.43 8.83 3.05a7.4 7.4 0 0 1 1.75-.2c1.67.17 2.53 2.12 4 2.94 1.77 1 4 .13 6 .4 3.12.42 5.41 3.5 8.54 3.82.78.08 1.58 0 2.36.11 6.18 1 8.68.23 15.38-1.61 2.38-.65 5-.48 7.17-1.68a8.89 8.89 0 0 1 2.41-1.24c1-.21 2.06.2 3.1.12 1.64-.12 3-1.44 4.68-1.43 1.41 0 2.82 1 4.13.49.82-.31 1.33-1.11 2-1.7 1.15-1.09 2.76-1.51 4.17-2.22s2.81-2 2.76-3.54c-.05-.11 1.39-4.44.39-6.3z"/></clipPath><clipPath id="clip-path-2"><path class="cls-1" d="M105.78 131c2.54 2.93 5 6 7.23 9.11a9.92 9.92 0 0 0 2 2.22 8.8 8.8 0 0 0 3.1 1.31 64.14 64.14 0 0 0 15.08 2.23 20.88 20.88 0 0 0 7.31-.8c3.11-1.06 5.66-3.31 8-5.56 1.55-1.46 3.13-3 3.78-5.06a24.75 24.75 0 0 0-3.23-4.26 2.11 2.11 0 0 0-.85-.63 2.24 2.24 0 0 0-1.51.24l-12 5a34.37 34.37 0 0 1-8.91 2.77 11.52 11.52 0 0 1-8.82-2.21 24.68 24.68 0 0 1-3.77-4.77 27.49 27.49 0 0 0-7.07-6.83c-3.14-2.09-7-3.81-8.39-7.29a3.46 3.46 0 0 0-.65-1.23.92.92 0 0 0-1.56.37c-.15.57.54 1.25.76 1.73a42.35 42.35 0 0 0 2.44 5 76.41 76.41 0 0 0 7.06 8.66z"/></clipPath><clipPath id="clip-path-3"><path class="cls-1" d="M177.08 73.51a11 11 0 0 1 3.15.79 8.09 8.09 0 0 1 2.77 2.49 18.93 18.93 0 0 1 2.68 4.79 2.35 2.35 0 0 1 .21 1.19 2.28 2.28 0 0 1-.7 1.13 32.51 32.51 0 0 1-7.58 5.26 18.57 18.57 0 0 1-4.82 2.15 11.82 11.82 0 0 1-9.18-2.07 22.94 22.94 0 0 1-6.37-7.2c-1.32-2.16-4.68-9.36-4.9-13a55.7 55.7 0 0 1 7.2.65c2.76.73 5.53 1.43 8.32 2.06 3.06.69 6.14 1.25 9.22 1.76z"/></clipPath><clipPath id="clip-path-4"><path class="cls-1" d="M193.35 123.53a46.69 46.69 0 0 1 1.91 11.81 43.35 43.35 0 0 0 7.4-8.88 19.46 19.46 0 0 0 2.93-11 30.44 30.44 0 0 0-2-7.81c-1-2.77-2.2-5.81-4.87-7a10 10 0 0 0-3.25-.73c-1.87-.17-9.54 1.73-9.54 1.73a31.82 31.82 0 0 1 2.8 5.23q2.47 8.24 4.62 16.65z"/></clipPath></defs><path class="cls-2" d="M101.09 38a30.61 30.61 0 0 0 2.75 7.11c1.06 2.17 2.52 4.63 4.92 4.84a4.68 4.68 0 0 0 3.94-2 12 12 0 0 0 1.84-4.19c1.38-4.89 4.27-15.61-2.6-17.8S99.89 32.14 101.09 38zm74.49 34.26a9 9 0 0 0 2.1-1.13c4.19-3.2 4.81-9.75 4-15.17-.82-5.58-3-11.63-8.15-14-4.62-2.14-10.14-.59-15.06-1.9-3.35-.89-6.2-3-8.88-5.26-4.4-3.65-9.15-7.82-15.54-5.72a10.43 10.43 0 0 0-2.89 1.49c-5 3.65-6.42 9.86-5.61 15.55 1.35 9.45 8.24 17.08 15.33 23.46 4.11 3.69 8.56 7.28 13.87 8.79 4.78 1.35 10.44.64 14-2.66a9.44 9.44 0 0 1 2.93-1.91z"/><path class="cls-2" d="M71.62 160c-7.91-2.95-13.93-9.54-18.49-16.64-8.31-12.93-12.75-28.55-11.19-43.84S51.39 69.41 64 60.6c10.55-7.39 25.35-10.12 36.34-3.41 10.08 6.17 14.79 18.57 24.31 25.58 7.69 5.65 17.68 7.15 27.22 7.14s19.1-1.37 28.61-.66 19.39 3.83 25.6 11.07c6.87 8 7.95 20 4.15 29.89s-11.91 17.63-21.16 22.79-19.62 7.79-30 9.74c-21.15 4-68.81 8-87.45-2.72"/><path class="cls-3" d="M106.08 54a17.8 17.8 0 0 0-3.74 2.55 41.9 41.9 0 0 0-9.57 11.63 17.73 17.73 0 0 0-2.45 7 14.89 14.89 0 0 0 2.06 8.36 44.72 44.72 0 0 0 5.16 7 2.49 2.49 0 0 0 1.08.88c1 .31 1.88-.66 2.47-1.51.82-1.17 1.63-2.34 2.48-3.49 5.92-8 13.29-14.92 19.89-22.43"/><path class="cls-4" d="M104.26 87.2a1.23 1.23 0 0 1 .28-.23q31.81-18.7 62.71-38.91a1.46 1.46 0 0 0 .74-.83 1.36 1.36 0 0 0-.28-1c-3.11-5.19-8.87-8.37-14.8-9.57s-12.06-.65-18 .2c-10 1.4-20.34 3.87-27.57 10.85a40.23 40.23 0 0 0-6.61 8.77 48.11 48.11 0 0 0-6 15c-.91 4.7 1.5 14 3.49 19.57a1.25 1.25 0 0 0 2.1.42z"/><path class="cls-5" d="M137.78 40.12c-1.56 1.73-1.23 4.39-.85 6.69s.57 5-1.14 6.6a6.89 6.89 0 0 1-2.86 1.36 69.55 69.55 0 0 1-9.9 2c-2.38.32-4.88.57-6.88 1.9-3.14 2.1-4.13 6.18-4.88 9.88-.08.41-.11.94.26 1.13a1 1 0 0 0 .67 0c1.55-.38 3.22-.87 4.16-2.16s1-2.81 2-3.78c1.37-1.25 3.51-.73 5.36-.52a28.14 28.14 0 0 0 5.19-.07 1.38 1.38 0 0 1 1 .22 1 1 0 0 1 .27.66c0 .89-.67 1.62-1.16 2.38s-.62 2 .2 2.37a1.82 1.82 0 0 0 1.71-.42c1.84-1.22 3.5-2.69 5.26-4 6.56-5 14.35-8.23 21.08-13 1.36-1 2.81-2.32 2.59-4-.25-1.86-2.43-3-3.84-3.88-1.64-1.06-3.31-2.07-5-3.09a12.91 12.91 0 0 0-6.89-2.07c-2.13-.06-4.79.07-6.35 1.8z"/><path class="cls-6" d="M105.53 74.1a7.15 7.15 0 0 0 .74-4.14c-.43-4.1-6.11 0-6.3 2.58-.07 1 .38 3.3 1.21 3.93 1.45 1.12 3.72-1.21 4.35-2.37zm29.32-28.68a2.75 2.75 0 0 0-.09 3.32 4.85 4.85 0 0 0 2.91 1.51 1.27 1.27 0 0 0 1.19-.13 1.25 1.25 0 0 0 .3-.82c.17-1.42.18-3.41-1.08-4.41a2.45 2.45 0 0 0-3.23.53zM146.33 47a1.31 1.31 0 0 0-.26.44 4.23 4.23 0 0 0-.18 1.66 1.31 1.31 0 0 0 .17.59 1.13 1.13 0 0 0 .83.46 1.8 1.8 0 0 0 .7-3.53 1.21 1.21 0 0 0-1.26.38zm-37.16 29.09a2.67 2.67 0 0 0-2.29 2.62 1.52 1.52 0 0 0 .3.93 1.46 1.46 0 0 0 .74.47 2.64 2.64 0 0 0 2.33-.43 3.31 3.31 0 0 0 1.27-2 1.17 1.17 0 0 0 0-.67 1.06 1.06 0 0 0-.41-.43 2.68 2.68 0 0 0-1.92-.45m-7.96 3.93a.74.74 0 0 0-.43.33 2.31 2.31 0 0 0-.55 1.87 1.18 1.18 0 0 0 1.52.88 1.21 1.21 0 0 0 .61-1.16 3.1 3.1 0 0 0-.45-1.31c-.14-.24-.45-.73-.7-.61m14.53-32.78a1.37 1.37 0 0 0 .11.87 1.14 1.14 0 0 0 1.48.36 1.46 1.46 0 0 0 .27-2.27c-.79-.6-1.71.25-1.86 1.04zm33.17-8.2a1 1 0 0 0-.1.8 1.7 1.7 0 0 0 .33.64 1 1 0 0 0 .35.28.93.93 0 0 0 1.14-.52 1.68 1.68 0 0 0-.08-1.35.62.62 0 0 0-.17-.25.73.73 0 0 0-.6-.06s-.72.22-.87.46z"/><path class="cls-2" d="M46.64 186.2c-3.72 3.94-6.27 10.58-3.76 16 1.38 3 4 4.9 6.57 6.45 9.08 5.51 19 8.42 28.91 11 8 2.1 16 4 24.12 4.58 11.77.8 23.42-1.29 34.92-3.59 22.16-4.43 44.92-10 62.71-25.61a25.73 25.73 0 0 0 6.33-7.49 14.16 14.16 0 0 0 1.17-10.38c-1.49-4.81-5.77-7.56-9.69-9.85 0 0-20.7-11.06-76.29-4.74S46.64 186.2 46.64 186.2z"/><path class="cls-7" d="M28.1 148.59c3.22 20.89 21.94 30.07 31.84 33.33 14.13 4.65 28.46 8.87 43.2 10.87 23.9 3.25 48.26.57 71.85-4.48 7.88-1.68 15.83-3.68 22.81-7.71 13.83-8 23-16.07 24.19-34.69"/><path class="cls-8" d="M119.51 96.08A154 154 0 0 0 64.3 110c-9.82 4.55-19.25 10.21-26.87 17.89-5 5-9.35 11.42-9.43 18.53-.11 9.58 7.38 17.45 15.4 22.58 11.57 7.42 25 11.32 38.49 14.16 34.64 7.3 71.27 8 105-2.86 8.06-2.6 16-5.93 22.6-11.27s11.64-13 12.44-21.39c1.14-12-6.4-23.26-15.72-30.87-16-13.12-37-18.07-57.78-20.35a101 101 0 0 0-12.54-.57z"/><path class="cls-9" d="M75.74 108.92c-1.82.64-3.81 1.51-4.52 3.3 2 .11 4-.8 5.93-1.5a54.59 54.59 0 0 1 5.78-1.67c21.53-5.3 43.88-8.53 65.88-5.83 2.48.3 6.3 1.61 8.69.89-1.25-2.37-6.63-2.82-9-3-6-.41-12-.64-18.05-.64a184.35 184.35 0 0 0-35.4 3.19 138.78 138.78 0 0 0-19.31 5.26zm13.91 71.27c17.22 3.28 34.84 4 52.37 3.8 1.24 0 2.63-.1 3.42-1.05l-31.35-1.75c-5-.29-10-.57-15.06-1.13a135.51 135.51 0 0 1-45.63-13.59q-3.07-1.54-6.07-3.25c-1.42-.81-3.33-2.5-4.91-2.73-.23 2.31 3 3.83 4.6 4.73 3.17 1.78 6.43 3.4 9.75 4.88a140.26 140.26 0 0 0 20.77 7.32q6 1.58 12.11 2.77z"/><path class="cls-1" d="M187.11 164l-1.07.13a.89.89 0 0 0 0 .23 1 1 0 0 0 .73.68 6.29 6.29 0 0 1 .34-1.04z"/><path class="cls-10" d="M200.38 145.75a9.88 9.88 0 0 1-1.87-2.33c-.48-1.22 0-2.58.12-3.88.48-5.3-5-9-10-10.94a71.94 71.94 0 0 0-8-2.53h-.1c-1.08-1.56-1.92-3.63-3.64-4.38-9.36-4.09-21.86-1.65-11 11.48-4.76 3.22-9.85 5.76-15.51 6.06s-11.39-1.79-17-3.17a69.86 69.86 0 0 0-29.25-.84C94.6 137 84.77 140.75 75.44 138c-5-1.49-9.51-4.81-14.71-5.46-4.18-.53-8.71 0-12.92-.08-3.09-.08-6.33 2.74-8.22 5-2 2.47-6.22 2.65-4.9 5.57.75 1.67 5.3 6.32 6.81 7.36 5.64 3.9 12.65 5.11 19.42 6.23L100 163.1a10.34 10.34 0 0 1 3.47 1 14.92 14.92 0 0 1 3.11 2.84c6 6.07 15.24 7.08 23.73 7.73 3.37.26 7 .48 10-1.11 1.62-.85 3-2.21 4.74-2.76 2.36-.75 4.89.1 7.36.3 4 .32 8.57.19 11.75-2.26 4-3.07 9.63-.48 11.79-1.54s3.72-1.83 3.92-1.94c5.17-2.94 16.69 1.24 19.16.88a5.58 5.58 0 0 0 1.66-.44 6 6 0 0 0 1.76-1.45c5.7-6.35-1.45-17.8-2.07-18.6z"/><path class="cls-10" d="M104 114a41.16 41.16 0 0 1 16.22-4.37 82.23 82.23 0 0 1 9.42.18 38.85 38.85 0 0 1 9.8 1.4 7 7 0 0 1 2.54 1.29c.6.51 1 1.16 1.59 1.72a9.73 9.73 0 0 0 3 1.9c4.15 1.89 8.74 2.55 13.13 3.77a52.14 52.14 0 0 1 12.88 5.55c2.19 1.32 4.45 3 5 5.51.84 3.48-1.88 6.76-4.57 9.11-7.18 6.26-16.11 11-25.63 11.29a50 50 0 0 1-14.29-2.1 83.07 83.07 0 0 1-19.57-7.68 23 23 0 0 1-6.11-4.65 10.23 10.23 0 0 1-2.73-7"/><path class="cls-11" d="M130.23 68.13A10.08 10.08 0 0 0 122 71c-.93.95-1.7 2.37-1.11 3.57a3.16 3.16 0 0 0 2 1.43 11.58 11.58 0 0 0 6.39-.11 10.49 10.49 0 0 0 5.5-3 3 3 0 0 0 .86-2.35 2.39 2.39 0 0 0-1-1.51 4.67 4.67 0 0 0-3-.91z"/><path class="cls-12" d="M133 136.32a6.39 6.39 0 0 1-1-2.17c-.12-1.27.94-2.47.71-3.72-.37-2-3.62-2.41-4-4.42-.14-.69.1-1.45-.16-2.11s-1.22-1.12-2-1.56c-3.17-1.89-3.8-6.56-7-8.41a25.53 25.53 0 0 0-3.55-1.31 4 4 0 0 1-2.64-2.5 16.28 16.28 0 0 1-.14-1.86 6.87 6.87 0 0 0-1.85-3.26 8.23 8.23 0 0 0-2.09-2c-1-.59-2.29-.71-3.37-1.25-2.34-1.17-3.56-4.18-6.1-4.82a7.59 7.59 0 0 1-1.66-.4 7 7 0 0 1-1-.71 5.62 5.62 0 0 0-3.34-1 10.9 10.9 0 0 0-5.2.08l-9.59 1.7a40.15 40.15 0 0 0-8.73 2.25 20.22 20.22 0 0 0-7 5c-2.08 2.31-3.6 5.07-5.65 7.41a36.68 36.68 0 0 1-4.58 4.23l-1.83.26a6.08 6.08 0 0 0-2 .5 2.15 2.15 0 0 0-1.23 1.54 5.4 5.4 0 0 1 0 1.21c-.19.57-.82.85-1.36 1.13a7.45 7.45 0 0 0-3.18 3.25 15.07 15.07 0 0 1-1.23 2.52c-.63.86-1.62 1.45-2.11 2.39a4.75 4.75 0 0 0 .29 4s.83 5.88 3.26 7.36c2 1.23 4.63 1.47 6.33 3.11a13.06 13.06 0 0 0 1.61 1.63c1.07.73 2.46.66 3.72.92 3.08.66 5.7 3.43 8.83 3.05a7.4 7.4 0 0 1 1.75-.2c1.67.17 2.53 2.12 4 2.94 1.77 1 4 .13 6 .4 3.12.42 5.41 3.5 8.54 3.82.78.08 1.58 0 2.36.11 6.18 1 8.68.23 15.38-1.61 2.38-.65 5-.48 7.17-1.68a8.89 8.89 0 0 1 2.41-1.24c1-.21 2.06.2 3.1.12 1.64-.12 3-1.44 4.68-1.43 1.41 0 2.82 1 4.13.49.82-.31 1.33-1.11 2-1.7 1.15-1.09 2.76-1.51 4.17-2.22s2.81-2 2.76-3.54c-.05-.11 1.39-4.44.39-6.3z"/><g class="cls-13"><path class="cls-14" d="M142.76 133.33c-11.8-.23-24.23-.27-34.55 5.47-3.3 1.84-6.34 4.25-9.94 5.4-2.81.9-5.82 1-8.65 1.83-2.3.7-4.49 1.9-6.89 2-2.87.12-5.56-1.36-8.4-1.74-2.57-.35-5.19.21-7.75-.12-4.25-.55-7.78-3.4-11.06-6.15L41.13 128a7.49 7.49 0 0 0-3.8-2.07c-2.68-.28-4.87 2.55-4.94 5.24s1.33 5.19 2.73 7.5a71.27 71.27 0 0 0 9 12.37C54 161.45 68.47 166.09 82.4 169.7c6.64 1.72 13.54 3.3 20.31 2.19 8.44-1.38 15.61-6.75 23.5-10 3.45-1.43 7.06-2.48 10.35-4.25s6.31-4.42 7.51-7.95c1.7-5-.56-10.4-3-15.09"/></g><path class="cls-15" d="M192.81 144.23c-1-3.22-2.37-6.82-5.48-8.16-1.07-.46-2.33-.64-3.1-1.51a6.55 6.55 0 0 1-1-2.27 9.49 9.49 0 0 0-9-6.2 16.33 16.33 0 0 1-2.42 0c-1.73-.23-3.12-1.5-4.39-2.7a20.75 20.75 0 0 0-5.94-4.33 7.39 7.39 0 0 0-7.06.44c-1.22.9-2.53 2.39-3.9 1.76-.55-.26-.9-.8-1.41-1.13-1.11-.7-2.57-.15-3.7.52a21.59 21.59 0 0 0-8.38 9c-.22.44-.5.94-1 1s-.9-.42-1.3-.75a3.57 3.57 0 0 0-3.55-.42 8.33 8.33 0 0 0-3 2.22l-.81.91a23.4 23.4 0 0 0-5.08 10.84l-.17.09a7.75 7.75 0 0 0-3.4 4.41 9.58 9.58 0 0 0 .09 5.61 9.42 9.42 0 0 0-5 3.33 5 5 0 0 0-1 2.14 2.65 2.65 0 0 0 .58 2.26c.92 1 2.49.86 3.76 1.32a1 1 0 0 1 .47.3 1.23 1.23 0 0 1 .17.57 5.27 5.27 0 0 0 2.83 3.91 7.61 7.61 0 0 0 3.2.69 15 15 0 0 0 6.07-1.1 17.33 17.33 0 0 1 4.27-1.58 10.81 10.81 0 0 1 3.39.3l3.09.59a3.86 3.86 0 0 0 2 0 3.44 3.44 0 0 0 1.44-1.24 18.56 18.56 0 0 0 1.43-2.07 2.69 2.69 0 0 0 .91.68c1 .54 2 1.07 3 1.6a3.41 3.41 0 0 0 1.78.57 3.47 3.47 0 0 0 1.8-.83l3.21-2.45c-.42 1.69 1.23 3.38 3 3.51a6.08 6.08 0 0 0 4.6-2.14c1.22-1.26 2.15-2.77 3.35-4l.11-.1.87-.35a3.64 3.64 0 0 1 1.44.91c1.75 1.36 4.3.64 6.25-.41a17.24 17.24 0 0 0 6.92-6.38c18.12-4.25 10.32-8.52 10.06-9.36z"/><path class="cls-11" d="M115 98.38c1-.42 2-1.12 2.07-2.18a2.59 2.59 0 0 0-1-1.84 8.4 8.4 0 0 0-5.42-2.13 14.22 14.22 0 0 0-5.65 1.16 5.8 5.8 0 0 0-1.87 1.07c-2.4 2.28.81 4.34 2.89 4.68a15.92 15.92 0 0 0 8.98-.76z"/><path class="cls-16" d="M138.86 109.17c-.77-.73-1.84-1.42-2.82-1a2.53 2.53 0 0 0-1.31 1.61 8.31 8.31 0 0 0 .21 5.81 14 14 0 0 0 3.36 4.85 5.56 5.56 0 0 0 1.73 1.28c3 1.3 3.65-2.46 3.14-4.51a16.05 16.05 0 0 0-4.31-8.04zM166 156.36a16.35 16.35 0 0 0 4.74.89 5.84 5.84 0 0 0 2.69-.41 2.64 2.64 0 0 0 1.59-2.08 3.43 3.43 0 0 0-1.31-2.53c-2.25-2.15-6.31-3.85-9.43-2.81a2.87 2.87 0 0 0-1.93 3.37c.28 1.93 1.96 2.98 3.65 3.57zM151.55 52a15.93 15.93 0 0 0 2.77 4 5.73 5.73 0 0 0 2.2 1.59 2.59 2.59 0 0 0 2.59-.38 3.44 3.44 0 0 0 .84-2.72c-.1-3.11-1.82-7.17-4.78-8.6a2.88 2.88 0 0 0-3.74 1.06c-1.16 1.53-.69 3.46.12 5.05z"/><path class="cls-11" d="M155.08 108.9a16.16 16.16 0 0 0-3.63 3.17 5.89 5.89 0 0 0-1.35 2.36 2.61 2.61 0 0 0 .66 2.54 3.43 3.43 0 0 0 2.79.54c3.08-.43 6.93-2.57 8-5.67a2.87 2.87 0 0 0-1.46-3.6c-1.62-.99-3.49-.32-5.01.66z"/><path class="cls-16" d="M173.64 116.17c-1.17 0-2.53.38-3 1.45a2.68 2.68 0 0 0 0 1.91 7 7 0 0 0 3.67 3.77 8.71 8.71 0 0 0 8.21-.06 2.55 2.55 0 0 0 1.25-1.4c.54-2-2.08-3.55-3.55-4.26a13.88 13.88 0 0 0-6.58-1.41z"/><path class="cls-14" d="M106.51 119.86a5 5 0 0 0-1.32 1.89 27.74 27.74 0 0 0-1.51 3.45 1.17 1.17 0 0 0-.08.71.84.84 0 0 0 .63.49 1.83 1.83 0 0 0 1.5-.37 4.48 4.48 0 0 0 1-1.21 10.79 10.79 0 0 0 1.84-4.07c.19-1.33-.98-1.75-2.06-.89zM51.18 126a1.46 1.46 0 0 0 .51.48 1.08 1.08 0 0 0 1.35-.73 2.81 2.81 0 0 0-.11-1.69 17.49 17.49 0 0 0-1.22-3c-.65-1.26-2.61-2.86-2.63-.43a9.47 9.47 0 0 0 2.1 5.37zm29.76-24.76a3.52 3.52 0 0 0-1 1.7 3.31 3.31 0 0 0 2.28.26c1.43-.24 7.55-2.72 5.75-4.76-2.11-2.34-5.7 1.42-7.03 2.8zm-21.7-4.19a3.54 3.54 0 0 0-1 1.69 3.31 3.31 0 0 0 2.28.27c1.43-.24 7.55-2.72 5.75-4.76-2.11-2.35-5.7 1.42-7.03 2.8zm19.19-16.82a2.73 2.73 0 0 0 .83.76 1 1 0 0 0 1.07-.06 1.33 1.33 0 0 0 .34-.91c.12-1.5-.57-5.41-2.8-5-2.64.56-.31 4.15.56 5.21zM90 119.74a2.73 2.73 0 0 0 .83.76 1 1 0 0 0 1.06-.06 1.34 1.34 0 0 0 .35-.91c.12-1.5-.57-5.41-2.8-5-2.6.56-.27 4.15.56 5.21zm-18.18-.95a3.88 3.88 0 0 0-1.72.44 1.38 1.38 0 0 0-.66 1.52c.24.72 1.14.92 1.89.94 1 0 5.28.24 5.1-1.33-.22-1.84-3.43-1.66-4.61-1.57zm41.45 17.8a3.79 3.79 0 0 0-1.72.44 1.37 1.37 0 0 0-.66 1.52c.24.71 1.14.91 1.9.93 1 0 5.27.24 5.09-1.33-.21-1.84-3.48-1.66-4.61-1.56zm-31.79-2.8a3.72 3.72 0 0 0-1.72.44 1.38 1.38 0 0 0-.67 1.52c.25.71 1.15.91 1.9.93 1 0 5.28.24 5.1-1.32-.22-1.85-3.49-1.67-4.61-1.57zm18.21-47.67a1.39 1.39 0 0 0 .6 1.29 1.12 1.12 0 0 0 1-.14 3.23 3.23 0 0 0 1.16-1.51c.42-1 1.57-5.17-.54-5-1.76.12-2.27 4.08-2.22 5.36zm-38 51.11c0 .5.14 1.09.6 1.29a1.1 1.1 0 0 0 1-.14 3.18 3.18 0 0 0 1.17-1.5c.42-1 1.57-5.18-.54-5-1.77.12-2.28 4.12-2.23 5.35zm44.66-28.43a.62.62 0 0 0 .32.14c.28 0 .47-.29.55-.56.51-1.52-.36-6-2.8-5.25s.87 4.94 1.93 5.67z"/><path class="cls-12" d="M75.88 163c.26 0 .55-.17.6-.43s-.16-.47-.37-.63c-.85-.64-4.42-2.32-5-.52s3.81 1.75 4.77 1.58z"/><path class="cls-11" d="M142.06 161.13c.91.55 2.1 1 3 .39a2.56 2.56 0 0 0 .92-1.86 8.37 8.37 0 0 0-1.47-5.62 14.19 14.19 0 0 0-4.34-4 5.8 5.8 0 0 0-2-.87c-3.25-.6-3 3.2-2.08 5.09a16 16 0 0 0 5.97 6.87zm44.44-21.61a10 10 0 0 0-8.55 1.87c-1 .82-2 2.14-1.54 3.4a3.11 3.11 0 0 0 1.76 1.65 11.6 11.6 0 0 0 6.37.67 10.53 10.53 0 0 0 5.82-2.34 3 3 0 0 0 1.14-2.23 2.51 2.51 0 0 0-.81-1.63 4.68 4.68 0 0 0-2.86-1.26zM142 90.06a1.86 1.86 0 0 0-2.54 1.12 4 4 0 0 0 .21 2.35 8.44 8.44 0 0 0 3.71 4.47 3.42 3.42 0 0 0 1.6.53 1.59 1.59 0 0 0 1.45-.73 2.44 2.44 0 0 0 0-1.82 14.45 14.45 0 0 0-1.17-3.14 5.9 5.9 0 0 0-2.26-2.35z"/><path class="cls-12" d="M49.74 154.29c.25.27.58.57.93.46s.46-.53.43-.89a4 4 0 0 0-1-2.09c-.46-.58-.94-1.13-1.43-1.69-.3-.33-1-.74-1.3-.21s.15 1.2.33 1.58a12.07 12.07 0 0 0 2.04 2.84zm13.79 10.4a4.19 4.19 0 0 0 2-.75.55.55 0 0 0 .27-.37c0-.21-.17-.39-.36-.48a3.21 3.21 0 0 0-1.66-.16 14.76 14.76 0 0 0-1.49.17c-.49.09-1.76.59-1.26 1.33.4.51 1.97.32 2.5.26zm33.65 5.68a.88.88 0 0 0 .69 0 .59.59 0 0 0 .23-.69 1.47 1.47 0 0 0-.45-.63c-.54-.51-3.1-2.75-3.68-1.39-.45 1.13 2.46 2.42 3.21 2.71zm-55.77-25.73a.56.56 0 0 0 .61-.1.71.71 0 0 0 .16-.34c.27-.92.62-3.37-1.08-2.71-1.29.51-.81 2.72.31 3.15z"/><path class="cls-17" d="M105.78 131c2.54 2.93 5 6 7.23 9.11a9.92 9.92 0 0 0 2 2.22 8.8 8.8 0 0 0 3.1 1.31 64.14 64.14 0 0 0 15.08 2.23 20.88 20.88 0 0 0 7.31-.8c3.11-1.06 5.66-3.31 8-5.56 1.55-1.46 3.13-3 3.78-5.06a24.75 24.75 0 0 0-3.23-4.26 2.11 2.11 0 0 0-.85-.63 2.24 2.24 0 0 0-1.51.24l-12 5a34.37 34.37 0 0 1-8.91 2.77 11.52 11.52 0 0 1-8.82-2.21 24.68 24.68 0 0 1-3.77-4.77 27.49 27.49 0 0 0-7.07-6.83c-3.14-2.09-7-3.81-8.39-7.29a3.46 3.46 0 0 0-.65-1.23.92.92 0 0 0-1.56.37c-.15.57.54 1.25.76 1.73a42.35 42.35 0 0 0 2.44 5 76.41 76.41 0 0 0 7.06 8.66z"/><g class="cls-18"><path class="cls-19" d="M125.28 136.54l-.52 4.9a2 2 0 0 0 0 .87.66.66 0 0 0 .64.48c.45 0 .61-.6.66-1l.5-4.34a1.75 1.75 0 0 1 .21-.74.58.58 0 0 1 .68-.24.8.8 0 0 1 .31.73c0 1.59-.5 3.34.38 4.67.71-.26.82-1.19.85-1.94a23.36 23.36 0 0 1 .71-4.92 5.47 5.47 0 0 1 1 4.33c-.1.52-.22 1.18.22 1.47 1-1.52.39-3.7 1.5-5.11a5.57 5.57 0 0 1 1.36-1.1l1.77-1.12v3.86c0 .35.06.78.38.9a.59.59 0 0 0 .69-.38 1.73 1.73 0 0 0 .05-.85 14.3 14.3 0 0 1 .55-2.92 1.68 1.68 0 0 1 .28-.91.59.59 0 0 1 .85-.12c.52.55 1.1 1.17 1.65 1.68.13.13.33.25.47.13a.31.31 0 0 0 .09-.2 4.65 4.65 0 0 0-2.71-4.91 9.18 9.18 0 0 0-5.93-.39c-2 .42-3.87 1.16-5.85 1.56a7.26 7.26 0 0 1-3.07.07 12.07 12.07 0 0 1-3-1.4 18.07 18.07 0 0 0-5.59-2 1 1 0 0 0-.57 0 .92.92 0 0 0-.31.28l-1.91 2.21a1.66 1.66 0 0 0-.5.9c0 .35.24.75.58.7a1.47 1.47 0 0 0 .47-.23c.64-.33 1.39.11 2 .53a1.11 1.11 0 0 1 0 1.29 6.44 6.44 0 0 0-.73 1.16c-.15.44 0 1 .44 1.14s1-.34 1.37-.08.46 1 .86.85a6.38 6.38 0 0 1 2.2-2.27.79.79 0 0 1 .76-.14.74.74 0 0 1 .3.41 3.16 3.16 0 0 1-.44 2.47 15.47 15.47 0 0 0-1.23 2.26.64.64 0 0 0 0 .36.48.48 0 0 0 .72.2 1.53 1.53 0 0 0 .5-.69 12.25 12.25 0 0 1 1.36-2.25c.1-.14.25-.28.42-.24a.44.44 0 0 1 .21.25c.48 1.16-.45 2.44-.38 3.69a.59.59 0 0 0 .13.39c.27.27.71-.09.91-.42a9.92 9.92 0 0 0 1.15-2.63 8 8 0 0 1 .4-1.47 1.53 1.53 0 0 1 1.11-1c.48-.01 1.11.73 1.05 1.27z"/><path class="cls-20" d="M148.26 128.33a18.26 18.26 0 0 0-2.61 9.1v2a2.82 2.82 0 0 1-.1.7 3.69 3.69 0 0 1-.3.71l-2 4.12a10.73 10.73 0 0 0 4.69-2.73 29.58 29.58 0 0 0 3.51-4.21 13.33 13.33 0 0 0 1.77-3 20.87 20.87 0 0 0 .69-2.58 6.24 6.24 0 0 0 .31-2.76A2.76 2.76 0 0 0 153 128a3.67 3.67 0 0 0-2.2-.52 10.7 10.7 0 0 0-2.25.46"/></g><path class="cls-21" d="M146.78 126.5c-1.94-.52-4.09-.94-5.86 0l5.43 2.49c.34.16.74.42.67.79a.84.84 0 0 1-.18.35l-1.63 2.21a16.37 16.37 0 0 1 3.83.22q-.85 2.2-1.91 4.32a23.89 23.89 0 0 0 4.11-1.37 30.63 30.63 0 0 0 .38 4.16c0 .22.11.48.33.53a.5.5 0 0 0 .41-.13c1.31-.93 1.56-2.75 1.57-4.36a12.79 12.79 0 0 0-1.4-6.47c-1.17-2-3.66-2.18-5.75-2.74z"/><path class="cls-21" d="M154 125.24c0-.1.1-.2.2-.22a.32.32 0 0 1 .16 0 1.49 1.49 0 0 1 .9.76 1.6 1.6 0 0 1-.27 1.2c-.4.73-2.38 5.16-3.24 3.82-.75-1.05 1.73-4.49 2.25-5.56z"/><path class="cls-2" d="M201.69 76.24a4 4 0 0 0 4.82-1.34c2.45-4.17 1.22-12.43-4.94-10.73-5.93 1.65-5.18 9.9.12 12.07z"/><path class="cls-22" d="M177.08 73.51a11 11 0 0 1 3.15.79 8.09 8.09 0 0 1 2.77 2.49 18.93 18.93 0 0 1 2.68 4.79 2.35 2.35 0 0 1 .21 1.19 2.28 2.28 0 0 1-.7 1.13 32.51 32.51 0 0 1-7.58 5.26 18.57 18.57 0 0 1-4.82 2.15 11.82 11.82 0 0 1-9.18-2.07 22.94 22.94 0 0 1-6.37-7.2c-1.32-2.16-4.68-9.36-4.9-13a55.7 55.7 0 0 1 7.2.65c2.76.73 5.53 1.43 8.32 2.06 3.06.69 6.14 1.25 9.22 1.76z"/><g class="cls-23"><path class="cls-24" d="M152 68.06a99.21 99.21 0 0 0 9.53 16.58 18.07 18.07 0 0 0 2.47 2.93 11.24 11.24 0 0 0 5.12 2.62 7.17 7.17 0 0 0 2.61.16 6.65 6.65 0 0 0 4.84-4.51 19.68 19.68 0 0 0 .75-6.85l-.08-8.22a1 1 0 0 1 .24-.79 1 1 0 0 1 .42-.13 15.79 15.79 0 0 1 5.65.19l18.36 24L175 95.89l-16.32-4.58-12.55-24.56"/></g><path class="cls-25" d="M164.21 82.79a5.91 5.91 0 0 0 .08 2.14 4.17 4.17 0 0 0 .93 1.55 7.54 7.54 0 0 0 4.78 2.45 1.17 1.17 0 0 0 1.12-.32 1.21 1.21 0 0 0 .13-.73 19.11 19.11 0 0 0-1.21-5l-1.44-4.22a20.68 20.68 0 0 0-1.63-3.88c-.43-.73-1.39-2.4-1.91-.93a17.19 17.19 0 0 0-.41 4zm9.04 3.03c.13.32.39.69.71.58a.59.59 0 0 0 .31-.33 12.61 12.61 0 0 0 1.15-4.51 6.1 6.1 0 0 0-.18-3.26 5.39 5.39 0 0 0-2-2.07c-.8-.56-1.65-1.06-2.49-1.56a1.77 1.77 0 0 0-1.27-.36c-1.36.32.88 4.41 1.18 5.15q1.34 3.2 2.59 6.36zM162 73.33a3.41 3.41 0 0 1 1.6-1.17 4.57 4.57 0 0 1-.15 2.63c-.43 2-.26 4.23-1 6.19a1.2 1.2 0 0 1-.4.62.9.9 0 0 1-.91 0 2.41 2.41 0 0 1-.67-.68c-.6-.83-2.21-3.29-1.67-4.35.23-.44 1.11-1 1.47-1.39zm-5.45 1.38a1.21 1.21 0 0 0 1 .42 1.66 1.66 0 0 0 .68-.36 12.87 12.87 0 0 0 1.89-1.72.89.89 0 0 0 .3-.54c0-.37-.35-.61-.68-.78a5 5 0 0 0-1.57-.6c-.77-.11-2.37-.17-2.7.76-.23.73.53 2.32 1.08 2.82z"/><path class="cls-22" d="M193.35 123.53a46.69 46.69 0 0 1 1.91 11.81 43.35 43.35 0 0 0 7.4-8.88 19.46 19.46 0 0 0 2.93-11 30.44 30.44 0 0 0-2-7.81c-1-2.77-2.2-5.81-4.87-7a10 10 0 0 0-3.25-.73c-1.87-.17-9.54 1.73-9.54 1.73a31.82 31.82 0 0 1 2.8 5.23q2.47 8.24 4.62 16.65z"/><g class="cls-26"><path class="cls-24" d="M185.07 101.79l9.49-.29a5.15 5.15 0 0 1 1.52.11 3.61 3.61 0 0 1 1.59 1c1.92 2 2.21 5.1 2.23 7.9a62.53 62.53 0 0 1-4.72 25c-.73 1.72-1.5 3.88-.28 5.3a4 4 0 0 0 2.55 1.15c4.84.68 9.7-2 12.78-5.78s4.64-8.59 5.77-13.35a92.07 92.07 0 0 0 1.89-10.8 35 35 0 0 0 .1-9.15 15.56 15.56 0 0 0-3.69-8.26 16.12 16.12 0 0 0-4.39-3.24 18.48 18.48 0 0 0-4.6-1.77 20.67 20.67 0 0 0-5.38-.42 32.21 32.21 0 0 0-16.68 5.47"/></g><path class="cls-25" d="M196.31 104.7a1.22 1.22 0 0 1 .64-.3c.42 0 .69.43.86.82a9.72 9.72 0 0 1 .76 3.76 1.15 1.15 0 0 1-.11.55 1 1 0 0 1-.39.36 11.72 11.72 0 0 1-7.08 1.78c-.49 0 0-1.47.13-1.66a11.66 11.66 0 0 1 1.58-1.94 27.4 27.4 0 0 1 3.61-3.37zm.63 8.04c.53-.08 1.16-.13 1.49.29a1.48 1.48 0 0 1 .18 1c-.18 2.46-.54 5.05-2.1 7a.57.57 0 0 1-.3.23c-.21 0-.39-.15-.52-.33l-2.69-3.61c-.49-.64-2-2.74-1.4-3.62.26-.37 2-.4 2.46-.47zM190 107c0 .24.13.54.37.59a.6.6 0 0 0 .47-.16 23 23 0 0 0 2.49-2c.5-.47 1-1.13.77-1.77a1.57 1.57 0 0 0-.91-.76c-.87-.38-3-1-3.63 0s.26 3.18.44 4.1zm6.45 16.56a2.07 2.07 0 0 1 .5.68 2 2 0 0 1 .06.81 5.09 5.09 0 0 1-.72 2.83.48.48 0 0 1-.4.24.47.47 0 0 1-.25-.17 3.09 3.09 0 0 1-.71-1.62c-.11-.59-.13-1.19-.22-1.78-.07-.42-.93-2.91-.59-3.11s2.05 1.83 2.33 2.12z"/></svg>