<svg viewBox="0 0 250 250" xmlns="http://www.w3.org/2000/svg" xmlns:xlink="http://www.w3.org/1999/xlink"><clipPath id="a"><path d="m56 168.55c16.56 1.91 33.3 1 49.93-.11 26.42-1.81 53.29-4.43 77.7-14.72 3.71-1.57 7.42-3.35 10.33-6.13s5.1-6.75 4.57-10.75c-.89-6.61-14.56-10.56-14.56-10.56-32.46-8.08-66.83-3.93-99.18 4.54-14.41 3.77-28.69 8.42-41.59 15.94a34.13 34.13 0 0 0 -7.81 6.24 5.92 5.92 0 0 0 -2 3.74 3.92 3.92 0 0 0 .59 2 8.54 8.54 0 0 0 1.08 1.45c5.16 5.69 13.3 7.48 20.94 8.36z"/></clipPath><clipPath id="b"><path d="m44.46 175.81a12.68 12.68 0 0 1 1.92-10c3.4-5 7.57-9.27 12.71-11.85 2.81-1.4 5.83-2.25 8.7-3.51 7.47-3.31 13.63-9.36 21-12.79 12.08-5.57 26.09-3.65 39-6.49 3.48-.77 7-1.89 10.54-1.6 4.28.35 8.36 2.72 12.65 2.77 4.89.07 9.65-2.88 14.45-1.67 3.55.9 6.33 3.87 9.27 6.27 3.92 3.21 8.4 5.54 12.1 9s6.61 8.74 5.75 13.88c-1.14 6.82-7.92 10.16-13.77 12.77a198.78 198.78 0 0 0 -25.32 13.56c-7.69 4.87-15.72 10.46-24.73 9.93-6.13-.36-11.87-3.56-17.89-5a31.55 31.55 0 0 0 -15.83.27c-8.64 2.42-16.72 8.61-25.65 7.13-5.87-1-10.9-5.13-15.64-9.15-4.21-3.57-8.78-7.81-9.32-13.52z"/></clipPath><clipPath id="c"><path d="m149.08 130.31c-1.55-1.39-4.84-2.11-6.78-2.81-4.74-1.72-9.78-3-14.85-2.41-2.76.3-5.45 1.12-8.21 1.33-2.5.19-5.09-.11-7.45.75-1.32.48-2.51 1.3-3.87 1.7-2 .57-4.18.18-6.1.92-1.63.63-2.88 2-4.49 2.67-1.83.76-4 .56-5.73 1.53-1.33.73-2.22 2-3.32 3.09-2.6 2.48-6.41 3.58-8.59 6.45-.6.78-1 2-.22 2.66a2 2 0 0 0 .91.34c3.89.62 7.49-2 11.32-2.91 2.72-.66 5.59-.46 8.32-1.1a38.23 38.23 0 0 1 5.11-1.29 11.78 11.78 0 0 1 2 0 3.71 3.71 0 0 1 2.61 1.37 4.21 4.21 0 0 0 2.21 1.72 4.49 4.49 0 0 0 1.93-.09c2.79-.61 5.74-1.75 8.39-.69.92.37 1.72 1 2.62 1.39 2.44 1.13 5.29.68 8 .22 2-.35 4.37-1 5.08-2.89.6-1.64-.2-3.83 1.1-5a4 4 0 0 1 1.53-.7c1.09-.31 2.62.1 3.27-.95 1.35-2.15.43-2.75 3.13-3.07 2.06-.23 4-.54 2.08-2.23z"/></clipPath><path d="m97.29 56.87a14.16 14.16 0 0 0 1.28-4.87c.12-5-4.94-9-9.95-9.31s-9.79 2-14.05 4.69c-3.57 2.22-7.18 4.89-9.18 8.62s-2 8.88 1 11.92a10.61 10.61 0 0 1 2 2.07c1.23 2.13-.28 4.82-2.06 6.52s-4 3.28-4.54 5.68c-1.79 7.4 8.21 14.52 14.26 9.64 2.54-2 4-5.4 5.87-8 2.71-3.92 5.53-7.72 8-11.83a111.79 111.79 0 0 0 7.37-15.13z" fill="#efefef"/><path d="m93.58 170.61c-14.17-1.22-28.28-5.73-39.53-14.43-4.63-3.57-8.91-8.15-10.14-13.88s.79-11.55 3.9-16.4c8.65-13.49 24.85-20.05 35.69-31.85 13.38-14.57 17.5-35.96 31.39-50.05a48.9 48.9 0 0 1 31.33-14.43 15.86 15.86 0 0 1 7.41.88c5.82 2.53 7.58 10.24 6.06 16.39s-5.37 11.43-8 17.22-3.75 13-.06 18.14c3.08 4.29 8.59 5.92 13.66 7.4q8.94 2.61 17.71 5.75c6 2.16 12.7 5.28 14.38 11.44 1.49 5.44-1.67 11.09-5.47 15.27a67 67 0 0 1 -15.35 12c-3.8 2.28-7.88 4.49-10.33 8.19-3.28 4.93-3 11.43-5.25 16.9-2.42 5.77-7.69 10-13.53 12.28s-12.18 2.74-18.45 2.57" fill="#efefef"/><path d="m167.6 197.2c-26.54-6.46-53.45-12.65-80.51-8.3-7.15 1.15-14.34 3.06-21 7.62a4.59 4.59 0 0 0 -1.73 2.74c-.78 3.23 1.2 5.12 2.9 6.14 8.92 5.4 18.49 8.07 28.06 10.1a231.15 231.15 0 0 0 44.48 5c8.41.13 16.86-.27 25.24-2.61a30.32 30.32 0 0 0 7.85-3.54c2-1.27 4.46-3.1 4.36-7.37a9.21 9.21 0 0 0 -2.83-6.36 11 11 0 0 0 -4.21-2.56z" fill="#efefef"/><path d="m56 168.45c16.55 1.91 33.3 1 49.92-.1 26.43-1.82 53.29-4.44 77.7-14.73 3.71-1.56 7.42-3.34 10.33-6.13s5.1-6.75 4.57-10.74c-.88-6.62-14.56-10.56-14.56-10.56-32.46-8.08-66.82-3.93-99.18 4.54-14.4 3.77-28.68 8.42-41.58 15.93a34 34 0 0 0 -7.8 6.22 5.92 5.92 0 0 0 -2 3.74 4.08 4.08 0 0 0 .59 2 9 9 0 0 0 1.08 1.46c5.12 5.71 13.26 7.49 20.93 8.37z" fill="#89cfbb"/><path d="m115.78 89.25c-.61 5.33-4.58 9.53-7.41 14.09-1.28 2-2.37 4.45-1.84 6.8.92 4.11 6.25 6 7.36 10 .89 3.26-1.25 6.49-2.06 9.77a12.47 12.47 0 0 0 7.84 14.67 8.23 8.23 0 0 0 3.29.55 11.37 11.37 0 0 0 2.62-.57 20.7 20.7 0 0 0 7.51-3.58c2.13-1.81 3.59-4.66 3-7.39-.35-1.69-1.41-3.14-1.88-4.79-1.05-3.66.9-7.7-.23-11.33-.85-2.72-3.25-4.63-5.68-6.11-2-1.19-4.21-2.51-4.62-4.75-.3-1.64.51-3.25 1.18-4.77 1-2.19 1.7-4.61 1.18-6.94a7 7 0 0 0 -6.04-5.29" fill="#efc85b"/><path d="m118.65 109.87a5.74 5.74 0 0 0 1.42 2.91c.5.54 1.1 1 1.64 1.48a5.94 5.94 0 0 1 2.07 4.45c0 .74-.27 1.47-.38 2.21a6.1 6.1 0 0 0 .72 3.91 5.15 5.15 0 0 0 3.13 2.41l-1.54-1.78a5.91 5.91 0 0 1 -.91-1.27 5.57 5.57 0 0 1 -.33-2.66l.11-3.46a6.91 6.91 0 0 0 -.1-1.82 7.08 7.08 0 0 0 -2.42-3.28 6.31 6.31 0 0 1 -2.29-3.36 3.28 3.28 0 0 1 .33-2 1.51 1.51 0 0 0 .23-.56c.11-1-1-.06-1.22.26a3.64 3.64 0 0 0 -.46 2.56z" fill="#ffd95f"/><path d="m166.55 115.73c0 .52.08 1 .08 1.56a19.08 19.08 0 0 1 -.26 2.37 7.08 7.08 0 0 0 .58 4.17c.83 1.54 2.44 2.46 4 3.3l2.35 1.29a5.25 5.25 0 0 0 1.67.68 5.4 5.4 0 0 0 1.6-.11l3.45-.58a6.23 6.23 0 0 0 2.33-.73 9.26 9.26 0 0 0 2.21-2.77c1-1.47 2.52-2.65 3.19-4.32.84-2.12.19-4.5-.48-6.68a18.54 18.54 0 0 0 -2.1-5 6.29 6.29 0 0 0 -4.42-2.94c-.93-.09-1.86.1-2.78 0a11.17 11.17 0 0 0 -2.28-.27 4.6 4.6 0 0 0 -1.84.7c-3.25 1.86-7.36 5.18-7.3 9.33z" fill="#824646"/><path d="m178.48 108.15a1.32 1.32 0 0 0 -1 .41c-.31.45.08 1.09.57 1.33s1.07.27 1.57.5a4 4 0 0 1 1.61 1.85l2.38 4.27c.11.2.3.43.51.36a.5.5 0 0 0 .23-.2 5.35 5.35 0 0 0 -2.22-8 10.25 10.25 0 0 0 -1.54-.5" fill="#5e3434"/><path d="m170 116.47c.15 1 1 1.7 1.09 2.66s-.45 1.56-.49 2.37c-.06 1.39 1.22 2.42 2.37 3.21l1.54 1.05a1.42 1.42 0 0 0 .7.3 1.31 1.31 0 0 0 .68-.22c.42-.23.82-.47 1.23-.72.84-.53 1.77-1.37 1.53-2.35s-1.29-1.25-2.21-1.37a3.41 3.41 0 0 1 -2.48-1c-.72-1 .07-2.6-.56-3.69a6.75 6.75 0 0 1 -.61-.93c-.3-.81.78-3.38-1.14-2.54a3.84 3.84 0 0 0 -1.65 3.23z" fill="#935650"/><path d="m149.27 67.05a19.43 19.43 0 0 0 -4.88 1.85 45.83 45.83 0 0 0 -4.3 3.46c-9.47 7.4-35.6 5.59-34.51 8.86s30.42-3.71 31.42-2.17-6 2.45-9.2 3l-15.8 2.84a2.48 2.48 0 0 0 -1.73.82 1.72 1.72 0 0 0 1 2.34 5 5 0 0 0 2.87-.07l18.86-4.26c2.11-.48 5.32-1.69 6.41-.53s-2.33 2.55-4 3c-7.27 2.12-21.38 3.3-22.12 5.09s4.67 1.56 7.16 1.1l7.16-1.33a102.43 102.43 0 0 0 12.29-2.73c5.8-1.89 7-2.44 8.87-7.6.66-1.86 1.14-3.78 2.37-5.32 1.75-2.17 4.46-3.28 7.06-4.28 17.73-6.81 37-10.89 55.54-15.1 1.85-.43 3.14-2.91 2.91-4.8-.58-4.91-9.45-2-11.73-1.33-6 1.68-15.92 7.15-21.91 8.84-12.15 3.44-21.66 4.91-33.74 8.32z" fill="#ddd"/><path d="m101.08 76.89a39.08 39.08 0 0 0 1.92 10.42c1.26 3.31 3.58 6.38 6.86 7.72 1.06.43 2.18.67 3.2 1.17a22 22 0 0 1 4.08 3.23c1.91 1.62 4.51 2.88 6.89 2.07 1.6-.55 2.78-1.94 4.35-2.57a13.77 13.77 0 0 1 4.85-.52c1.63-.06 3.43-.44 4.41-1.75a4.56 4.56 0 0 0 .6-3.61 18.26 18.26 0 0 0 -1.32-3.52 33.62 33.62 0 0 1 -2.26-7.46c-.6-3.34-.86-7.12-3.4-9.37a12.54 12.54 0 0 0 -3.72-2 31.36 31.36 0 0 0 -6.77-2.15 10.62 10.62 0 0 0 -6.91 1 3 3 0 0 1 -3.35.39 8 8 0 0 0 -7.17 1.54 5.28 5.28 0 0 0 -2.26 5.41z" fill="#ffd95f"/><path d="m122.92 96.32c.73-.53-6.32-11.5-7.89-17.83-.18-.7-1.08-5.61-2-5.4-1.15.27.38 4.55.53 5.11a52 52 0 0 0 4.89 12.15c1.3 2.14 3.74 6.5 4.47 5.97z" fill="#ffb757"/><path d="m128.42 96.31c.36.51.83 1.06 1.44 1-.71-1.53-1.55-3-2.39-4.45l-3.64-6.33-1.83-3.07a16.66 16.66 0 0 0 -1.85-3.21c-.8-.8-.85 0-.54.83.39 1 .94 2 1.43 3q1.5 3 3.22 5.9c1.32 2.16 2.74 4.28 4.16 6.33z" fill="#ffb757"/><path d="m112.76 94c.1.27.31.58.59.52s.31-.53.23-.84a77.14 77.14 0 0 1 -2.15-13.4c-.07-.89-.25-2-1.09-2.27-1.13 2.18-.26 5.79.16 8.15a39 39 0 0 0 2.26 7.84z" fill="#ffb757"/><path d="m128.1 69.94a35.37 35.37 0 0 0 -5.18-2.15 12 12 0 0 0 -5.55-.44c-1.12.21-2.19.62-3.31.82a21.11 21.11 0 0 1 -4.21.12 11.22 11.22 0 0 0 -4.16.49 4.49 4.49 0 0 0 -2.88 2.86.73.73 0 0 0 0 .33 1 1 0 0 0 .27.43c.59.74.6 1.88 1.32 2.49s2.11.34 3.21.22a6.27 6.27 0 0 1 3.66.68c.84.44 1.56 1.06 2.34 1.57a4.63 4.63 0 0 0 2.63.9 5.84 5.84 0 0 0 2.2-.7l2.14-1a2.44 2.44 0 0 0 .9-.61 3 3 0 0 0 .45-1 2.76 2.76 0 0 1 1.89-1.94 3.62 3.62 0 0 1 1.27.13l2.95.7a2 2 0 0 0 1.85-.17 1.57 1.57 0 0 0 .44-.88 2.35 2.35 0 0 0 -1.43-2.56z" fill="#ec2044"/><path d="m125.71 75.81a3.66 3.66 0 0 0 -1.95 1.92 4.37 4.37 0 0 0 .33 2.29 11 11 0 0 1 .42 2.67 4.49 4.49 0 0 0 .57 2.85.89.89 0 0 0 .78.38c.42-.08.6-.57.69-1a11.76 11.76 0 0 1 .91-3.54c.36-.62.87-1.14 1.28-1.73a2.71 2.71 0 0 0 .58-2 2.28 2.28 0 0 0 -1.07-1.4 5.43 5.43 0 0 0 -1.7-.62z" fill="#ec2044"/><path d="m131.8 76.75c.14.3.36.57.5.88s.2.58.44.72a.73.73 0 0 0 .9-.23 2.13 2.13 0 0 0 .34-1c.16-1 .58-3.31-.91-3.43s-1.72 2.09-1.27 3.06z" fill="#ec2044"/><g clip-path="url(#a)"><path d="m44.46 175.81a12.68 12.68 0 0 1 1.92-10c3.4-5 7.57-9.27 12.71-11.85 2.81-1.4 5.83-2.25 8.7-3.51 7.47-3.31 13.63-9.36 21-12.79 12.08-5.57 26.09-3.65 39-6.49 3.48-.77 7-1.89 10.54-1.6 4.28.35 8.36 2.72 12.65 2.77 4.89.07 9.65-2.88 14.45-1.67 3.55.9 6.33 3.87 9.27 6.27 3.92 3.21 8.4 5.54 12.1 9s6.61 8.74 5.75 13.88c-1.14 6.82-7.92 10.16-13.77 12.77a198.78 198.78 0 0 0 -25.32 13.56c-7.69 4.87-15.72 10.46-24.73 9.93-6.13-.36-11.87-3.56-17.89-5a31.55 31.55 0 0 0 -15.83.27c-8.64 2.42-16.72 8.61-25.65 7.13-5.87-1-10.9-5.13-15.64-9.15-4.21-3.57-8.78-7.81-9.32-13.52z" fill="#ffd95f"/><g clip-path="url(#b)" fill="#efc85b"><path d="m43.19 158.72c7.65-2.08 15.4 2.05 23 4.45 8.23 2.63 17 3.23 25.58 3.35 7.58.11 15.16-.13 22.73-.38a89.24 89.24 0 0 0 14.7-1.29c9-1.81 17.23-6.36 25.1-11.12a40.68 40.68 0 0 1 7.26-3.77c2.61-.92 5.4-1.27 8-2.2 6.24-2.24 10.77-7.54 15.94-11.7 1.74-1.4 3.76-2.74 6-2.64a9.55 9.55 0 0 1 3.57 1.09c4.47 2.09 8.9 4.68 11.82 8.66 4.31 5.88 4.64 13.81 3.48 21a60.91 60.91 0 0 1 -9.12 23.64c-7.63 11.69-19.21 20.52-32.06 26s-26.9 7.71-40.86 7.83c-23.66.21-47.21-5.58-68.71-15.48-8.52-3.92-17-8.71-22.64-16.21s-7.73-18.32-2.88-26.35"/><path d="m94 145.05c2.07-.06 4.14-.25 6.2-.43l12.14-1.11a10 10 0 0 1 2.45 0 24.34 24.34 0 0 1 3 .88c4 1.08 8.16-.76 12.24-.36 1.45.14 2.87.56 4.33.64a5 5 0 0 0 4-1.3c.92-1 1.16-2.44 2-3.49s2.11-1.51 3.14-2.31a13 13 0 0 0 2.52-2.86c.94-1.31 1.87-3.19.77-4.37a3.39 3.39 0 0 0 -2.69-.71c-6.69.26-13.12 2.53-19.7 3.78-7.65 1.45-15.51 1.53-23.16 3a27.24 27.24 0 0 0 -4 1c-1.06.38-2.07.86-3.13 1.23a16.76 16.76 0 0 1 -10.77.14 16.53 16.53 0 0 0 -3.27-1c-1.77-.21-3.78.77-3.64 2.82.13 1.69 1.88 2.24 3.27 2.65a46.06 46.06 0 0 0 14.3 1.8z"/></g></g><g fill="#efc85b"><path d="m88.74 145.62c4.74 3.43 10.25 6 16.09 6.41.47 0 1.07 0 1.23-.47a4 4 0 0 0 -1.58-.37 30.27 30.27 0 0 1 -8.19-2.54 28.83 28.83 0 0 1 -3.6-1.69 45.73 45.73 0 0 0 -4.69-2.89c-.19-.08-.44-.13-.56 0a.34.34 0 0 0 -.06.26 1.1 1.1 0 0 0 .62.91"/><path d="m89.64 152a4.72 4.72 0 0 0 2.24.88 3 3 0 0 0 -1.26-1c-3-1.58-5.36-4-7.85-6.26-.45-.41-2-1.07-1.12 0a18 18 0 0 0 2.35 2.22 46 46 0 0 0 5.64 4.16z"/><path d="m95.64 144.48a16.49 16.49 0 0 0 5.14 1.35c-.08-.41-.56-.58-1-.7a36.58 36.58 0 0 1 -7.14-3.13c-.49-.27-2.57-1.78-3-1.39-.82.73 1.61 1.76 2 2a39 39 0 0 0 4 1.87z"/><path d="m147.3 140.17c.8-.1-1.36 2.32-2.46 3.13a110.91 110.91 0 0 1 -11.91 8 77 77 0 0 1 -21.24 7.56 23.42 23.42 0 0 1 -6.12.74c-.32 0-1.74-.07-1.37-.71.17-.29 1.37-.12 1.65-.14a54.62 54.62 0 0 0 10.89-2.12 78.46 78.46 0 0 0 20.43-9q2.72-1.69 5.28-3.59 1.25-.93 2.46-1.89c.41-.33 1.59-1.87 2.39-1.98z"/><path d="m131.67 155.76c8.51-3.43 16.92-7.65 23.32-14.21a3.52 3.52 0 0 0 1.17-2 6.12 6.12 0 0 0 -2.26 1.21c-2.3 1.76-4.28 3.91-6.6 5.65a38.3 38.3 0 0 1 -3.82 2.47 100.38 100.38 0 0 1 -10.83 5.42q-2.81 1.2-5.68 2.23c-1.41.5-3.57.78-4.75 1.65.83.42 2.29.08 3.15-.16a55.81 55.81 0 0 0 6.3-2.26z"/></g><path d="m149.08 130.31c-1.55-1.39-4.84-2.11-6.78-2.81-4.74-1.72-9.78-3-14.85-2.41-2.76.3-5.45 1.12-8.21 1.33-2.5.19-5.09-.11-7.45.75-1.32.48-2.51 1.3-3.87 1.7-2 .57-4.18.18-6.1.92-1.63.63-2.88 2-4.49 2.67-1.83.76-4 .56-5.73 1.53-1.33.73-2.22 2-3.32 3.09-2.6 2.48-6.7 2.5-8.88 5.36-.6.79-2.4 1.38-1.62 2a25.8 25.8 0 0 0 3.58.39c3.89.62 6.51-.29 10.34-1.21 2.72-.66 5.59-.46 8.32-1.1a38.23 38.23 0 0 1 5.11-1.29 11.78 11.78 0 0 1 2 0 3.71 3.71 0 0 1 2.61 1.37 4.21 4.21 0 0 0 2.21 1.72 4.49 4.49 0 0 0 1.93-.09c2.79-.61 5.74-1.75 8.39-.69.92.37 1.72 1 2.62 1.39 2.44 1.13 5.29.68 8 .22 2-.35 4.37-1 5.08-2.89.6-1.64-.2-3.83 1.1-5a4 4 0 0 1 1.53-.7c1.09-.31 2.62.1 3.27-.95 1.35-2.15.43-2.75 3.13-3.07 2.06-.23 4-.54 2.08-2.23z" fill="#ec2044"/><g clip-path="url(#c)"><path d="m89.53 131.51a127.77 127.77 0 0 0 25.89 2.17 17.69 17.69 0 0 0 7.37-1.26c1.37-.66 2.57-1.63 4-2.22a16.42 16.42 0 0 1 3.46-.88q7-1.24 14.07-2.65c-3.78-2.29-8.32-3.07-12.13-5.31a45 45 0 0 0 -4.4-2.65 18 18 0 0 0 -6-1.21 92.54 92.54 0 0 0 -13.73 0 23.21 23.21 0 0 0 -4.77.73 26.42 26.42 0 0 0 -5.17 2.35c-2.29 1.25-4.73 2.64-5.83 5-.61 1.3-.77 2.82-1.67 3.93" fill="#9e1c4c"/></g><path d="m84.69 60.66a22.43 22.43 0 0 0 4.39 2c4.47 1.42 9.32.55 13.9-.44 1-.23 2.27-.64 2.5-1.67-7-3.46-9.54-4.85-17.23-6.3-1.49-.27-12.4-.12-12.4-.12s6.47 5.15 8.84 6.53z" fill="#360"/><path d="m146.83 87.54c-5.55 3.36-11.37 9.09-13.66 11.45l-6.58 2.86c.13.45.42 1 .91 1a1.28 1.28 0 0 0 .33-.11l5.24-2.34a5.79 5.79 0 0 0 2.25.32c5-.81 10.17-1.84 14.07-4.88a23.3 23.3 0 0 0 3.55-3.61c1.82-2.2 6.22-9.5 6.22-9.5s-10.96 3.98-12.33 4.81z" fill="#519600"/><path d="m197.7 148.59c.35-.21-.1-.65-.49-.77a43.1 43.1 0 0 0 -6.49-1.52 11.63 11.63 0 0 0 -4.95.06c-1.84.55-3.26 1.84-4.82 2.88a14 14 0 0 1 -4 1.89c-1.47.4-3 .51-4.51.81a7.66 7.66 0 0 0 -4 1.87c-.3.3-.54.65-.85.95a9.76 9.76 0 0 1 -2.7 1.57c-4.3 2-7.82 5.17-11.26 8.25a15.4 15.4 0 0 0 -2.49 2.62 91.61 91.61 0 0 0 10.15-1.49c10.66-2 21.55-4 31-9a12.74 12.74 0 0 0 4.18-3.07 5.24 5.24 0 0 0 .91-1.63" fill="#ec2044"/><path d="m40.49 166.7a1.47 1.47 0 0 1 1.65-1.6c5 .53 10.12-1.19 15.21-1.07 2.48.06 5 .56 7.43.35a35.33 35.33 0 0 1 4.57-.44 17.35 17.35 0 0 1 4.35 1 48.19 48.19 0 0 0 16.92 2.1c2.67-.15 5.33-.53 8-.74 5.2-.4 10.43-.2 15.63-.08a51.79 51.79 0 0 1 6.47.54c1.49.23 3.37.6 4.17 2a3.52 3.52 0 0 1 -.49 3.75 10.36 10.36 0 0 1 -3.14 2.46l-14.46 8.53c-5 3-10.27 6-16.08 6.47a30.18 30.18 0 0 1 -9.16-.95c-10.39-2.43-20-7.33-29.51-12.19-4.68-2.39-9.76-5.22-11.56-10.16z" fill="#ec2044"/><path d="m193.94 147.59c-2.91 2.78-6.62 4.56-10.33 6.13-24.41 10.29-51.28 12.91-77.7 14.72-16.63 1.15-33.37 2-49.93.11-7.62-.88-15.76-2.67-20.89-8.38a8.54 8.54 0 0 1 -1.09-1.45c8.26 16.61 20.37 31.53 37.76 38 9.23 3.43 19.24 4 29.09 4.27 15.45.34 31.07-.26 46-4.14s29.33-11.26 39.61-22.81 13.38-26.83 12-37.19c.54 3.99-1.61 7.96-4.52 10.74z" fill="#003d32"/><path d="m57.79 90.8c-.22.48-.38 1-.61 1.44a18.44 18.44 0 0 1 -1.25 2 7.07 7.07 0 0 0 -1.28 4c.09 1.75 1.15 3.28 2.17 4.7l1.56 2.18a5.35 5.35 0 0 0 1.22 1.33 5 5 0 0 0 1.48.59l3.37 1a5.94 5.94 0 0 0 2.42.35 9.28 9.28 0 0 0 3.18-1.54c1.57-.89 3.42-1.31 4.75-2.53 1.67-1.54 2.11-4 2.45-6.22a18.66 18.66 0 0 0 .28-5.47 6.28 6.28 0 0 0 -2.72-4.56c-.8-.48-1.72-.71-2.51-1.19a11.72 11.72 0 0 0 -1.94-1.23 4.47 4.47 0 0 0 -2-.15c-3.7.32-8.83 1.5-10.57 5.3z" fill="#824646"/><path d="m57.56 94.82a3 3 0 0 0 -.64 2.67c.14.37.4.68.54 1.05a7 7 0 0 1 .2 1.72 5.17 5.17 0 0 0 2 3.29 4.31 4.31 0 0 0 2.16 1.06c.82.09 1.64-.19 2.45-.09a16.87 16.87 0 0 1 2.35.75 1.92 1.92 0 0 0 2.21-.61 2.13 2.13 0 0 0 -.39-2.14 1.38 1.38 0 0 0 -.35-.37c-.43-.25-1 .06-1.42.23a3.24 3.24 0 0 1 -3.33-1 9.27 9.27 0 0 1 -1.76-3.52c-.29-.89-.59-1.78-.83-2.69-.11-.46-.21-2.47-.51-2.72-.81-.69-2.24 1.76-2.68 2.37z" fill="#5e3434"/><path d="m68 94.16c.32.81.8 1.68 1.64 1.88a.41.41 0 0 0 .36-.04.44.44 0 0 0 .2-.36 9.67 9.67 0 0 0 .16-2.34 3 3 0 0 1 .1-1.41c.3-.67 1.11-1 1.1-1.86 0-1-1-1.43-1.87-1.57a10.29 10.29 0 0 0 -4.47.44c-1 .37-1.74 1.1-.87 2.14.61.73 1.57.52 2.33 1a3.92 3.92 0 0 1 1.32 2.12z" fill="#935650"/><path d="m124.17 138.91a10.61 10.61 0 0 0 1.26.84 4.64 4.64 0 0 0 2.13.34c1.42 0 2.83-.1 4.24-.21a3.09 3.09 0 0 0 1.72-.47.47.47 0 0 0 .21-.36c0-.19-.22-.29-.39-.36l-3.18-1.29a3.28 3.28 0 0 0 -1.7-.33 9.77 9.77 0 0 0 -1.23.48 5.83 5.83 0 0 1 -3.22-.4 8.91 8.91 0 0 0 -5 0c.44.6 1.63.47 2.35.61a7.63 7.63 0 0 1 2.81 1.15z" fill="#ff2453"/><path d="m90.76 139.35a5.14 5.14 0 0 0 3.5.15c.73-.23 1.4-.63 2.15-.81 1.51-.38 3.09.15 4.64 0 .26 0 .59-.24.43-.44a.27.27 0 0 0 -.15-.1 10.66 10.66 0 0 0 -3.73-.8c-1.35 0-2.64.53-3.94.5-.73 0-1.4-.61-2.12-.52-.97.14-2.07 1.48-.78 2.02z" fill="#ff2453"/><path d="m139 132.34a3.24 3.24 0 0 0 1.07-.13l2.12-.52a2.06 2.06 0 0 0 .79-.3.77.77 0 0 0 .36-.72 1 1 0 0 0 -.32-.53c-.58-.6-.65-1-1.45-1.31-.46 1.4-4.59 2.11-5.57 3-.47.19-1.44.17-1.5.29s2.93.09 4.5.22z" fill="#ff2453"/><path d="m143 134.28c-.5-.15-1-.25-1.51-.41a19.89 19.89 0 0 1 -2.17-1 7 7 0 0 0 -4.15-.75c-1.72.32-3.09 1.57-4.36 2.77l-2 1.85a4.9 4.9 0 0 0 -1.15 1.38 5.13 5.13 0 0 0 -.4 1.55l-.5 3.46a6.13 6.13 0 0 0 0 2.45 9.47 9.47 0 0 0 1.95 2.95c1.09 1.43 1.75 3.21 3.14 4.36 1.75 1.46 4.22 1.57 6.49 1.61a18.8 18.8 0 0 0 5.46-.44 6.32 6.32 0 0 0 4.16-3.31c.37-.85.48-1.8.85-2.65a12.61 12.61 0 0 0 1-2.08 4.69 4.69 0 0 0 -.11-2c-.89-3.59-2.78-8.51-6.7-9.74z" fill="#824646"/><path d="m141.51 142.44a2.5 2.5 0 0 1 -1.41 1.06 10.9 10.9 0 0 0 -2.39 1.13 2.74 2.74 0 0 0 -1.24 2.22 1.4 1.4 0 0 1 -.07.79 1 1 0 0 1 -.65.35 19.46 19.46 0 0 1 -2.16.36 1.51 1.51 0 0 0 1 1.43c1.55.77 3.45.19 4.91-.73a5.2 5.2 0 0 1 2.14-1c.82-.07 1.61.34 2.42.28a2.87 2.87 0 0 0 2.31-2.11 8.51 8.51 0 0 0 .12-3.3c-.14-1.48-1-1.18-2-1.68a14.33 14.33 0 0 1 -2.29-1.91c-2.36-1.8-.2 2.02-.69 3.11z" fill="#5e3434"/><path d="m129 139.35a4.88 4.88 0 0 0 0 3.75c.1.28.26.59.55.63s.58-.29.75-.57a17 17 0 0 1 2.91-3.58 3.71 3.71 0 0 0 1-1.26c.52-1.4-1.25-1.68-2.25-1.57a4.42 4.42 0 0 0 -2.96 2.6z" fill="#935650"/><path d="m51.12 145.46c-.67-.76-1.31-1.79-.91-2.71a2.36 2.36 0 0 1 2.27-1.14 12.57 12.57 0 0 0 2.67 0c2-.41 3-2.68 3.12-4.7s-.4-4.06-.08-6.05a2.7 2.7 0 0 1 .5-1.32c.89-1.07 2.7-.56 3.67.44 2.83 2.93 1.54 8 3.6 11.51 1.78 3.06 5.57 4.19 8.4 6.31 1.44 1.08 2.76 2.89 2.09 4.56-1.61 4-8.38-.38-11.32-.61-5.39-.38-10.35-2.13-14.01-6.29z" fill="#ec2044"/><path d="m165.78 99.62c-1.38 2.1-3.62 3.46-5.23 5.38s-2.48 5-.78 6.82a.66.66 0 0 0 .27.2c.26.09.52-.1.72-.3 1.32-1.31 2.17-3 3.44-4.38 2.89-3.07 7.77-4.15 9.68-7.91a26.63 26.63 0 0 1 1.32-2.87c1.21-1.83 4.91-3.11 4.71-5.69-.17-2.32-4-2.56-5.82-2.11-4.79 1.24-6 7.36-8.31 10.86z" fill="#ec2044"/><path d="m44 102a3 3 0 0 0 2.85.81 3.36 3.36 0 0 0 1.65-2.37c1.18-3.86 2.51-13.69-4.69-12.5-6.44 1.06-3.1 11.41.19 14.06z" fill="#efefef"/><path d="m188.7 77.77c-1.28.3-1.78 1.86-1.75 3.17a7.82 7.82 0 0 0 2.17 5.29 6.69 6.69 0 0 0 5.29 2 4.32 4.32 0 0 0 1.54-.39c1.85-.89 2.54-3.37 1.9-5.33-1.06-3.28-5.76-5.51-9.15-4.74z" fill="#efefef"/><path d="m111 105.77a7.35 7.35 0 0 0 .24 5.34c1 2.13 3.06 3.56 4.36 5.53a9.06 9.06 0 0 1 1 8 4 4 0 0 0 1.07-2.32 9.85 9.85 0 0 0 .23-3.06c-.4-3.69-3.91-6.22-5.35-9.64a5.33 5.33 0 0 1 -.3-3.76c.58-1.62 2.21-2.63 3-4.14a.81.81 0 0 0 .15-.54c-.26-1.53-2 .74-2.18 1a10.79 10.79 0 0 0 -2.22 3.59z" fill="#ffd95f"/></svg>