<svg id="Artwork_-_Primary" data-name="Artwork - Primary" xmlns="http://www.w3.org/2000/svg" viewBox="0 0 250 250"><defs><style>.cls-1{fill:none}.cls-2{fill:#efefef}.cls-3{fill:#003d32}.cls-4{fill:#89cfbb}.cls-5{fill:#639384}.cls-6{fill:#ffcf8f}.cls-7{fill:#fff5ca}.cls-8{clip-path:url(#clip-path)}.cls-9{fill:#efc089}.cls-10{fill:#c98263}.cls-11{fill:#ec2044}.cls-12{fill:#935650}.cls-13{fill:#ffc513}.cls-14{fill:#d78f00}.cls-15{fill:#6b3d3b}.cls-16{fill:#67ad39}.cls-17{fill:#519600}</style><clipPath id="clip-path"><path class="cls-1" d="M215.82 133.13a133.34 133.34 0 0 0-.36-16c-.4-4.82-1.12-9.8-3.71-13.89-3-4.7-8.12-7.69-13.47-9.25s-11-1.84-16.51-2.27c-26.88-2-53.36-7.45-79.94-11.92l-2.33-.39Q71.36 87.39 44 97.78c-5.09 1.94-10.16 3.94-15.1 6.21a15.91 15.91 0 0 0-.27 7.54c1.62 7.17 8.67 11.55 15.09 15.13l36 20c2.72 1.52 5.46 3 8.24 4.5a291.72 291.72 0 0 0 70.45 3.72c5.79-.4 11.59-1 17.39-1.24a197.81 197.81 0 0 0 35.09-13 6.95 6.95 0 0 0 5-7.55z"/></clipPath></defs><path class="cls-2" d="M202.43 101.69c-.22 5 .81 10.72 5 13.36a11.43 11.43 0 0 0 6.42 1.5 9.48 9.48 0 0 0 4.74-1.22c2.41-1.51 3.53-4.4 4.25-7.15 1.42-5.35 1.9-11.08.43-16.42-1.18-4.3-7.33-15.27-13.23-12-2.78 1.53-4.17 6.3-5.14 9a44.85 44.85 0 0 0-2.47 12.93z"/><path class="cls-2" d="M128.72 156.93c-12.81.7-25.93-.26-37.86-5s-22.63-13.44-27.68-25.23c-6.35-14.81-2.49-33.38 9.22-44.44 11.15-10.52 27.12-13.64 41.28-19.54 15.22-6.33 29-16.24 44.91-20.52 5-1.35 10.34-2.11 15.42-1 8.62 1.83 15.56 9 18.29 17.38s1.56 17.7-2 25.76c-2.74 6.23-6.95 12.91-4.62 19.3 1.54 4.24 5.57 7 9.21 9.62 8 5.85 15.71 13.91 15.91 23.81.14 7.3-4 14.19-9.64 18.86s-12.56 7.43-19.5 9.69a176 176 0 0 1-36.93 7.79c-9.39.94-19 1.08-28.18-1s-18-6.7-24.09-14m106.03 38.95c-.45 3.12-3.58 4.73-6.31 5.66-19.73 6.71-40.7 6.49-61.27 6.21-25.26-.34-51.63-1-73.84-14.12-2-1.21-4.21-2.78-4.74-5.28a6.88 6.88 0 0 1 2.38-6.29 13.76 13.76 0 0 1 6-2.66c12-2.87 24.44-1.35 36.71-1.43 17.23-.11 34.43-3.38 51.62-2.5a161.1 161.1 0 0 1 32.72 5.35c5.24 1.4 17.77 7.7 16.73 15.06z"/><path class="cls-3" d="M30.4 157.26c9 18 27.65 24.74 44.25 30.05 10.43 3.33 21.36 3.63 32.1 3.25 34.85-1.22 70.15-9.77 98.52-31.58 11-8.48 21.57-20.59 21.7-35.8 0-.87-1.41-1.55-1.06-.76z"/><path class="cls-4" d="M33.1 131.75c-5.73 4.26-11.76 10.12-11.6 18 .12 6.41 4.43 11.87 9 15.92 11 9.82 24.68 15.17 38.42 17.42s27.64 1.59 41.39.47c35.8-2.92 72.58-9.37 102.2-31.27 8.5-6.28 17-15.68 15.94-27.25-.71-7.71-5.78-14.43-11.87-18.26s-13.11-5.16-20-5.88c-10.54-1.1-17.46-4.34-28.41-5-10.06-.61-22.87.85-32.86 1.44-23.37 1.38-46.63 6-68.38 15.21a162.84 162.84 0 0 0-33.83 19.2z"/><path class="cls-5" d="M207.6 133a6 6 0 0 0-.67-1.4 12 12 0 0 1-.92-1.54 20 20 0 0 0-4.45-6.11c-4.75-4.48-11.13-6.92-17.58-8s-13-.84-19.55-.62l-23.33.8c-16.42.57-33 1.15-48.88 5.26s-30 8-41.06 20.21c-2.48 2.75-.46 8.59 0 9.54a4.58 4.58 0 0 0 1.34 1.44 94.06 94.06 0 0 0 34.06 16.44 59.34 59.34 0 0 0 9.52 1.69 85.36 85.36 0 0 0 9.05.14l15.31-.29a101.83 101.83 0 0 0 15.32-1.05 103 103 0 0 0 10.89-2.68l11-3.12a124.05 124.05 0 0 0 15.15-5.06 127.61 127.61 0 0 0 27.2-11.12 19.22 19.22 0 0 0 6-4.63 10.81 10.81 0 0 0 1.6-9.9z"/><path class="cls-6" d="M215.82 133.13a133.34 133.34 0 0 0-.36-16c-.4-4.82-1.12-9.8-3.71-13.89-3-4.7-8.12-7.69-13.47-9.25s-11-1.84-16.51-2.27c-26.88-2-53.36-7.45-79.94-11.92l-2.33-.39Q71.36 87.39 44 97.78c-5.09 1.94-10.16 3.94-15.1 6.21a15.91 15.91 0 0 0-.27 7.54c1.62 7.17 8.67 11.55 15.09 15.13l36 20c2.72 1.52 5.46 3 8.24 4.5a291.72 291.72 0 0 0 70.45 3.72c5.79-.4 11.59-1 17.39-1.24a197.81 197.81 0 0 0 35.09-13 6.95 6.95 0 0 0 5-7.55z"/><path class="cls-7" d="M177.63 101.74a6.79 6.79 0 0 0 4.41 0 2.78 2.78 0 0 0 1.45-1.08 2 2 0 0 0-.42-2.3 6.3 6.3 0 0 0-2.66-1.61c-1.95-.66-5-.55-5.87.91s1.14 3.42 3.09 4.08zm24.43 2.15a2.17 2.17 0 0 0 1.08.52 1.52 1.52 0 0 0 .8-.18 1.67 1.67 0 0 0 1.21-1.61 2.67 2.67 0 0 0-.4-1c-.72-1.22-2.77-3.37-4-2.46s-.11 3.62 1.31 4.73zm-11.9 5.51c-.49.43-.38 1.94-.2 2.56a2.67 2.67 0 0 0 2.84 1.94 1.43 1.43 0 0 0 1.06-.67 1.82 1.82 0 0 0 .07-1.26 5.13 5.13 0 0 0-.79-2 2.51 2.51 0 0 0-1.84-1.1 1.15 1.15 0 0 0-1.14.58m7.71 29.67a1.28 1.28 0 0 0-.33.75c0 .59.66.93 1.24 1.06 2.34.51 9.2-1.45 7.32-5s-6.95 1.43-8.23 3.19zm-8.79-1.12a3.39 3.39 0 0 0-3 .7 3.43 3.43 0 0 0-1.18 2.79.81.81 0 0 0 .15.49.88.88 0 0 0 .57.22 3.42 3.42 0 0 0 3.59-4.24m-78.96 4.51a1.83 1.83 0 0 0 .58 1.09c1.16 1.2 5.43 3.43 5.55-.22a2.28 2.28 0 0 0-1.46-2.37c-1.15-.39-4.81-.43-4.67 1.5zm-4.47-49.73a8.39 8.39 0 0 0 3.54.52 8.05 8.05 0 0 0 2.51-.58c.87-.35 1.8-1.13 1.55-2-.73-2.67-5.23-2.77-7.3-2.28-3.08.72-3.65 3.06-.3 4.34zm-61.7 25.54c.35.84.93 1.71 1.83 1.85a1.68 1.68 0 0 0 1.09-.23 3.09 3.09 0 0 0 1.28-1.73c1.81-5.84-6.39-5.12-4.2.11zm47.52-17.92a4.88 4.88 0 0 0-1.94 0 1.67 1.67 0 0 0-1.31 1.29 2.16 2.16 0 0 0 0 .67 2.44 2.44 0 0 0 1.17 1.7c1 .5 2.28-.21 3-1.14a2 2 0 0 0 .44-1.74 2 2 0 0 0-2-1.07c-.52 0-1.19.14-1.28.65"/><g class="cls-8"><path class="cls-9" d="M26.7 103.74a40.46 40.46 0 0 0 25.11 7.16 62.08 62.08 0 0 0 14.44-2.84 161.28 161.28 0 0 0 17.82-6.59c3.55-1.54 7.15-3.26 9.7-6.16C96.66 92 97.85 87.63 99 83.4a6.51 6.51 0 0 0 .31-2.35c-.19-1.66-1.63-2.91-3.13-3.66-4.33-2.15-9.51-1.44-14.21-.31-11.48 2.76-22.3 7.71-33 12.63-8.35 3.83-16.73 7.67-24.51 12.55"/><path class="cls-10" d="M23.2 103.34c17.94 2.65 36.56 1 54.37-2.41 5-1 10-2.18 14.38-4.69s8.17-6.49 9.44-11.4c1.46-5.68-14-15.21-17-20.28M176 146.72a14.06 14.06 0 0 1-4.57-1.6c-.68-.46-1.28-1.07-2-1.48a7.66 7.66 0 0 0-4.11-.64c-24.46.84-48.4 10.33-72.86 10.49-.36 0-.74.13-1.1.13a261.81 261.81 0 0 0 68.37 2.9c5.8-.51 11.61-1.2 17.42-1.56 3-.94 5.51-2.46 8.48-3.53a6.25 6.25 0 0 0-2.17-1.61 28.12 28.12 0 0 0-7.46-3.1z"/></g><path class="cls-11" d="M93.41 83.2A8.39 8.39 0 0 1 96 80.34c1-.6 2.17-.82 3.2-1.35 1.72-.87 2.92-2.49 4.39-3.73s3.63-2.1 5.31-1.14c1.24.71 1.81 2.19 2.83 3.19s2.55 1.57 3.19 2.87c.82 1.68-.2 3.91.84 5.46.33.48.85 1.06.52 1.53a1.1 1.1 0 0 1-.45.34 16.42 16.42 0 0 1-3.58 1.49c-1 .24-2.09.29-3.12.52-2.08.47-4 1.67-6.07 2-2.42.36-4.91-.47-7.32-.06-.78.13-1.54.39-2.34.48-5.56.58-1.18-6.79.01-8.74z"/><path class="cls-9" d="M126.83 136.2a12.69 12.69 0 0 0-4.37 1 1 1 0 0 0-.51.45c-.18.45.3.88.72 1.11 4.78 2.58 10.63 2 15.8 3.66a44.35 44.35 0 0 0 4.57 1.5 11.45 11.45 0 0 0 4.48.18c2.37-.21 2.67-1 5-1.2 1.58-.15 2.37-1.5 3.89-1.93 1.9-.54.51-2.16 2.42-2.67 1.06-.28 10.09.81 10.16-.27s-4.34-1.73-6-1.76a79.88 79.88 0 0 1-9.16-.23c-3.14-.41-6.18-1.52-9.34-1.57-2.91-.05-5.73.79-8.61 1-1.37.11-2.71 0-4.06.14-1.66.26-3.33.39-4.99.59zm43.75-15.13c-5.12-.53-5.53-7.92-5.53-7.92l-51.63 1.62-44.48 6.91c-3-.15-9.87 1.6-10 3.15s9.77 4.14 14 4.87c-1.1-.13.79 2.22 2.12 3.07a10.07 10.07 0 0 0 4.61 1.17 67.86 67.86 0 0 0 7.68.37 71.77 71.77 0 0 0 14.34-2.31l11-2.59c.62-.15 1.33-.37 1.56-1a1.69 1.69 0 0 0-.17-1.29l9.1.93c1.61.16 3.47.23 4.56-1a.47.47 0 0 0 .17-.34c0-.15-.16-.26-.29-.35a7.33 7.33 0 0 0-2.38-1 3.85 3.85 0 0 1-2.3-.88c-.24-.28-.29-.82.06-.94.06 0-1.46-1.37-2.86-2.61h.62c1.5.45 3 1.13 4.45 1.6.57.18 1.15.32 1.74.45.07.06.11.08.14 0 2.61.55 5.32.65 8 1 6.77.84 13.26 3.24 20 4.21 5.27.75 14.81.85 20-.17a43.62 43.62 0 0 1 8.07-.69 12 12 0 0 0 7.21-2.11c-5.37-2.89-13.65-3.51-19.79-4.15z"/><path class="cls-12" d="M112.42 105.8c1.52-2.36 2.2-5.72 4.61-6.84a19 19 0 0 1 2.81-.71c4-1.19 5.79-6.48 9.34-8.86a15.21 15.21 0 0 1 6-1.93 4.81 4.81 0 0 1 3 .11c.55.27 1 .73 1.56 1 1.91 1 3.94-.59 6-.93s3.94.54 5.73 1.59a29.7 29.7 0 0 1 7.46 6.24 9 9 0 0 0 1.33 1.35 15.21 15.21 0 0 0 1.35.78c3.14 1.8 6.48 7.62 8.13 9.27s6.15 3.14 6 4.74-13.44 4.74-15.58 4.92c-4.54.39-9-.14-13.28 1.43l-7.91 2.92a19.78 19.78 0 0 1-6 1.53c-1.46.06-2.93-.19-4.4-.25a65 65 0 0 0-12.58.62c-6.32.86-15.38 2-14.27-1 .82-2.21 4.31-9 5.73-10.66 1.46-1.9 3.55-3.12 4.97-5.32z"/><path class="cls-1" d="M72.86 160.13l.13.51"/><path class="cls-13" d="M81.31 102.15c2.75-.52 5.87-.64 8 1.13 1.74 1.43 2.61 3.93 4.71 4.73 1.24.48 2.65.25 3.89.7 2.13.76 3.09 3.15 4.11 5.17a23.06 23.06 0 0 0 3.8 5.43 3.26 3.26 0 0 1 1.16 2 2.49 2.49 0 0 1-1.37 2c-2.24 1.41-5.1 1.29-7.56 2.26-1.6.62-3 1.7-4.59 2.33-4.7 1.85-9.92-.45-14.44-2.7l-8.94-4.46a13.16 13.16 0 0 1-4.36-3c-7.64-8.92 9.72-14.49 15.59-15.59z"/><path class="cls-11" d="M99.31 127.9a21.34 21.34 0 0 0-5.56 2.1c-.69.38-1.42.89-1.53 1.67a1.87 1.87 0 0 0 1.23 1.85 5.61 5.61 0 0 0 2.38.25l4.32-.19a4.59 4.59 0 0 0 2.79-.73 4.35 4.35 0 0 0 1.21-2.32 2.12 2.12 0 0 0 0-1.66 2 2 0 0 0-.74-.62c-1.51-.78-4.1-.35-4.1-.35z"/><path class="cls-14" d="M77 72.9a2.62 2.62 0 0 1 1.33-.35 1.42 1.42 0 0 1 1.18.65c.38.65 0 1.49.12 2.24s.51 1.27.55 1.94a2.05 2.05 0 0 1-2 2 3 3 0 0 1-2.55-1.56c-1.15-2-.7-3.82 1.37-4.92zm0 44.89a.9.9 0 0 1 .48-.09c.28 0 .46.32.58.57a7.28 7.28 0 0 1 .65 1.87 1.31 1.31 0 0 1 0 .59c-.14.51-.77.69-1.3.76a15.43 15.43 0 0 1-2.54.18c-1.05 0-1.26 0-.94-1a5.59 5.59 0 0 1 3.07-2.88z"/><path class="cls-15" d="M120.38 119.74a1.71 1.71 0 0 1 .87 0 1.28 1.28 0 0 1 .63.51c1.08 1.48.89 3.5 2.32 4.76.37.33.89.76.62 1.15a1.06 1.06 0 0 1-.33.26 11.19 11.19 0 0 1-3.3 1.18 8.08 8.08 0 0 1-2.9.1 12 12 0 0 1-1.67-.43c-2.74-.86-6.06-1.63-3.21-4.16a14.25 14.25 0 0 1 6.97-3.37z"/><path class="cls-14" d="M57.32 97.47a2.57 2.57 0 0 1 1.08-.24A2.35 2.35 0 0 1 60.3 99c.3.87.34 1.81.67 2.67.43 1.1 1.33 2.12 1.15 3.29a2.41 2.41 0 0 1-1.31 1.66 4.56 4.56 0 0 1-2.13.41c-2.33 0-7.36-1.2-7.75-4.08s4.42-4.74 6.39-5.48zM98 105.94a2.39 2.39 0 0 1 1-.43 1.62 1.62 0 0 1 1.25.51 4.83 4.83 0 0 1 .79 1.14.61.61 0 0 1-.19 1l-2 1.11c-1.25.71-2.79 1.06-3.45-.64-.54-1.31 1.66-2.12 2.6-2.69z"/><path class="cls-15" d="M120.37 107.94a21.81 21.81 0 0 1 1.75 1.43 11.71 11.71 0 0 1 1.92 1.11 2 2 0 0 1 .3 2.48 4.69 4.69 0 0 0-.49.79 4.8 4.8 0 0 1-.24 1c-.27.47-.92.51-1.46.49a2.47 2.47 0 0 1-1.55-.4c-.69-.58-.63-1.77-1.38-2.28a6 6 0 0 0-1.47-.43 1.9 1.9 0 0 1-1.23-1.57c-.17-1.81 2.23-3.48 3.85-2.62z"/><path class="cls-11" d="M155 82.69a1 1 0 0 0 .38.14.7.7 0 0 0 .39-.13 2.37 2.37 0 0 0 .75-2.12q0-.92-.09-1.83c-.17-2-2.31-4.12-3.69-1.72s.17 4.53 2.26 5.66zm-30.4-25.92a4.47 4.47 0 0 0 .59 2.39 3.34 3.34 0 0 0 1.37 1.44 3.86 3.86 0 0 0 3-.11 3.47 3.47 0 0 0 .67-.33c4.45-2.89-5.23-10.23-5.63-3.39z"/><path class="cls-15" d="M138.64 112.5a2 2 0 0 0 .4 1.86 1.55 1.55 0 0 0 2 .1 3.16 3.16 0 0 0 .58-.73c.64-1 2.09-3.31.23-3.93-1.56-.52-2.85 1.39-3.21 2.7zm19.9 4.56a10.55 10.55 0 0 1 5.24-1.69 12.28 12.28 0 0 1 5.38 1.65 24.47 24.47 0 0 0 5.18 2.31 21.85 21.85 0 0 1 3.42.82c1.92.83 5 3.87 4.2 4.52s-5.34-.1-8-.56a36.71 36.71 0 0 0-5.29-.79c-1.23 0-2.46.11-3.7.12a28.48 28.48 0 0 1-7.44-1.14c-.81-.21-2.52-.33-3-1.11a1.52 1.52 0 0 1 .52-1.87 23.47 23.47 0 0 1 3.49-2.26z"/><path class="cls-11" d="M167.59 104.2a6.54 6.54 0 0 1 3 2.11c.42.44.88 1 .74 1.59a1.87 1.87 0 0 1-.5.78 2.59 2.59 0 0 1-2.66 1.15c-2.1-.17-6.09-.44-5.76-3.35.27-2.1 3.5-2.65 5.18-2.28z"/><path class="cls-16" d="M130 135.82a7.72 7.72 0 0 0 4.22 1.09l10 .62a23.4 23.4 0 0 0 4.88-.06c3.68-.57 6.82-2.9 9.66-5.32a2.84 2.84 0 0 0 1.29-2.1 2.2 2.2 0 0 0-1.19-1.63 19.32 19.32 0 0 1-1.84-1c-1-.78-1.52-2.08-2.18-3.2a11.34 11.34 0 0 0-8.9-5.32 7.22 7.22 0 0 0-4 .68 15.51 15.51 0 0 0-3.45 3.23 53.07 53.07 0 0 1-5.22 4.21c-2.1 1.62-6.78 6.19-3.27 8.8z"/><path class="cls-17" d="M134.65 88c.34.48.42 1.1.71 1.61.85 1.5 3.3 1.81 3.64 3.5.24 1.19-.76 2.23-1.68 3a2.94 2.94 0 0 1-1 .64 3 3 0 0 1-1.24.06l-3.51-.32c-1-.09-2.61.08-3.49-.42-1.25-.71-1.77-3.11-1.44-4.43.63-2.31 6.03-6.54 8.01-3.64zm17.55 22.58a2.24 2.24 0 0 0 .89.78 6 6 0 0 0 2.14.72 1.35 1.35 0 0 0 .72 0 1.29 1.29 0 0 0 .59-.86 5.19 5.19 0 0 0-.06-3.19 1.13 1.13 0 0 0-.22-.42c-.52-.55-2.35 0-3 .22a2.16 2.16 0 0 0-1.06 2.75z"/><path class="cls-2" d="M74.52 59.21a7.13 7.13 0 0 0-.62-2.58c-1.1-2.15-4-2.91-6.31-2.26a13.06 13.06 0 0 0-5.83 4.16A48 48 0 0 0 50.07 82a17.36 17.36 0 0 0-.23 6 3.49 3.49 0 0 0 4.73 2.62 22.19 22.19 0 0 0 7.62-5.13c3.33-3.35 6-7.65 8.79-11.44C74 70.07 75 64.14 74.52 59.21zm13.69-7.12a9.39 9.39 0 0 0-3.69 5.22c-.64 2.21-.35 5 1.57 6.24s4.6.45 6.68-.64a35 35 0 0 0 5.63-3.7A5.83 5.83 0 0 0 99.61 58a4.33 4.33 0 0 0-.18-4.59c-2.2-3.56-8.09-3.41-11.22-1.32z"/></svg>