<svg id="Artwork_-_Primary" data-name="Artwork - Primary" xmlns="http://www.w3.org/2000/svg" viewBox="0 0 250 250"><defs><style>.cls-1{fill:none}.cls-2{fill:#efefef}.cls-3{fill:#9e1c4c}.cls-4{fill:#ec2044}.cls-5{fill:#f9b916}.cls-6{fill:#ffd95f}.cls-7{fill:#ffc513}.cls-8{fill:#e0a614}.cls-9{fill:#0c4f60}.cls-10{clip-path:url(#clip-path)}.cls-11{fill:#ffa300}.cls-12{fill:#e88f00}</style><clipPath id="clip-path"><path class="cls-1" d="M111.46 145.92c11-.5 22.32-1.15 32.17-6.82 1.5-.86 3.17-2.36 2.87-4.4a4.53 4.53 0 0 0-2.17-2.94c-4.17-2.86-9.06-3.34-13.77-3.42-9.34-.14-18.92 1.16-27 6.58-1.57 1.05-3.21 2.47-3.57 4.65a3.27 3.27 0 0 0 .11 1.7 3.22 3.22 0 0 0 1.8 1.61 35.17 35.17 0 0 0 6.83 2.52z"/></clipPath></defs><path class="cls-2" d="M27.53 109.38a8.33 8.33 0 0 1 .94-4.82A21.76 21.76 0 0 1 32.54 99a10.82 10.82 0 0 1 8.74-3.15c4.12.63 7.08 4.18 10.7 6.23 5 2.85 11.33 2.79 15.86 6.86a8 8 0 0 1 2.82 6c-.07 4.69-4.57 6.82-8.64 7.27-3.39.37-6.89 0-10.16.89-3 .87-5.59 2.81-8.34 4.35s-6 2.71-9 1.83a9.23 9.23 0 0 1-5.74-5.85 18.61 18.61 0 0 1-.66-8.4zm123.1-79.94c-19.27.92-49.27-1.28-66.94 15.56-12 11.48-13.36 28.51-13 37.81s3.55 18.86 10.42 25.19c2 1.85 4.49 3.59 5.2 6.25s-.56 5.39-2.31 7.46-4 3.68-5.78 5.7c-5.38 6-5.94 16-.91 22.36 2.41 3 5.79 5.13 9.1 7.16 15.08 9.24 30.25 18.53 46.7 25 4.65 1.83 9.58 3.46 14.56 3 5.49-.57 10.36-3.66 15.61-5.36 9.19-3 19.82-1.8 27.87-7.13a20.31 20.31 0 0 0 8.46-20.52c-1.43-6.94-6.52-12.93-6.85-20-.36-7.89 5.33-14.78 11.59-19.6s13.49-8.57 18.56-14.62a34.37 34.37 0 0 0 7.47-18.41c.85-8-.92-16.58-6.16-22.71-3.39-4-8-6.7-12.54-9.26-16.87-9.58-41.68-18.13-61.05-17.88"/><path class="cls-2" d="M41.7 170.08c-6.07 1.11-8 1.5-14.1 2.61-3.32.6-7.29 1.79-8.06 5.08-.89 3.79 3.22 6.73 6.78 8.33 9.83 4.39 16 8.35 26.29 11.59L116 217.63a59.2 59.2 0 0 0 11.08 2.73c14.07 1.6 27.06-6.69 40.05-12.33a21.1 21.1 0 0 1 6.54-2 21.85 21.85 0 0 1 6.76.79 151.66 151.66 0 0 1 23.54 7.6c4.9 2 9.85 4.37 15.15 4.49 3.44.08 7.69-1.8 7.53-5.24s-4.45-4.84-7.78-5.84c-5.47-1.63-10.71-4.81-13.55-9.75-.72-1.25-1.28-2.79-.7-4.11a4.69 4.69 0 0 1 2-2c6.56-4.18 16.12-5.19 19.19-12.35A2.85 2.85 0 0 0 226 178c-.23-1-1.26-1.51-2.2-1.86-10.27-3.79-21.59-.35-32.43 1.24-38.5 5.62-76.86-12.75-115.77-11.28"/><path class="cls-3" d="M195.14 200.53c.17 0 19.77-4 19.77-4l4.57.45-.55 9.74-8.8 2.58"/><path class="cls-3" d="M211.54 163.38L223.73 164.09 223.17 173.76 218.58 176.17 213.46 176.32"/><path class="cls-3" d="M26.41 155.74c-1.31-.42-2.67-2.2-3.42-1.05-.44.66-.42 4.26-.46 5.05-.08 2-.48 4.36-.45 6.32 0 .53.52.93.74 1.41.33.75.62.17 1.33.58 3.8 2.22 9-.44 13.07-2a9.73 9.73 0 0 0 3.41-2 4.24 4.24 0 0 0 1.31-3.59"/><path class="cls-3" d="M222.51 172.83c-7.7-4.61-53.4-23.76-81.37-32.11-8.47-2.52-23.19-7.72-26.68-7.89s-19.54 6.07-29.36 9c-19.1 5.76-41.06 15-60.16 20.73-4.48 1.35-2.32 5.47-2.32 5.47 30.58 17.59 65.43 29.23 98.43 41.68a27.49 27.49 0 0 0 6.38 1.82c4 .47 8.06-.83 11.91-2.14 9.44-3.21 22.27-7.68 35.06-12.42 9 4 18.25 9.41 26 13.55 3.57 1.91 7.6 4 11.46 2.82 2.47-.77 4.33-2.74 6.07-4.64a2.78 2.78 0 0 0 1-2c-.11-.89-1-1.43-1.82-1.83l-27.5-13.67c20.61-8.12 37.11-15.85 32.9-18.37z"/><path class="cls-4" d="M223.07 163.09c-7.7-4.61-53.41-23.76-81.37-32.1-8.47-2.53-23.19-7.73-26.68-7.89s-19.54 6.06-29.36 9c-19.1 5.75-41.06 15-60.17 20.72-3.94 1.19-2.73 4.54-2.39 5.31a.54.54 0 0 0 .22.25c30.55 17.53 65.34 29.16 98.29 41.59a27 27 0 0 0 6.38 1.82c4 .48 8.06-.83 11.91-2.14 9.44-3.2 22.27-7.68 35.06-12.42 9 4 18.25 9.41 26 13.55 3.57 1.91 7.61 4 11.47 2.82 2.46-.77 4.33-2.74 6.07-4.64a2.72 2.72 0 0 0 1-2c-.1-.89-1-1.43-1.81-1.83l-27.5-13.67c20.59-8.12 37.09-15.84 32.88-18.37z"/><path class="cls-3" d="M184.27 163.77c-.5 2.06-2.38 3.43-4.14 4.62a43.42 43.42 0 0 1-6.42 3.84c-2.94 1.32-14.7-.67-17.9-.28-9.18 1.11-3.92-11-10.24-11.1-26.22 5.64-36.4 2.94-47.63-5.29-1.4-1-3.57-1.52-4.91-.41a3.22 3.22 0 0 0-.56 3.69 18.12 18.12 0 0 0 2.23 3.31c1.5 2.12.81 3.14.37 5.7-.78 4.49-4.79 5.15-9.61 4.21S71.17 174.53 59 163.5c-1.91-1.72-3.8-4.3-2.74-6.63 1.16-2.55 4.71-2.56 7.49-2.27a118.93 118.93 0 0 0 13.34.66 6.46 6.46 0 0 0 3-.53 6.43 6.43 0 0 0 2.39-3c1.91-3.72 4-7.86 7.86-9.42a12.18 12.18 0 0 0 2.66-1.12 15.71 15.71 0 0 0 1.72-1.83c1.82-1.9 4.64-2.48 7.27-2.46s5.24.55 7.87.47c5.1-.15 9.92-2.59 15-2.75 7-.2 13.3 3.85 19.57 7a81.65 81.65 0 0 0 17.8 6.38c3.74.87 7.59 1.5 11 3.18A14.84 14.84 0 0 1 180 158c1.19 2.11 5.07 2.47 4.27 5.77z"/><path class="cls-5" d="M87.74 51.17c-3 1.56-6.78 1.24-9.49 3.23s-3.48 5.6-2.78 8.81 2.67 5.93 4.81 8.39a55.8 55.8 0 0 0 13.86 11.47c2 1.2 4.19 2.28 6.12 3.66a61 61 0 0 1 5.3 4.61 88.11 88.11 0 0 0 14 10.41 11 11 0 0 0 4.82 1.89c3.07.2 5.82-2.06 7.41-4.69a15.53 15.53 0 0 0 2.21-8.38c-.12-4.17-1.91-8.07-3.23-12a4.42 4.42 0 0 1-.31-2.34 4.57 4.57 0 0 1 1.5-2.07l7-6.57c.36-.33.75-.76.66-1.24a1.44 1.44 0 0 0-.46-.71 40.09 40.09 0 0 0-18.86-10.79 12 12 0 0 1-4.47-1.68c-1.59-1.21-2.34-3.2-3.62-4.74a8.67 8.67 0 0 0-5.59-3.07c-1.17-.15-2.45-.08-3.41-.77a5 5 0 0 1-1.54-2.53c-1.51-4.31-4.17-3.37-6.33-.35-2.34 3.29-3.87 7.5-7.6 9.46z"/><path class="cls-6" d="M123.07 59.09c-1.59-1.06-3-2.49-4.91-2.86-.37-.08-.86 0-1 .31a14.85 14.85 0 0 0 2.5 1.73l8.18 4.88c.82.49 2.58 1.87 3.61 1.52 1.56-.53.17-1.26-.62-1.77-2.44-1.55-5.33-2.22-7.76-3.81z"/><path class="cls-7" d="M121.91 84.27a145.82 145.82 0 0 1-10.5-5.35 8.85 8.85 0 0 1-3.86-3.33c-.57-1.12-.65-2.43-1.16-3.58-.93-2.16-3.14-3.43-5.21-4.55l-5.68-3.09c-1.41-.76-3-1.69-3.37-3.25-.49-1.84.83-3.91.05-5.65a3.49 3.49 0 0 0-3.33-1.79A10.42 10.42 0 0 0 85 54.82l-3.77 1.7a4 4 0 0 0-2.09 1.59 3.47 3.47 0 0 0-.24 1.69c.27 6 4.44 11.27 9.24 15s10.34 6.32 15.13 10c4.64 3.59 8.48 8.13 13.17 11.65 2 1.5 4.26 2.84 6.75 2.88 3.14 0 6.75-2.85 6.69-6.11-.04-4.86-4.07-7.15-7.97-8.95z"/><path class="cls-8" d="M87.72 69.79c-.82.67-1.68 1.55-1.55 2.6 5.12-3.52 10.28-7.06 14.64-11.49.27-.27 1.32-1.53.55-1.89-.47-.23-1.22.91-1.49 1.19A37.37 37.37 0 0 1 96 63.64c-2.73 2.11-5.62 3.98-8.28 6.15zM84.48 62a19 19 0 0 0-3.89 4.11 1.71 1.71 0 0 0 1.48-.26L89.33 62a33.37 33.37 0 0 0 4.82-2.94c.34-.26 1.56-1 1.07-1.42s-1.44.44-1.84.65c-2.87 1.48-6.23 1.86-8.9 3.71zm-.86-6.66a5.58 5.58 0 0 0-2.74 1 2.8 2.8 0 0 0-.71.89 30.78 30.78 0 0 1 5.06-.78c.49 0 2.36-.2 1.67-1.19-.44-.65-2.64-.03-3.28.08zm15.97 14.99C97 73.14 94 76 93.17 79.77v.38a.36.36 0 0 0 .32 0c.94-.26 1.5-1.19 2-2a49 49 0 0 1 7.57-9.87 33.79 33.79 0 0 0 3.11-3.34c.35-.46 1-1.35.17-1.56s-1.7 1.24-2.1 1.7a120.36 120.36 0 0 1-4.65 5.25zm.98 13.17a.73.73 0 0 0 0 .7c.25.37.82 0 1.09-.35a104 104 0 0 0 8.13-12.32A13.4 13.4 0 0 0 111 69c.21-.69.34-1.5-.49-.85a11.75 11.75 0 0 0-1.59 2.47c-.58.85-1.18 1.7-1.78 2.54a65.79 65.79 0 0 0-6.57 10.34zm6.43 4.08c-.08.2-.14.47.06.63s.72-.08.87-.39a75.55 75.55 0 0 1 6.49-11.12 5.67 5.67 0 0 0 1.33-2.87c0-.71-.44-.89-.94-.59s-.86 1.3-1.16 1.76q-1.32 2-2.5 4a68.88 68.88 0 0 0-4.15 8.58zm7.73.49l-2.13 6.11c.31.2.69-.14.9-.45 3.33-5 4.15-11.51 8.43-15.68a2.12 2.12 0 0 0 .54-.69c.2-.49-.1-.87-.58-.79-.21 0-.64.76-.79.91a23.23 23.23 0 0 0-2.85 2.93 31.12 31.12 0 0 0-3.52 7.66zm7.36 4.25c-.84 2.22-1.89 4.51-1.52 6.85 1.69-1.85 1.85-4.59 2.61-7a44.26 44.26 0 0 1 2.33-5.17c.34-.74 1.85-3.12.49-3.23s-1.9 1.72-2.11 2.58a51.41 51.41 0 0 1-1.8 5.97zm5.91 1.17c-.32 1.35-.62 2.7-.87 4.07a3.91 3.91 0 0 0-.09 1.32c0 .16.13.36.29.33a.34.34 0 0 0 .14-.09A5.6 5.6 0 0 0 129 96a33.32 33.32 0 0 1 .66-3.45c.17-.55 1.13-3-.28-2.45-.88.33-1.24 2.64-1.38 3.39z"/><path class="cls-9" d="M100.09 141a60.08 60.08 0 0 0 5.35 11.26 14.66 14.66 0 0 0 2.85 3.53 14.37 14.37 0 0 0 2.15 1.4 30.91 30.91 0 0 0 6.89 3.1c2.38.66 13.55-1.26 16.75-2.19a16.16 16.16 0 0 0 3.58-1.35c3-1.7 5.11-5.26 6.25-9.1a57.34 57.34 0 0 0 2.66-12.19"/><path class="cls-9" d="M111.46 145.92c11-.5 22.32-1.15 32.17-6.82 1.5-.86 3.17-2.36 2.87-4.4a4.53 4.53 0 0 0-2.17-2.94c-4.17-2.86-9.06-3.34-13.77-3.42-9.34-.14-18.92 1.16-27 6.58-1.57 1.05-3.21 2.47-3.57 4.65a3.27 3.27 0 0 0 .11 1.7 3.22 3.22 0 0 0 1.8 1.61 35.17 35.17 0 0 0 6.83 2.52z"/><g class="cls-10"><path class="cls-11" d="M117.71 134a44.16 44.16 0 0 1 8.74.53l7 .9a31.55 31.55 0 0 1 5.17.95c2.1.64 4.4 2.17 4.63 4.84a5.88 5.88 0 0 1-1.5 4.26 8.66 8.66 0 0 1-3.44 2.23c-3.58 1.41-7.37 1.59-11.11 1.62-6.16.06-13.52.28-19.27-2.59a7.37 7.37 0 0 1-3.85-5.31c-.45-2.89 1.19-4 3.17-4.73a35.86 35.86 0 0 1 10.46-2.7z"/></g><path class="cls-12" d="M115.84 137.05a1.3 1.3 0 0 0-.65.41.49.49 0 0 0 .1.69.6.6 0 0 0 .23.06l2 .3 2 .31c1.19.18 3.7-.28 1.78-1.69-1.4-.98-4.02-.59-5.46-.08zm-7.98 2.95c-.2 0-.47.11-.44.31a.37.37 0 0 0 .13.2 3.09 3.09 0 0 0 2 .67c.71 0 1.43-.05 2.14 0s4.06.38 2.1-1.12c-1.1-.76-4.64-.16-5.93-.06zm30.22-2.09a2.44 2.44 0 0 0-1.9-.15c-.45.2-.77.62-1.22.84-.65.32-1.47.13-2.14.42-.27.11-.54.42-.37.67a.49.49 0 0 0 .3.18c1.2.36 2.47-.24 3.72-.17.86.05 1.68.41 2.54.39.69 0 1.62-.54 1.18-1.34-.19-.41-1.71-.68-2.11-.84zm-9.46 2.87a2.37 2.37 0 0 0-3-.42c-.21.14-.42.41-.28.62a.57.57 0 0 0 .22.16 4.53 4.53 0 0 0 3.16.16"/><path class="cls-7" d="M150.3 107a22 22 0 0 0-4.89 9c-.77 2.54-1.5 5.5-3.88 6.66-1 .49-2.25.65-2.87 1.56-.75 1.1 0 2.68 1 3.45a14.79 14.79 0 0 0 3.7 1.43 4.09 4.09 0 0 1 2.87 2.53 5 5 0 0 1-.25 2.47l-1 3.61c-.51 1.85-1 3.88-.28 5.65.83 2 2.95 3 4.92 3.9a11.52 11.52 0 0 0 3.86 1.14c2.35.13 4.53-1.12 6.54-2.34 6-3.6 12-9.41 18-13a14.37 14.37 0 0 0 3.4-2.54 12.62 12.62 0 0 0 2.25-4.16 44.38 44.38 0 0 0 3.11-17.22c0-2.88-.75-6.47-3.55-7.15-1.1-.27-2.3 0-3.38-.34a4.72 4.72 0 0 1-2.13-1.76c-2.91-3.85-3.31-9-3.47-13.82a5.31 5.31 0 0 0-.93-3.47c-3.45-3.85-11.68 4.16-12.66 7.62s-.1 6.63-2.42 9.69c-2.19 2.78-5.49 4.49-7.94 7.09z"/><path class="cls-5" d="M174.4 106.75c-.07.88.14 1.76 0 2.64-.19 1.67-1.47 3-2.78 4.06a14.47 14.47 0 0 0-3.62 3.45c-1.12 1.86-1.23 4.45-3.06 5.61-1.66 1-3.92.35-5.71 1.16a6.05 6.05 0 0 0-2.17 2 19.16 19.16 0 0 0-2.65 4.89c-.48 1.29-1 2.81-2.31 3.22a17.31 17.31 0 0 1-1.78.22c-1.83.4-2.64 2.58-2.66 4.45a11.15 11.15 0 0 0 1.64 5.9 2.28 2.28 0 0 0 .71.8 2.54 2.54 0 0 0 1.31.25c2.94.05 6.08.05 8.56-1.52a20.62 20.62 0 0 0 3.1-2.73 29.65 29.65 0 0 1 9.07-6 23.52 23.52 0 0 0 4.95-2.35c2.25-1.64 3.53-4.26 4.72-6.78a14 14 0 0 0 1.6-5v-2.37a15.94 15.94 0 0 1 .85-3.31 24.3 24.3 0 0 0 1.08-8.34 2.56 2.56 0 0 0-.33-1.37c-1-1.45-3.5-.09-4.93-1.1-.64-.46-.89-1.28-1.39-1.89-1.97-2.36-4.08 2.65-4.2 4.11z"/><path class="cls-8" d="M158.07 132.58a13.62 13.62 0 0 0-.31 2.37 3.06 3.06 0 0 0 .82 2.17 1.75 1.75 0 0 0 2.19.22c.84-.66.65-2 .39-3-.31-1.28-1.23-9.25-2.18-9.4-1.44-.23-.8 2.16-.75 2.75a18.71 18.71 0 0 1-.16 4.89zm4.93-9.9a23.69 23.69 0 0 0 1.39 3.71l1.82 4.14a16.83 16.83 0 0 0 1.24 2.43 2.23 2.23 0 0 0 .81.83 1 1 0 0 0 1.1-.1 1.29 1.29 0 0 0 .25-1.07c-.26-2.66-2.35-4.71-3.71-7a14 14 0 0 1-1.43-3.36c-.16-.58-.18-3-.6-3.34-1.72-1.26-1.05 3.23-.87 3.76zm8.46.25c.73 2 1.21 4.38 3.08 5.38a1 1 0 0 0 .65.16c.45-.09.64-.61.69-1.07a7.91 7.91 0 0 0-1.93-5.47 54.68 54.68 0 0 1-3.68-4.67c-1.09-1.81-1.64-3.89-2.56-5.79-.19-.4-.46-.83-.9-.88-1.46-.18.88 5.12 1.17 5.68a61.1 61.1 0 0 1 3.48 6.66zm2.9-9.7c1.1 1.65 1.88 3.49 2.84 5.23a2.78 2.78 0 0 0 .76 1 1 1 0 0 0 1.15 0c.51-.42.25-1.24-.06-1.81a59.74 59.74 0 0 0-4.74-7c-.45-.6-2.28-3.76-2.58-1.8-.22 1.39 1.93 3.33 2.63 4.38zm3.54-3.18c.82 1.53 1.65 3.27 3.27 3.9.11-1.26-.8-2.35-1.54-3.38-.49-.69-3.26-6.25-4.13-5.92-1.27.49 2.03 4.72 2.4 5.4zm4.2-2.15c.2-.08.21-.37.15-.58a7.31 7.31 0 0 0-3.4-3.93c-.27.96 2.34 4.89 3.25 4.51zm-29.64 31.71c.29.1.56-.2.69-.48a10.23 10.23 0 0 0 0-7.27c-1.15.77-2 7.32-.69 7.75z"/><path class="cls-6" d="M164.64 94.18a9 9 0 0 0 2-5.73 1.09 1.09 0 0 0-.29-.79c-.39-.31-1 0-1.22.46a3.41 3.41 0 0 0-.13 1.46 6.42 6.42 0 0 1-1.15 3.42 18.63 18.63 0 0 1-2.44 2.82c-.69.68-2 3.26-.18 1.81a18.42 18.42 0 0 0 3.41-3.45z"/><path class="cls-7" d="M86.47 120.56a21.92 21.92 0 0 1 4.24 9.31c.58 2.59 1.09 5.59 3.38 6.93 1 .56 2.2.8 2.76 1.76.66 1.15-.14 2.68-1.28 3.36a14.08 14.08 0 0 1-3.8 1.16 4.12 4.12 0 0 0-3 2.32 4.9 4.9 0 0 0 .08 2.49l.74 3.67c.38 1.88.74 3.94-.13 5.65-1 1.92-3.16 2.82-5.19 3.53a11.43 11.43 0 0 1-3.93.87c-2.35 0-4.43-1.45-6.36-2.8-5.7-4-11.25-10.25-16.95-14.28a14.09 14.09 0 0 1-3.22-2.78 12.56 12.56 0 0 1-1.94-4.31A44.41 44.41 0 0 1 50 120c.22-2.87 1.22-6.39 4.06-6.87 1.12-.19 2.29.19 3.39-.1a4.72 4.72 0 0 0 2.26-1.59c3.18-3.64 3.95-8.74 4.45-13.54a5.36 5.36 0 0 1 1.18-3.4c3.72-3.58 11.35 5 12.08 8.51s-.38 6.63 1.72 9.84c1.86 3.03 5.07 4.98 7.33 7.71z"/><path class="cls-5" d="M62.45 118.61c0 .88-.27 1.75-.23 2.63.07 1.68 1.25 3.1 2.48 4.25a14.21 14.21 0 0 1 3.39 3.71c1 1.93.91 4.53 2.65 5.81 1.58 1.17 3.89.63 5.61 1.57a6.1 6.1 0 0 1 2 2.1 19.16 19.16 0 0 1 2.29 5.07c.38 1.32.8 2.87 2.08 3.38.55.21 1.17.18 1.75.35 1.79.52 2.45 2.76 2.33 4.62a11.11 11.11 0 0 1-2.06 5.77 2.3 2.3 0 0 1-.77.75 2.65 2.65 0 0 1-1.32.16c-2.94-.17-6.06-.39-8.43-2.14a20.16 20.16 0 0 1-2.89-2.95 29.4 29.4 0 0 0-8.62-6.6A23.1 23.1 0 0 1 58 144.4c-2.13-1.79-3.22-4.5-4.22-7.1a13.73 13.73 0 0 1-1.24-5.07c0-.8.16-1.58.16-2.38a16.16 16.16 0 0 0-.62-3.36 24.42 24.42 0 0 1-.47-8.39 2.54 2.54 0 0 1 .43-1.35c1.08-1.37 3.49.16 5-.74.67-.41 1-1.21 1.53-1.78 2.12-2.23 3.87 2.91 3.88 4.38z"/><path class="cls-8" d="M76.88 145.55a13.57 13.57 0 0 1 .13 2.38A3 3 0 0 1 76 150a1.74 1.74 0 0 1-2.19.07c-.8-.73-.51-2-.18-3 .4-1.25 1.89-9.13 2.86-9.22 1.44-.13.64 2.21.54 2.8a18.28 18.28 0 0 0-.15 4.9zm-4.16-10.23a23.93 23.93 0 0 1-1.66 3.6l-2.11 4a16.7 16.7 0 0 1-1.41 2.34 2.27 2.27 0 0 1-.87.76 1 1 0 0 1-1.09-.17 1.3 1.3 0 0 1-.17-1.09c.45-2.63 2.68-4.52 4.2-6.72a13.63 13.63 0 0 0 1.67-3.24c.2-.57.39-3 .84-3.29 1.77-1.13.77 3.3.6 3.81zm-8.5-.32c-.88 1.93-1.52 4.28-3.46 5.15a1 1 0 0 1-.66.1c-.44-.11-.6-.65-.62-1.11a7.94 7.94 0 0 1 2.33-5.32 57.3 57.3 0 0 0 4-4.39c1.21-1.73 1.91-3.76 3-5.59.22-.38.52-.8 1-.82 1.47-.06-1.24 5-1.57 5.59a61 61 0 0 0-4.02 6.39zM62 125.08c-1.21 1.56-2.13 3.34-3.21 5a2.65 2.65 0 0 1-.79.92 1 1 0 0 1-1.15-.05c-.48-.45-.17-1.24.19-1.79a59.63 59.63 0 0 1 5.23-6.64c.49-.57 2.54-3.59 2.7-1.61.11 1.39-2.17 3.17-2.97 4.17zm-3.27-3.43c-.93 1.47-1.89 3.14-3.55 3.66 0-1.27 1-2.29 1.78-3.27.54-.65 3.7-6 4.55-5.6 1.23.56-2.37 4.56-2.78 5.21zm-4.04-2.44c-.2-.1-.18-.39-.11-.6a7.37 7.37 0 0 1 3.67-3.67c.2.98-2.68 4.71-3.56 4.27zM82 153c-.3.07-.54-.25-.66-.54a10.24 10.24 0 0 1 .53-7.25c1.07.79 1.43 7.42.13 7.79z"/><path class="cls-6" d="M73.09 106.78a9 9 0 0 1-1.59-5.87 1.07 1.07 0 0 1 .35-.76c.4-.28 1 .08 1.18.55a3.58 3.58 0 0 1 0 1.46 6.37 6.37 0 0 0 .91 3.53 17.81 17.81 0 0 0 2.23 3c.63.74 1.8 3.41 0 1.82a18.6 18.6 0 0 1-3.08-3.73z"/><path class="cls-2" d="M59.7 78.92a4 4 0 0 0-6.79.23 7.32 7.32 0 0 0-.78 6 10.29 10.29 0 0 0 3.47 5c.84.68 2 1.28 2.95.85a2.82 2.82 0 0 0 1.14-1.08 9.9 9.9 0 0 0 0-11m165.84 42.3c0-4.73-5.33-5.37-8.08-4l-6.77 3.26c-1.86.89-3.83 1.89-4.81 3.7-1.49 2.75-.13 6.07.71 9.07a42.44 42.44 0 0 1 1.27 8 14.33 14.33 0 0 0 1.26 5.78c1 1.74 3 3.06 4.92 2.47s2.77-2.53 3-4.39c.33-2.3-.09-4.63 0-6.94s.84-4.83 2.81-6c.77-.48 1.67-.71 2.45-1.17 3.09-1.81 3.33-6.11 3.2-9.69"/></svg>