<svg viewBox="0 0 250 250" xmlns="http://www.w3.org/2000/svg" xmlns:xlink="http://www.w3.org/1999/xlink"><clipPath id="a"><path d="m231.16 144.36c-.46-1.82-2.73-2.92-4.75-3.75-31-12.75-63.7-22-96.24-31.23l-41.48-11.76c-5.69-1.62-11.81-.24-15.37 3.49a263.66 263.66 0 0 0 -46.71 35.15c-2.65 2.52-1.5 6.66 2.33 8.27a140.86 140.86 0 0 0 14.44 4.72c15 4.49 29.47 10.55 44.25 15.76 16.75 5.91 33.94 10.72 51.11 15.52l41.26 11.55c3.21.9 6.71 1.81 9.77.9a13.08 13.08 0 0 0 5.41-3.71 289.9 289.9 0 0 0 34.68-41.13c.83-1.14 1.64-2.43 1.3-3.78z"/></clipPath><clipPath id="b"><path d="m198 96.34s-6.4-5.08-8.34-6.85c-1.64-1.5-3.38-2.9-5.16-4.25a6.59 6.59 0 0 0 -3.55 0 12.86 12.86 0 0 1 -3.26-.55s-.6-2.78-1.12-4.22a9.69 9.69 0 0 0 -.57-1.27q-4.77-3.32-9.57-6.62a22.5 22.5 0 0 0 -7.44-.32 7.72 7.72 0 0 0 .1-4.67l-4.39-3q-4.45-3-8.92-6c-.36 0-.71.11-1.05.18l-3.5.73a6.63 6.63 0 0 0 .13-3.83c-3.12-2-8-4.79-8-4.79s-8.84 0-12.4 1.55a33.72 33.72 0 0 0 -11.58 8.69c-3.56 3.87-8.73 16.68-8.73 16.68s1.68 1.51 4.22 4.34a9 9 0 0 0 1.93-.41 3.81 3.81 0 0 1 2.72 0l-.83 3.93a2 2 0 0 0 0 .24c.26.23.52.45.77.64 2 1.53 4.28 2.65 6.31 4.12a57.31 57.31 0 0 1 5.87 5.34c1.75.14 3.55-.59 5.3-.05.25 1.05-.49 2-.63 3a3 3 0 0 0 .11 1.19c4.14 3.22 8.65 6 13 9 1.88 1.29 3.87 2.51 5.85 3.74l3.75-1.58c-.07 1.27-.14 2.54-.2 3.81a54.48 54.48 0 0 1 5.68 4.15c4.73 4 14.87 9.5 14.87 9.5a69.29 69.29 0 0 0 6.9-1.66c9.22-3.44 12.91-11.57 16.92-19.87 1.22-2.54 4.81-10.89 4.81-10.89z"/></clipPath><clipPath id="c"><path d="m66.24 112.23c.25 1.22.82 2.36 1.09 3.59.33 1.46.21 3 .65 4.44a10.25 10.25 0 0 0 2.42 3.74c3.23 3.55 7.26 6.58 11.94 7.64 3.08.7 6.28.52 9.42.81 4.93.46 9.67 2.08 14.5 3.18s10 1.63 14.66 0a28.36 28.36 0 0 0 5-2.53c5-3 9-3.59 13.46-7.43a24.39 24.39 0 0 0 1.14-3.51 42.18 42.18 0 0 0 -.94-4.15c-2.86-4.6-6-4.91-9.84-8.74-6.42-6.41-13.48-13.14-22.44-14.47-2.74-.4-5.77-.36-7.88-2.14-1.23-1-2-2.56-3.11-3.67-2.45-2.35-6.3-2.39-9.66-1.86-5.28.84-14.71 3-17.49 8.25-1 1.81-1 4.08-1.33 6.06-.64 3.45-2.33 7.23-1.59 10.79z"/></clipPath><path d="m69.17 42.63a9 9 0 0 0 -.44 6.37 6.74 6.74 0 0 0 7.61 4c13.66-3.13-.59-26.82-7.17-10.37z" fill="#efefef"/><path d="m90.64 57.16a8.21 8.21 0 0 1 1.36-3.16c10.64-17 29.43-28 49.13-31.52 3.62-.65 7.78-.94 10.56 1.47 2.2 1.92 2.92 5.14 2.45 8a21.07 21.07 0 0 1 -3.54 8c-6.51 10-15.17 16.65-24.38 23.93-7.7 6.09-13.52 11.45-23.63 7-4.73-2.07-12.77-7.58-11.95-13.72z" fill="#efefef"/><path d="m161.38 168.34a171 171 0 0 1 -61.67-12.51c-8.57-3.47-16.94-7.7-24-13.6a79.18 79.18 0 0 1 -15.17-17.23c-5.69-8.56-10.22-18.07-11.76-28.22s.12-21 5.88-29.53a17.67 17.67 0 0 1 7.42-6.67c6.43-2.69 13.82.75 19.14 5.25s9.78 10.17 16.05 13.17c8.51 4.14 18.87 2.51 27.37-1.65s15.63-10.54 23.06-16.35a208.06 208.06 0 0 1 29.52-19.44c10.07-5.46 22.39-10.11 32.63-5 5.24 2.63 9 7.48 11.83 12.62 9.76 18 8.74 40.65-.18 59s-25 32.68-43.13 42.09" fill="#efefef"/><path d="m41.33 186.25a6.1 6.1 0 0 0 -1.33 2.34c-.76 3.1 2.82 5.29 5.76 6.33 32 11.22 65.21 18.4 98.32 25.55l29.1 6.29c5.68 1.22 12.06 2.33 16.94-.92a22.53 22.53 0 0 0 5.31-5.69l9-12.11c5.31-7.19 10.8-14.8 12.08-23.71a6.13 6.13 0 0 0 -.24-3.43c-.9-1.92-3.27-2.49-5.34-2.82l-56.18-9.17c-16.43-2.68-32.9-5.37-49.52-6.23-10.55-.54-20.35-6.16-30.46-3s-31 23.61-33.44 26.57z" fill="#efefef"/><path d="m25.15 139.21c-1.58 8.5 3.44 11.72 5.57 13s10.38 3.87 14.89 5.41c44.83 15.32 89.72 30.65 135.67 42.17 2.81.7 5.8 1.39 8.55.48 2.42-.8 4.28-2.72 6-4.59q16.53-17.69 31.47-36.75a15.84 15.84 0 0 0 3.51-6.28 15.08 15.08 0 0 0 .33-8.29c-.39-1.45-4.23-1.58-5.69-2-43.19-11.36-87.72-17.2-132.3-20.48-16.82-1.24-35.09-1.75-48.95 7.86" fill="#003d32"/><path d="m231.16 144.36c-.46-1.82-2.73-2.92-4.75-3.75-31-12.75-63.7-22-96.24-31.23l-41.48-11.76c-5.69-1.62-11.81-.24-15.37 3.49a263.66 263.66 0 0 0 -46.71 35.15c-2.65 2.52-1.5 6.66 2.33 8.27a140.86 140.86 0 0 0 14.44 4.72c15 4.49 29.47 10.55 44.25 15.76 16.75 5.91 33.94 10.72 51.11 15.52l41.26 11.55c3.21.9 6.71 1.81 9.77.9a13.08 13.08 0 0 0 5.41-3.71 289.9 289.9 0 0 0 34.68-41.13c.83-1.14 1.64-2.43 1.3-3.78z" fill="#89cfbb"/><g clip-path="url(#a)"><path d="m60.58 123.78a14.73 14.73 0 0 1 3.5 1.37c2.15 1.29 3.47 3.55 5 5.52 3.88 4.9 9.47 8.16 15.2 10.66a82.9 82.9 0 0 0 24.45 6.44c4.65.49 9.41.6 13.85 2.06 5.27 1.74 9.79 5.27 15 7.13a43 43 0 0 0 10.27 2 146.85 146.85 0 0 0 33-.45 8.7 8.7 0 0 0 4.53-1.49c1.72-1.42 2.13-4 1.67-6.14a26.57 26.57 0 0 0 -2.63-6.14 8.93 8.93 0 0 1 -1.12-3.56 21.48 21.48 0 0 1 .59-3.79c.67-4.32-1.62-8.66-4.87-11.58s-7.34-4.69-11.35-6.4l-43.82-18.69a7.31 7.31 0 0 0 -3.6-.85c-1.63.18-2.91 1.41-4.26 2.35-5.15 3.59-12 3.25-18.06 4.76-7.15 1.76-13.37 6.11-20.32 8.55a40.16 40.16 0 0 1 -28.16-.7c-1.81-.75-3.82-1.64-5.65-1-4.62 1.71 0 4.64 1.61 5.47 4.38 2.29 10.48 3.1 15.17 4.48z" fill="#639384"/></g><path d="m100.28 44.4c-2.07-1.32-4.58-2-6.22-3.8a26.3 26.3 0 0 1 -1.89-2.71 11.75 11.75 0 0 0 -6-4.34 27.11 27.11 0 0 1 -4.17-1.16c-1.8-.87-3.1-2.51-4.5-4s-3.26-2.85-5-2.76a4 4 0 0 0 -2.64 1.4 12.33 12.33 0 0 0 -3.4 7.45 3.65 3.65 0 0 0 .11 1.53 4.23 4.23 0 0 0 1.58 2c2.19 1.62 5.11 1.9 7.16 3.7a30.16 30.16 0 0 1 2.29 2.63 21.54 21.54 0 0 0 4.12 3.33 9.69 9.69 0 0 0 4 1.93 17.67 17.67 0 0 1 2.41.1c1.48.33 2.63 1.68 3.71 2.84a29.32 29.32 0 0 0 5.55 4.61 3 3 0 0 0 1.81.64 1.7 1.7 0 0 0 .92-.52c1.8-1.65 4.33-4.16 4.6-6.81.28-2.14-2.46-4.81-4.44-6.06z" fill="#ec2044"/><path d="m180.25 112.15a3.28 3.28 0 0 0 1.79.78c.66 0 1.35-.64 1.16-1.28l-14.2-10.65c-9.57-7.22-4.15-3-13.72-10.23l-6-4.55c-7.93-6-30-20.89-38.07-26.68-1.62-1.17-8.84-8.42-10.54-7.76-3.63 1.43 3.85 6.69 4.57 7.23 16 12.08 31.3 21.66 47.55 33.45q13.68 9.9 27.46 19.69z" fill="#0c4f60"/><path d="m198 96.34s-6.4-5.08-8.34-6.85c-1.64-1.5-3.38-2.9-5.16-4.25a6.59 6.59 0 0 0 -3.55 0 12.86 12.86 0 0 1 -3.26-.55s-.6-2.78-1.12-4.22a9.69 9.69 0 0 0 -.57-1.27q-4.77-3.32-9.57-6.62a22.5 22.5 0 0 0 -7.44-.32 7.72 7.72 0 0 0 .1-4.67l-4.39-3q-4.45-3-8.92-6c-.36 0-.71.11-1.05.18l-3.5.73a6.63 6.63 0 0 0 .13-3.83c-3.12-2-8-4.79-8-4.79s-8.84 0-12.4 1.55a33.72 33.72 0 0 0 -11.58 8.69c-3.56 3.87-8.73 16.68-8.73 16.68s1.68 1.51 4.22 4.34a9 9 0 0 0 1.93-.41 3.81 3.81 0 0 1 2.72 0l-.83 3.93a2 2 0 0 0 0 .24c.26.23.52.45.77.64 2 1.53 4.28 2.65 6.31 4.12a57.31 57.31 0 0 1 5.87 5.34c1.75.14 3.55-.59 5.3-.05.25 1.05-.49 2-.63 3a3 3 0 0 0 .11 1.19c4.14 3.22 8.65 6 13 9 1.88 1.29 3.87 2.51 5.85 3.74l3.75-1.58c-.07 1.27-.14 2.54-.2 3.81a54.48 54.48 0 0 1 5.68 4.15c4.73 4 14.87 9.5 14.87 9.5a69.29 69.29 0 0 0 6.9-1.66c9.22-3.44 12.91-11.57 16.92-19.87 1.22-2.54 4.81-10.89 4.81-10.89z" fill="#ffc513"/><g fill="#ffd95f"><path d="m183.8 99a20 20 0 0 0 -3.93 3.58 60.62 60.62 0 0 0 -10.73 18 9.06 9.06 0 0 0 -.78 2.86 4.16 4.16 0 0 0 .95 3l5.44-2.42a27.65 27.65 0 0 0 5.75-3.12 20.72 20.72 0 0 0 4-4.38 100.22 100.22 0 0 0 7.6-12.52c.8-1.51 2.59-6 2.59-6s-3.73-1.09-5.12-.83c-2.49.47-3.78.56-5.77 1.83z"/><path d="m137.51 63.33a6.37 6.37 0 0 1 -2.24.65c-1.43.05-2.86-.82-4.31-1-2-.25-3.68.83-5.12 1.91a72.88 72.88 0 0 0 -6.28 5.32 31.31 31.31 0 0 1 6-3.79 12.79 12.79 0 0 1 7.36-1.09c.81.14 1.61.36 2.42.46 2.39.28 4.55-.59 6.66-1.31s4.5-1.31 6.81-.5a5.55 5.55 0 0 0 2.47.63c-1.25-.88-2.52-1.73-3.75-2.63s-1.46-1-2.81-.78c-2.6.46-4.79 1.45-7.21 2.13z"/><path d="m130.78 53.17a21.73 21.73 0 0 0 -4.2.1c-3.52.55-6.19 2.76-8.7 4.9a23 23 0 0 1 7.48-3.12 27.92 27.92 0 0 1 5.27-.19l5.61.16c-1.6-1.69-3.31-1.76-5.46-1.85z"/><path d="m150.3 77.56a13.38 13.38 0 0 1 -3 1.86c-.67.25-1.42.37-2.1.61a8.65 8.65 0 0 0 -3.47 2.6 50.52 50.52 0 0 0 -5.73 8.52 22 22 0 0 1 6.81-7.06 49.76 49.76 0 0 1 7.68-3.88l5.86-2.55a22.23 22.23 0 0 1 3.26-1.2c3.22-.8 6.84-.16 10.32.48-5.84-4.46-14.79-2.77-19.63.62z"/><path d="m173.53 87.48a12.11 12.11 0 0 0 -4.27 2.67 15.34 15.34 0 0 0 -3.37 3.51c-.57.92-.93 2-1.48 2.88-1.26 2.09-3.46 3.58-4.45 5.81a137.47 137.47 0 0 1 13.04-11.25 8.2 8.2 0 0 1 2.63-1.52 10.44 10.44 0 0 1 2.88-.29h4l-1.4 1.71c3.25.18 6.65.43 9.64 2a15.14 15.14 0 0 0 -3.91-3.51c-1.61-1.17-2-1.71-4-1.75-3.05-.09-6.38-1.12-9.31-.26z"/></g><g clip-path="url(#b)" fill="#f2b814"><path d="m129.71 89.34a22.26 22.26 0 0 1 2.62-3.51c.68-.74 1.42-1.44 2.15-2.14l4.36-4.17c-2.57 1.75-5.13 3.49-7.64 5.31a25.11 25.11 0 0 0 -3.82 3.2 26.11 26.11 0 0 0 -3 4.32 16.83 16.83 0 0 0 -2.61 6.06c-.4 2.69.44 5.59.07 8.28a5.43 5.43 0 0 1 2.82-.88c2.57-.09 1.09-3.1 1.16-4.62a26.31 26.31 0 0 1 2-7.8 23.88 23.88 0 0 1 1.89-4.05z"/><path d="m148.37 119.14a2.65 2.65 0 0 1 -.52-1.93 24.56 24.56 0 0 1 2.58-9.45c2.36-5.3 5.43-10.45 10.34-13.84a29.09 29.09 0 0 0 -12.45 12.39 13.57 13.57 0 0 1 -2.21 3.6 8.08 8.08 0 0 0 -1.41 1.52 4.43 4.43 0 0 0 -.41 2 51.06 51.06 0 0 0 .46 9.62 1 1 0 0 0 .47.85 1 1 0 0 0 .92-.18l.68-.42"/><path d="m106.06 88.64a18.08 18.08 0 0 1 1.5-3.77c.67-1.24 1.48-2.4 2.08-3.67.35-.74.62-1.52.9-2.29a53.32 53.32 0 0 1 3.79-8.73 19.62 19.62 0 0 1 6.5-7q-2.42 1.35-4.74 2.84a25.26 25.26 0 0 0 -3.18 2.3 27.63 27.63 0 0 0 -5.08 6.75l-1.47 2.43a16.78 16.78 0 0 0 -1.27 2.36 12.36 12.36 0 0 0 -.78 3.21 21.81 21.81 0 0 0 .41 7.44"/></g><path d="m119.55 76.08a11.61 11.61 0 0 0 -1.66 3.32 32 32 0 0 0 -1.71 7.92 27.87 27.87 0 0 1 6.44-11.4 16.73 16.73 0 0 1 3-2.8 21.74 21.74 0 0 1 3-1.66l2.62-1.31a9.13 9.13 0 0 1 -2 .24c-.64.09-1.27.22-1.9.36a6 6 0 0 0 -2.36.9c-1.89 1.35-4.05 2.65-5.43 4.43z" fill="#f2b814"/><path d="m149.3 94a4.76 4.76 0 0 1 -1.59 1.5c-.84.4-1.94.33-2.76.76a3.85 3.85 0 0 0 -1.2 1.14 33.69 33.69 0 0 0 -3 4.74 19.45 19.45 0 0 1 6-4.76c.29-.16.72-.27 1 0 .08.08.13.2.24.24a.37.37 0 0 0 .29 0 14.51 14.51 0 0 0 4.92-3.75c.77-1 1.33-2.13 2.06-3.14a23 23 0 0 1 4.26-4.16 6.44 6.44 0 0 1 -1.54.46 15.72 15.72 0 0 0 -1.52.64 7.2 7.2 0 0 0 -2.31 1.65c-1.56 1.68-3.44 2.94-4.85 4.68z" fill="#f2b814"/><path d="m165.45 107.42a5.61 5.61 0 0 0 -.86 1.71c-.14.53-.15 1.09-.24 1.64a13.19 13.19 0 0 1 -.88 2.82 49.4 49.4 0 0 0 -2 6.68c1.57-4.82 4.35-9.11 7.1-13.34a49.52 49.52 0 0 1 3.09-4.39 45.88 45.88 0 0 1 4.17-4.32 9.7 9.7 0 0 1 -1.76.9q-.85.5-1.65 1a21.89 21.89 0 0 0 -2.27 1.77 29.83 29.83 0 0 0 -4.7 5.53z" fill="#f2b814"/><path d="m153.31 70.87a40 40 0 0 0 -.81 4.65c-.17 1.74-.12 3.53-.35 5.26a30.4 30.4 0 0 1 -1.87 6.45l2.19-4.75a15.22 15.22 0 0 0 1.47-4.32 15.24 15.24 0 0 0 .08-2.25l-.06-5.7" fill="#ffd95f"/><path d="m174.37 88.31c.18 1.68-.68 3.17-1 4.76s-.23 3.61-1 5.15a26.94 26.94 0 0 1 .29-4.68c.13-.85.3-1.68.4-2.52a12.37 12.37 0 0 0 .09-2.36c0-.7-.14-1.4-.25-2.1v-.14c0-.17-.05-.33-.07-.5s0-.25 0-.37.05-1.36.37-1.37.44.83.48 1c.1 1.08.58 2.09.69 3.13z" fill="#ffd95f"/><path d="m138.12 57a22.44 22.44 0 0 1 -.68 5.76 21.31 21.31 0 0 1 -2.2 4.53 10.36 10.36 0 0 1 -2 2.69.52.52 0 0 1 -.07-.57 61.63 61.63 0 0 1 2.89-7.49 7.31 7.31 0 0 0 .71-2c0-.33.06-.67.13-1 .23-1 1-1.71 1.52-2.61" fill="#ffd95f"/><path d="m179.34 110.49a1 1 0 0 0 0 1.69q7.95 5.71 15.94 11.39a3.17 3.17 0 0 0 1.78.77c.66 0 1.36-.63 1.17-1.27-4.54-3.42-12.26-9.35-17-13a1 1 0 0 0 -1.18 0z" fill="#0c4f60"/><path d="m204.76 123c2.63-4.47 6.86-8.28 12-9.14a51.94 51.94 0 0 1 -4 8.89 12.55 12.55 0 0 1 5.31-2.39 4.53 4.53 0 0 1 2.89.21 2 2 0 0 1 1.04 2.43 5.48 5.48 0 0 1 -1.24 1.4c-.42.46-.7 1.21-.3 1.69s1.05.38 1.61.53c1.35.38 1.84 2.2 1.28 3.49a6.76 6.76 0 0 1 -3 2.84 85.55 85.55 0 0 1 -14.51 6.16c-1.7.6-4.1 1.36-5.55-.19-1.23-1.33-.28-2.87.14-4.4a46.44 46.44 0 0 1 4.33-11.52z" fill="#67ad39"/><path d="m183.15 141.59a3.45 3.45 0 0 0 2.14.19 1.24 1.24 0 0 0 .77-1.73l-18.52-6.26-37.54-12.67-7.89-2.66c-10.36-3.46-38.65-11.46-49.11-14.7-2.1-.66-12.16-5.73-13.7-4.45-3.31 2.75 6.34 5.65 7.28 6 21 7.07 59.89 18.53 81 25.22q17.76 5.61 35.57 11.06z" fill="#0c4f60"/><path d="m66.24 112.23c.25 1.22.82 2.36 1.09 3.59.33 1.46.21 3 .65 4.44a10.25 10.25 0 0 0 2.42 3.74c3.23 3.55 7.26 6.58 11.94 7.64 3.08.7 6.28.52 9.42.81 4.93.46 9.67 2.08 14.5 3.18s10 1.63 14.66 0a28.36 28.36 0 0 0 5-2.53c5-3 9-3.59 13.46-7.43a24.39 24.39 0 0 0 1.14-3.51 42.18 42.18 0 0 0 -.94-4.15c-2.86-4.6-6-4.91-9.84-8.74-6.42-6.41-13.48-13.14-22.44-14.47-2.74-.4-5.77-.36-7.88-2.14-1.23-1-2-2.56-3.11-3.67-2.45-2.35-6.3-2.39-9.66-1.86-5.28.84-14.71 3-17.49 8.25-1 1.81-1 4.08-1.33 6.06-.64 3.45-2.33 7.23-1.59 10.79z" fill="#824646"/><g clip-path="url(#c)"><path d="m80 134.64a130.13 130.13 0 0 0 26.5-6.54 66.15 66.15 0 0 1 8.53-2.74 52.56 52.56 0 0 1 6.62-.85l16.35-1.38a13.51 13.51 0 0 0 4.73-1c1.11-.54 2.06-1.37 3.19-1.86a3.07 3.07 0 0 1 3.43.37 3.81 3.81 0 0 1 .76 2.38c.44 6.07-1.11 12.45-5.11 17-4.3 4.94-10.84 7.27-17.21 8.85a121.57 121.57 0 0 1 -17.78 3 49.21 49.21 0 0 1 -9.63.18c-3.47-.34-6.87-1.26-10.34-1.59s-7.19 0-10.07 2c-2 1.37-3.77 3.55-6.18 3.46s-4.17-2.66-4.78-5.08a15.14 15.14 0 0 1 2.09-11.84" fill="#723f3f"/></g><path d="m87.57 89.11a8.13 8.13 0 0 1 3.57-.1c2.86.74 4.27 4 6.71 5.62a14.38 14.38 0 0 0 5 1.79c5.27 1.19 10.55 2.67 15.25 5.34 5.84 3.31 10.52 8.29 15.11 13.2 1 1.06 2 2.68 1.12 3.82a2.8 2.8 0 0 1 -1.21.77 41.38 41.38 0 0 1 -10.88 2.3c-3.13.38-6.4.73-9.33-.42s-4.91-3.43-7.11-5.58a51.15 51.15 0 0 0 -6.66-5.37 4.6 4.6 0 0 0 -2.48-1 6 6 0 0 0 -2.13.58 13.69 13.69 0 0 1 -13.16-2.54c-3-2.49-6.59-7.78-6.14-11.94.47-4.35 8.96-5.8 12.34-6.47z" fill="#9e5a57"/><path d="m161.55 112.68c4.84 2.26 8.36 6.61 11.34 11q2.48 3.67 4.62 7.57a10.48 10.48 0 0 1 1.57 4.36 8.83 8.83 0 0 1 -2 5.33 21.35 21.35 0 0 1 -10.71 8 19 19 0 0 1 -13.29-.53c-3.56-1.53-6.53-4.17-10-5.84-2.24-1.08-4.68-1.74-6.86-3s-4.15-3.17-4.49-5.63c-.3-2.09.61-4.13 1.49-6l4.44-9.61c1.68-3.63 3.6-7.52 7.18-9.3 4-2 8.75-.72 13 .57" fill="#683c3a"/><path d="m88.61 102.73c1.37.42 2.8.62 4.17 1a38.86 38.86 0 0 0 5 1.65 1.16 1.16 0 0 0 .37 0 .88.88 0 0 0 .56-.78 4.32 4.32 0 0 0 -1-2.8l-1.31-2a18 18 0 0 0 -1.82-2.42c-1.93-2-6.7-4.18-9.35-2.19-3.53 2.72.65 6.73 3.38 7.54z" fill="#d67567"/><path d="m108 112.32c2.31 3 6.08 4.35 9.74 5.15a10.32 10.32 0 0 0 6 0 2.22 2.22 0 0 0 .78-.48 1.92 1.92 0 0 0 .45-1.12 5.58 5.58 0 0 0 -2.15-4.47c-1.28-1.15-2.81-2-4.06-3.16-1-.89-1.73-2-2.65-2.88-2-2-7.66-5.5-10.46-3.34s.81 8.35 2.35 10.3z" fill="#d67567"/><path d="m72.11 111.33a13.45 13.45 0 0 0 -.4 3.14 9.59 9.59 0 0 0 .76 2.82c1 2.72 2.19 5.59 4.57 7.27 3.56 2.52 8.45 1.46 12.73 2.34 3.64.76 6.91 3 10.62 3.36 1.47.15 3 0 4.42.26 2.88.53 5.3 2.59 8.19 3.08 1.13.19 2.73-.33 2.54-1.47-.11-.69-.85-1.06-1.49-1.34a45.16 45.16 0 0 1 -9.39-5.51 9.45 9.45 0 0 0 -2.09-1.35 8.39 8.39 0 0 0 -2.53-.47l-7.85-.66a4.36 4.36 0 0 1 -1.76-.4 7.72 7.72 0 0 1 -1.4-1.28 4.7 4.7 0 0 0 -4.03-1.12 18.52 18.52 0 0 0 -3.45 1.51 3.71 3.71 0 0 1 -3.6 0c-1.28-.93-1.26-2.85-.81-4.36s1.2-3 .92-4.6-1.44-2.59-2.26-3.83a6.47 6.47 0 0 1 -1-2.11c-.16-.61.13-2.23-.38-2.67-2.52-2.11-2.2 6.74-2.31 7.39z" fill="#5e3636"/><path d="m168.43 138.83c-3.6-1.22-7.28-2.84-9.56-5.88a16.25 16.25 0 0 0 -2.26-2.87c-1.69-1.4-4.08-1.41-6.27-1.5a47.16 47.16 0 0 1 -6.28-.72c-1.55-.28-3.25-.77-4.05-2.12a4.53 4.53 0 0 1 0-4c.53-1.28 1.34-2.42 1.82-3.71.56-1.5.7-3.21 1.73-4.43a6.29 6.29 0 0 1 4.44-1.81 19.06 19.06 0 0 1 12.34 3.31 35.32 35.32 0 0 1 6.06 5.73c3.17 3.53 8.05 8.05 9.18 12.84 1.08 4.4-3.58 6.39-7.15 5.16z" fill="#9e5a57"/><path d="m147.08 122.26a4.36 4.36 0 0 0 2.56.87 27.75 27.75 0 0 1 6.23 1.56 2.33 2.33 0 0 0 1.21.22 1.66 1.66 0 0 0 .93-.66 4.25 4.25 0 0 0 .29-4.39c-1.27-2.61-5.27-4.52-8.13-4.47s-5.3 4.7-3.09 6.87z" fill="#d67567"/><path d="m162.19 129.52a5.44 5.44 0 0 0 1.59 4.39 7.57 7.57 0 0 0 4.28 2.06 4.26 4.26 0 0 0 2.07-.12 2 2 0 0 0 1.35-1.47 3.17 3.17 0 0 0 -.47-1.87l-2.62-5.38c-.91-1.87-2.95-5.56-5.64-4.41a2.11 2.11 0 0 0 -1 2.93 5.36 5.36 0 0 1 .44 3.87z" fill="#d67567"/><path d="m143.32 139c.77.15 1.58.14 2.35.31 2.76.63 4.42 3.38 6.69 5.08a9.84 9.84 0 0 0 6.46 1.93c2.07-.14 4.11-.93 6.17-.66.61.08 1.35.2 1.72-.29-2.1-2.83-4.57-5.87-8.05-6.4-1-.15-2.19-.14-2.84-.93a4.23 4.23 0 0 1 -.56-1.15 6.1 6.1 0 0 0 -3.24-3.58c-2.22-.87-4.68.09-7.06.32a11.48 11.48 0 0 1 -5-.63c-1-.37-3.49-1.67-3.53.54 0 1.21 1.82 2.24 2.62 2.89 1.29 1.07 2.55 2.22 4.27 2.57z" fill="#4c2c2c"/><path d="m57.5 92c-2.6-.73-5.47-.68-7.76-2a27.37 27.37 0 0 1 -2.85-2.28 13 13 0 0 0 -7.75-2.72 29.23 29.23 0 0 1 -4.68.06c-2.18-.35-4.08-1.68-6-2.77s-4.34-2-6.2-1.34a4.45 4.45 0 0 0 -2.36 2.31 13.6 13.6 0 0 0 -1.24 8.94 3.86 3.86 0 0 0 .59 1.58 4.71 4.71 0 0 0 2.29 1.58c2.82 1 6 .41 8.72 1.66a32.22 32.22 0 0 1 3.24 2.06 24.64 24.64 0 0 0 5.4 2.22 10.62 10.62 0 0 0 4.89.77 20.29 20.29 0 0 1 2.58-.65c1.66-.11 3.3.95 4.8 1.83a32.5 32.5 0 0 0 7.32 3.13 3.26 3.26 0 0 0 2.1.11 1.91 1.91 0 0 0 .81-.83c1.39-2.31 3.27-5.76 2.73-8.65-.45-2.32-4.13-4.28-6.63-5.01z" fill="#ec2044"/><path d="m172.81 145.58c-3.76-.17-7.94 0-10.64 2.67-.75.72-1.36 1.87-.83 2.76a3.81 3.81 0 0 0 1.7 1.15c.61.31 1.24.91 1.08 1.59a24.75 24.75 0 0 0 -10.56 4.35c-.75.54-1.56 1.48-1.1 2.29a1.79 1.79 0 0 0 .9.67c3.35 1.43 7.3.47 10.74 1.66a31.8 31.8 0 0 0 3.25 1.22c2.21.49 4.49-.38 6.46-1.48s3.83-2.48 6-3.14a4.35 4.35 0 0 1 2-.21c.64.11 1.22.45 1.86.62 2.39.62 4.64-1.27 6.39-3 3.88-3.85-.19-5.8-3.6-7.63a30.84 30.84 0 0 0 -13.65-3.52z" fill="#67ad39"/><path d="m168.1 38.25c5.2-1.26 13-15.1 4.2-14-7.18.8-13.02 16.14-4.2 14z" fill="#efefef"/><path d="m184.11 65.31a3.25 3.25 0 0 0 -1 1 3 3 0 0 0 -.27 1.5 10.58 10.58 0 0 0 .93 4.11 4.15 4.15 0 0 0 1.9 2.21 5.11 5.11 0 0 0 2.61.16l12.58-1.45a6.64 6.64 0 0 0 1.88-.4 6.24 6.24 0 0 0 1.8-1.36 47.42 47.42 0 0 0 4.11-4.62 5.08 5.08 0 0 0 1.13-2.12 4.33 4.33 0 0 0 -.09-1.68 10.24 10.24 0 0 0 -7.53-7.42c-2.06-.5-3.22-.49-5 .72-2 1.42-4.08 2.88-6.11 4.33-2.31 1.71-4.63 3.34-6.94 5.02z" fill="#683c3a"/><path d="m186.45 66.24a3.1 3.1 0 0 0 -.84 1.41 3.5 3.5 0 0 0 .92 2.5 76.56 76.56 0 0 0 14.89-2.26 9.36 9.36 0 0 0 2.58-.89 5.18 5.18 0 0 0 2.47-4.56c-.11-2.88-3.26-5.75-6.22-5a11.09 11.09 0 0 0 -3.32 2 54 54 0 0 1 -5 3 20.86 20.86 0 0 0 -5.48 3.8z" fill="#9e5a57"/><path d="m194.83 63.64a2.1 2.1 0 0 0 -1 .94 1.18 1.18 0 0 0 .24 1.19 1.42 1.42 0 0 0 1.16.42 3.65 3.65 0 0 0 1.21-.46 7.84 7.84 0 0 1 2.06-.65c1.22-.21 4.82-1.5 2.5-3-1.77-1.23-4.67.7-6.17 1.56z" fill="#d67567"/></svg>