<svg id="Layer_1" data-name="Layer 1" xmlns="http://www.w3.org/2000/svg" viewBox="0 0 791.73 246.82"><defs><style>.cls-1,.cls-2{fill:#d51a66;}.cls-2{font-size:23px;font-family:Calibri-Bold, Calibri;font-weight:700;}.cls-3{letter-spacing:-0.01em;}.cls-4{letter-spacing:-0.09em;}.cls-5{letter-spacing:-0.01em;}.cls-6{letter-spacing:-0.01em;}.cls-7{letter-spacing:-0.01em;}</style></defs><path class="cls-1" d="M353.69,572.56c-14.65-.57-28,7.87-39.36,17.08-8.55,7-16.7,14.7-22,24.3s-7.55,21.32-3.87,31.64,14.09,18.54,25.13,17.78c12.84-.88,37.65-32.44,29.73-22.41-11.36,14.38-11.52,10,30.76-31.12,10.5-10.22,27.14-13.22,41.69-10.93Z" transform="translate(-144.13 -416.59)"/><path class="cls-1" d="M905,508.19a633.76,633.76,0,0,1-172.81,81.75,615,615,0,0,1-190.3,25.5c-64.31-1.41-128.21-12.69-189.3-32s-119.62-46.05-174.29-78.76c57.29,27.84,116.31,51.74,177.24,68.83l11.43,3.14,2.86.79,2.88.71,5.76,1.39c7.68,1.85,15.32,3.88,23.06,5.42s15.42,3.4,23.21,4.72,15.5,3,23.32,4,15.58,2.47,23.43,3.28l11.74,1.4,2.93.34,2.95.26,5.89.5,11.77,1c2,.2,3.93.3,5.9.4l5.9.31,11.8.64c3.93.19,7.88.17,11.81.28l11.82.26c3.93,0,7.87-.09,11.81-.13l11.81-.15,11.8-.56c3.94-.2,7.88-.31,11.8-.58l11.78-1,5.89-.47c2-.15,3.93-.3,5.88-.56l11.74-1.34c7.85-.76,15.63-2.05,23.42-3.2l5.85-.87c1.95-.28,3.88-.69,5.82-1l11.64-2.13,5.82-1.06,5.77-1.27,11.56-2.52c1.93-.43,3.87-.78,5.78-1.28l5.74-1.44L729.34,580c3.85-.9,7.61-2.1,11.41-3.17l11.39-3.29c.94-.28,1.9-.54,2.84-.83l2.82-.93,5.63-1.84,11.29-3.63c7.48-2.56,14.9-5.31,22.36-8l22.09-8.74A840.27,840.27,0,0,0,905,508.19Z" transform="translate(-144.13 -416.59)"/><path class="cls-1" d="M597.15,478.65c-2.39,1.59-3,3.57-2.77,6.48.22,3.2.43,6.39.63,9.59h-7.78q.35-5.78.67-11.54a4.21,4.21,0,0,0-1.44-3.21c-6.25-4.22-7.29-10-6.37-17.07,1-7.39,1.06-14.9,1.7-22.34.08-1,1.09-1.94,1.67-2.9.49,1,1.38,2,1.4,3.09.12,8,0,16,.12,24,0,1.25.8,2.47,1.23,3.71a15,15,0,0,0,1.14-3.9c.1-7.8,0-15.59.07-23.38a28.4,28.4,0,0,1,.45-3.53l1.29,0a24.66,24.66,0,0,1,.52,3.47c0,7.9,0,15.81,0,23.71a7.11,7.11,0,0,0,.08,2.22c.2.6.83,1,1.27,1.54.37-.56,1-1.09,1-1.68a41.78,41.78,0,0,0,.07-4.48c0-7,0-14.09,0-21.14a27,27,0,0,1,.46-3.55l1.2-.13a14.1,14.1,0,0,1,.73,3.12c.06,8.33,0,16.65.09,25,0,1,.77,1.9,1.19,2.84.43-.92,1.23-1.85,1.25-2.78.09-8.34,0-16.66.12-25,0-1,.85-2.08,1.31-3.12.6,1.06,1.63,2.09,1.72,3.2.66,8.62.87,17.29,1.76,25.88C602.54,471.82,601.44,475.79,597.15,478.65Z" transform="translate(-144.13 -416.59)"/><path class="cls-1" d="M684.79,477.72c-.78.43-1.28,2.11-1.24,3.18q.36,7.53.76,15.07h-9q.4-7.47.75-14.94c.05-1.09-.38-2.72-1.15-3.24-7.88-5.24-9.72-13.11-9.5-21.74A23.34,23.34,0,0,1,671,440.76c5.24-5.93,12.47-5.88,17.66.11C697.68,451.31,695.29,472,684.79,477.72Z" transform="translate(-144.13 -416.59)"/><text class="cls-2" transform="translate(83.13 107.37)">JO APNON SE KARE <tspan class="cls-3" x="188.77" y="0">P</tspan><tspan class="cls-4" x="200.87" y="0">Y</tspan><tspan x="210.85" y="0">AR, </tspan><tspan class="cls-5" x="248.87" y="0">W</tspan><tspan x="269.43" y="0">O HOME</tspan><tspan class="cls-6" x="351.57" y="0">F</tspan><tspan x="361.96" y="0">OOD SE K</tspan><tspan class="cls-7" x="452.63" y="0">E</tspan><tspan x="463.63" y="0">SE KARE INKAAR</tspan></text><path class="cls-1" d="M148.13,418h14.08v31.9l16-17.58,16,17.58V418h14.08v79.37H194.29V462.22l-16-17.58-16,17.58v35.19H148.13Z" transform="translate(-144.13 -416.59)"/><path class="cls-1" d="M231.09,457.41c0-25.68,14.32-40.82,35-40.82s35,15.22,35,40.82-14.32,41.45-35,41.45S231.09,483.09,231.09,457.41Zm55.53,0c0-17.81-8.05-28.59-20.53-28.59s-20.53,10.78-20.53,28.59,8.06,29.22,20.53,29.22S286.62,475.23,286.62,457.41Z" transform="translate(-144.13 -416.59)"/><path class="cls-1" d="M323.74,418h15.92l14,38.79c1.74,5.05,3.35,10.39,5.09,15.58h.49c1.75-5.19,3.25-10.53,5-15.58L378,418h15.92v79.37H381V461.1c0-7.33,1.11-17.89,1.79-25.24h-.48l-6.41,18.44L362.86,490h-8.35l-13.1-35.66-6.31-18.44h-.49c.68,7.35,1.8,17.91,1.8,25.24v36.31H323.74Z" transform="translate(-144.13 -416.59)"/><path class="cls-1" d="M420.82,418h47.77v11.85H434.9v20.34h28.54v11.84H434.9v23.49h34.9v11.85h-49Z" transform="translate(-144.13 -416.59)"/><path class="cls-1" d="M492.79,418h48v11.85H506.87v22.52H535.7v11.84H506.87v33.16H492.79Z" transform="translate(-144.13 -416.59)"/><path class="cls-1" d="M556,457.41c0-25.68,14.32-40.82,35-40.82s35,15.22,35,40.82-14.32,41.45-35,41.45S556,483.09,556,457.41Zm55.53,0c0-17.81-8.06-28.59-20.53-28.59s-20.54,10.78-20.54,28.59,8.06,29.22,20.54,29.22S611.5,475.23,611.5,457.41Z" transform="translate(-144.13 -416.59)"/><path class="cls-1" d="M644.44,457.41c0-25.68,14.32-40.82,35-40.82s35,15.22,35,40.82-14.31,41.45-35,41.45S644.44,483.09,644.44,457.41Zm55.53,0c0-17.81-8.06-28.59-20.53-28.59S658.9,439.6,658.9,457.41s8.06,29.22,20.54,29.22S700,475.23,700,457.41Z" transform="translate(-144.13 -416.59)"/><path class="cls-1" d="M737.08,418h21.17c24.32,0,38.69,13.11,38.69,39.37s-14.37,40-38,40h-21.9Zm20.25,68c16,0,25.14-9.08,25.14-28.59s-9.17-28-25.14-28h-6.17V486Z" transform="translate(-144.13 -416.59)"/><path class="cls-1" d="M830.43,467.9,806.55,418H821.6l8.64,20.29c2.33,5.9,4.56,11.41,7.06,17.45h.49c2.5-6,5-11.55,7.3-17.45L853.73,418h14.66L844.51,467.9v29.51H830.43Z" transform="translate(-144.13 -416.59)"/><path class="cls-1" d="M897.91,467.9,874,418h15l8.64,20.29c2.33,5.9,4.57,11.41,7.07,17.45h.48c2.5-6,5-11.55,7.31-17.45L921.21,418h14.66L912,467.9v29.51H897.91Z" transform="translate(-144.13 -416.59)"/></svg>