<svg viewBox="0 0 250 250" xmlns="http://www.w3.org/2000/svg" xmlns:xlink="http://www.w3.org/1999/xlink"><clipPath id="a"><path d="m145.59 93.3a75 75 0 0 1 -1.79-15.87 3 3 0 0 1 .29-1.62 3 3 0 0 1 .81-.79l5.92-4.54a8.12 8.12 0 0 1 2.7-1.55c1.7-.44 3.45.29 5 1a1.14 1.14 0 0 1 .65.5 1.18 1.18 0 0 1 0 .72l-2.05 9.49a9.91 9.91 0 0 0 -.34 2.86c.18 2.31 1.92 4.31 1.94 6.62-.16 0 0 0 .09.17q1.83 5.49 4 10.85c.47 1.13-.17 2.54-.17 3.77a.74.74 0 0 1 -.08.42c-.15.21-.45.2-.71.18-4.36-.35-8.54 2.2-12.9 1.95a1.44 1.44 0 0 1 -.74-.2 1.54 1.54 0 0 1 -.43-.63 40.76 40.76 0 0 1 -3-10.77"/></clipPath><clipPath id="b"><path d="m141.13 68c1.16-1.42 2.78-2.8 4.53-2.93a1 1 0 0 1 1 1.08c-1.94 15.37 5 30.61 5.61 46.14 0 .68-1.08 1.45-1.08 1.45l-4.18-1a38.51 38.51 0 0 1 -3.45-4.37l-6.88-11.65c-2.9-4.91-4.25-8.58-2.58-14.06 1.6-5.17 3.54-10.39 7.03-14.66z"/></clipPath><clipPath id="c"><path d="m136.13 79.27c-1.41-.62-2.94.65-4.48.69-.45 0-.9-.09-1.35-.1-2.64-.11-11.7 2.74-13.73 3.76a40.41 40.41 0 0 1 -6 1.38c-.78.1-3.47 1.34-4.17 1.5-2.14.47-3.87 2.84-6.06 3-3.93.25-5.26.73-8.83 2.38-2 .89-5.33 1.28-7 2.62-1.1.89-3.22 1-3.58 2.38s-3.46 0-4 4.87c-.17 1.41 1 2.8.47 4.12a5.17 5.17 0 0 0 .57 4.21c.68 1.29 1.61 2.44 2.19 3.78.51 1.19.73 2.49 1.26 3.66a6.35 6.35 0 0 0 3.9 3.48c3.43 1 7.73-.59 11.15-1.63s5.11-.51 8.59-1.56c1-.31 6.7-2.06 7.68-2.42.61-.23 1.21-.48 1.83-.67a28 28 0 0 1 3.11-.71 14.82 14.82 0 0 0 5.61-1.94 22.59 22.59 0 0 1 3.8-1.55 12.22 12.22 0 0 1 4.13-.63c2.75-.11 4.45-1.79 7.05-2.69 2.91-1 6.32-2 7.21-4.93a9 9 0 0 0 .14-3.54 36.41 36.41 0 0 0 -2.15-8.8c-.35-.89-1.09-1.59-1-2.54a7.48 7.48 0 0 0 .23-2.39c-.22-.9-1.11-1.44-1.65-2.2s-.78-2-1.53-2.71-2.52-.42-3.39-.82z"/></clipPath><clipPath id="d"><path d="m115.31 110.4a12.43 12.43 0 0 1 -4 3 47 47 0 0 0 -8.48 6.52 8.8 8.8 0 0 0 -1.71 2.1 8.92 8.92 0 0 0 -.83 3.3 66 66 0 0 0 -.42 7.17 9.7 9.7 0 0 0 1 5.2 8.43 8.43 0 0 0 5.15 3.28 30.06 30.06 0 0 0 12.1.5c4-.55 8-1.6 11.93-2.52 4.57-1.06 9.29-2 13.31-4.42a4.31 4.31 0 0 0 1.69-1.53 4.71 4.71 0 0 0 .43-1.9c.48-6.43-.74-13.45-5.37-17.94a8.94 8.94 0 0 0 -2-1.52 12.34 12.34 0 0 0 -4.49-1l-9-.92c-1.75-.18-3.7-.47-4.76-1.87-.44-.57-.67-1.28-1.07-1.89-1-1.58-1.93-1-2.18.51a8.87 8.87 0 0 1 -1.3 3.93z"/></clipPath><clipPath id="e"><path d="m69.63 62.55q2.37 4.67 4.37 9.52a9 9 0 0 0 1.25 2.37 8.14 8.14 0 0 0 2.45 1.8 58.19 58.19 0 0 0 12.75 5.14 18.69 18.69 0 0 0 6.58.84c3-.27 5.66-1.7 8.24-3.17a11.62 11.62 0 0 0 4.38-3.64 22.26 22.26 0 0 0 -1.89-4.41 1.84 1.84 0 0 0 -.62-.73 2 2 0 0 0 -1.37-.11l-11.55 1.84a30.83 30.83 0 0 1 -8.4.55 10.44 10.44 0 0 1 -7.27-3.8 22.6 22.6 0 0 1 -2.29-5 24.8 24.8 0 0 0 -4.76-7.48c-2.31-2.49-5.29-4.81-5.82-8.17a3.14 3.14 0 0 0 -.31-1.21.82.82 0 0 0 -1.44 0c-.25.47.21 1.21.3 1.68a36.81 36.81 0 0 0 1.08 4.87 68.7 68.7 0 0 0 4.32 9.11z"/></clipPath><path d="m56.19 90.82-2.06 4.18a4.65 4.65 0 0 1 -1.53 2 4.74 4.74 0 0 1 -2.33.47 6.41 6.41 0 0 1 -3.17-.47c-5.22-2.75-.53-15.17 3.23-17.68a4.93 4.93 0 0 1 7 1.14c2.3 3.17.37 7.32-1.14 10.36zm104.63-59.09c-3.21 1.11-6.15 3.64-6.75 7-.47 2.7.62 5.45 2.16 7.71 7.45 10.94 23.38 12.35 32.79 21.66 3.22 3.18 5.53 7.15 8.28 10.75s6.19 7 10.56 8.15a4.35 4.35 0 0 0 3.77-.33 4.44 4.44 0 0 0 1.37-2.29c2.09-6.5-.6-13.91-5.57-18.58-3.51-3.31-7.95-5.41-11.92-8.13s-7.7-6.44-8.52-11.19c-.42-2.39-.07-4.93-.87-7.22a10.15 10.15 0 0 0 -6-5.73c-5.71-2.27-13.38-3.83-19.3-1.8z" fill="#efefef"/><path d="m196.48 123.41c1.57-6.78 2.53-13.86 1.16-20.69-2.38-11.86-11.46-21.33-21.53-28s-21.42-11.25-31.68-17.65c-16.43-10.24-26.11-21.91-52.78-19.58s-38.36 27-30.24 33.65c3.58 2.94 7.82 6.42 7.44 11a12.31 12.31 0 0 1 -2.52 5.7c-4.23 6.16-9.51 11.93-11.47 19.16a23.66 23.66 0 0 0 10.79 26c5.82 3.32 13.18 4.18 17.79 9 3.2 3.38 4.46 8.1 6.62 12.22 5.57 10.64 17.21 17 29 19.2s27.25 2.41 38.8-1.23 22.56-13.88 28.8-23.91a81.39 81.39 0 0 0 9.82-24.87zm-57.27-81.18a3.38 3.38 0 0 1 -1.26-.9 3.38 3.38 0 0 1 -.5-1.93 37 37 0 0 1 .4-6.89 2.78 2.78 0 0 1 .38-1.2 2.22 2.22 0 0 1 2.68-.45c2.18.94 3.07 3.48 4.42 5.43.68 1 1.52 1.87 2.17 2.89 1.23 1.94 1.29 5.39-1.63 5.82-1.95.29-4.99-1.93-6.66-2.77z" fill="#efefef"/><path d="m99 59c1.82-.16 3.92 0 5.11 1.36 1.61 1.89.61 4.73-.18 7.08s-.93 5.61 1.38 6.56a5.33 5.33 0 0 0 3.38-.21c3.46-1 7-2 10.6-1.63s7.23 2.42 8.37 5.83c1.37 4.1-1.33 8.6-4.93 11s-8 3.27-12 4.68-8.24 3.67-10 7.59a32.9 32.9 0 0 1 -1.6 3.76 10.54 10.54 0 0 1 -4.54 3.59 34.41 34.41 0 0 1 -11.69 3.19 7.35 7.35 0 0 1 -4.06-.47 8.12 8.12 0 0 1 -2.87-3c-1.84-2.75-3.71-5.57-4.56-8.77s-.49-6.91 1.72-9.37c1.77-2 4.55-3 5.83-5.3a2.29 2.29 0 0 0 .34-1.62c-.64-2.73-5.56-.54-6.57-3.9-.92-3.06 2.16-6.13 4-8 6.49-6.26 12.84-11.62 22.27-12.37z" fill="#ffc513"/><path d="m60.67 115.78a703 703 0 0 0 66.23 49.66 1.12 1.12 0 0 0 1.5-1.64 23.89 23.89 0 0 0 -4.61-3.94 853.64 853.64 0 0 1 -76-60.64c-1.55-1.39-4.24-3.45-6-1.26-2.1 2.57 1.28 4.25 3.05 5.47 5.54 3.83 10.69 8.01 15.83 12.35zm13.99-12.29a704.3 704.3 0 0 0 59.69 57.36 1.12 1.12 0 0 0 1.65-1.45 24.06 24.06 0 0 0 -4.09-4.48 852.18 852.18 0 0 1 -68-69.44c-1.37-1.57-3.78-3.94-5.83-2-2.4 2.29.75 4.38 2.36 5.8 5.05 4.5 9.65 9.27 14.22 14.21z" fill="#ffdc8d"/><path d="m170.34 67.88c3-3.51 8.72-4.58 12.57-2 2.74 1.85 4.2 5.06 5.29 8.18.78 2.25 1.44 4.53 2.07 6.82a10.51 10.51 0 0 1 .56 3.76 6.9 6.9 0 0 1 -1.47 3.46c-3.18 4.08-9.25 4.71-14.24 3.36a6.73 6.73 0 0 1 -3-1.47 8 8 0 0 1 -1.67-2.93l-1.45-3.66c-.33-.83-.54-2 .25-2.4.95-.49 1.8-1.58 2.27-.62.94 1.9 1.21 6 2.76 7.42.68.64 2.68 1.09 3.58 1.35a5.21 5.21 0 0 0 2.48-.09 21.27 21.27 0 0 0 6.38-2.55 3.64 3.64 0 0 0 1.28-1.14 3.83 3.83 0 0 0 -.07-3 92.58 92.58 0 0 0 -3.37-8.94 11.6 11.6 0 0 0 -2.2-3.65 7 7 0 0 0 -9.05-.29 8.43 8.43 0 0 0 -2.45 9 13.75 13.75 0 0 1 .73 2.31 2.39 2.39 0 0 1 -.68 2.22 1.34 1.34 0 0 1 -2-.4c-.17-5.36-2.71-9.95 1.43-14.74z" fill="#0c4f60"/><path d="m170.49 80.28a3.81 3.81 0 0 0 -2.3.2c-5.81 1.74-58.21 17.59-63.9 19.72l-.6.22.94 2.42c10.14-3.07 52.74-16 56.09-17.16 2-.66 9.56-1.92 10.64-3.56.43-.65-.12-1.59-.87-1.84z" fill="#0c4f60"/><path d="m145.59 93.3a75 75 0 0 1 -1.79-15.87 3 3 0 0 1 .29-1.62 3 3 0 0 1 .81-.79l5.92-4.54a8.12 8.12 0 0 1 2.7-1.55c1.7-.44 3.45.29 5 1a1.14 1.14 0 0 1 .65.5 1.18 1.18 0 0 1 0 .72l-2.05 9.49a9.91 9.91 0 0 0 -.34 2.86c.18 2.31 1.92 4.31 1.94 6.62-.16 0 0 0 .09.17q1.83 5.49 4 10.85c.47 1.13-.17 2.54-.17 3.77a.74.74 0 0 1 -.08.42c-.15.21-.45.2-.71.18-4.36-.35-8.54 2.2-12.9 1.95a1.44 1.44 0 0 1 -.74-.2 1.54 1.54 0 0 1 -.43-.63 40.76 40.76 0 0 1 -3-10.77" fill="#037c3c"/><g clip-path="url(#a)"><path d="m159.86 69.65a23.45 23.45 0 0 0 -3.72 3.1 6.47 6.47 0 0 0 -1.54 2.16 7.47 7.47 0 0 0 -.36 1.94l-.63 6.39a11.7 11.7 0 0 0 .22 4.9c.51 1.48 1.63 2.77 1.77 4.33.05.5 0 1 .07 1.51a6 6 0 0 0 .83 1.93 33 33 0 0 1 4 12 31.45 31.45 0 0 1 6.94-1.21c.08-3.62-1-7.14-1.67-10.7a104.78 104.78 0 0 1 -1.14-13.13q-.45-8.42-1.49-16.8" fill="#67ad39"/><path d="m154.07 101.81c1.11 2.67 2.31 5.29 3.52 7.91h-4.92a2.65 2.65 0 0 1 -3.08-2.57c-.48-1.77-.83-3.57-1.19-5.38-1.42-7.2-3.31-14.61-3.9-21.94-.08-1 0-2.12 1.26-2.25s1.28 1.24 1.5 2.3c.74 3.54 1.66 7.12 2.74 10.56q1.75 5.79 4.07 11.37z" fill="#036d33"/></g><path d="m141.13 68.05c1.16-1.42 2.78-2.8 4.53-2.94a1 1 0 0 1 1 1.08c-1.94 15.37 5 30.61 5.61 46.15a1.44 1.44 0 0 1 -1.08 1.45c-1.4.33-4.18-1-4.18-1a38.51 38.51 0 0 1 -3.45-4.37l-6.88-11.65c-2.9-4.91-4.25-8.59-2.58-14.07 1.6-5.17 3.54-10.39 7.03-14.65z" fill="#a02b71"/><g clip-path="url(#b)"><path d="m144.62 72.08c.11 1 .31 2 .34 3 0 1.56-.31 3.09-.35 4.64a23.3 23.3 0 0 0 .83 5.82 55.1 55.1 0 0 0 3.64 11.69c.09.18.2.38.36.42.31.08.5-.44.55-.84a32.92 32.92 0 0 0 0-6.51c-.36-5.9-.75-11.8-1.13-17.7-.13-1.91.09-7-2.12-6.79s-2.34 4.11-2.12 6.27z" fill="#cc3a98"/><path d="m136.4 72.23a27.22 27.22 0 0 1 5.33-6.1c-.39 2.3-.72 4.61-1 6.93a.71.71 0 0 0 .12.59.9.9 0 0 0 .51.13c1 .11 1.49 1.15 1.81 2 2.54 7.16 3 14.86 3.48 22.43a22.24 22.24 0 0 1 0 4.08 13.26 13.26 0 0 0 -.24 2.43c0 .84.36 1.64.47 2.47a23.66 23.66 0 0 1 0 3.26 10.55 10.55 0 0 0 1.11 4.81 3.92 3.92 0 0 1 .5 1.33 1 1 0 0 1 -.68 1.12 1.31 1.31 0 0 1 -.65-.06c-2.44-.72-4-3-5.37-5.17-4.8-7.64-9.41-15.92-9.56-24.94-.11-6.13 1.87-12.12 4.29-17.76" fill="#842562"/></g><path d="m136.13 79.27c-1.41-.62-2.94.65-4.48.69-.45 0-.9-.09-1.35-.1-2.64-.11-11.7 2.74-13.73 3.76a40.41 40.41 0 0 1 -6 1.38c-.78.1-3.47 1.34-4.17 1.5-2.14.47-3.87 2.84-6.06 3-3.93.25-5.26.73-8.83 2.38-2 .89-5.33 1.28-7 2.62-1.1.89-3.22 1-3.58 2.38s-3.46 0-4 4.87c-.17 1.41 1 2.8.47 4.12a5.17 5.17 0 0 0 .57 4.21c.68 1.29 1.61 2.44 2.19 3.78.51 1.19.73 2.49 1.26 3.66a6.35 6.35 0 0 0 3.9 3.48c3.43 1 7.73-.59 11.15-1.63s5.11-.51 8.59-1.56c1-.31 6.7-2.06 7.68-2.42.61-.23 1.21-.48 1.83-.67a28 28 0 0 1 3.11-.71 14.82 14.82 0 0 0 5.61-1.94 22.59 22.59 0 0 1 3.8-1.55 12.22 12.22 0 0 1 4.13-.63c2.75-.11 4.45-1.79 7.05-2.69 2.91-1 6.32-2 7.21-4.93a9 9 0 0 0 .14-3.54 36.41 36.41 0 0 0 -2.15-8.8c-.35-.89-1.09-1.59-1-2.54a7.48 7.48 0 0 0 .23-2.39c-.22-.9-1.11-1.44-1.65-2.2s-.78-2-1.53-2.71-2.52-.42-3.39-.82z" fill="#824646"/><path d="m82.26 105.53c.31 1 .47 2 .85 2.88a17.46 17.46 0 0 0 1 2 21.32 21.32 0 0 1 1.89 4.29 6.73 6.73 0 0 1 .34 2.55 3 3 0 0 1 -1.2 2.21 17 17 0 0 1 -3.08-6 8.48 8.48 0 0 0 -1.46-3.46c-.45-.52-1-.89-1.51-1.4a1.78 1.78 0 0 1 -.42-1.9c.65.44 1.28.9 1.89 1.4.23-.78-.4-1.51-.91-2.15s-2.94-4.57-.9-4.78c1.63-.17 3.12 3.18 3.51 4.36z" fill="#5e3434"/><g clip-path="url(#c)"><path d="m130.26 104.84a1.87 1.87 0 0 1 -.36.75c-.47.48-1.27.15-1.94 0-1.57-.23-3 1-3.75 2.41a19.93 19.93 0 0 1 -2.24 3c-.59.77-1.86 1.32-2.38.51a1.73 1.73 0 0 1 -.18-1c0-1.17.59-1.29.16-2.23s-1 .23-1.26.69-.32 1-.56 1.44c-.59 1.16-2 1.63-3.23 2a1.28 1.28 0 0 1 -1 0c-.23-.15-.33-.43-.51-.65a1.64 1.64 0 0 0 -1.69-.42 5.59 5.59 0 0 0 -1.62.85 22 22 0 0 1 -7.05 3l.36-2.57c-1 .36-1.56 1.45-2.08 2.4s-1.31 2-2.39 2a5.83 5.83 0 0 1 -1.16-.24 9.21 9.21 0 0 0 -3.83.22c-2.24.46-3.86 3.43-5.3 3.64a4.26 4.26 0 0 0 -2.62 1.19c.06.61 2.85-.12 3.45 0a57.34 57.34 0 0 0 33.6-4c2.71-1.21 5.32-2.63 8-3.85a63.31 63.31 0 0 0 6.34-3c1.45-.87 2.95-2 4.65-1.84.57 0 1.23.2 1.67-.17a1.72 1.72 0 0 0 .45-.8c1.25-3.63 2.52-7.48 1.72-11.24-.12-.57-.63-1.28-1.12-1a.9.9 0 0 0 -.33.66c-.23 1.38-.1 2.85-.63 4.15s-2.16 2.33-3.34 1.57a4.34 4.34 0 0 0 -.84-.58c-1.56-.58-2.3 2.38-3.82 1.85 0-1.11.33-2.13-.39-3.08-.26-.34-1.17-1.27-1.67-.88s0 2-.72 2.71c-.93.87-1.93 1.18-2.39 2.51z" fill="#5e3434"/></g><path d="m69.29 115.12c3.43.87 9-2 12.25-3.06l1.17-.37-.94-2.42c-3.6 1.24-10.63 2.92-12.48 5.85z" fill="#0c4f60"/><path d="m135.22 98.86c.08.25.28.55.53.48s.27-.32.28-.53a7.66 7.66 0 0 0 -.19-1.65 58.74 58.74 0 0 0 -1.53-6.42c-.29-.92-.75-3-1.57-1.34a4 4 0 0 0 .26 3.73 10.09 10.09 0 0 1 1.5 2.73c.29.99.4 2.02.72 3zm-38.93 9.76a11.75 11.75 0 0 0 .2 1.88 7.15 7.15 0 0 0 1.11 2.29 1.25 1.25 0 0 0 .32-1.13 37.08 37.08 0 0 0 -.69-4.69c-.12-.63-.75-4-1.61-3.19s.58 3.94.67 4.84zm-3.29 6.11c0 .32 0 .73.32.82s.55-.21.61-.49a6.44 6.44 0 0 0 0-.88c.06-.61.54-1.1.69-1.7.2-.78-.35-2.08-1.15-1.16-.47.61-.4 2.62-.47 3.41zm19.25-16.39a1 1 0 0 1 0 .44 1.85 1.85 0 0 1 -.27.47 1.76 1.76 0 0 0 0 1.2 10.86 10.86 0 0 0 .72 2.58 19.22 19.22 0 0 1 .94 1.87 5.31 5.31 0 0 1 .24 2.17 3.06 3.06 0 0 0 0 1.09.84.84 0 0 0 .79.63c.66-2.39-.1-4.9-.33-7.36a20.86 20.86 0 0 0 -.29-2.49 42.51 42.51 0 0 0 -1.71-4.23c-.42-1.24-.57-2.57-1.06-3.79-.08-.2-.19-.42-.41-.46-1.09-.21-.22 3.05-.11 3.46.46 1.5 1.05 2.94 1.49 4.42zm17.01-12.95a.29.29 0 0 0 .23-.1.41.41 0 0 0 0-.36 6.33 6.33 0 0 1 -.13-1.38 2.21 2.21 0 0 0 -.09-1c-.45-1-1.74-.84-1.28.3a6.56 6.56 0 0 1 .47 1.44c.09.44.23 1.11.8 1.1z" fill="#5e3434"/><path d="m84.65 106.83c.67 0-.1-4-.54-6.09a.88.88 0 0 1 0-.68 1.15 1.15 0 0 1 .45-.3 5 5 0 0 0 1.64-2.26 1.07 1.07 0 0 1 .38-.46c.44-.25 1 .15 1.26.57s.64.91 1.14.91.84-.48 1-1a13.85 13.85 0 0 1 .27-1.43c.31-.85 1.28-1.61.92-2.43s-8.28 3.49-9.12 4.19c-1.21 1-.53 1.8.16 2.92 1.14 1.85 1.79 6.1 2.44 6.06zm28.98-18.42a4.45 4.45 0 0 0 .26 1.8 5.61 5.61 0 0 0 1.81 3.24l.21-3.43c0-.61.16-1.35.73-1.58a5.69 5.69 0 0 1 1-.12c1.07-.23 1.31-1.72 2.24-2.29.78-.48 1.81-.18 2.67-.5s1.47-1.07 2.24-.79 1 1.55 1.8 1.68a5 5 0 0 0 .05-2 2.06 2.06 0 0 0 -1.26-1.51 2.82 2.82 0 0 0 -2 .32c-1.63.74-3.25 1.82-5 1.67a5.29 5.29 0 0 0 -1.25-.08c-.62.09-1.51 1.17-2 1.57a3.2 3.2 0 0 0 -1.5 2.02zm20.31-4.09a2.94 2.94 0 0 0 .44 1.93.38.38 0 0 0 .19.14c.15 0 .28-.11.36-.25a16.75 16.75 0 0 0 1-2.42c.24-.56 1.11-1.42.92-2-.37-1.19-2.72-.75-3.6-.6-.43.07-2 .23-1.74.86.14.4 1.48.36 1.82.64a2.22 2.22 0 0 1 .61 1.7zm-35.52 7.39c-.1.06-.21.16-.2.28s.12.17.21.22c.73.33 1.63.24 2.25.74a4 4 0 0 1 .84 1.34 1.62 1.62 0 0 0 1.16 1 1.25 1.25 0 0 0 1.19-1 3.34 3.34 0 0 0 -.05-1.63 2.41 2.41 0 0 1 -.09-.84c.11-.79 1-1.33 1-2.12a.21.21 0 0 0 -.2-.27 1.36 1.36 0 0 0 -1.13.63 2.19 2.19 0 0 1 -1 .86c-.63.15-1.34-.12-2 0a5.11 5.11 0 0 0 -1.98.79z" fill="#ceaa94"/><path d="m164.44 193.62c-14-2.31-28.12-4.1-42.29-3.78s-28.43 2.81-41.3 8.75c-1.41.65-2.93 1.48-3.43 2.95-.82 2.42 1.59 4.67 3.84 5.88 8.07 4.37 17.49 5.35 26.65 6.06 7.32.56 14.65 1 22 1.48a117.42 117.42 0 0 0 19 .14c7.36-.74 14.52-2.87 21.56-5.16 3.36-1.1 7-2.46 8.74-5.54 4.27-7.51-10.39-10.06-14.77-10.78z" fill="#efefef"/><path d="m115.31 110.4a12.43 12.43 0 0 1 -4 3 47 47 0 0 0 -8.48 6.52 8.8 8.8 0 0 0 -1.71 2.1 8.92 8.92 0 0 0 -.83 3.3 66 66 0 0 0 -.42 7.17 9.7 9.7 0 0 0 1 5.2 8.43 8.43 0 0 0 5.15 3.28 30.06 30.06 0 0 0 12.1.5c4-.55 8-1.6 11.93-2.52 4.57-1.06 9.29-2 13.31-4.42a4.31 4.31 0 0 0 1.69-1.53 4.71 4.71 0 0 0 .43-1.9c.48-6.43-.74-13.45-5.37-17.94a8.94 8.94 0 0 0 -2-1.52 12.34 12.34 0 0 0 -4.49-1l-9-.92c-1.75-.18-3.7-.47-4.76-1.87-.44-.57-.67-1.28-1.07-1.89-1-1.58-1.93-1-2.18.51a8.87 8.87 0 0 1 -1.3 3.93z" fill="#fff5ca"/><path d="m119.62 118.91a5.27 5.27 0 0 0 .15-1.53 4.59 4.59 0 0 0 -.31-1.14 21.6 21.6 0 0 0 -.9-2 15.72 15.72 0 0 0 -.56 8.53c.06.38.25 1.57.82 1.53s.32-1.1.31-1.46a18.34 18.34 0 0 1 .49-3.93zm-9.94.34a8.85 8.85 0 0 0 -2 4.85c.6.25 1.23-.29 1.63-.8a15.39 15.39 0 0 0 1.13-1.64 13.45 13.45 0 0 1 1.06-1.66c.41-.5 3.49-3.08 2.32-3.9-.7-.46-3.66 2.57-4.14 3.15zm17.67.14c.49.55 1.2 1.14 1.88.86a.42.42 0 0 0 .23-.16.68.68 0 0 0 .09-.25 1.91 1.91 0 0 0 -.49-1.39c-.31-.39-.71-.72-1-1.11a9.62 9.62 0 0 0 -1.61-2c-.57-.4-1.31-.51-1.89-.89s-1.21-1.3-1.81-.95c1.01 2.15 3.03 4.15 4.6 5.89zm5.32-4.39c1 .58 2.1 1.25 3.21.93 0-.44-.42-.74-.81-.93l-2.75-1.4a8 8 0 0 0 -.94-.44 4.42 4.42 0 0 0 -2.08-.35c.06.9 2.62 1.7 3.37 2.19z" fill="#e2b283"/><g clip-path="url(#d)"><path d="m92.81 132c3.77 1.9 8.14 2 12.26 2.94 3.85.85 7.6 2.4 11.55 2.41 3.16 0 6.26-1 9.42-1.09 1.73-.05 3.47.17 5.2.09 5.06-.22 9.66-3 14.64-3.89a2.18 2.18 0 0 1 2.07.36 1.79 1.79 0 0 1 .4 1c.47 2.94-1.74 5.6-3.94 7.61-7.23 6.58-16.09 11.2-25.36 14.3-4.11 1.37-8.44 2.47-12.74 2a12.91 12.91 0 0 1 -3.72-1 15.36 15.36 0 0 1 -4.19-3c-5.81-5.52-9.24-13.89-7.56-21.73" fill="#e2b283"/></g><path d="m57.84 135.91c.06 1.48.46 5.9.55 6.64.49 3.86 1.64 7.58 2.4 11.36.78 3.94 3.37 6.47 4.71 9.42.35.77.75 1.57 1.06 2.31a49.92 49.92 0 0 0 7 12.57 70.7 70.7 0 0 0 9.11 9.36c.72.61 2.33 1.37 3.07 2 1.17.92 1.49 1.64 2.72 2.49a74.16 74.16 0 0 0 25.77 11.3c2.49.56 5.19.14 7.72.43 2.94.33 5.71 1.32 8.68 1.28 16-.25 38.3-7.77 45.24-15.69a83.93 83.93 0 0 1 5.9-6 30.35 30.35 0 0 0 4.87-5.8c4.13-6.41 10.49-12.18 12-19.72.79-4 1.58-8.14 2.23-12.32a42.85 42.85 0 0 0 -6.3-.43 61.27 61.27 0 0 1 -7.19.07c-3.17-.22-8.44-1.31-10.54-1.29s-5.64.12-6.31.07c-1.85-.13-14.11-1.47-16.08-1.61-14.64-1-17.13-.47-32.36-1.49-4.78-.32-9.67-1.34-13.84-1.62-13.28-.88-22.74-1.48-23.35-1.44-2.19.11-4.4.19-6.65.42s-7.35-.8-9.69-1.52-10.72-.79-10.72-.79zm11.79-73.36q2.37 4.67 4.37 9.52a9 9 0 0 0 1.25 2.37 8.14 8.14 0 0 0 2.45 1.8 58.19 58.19 0 0 0 12.75 5.14 18.69 18.69 0 0 0 6.58.84c3-.27 5.66-1.7 8.24-3.17a11.62 11.62 0 0 0 4.38-3.64 22.26 22.26 0 0 0 -1.89-4.41 1.84 1.84 0 0 0 -.62-.73 2 2 0 0 0 -1.37-.11l-11.55 1.84a30.83 30.83 0 0 1 -8.4.55 10.44 10.44 0 0 1 -7.27-3.8 22.6 22.6 0 0 1 -2.29-5 24.8 24.8 0 0 0 -4.76-7.48c-2.31-2.49-5.29-4.81-5.82-8.17a3.14 3.14 0 0 0 -.31-1.21.82.82 0 0 0 -1.44 0c-.25.47.21 1.21.3 1.68a36.81 36.81 0 0 0 1.08 4.87 68.7 68.7 0 0 0 4.32 9.11z" fill="#ec2044"/><g clip-path="url(#e)"><path d="m85.57 71.52-1.5 4.19a1.67 1.67 0 0 0 -.15.76.64.64 0 0 0 .46.57c.4 0 .66-.4.8-.78l1.36-3.7a1.43 1.43 0 0 1 .34-.6.5.5 0 0 1 .64-.07.72.72 0 0 1 .12.7c-.3 1.4-1.14 2.83-.65 4.18.68-.08 1-.87 1.16-1.53a20.67 20.67 0 0 1 1.66-4.15 4.92 4.92 0 0 1 0 4c-.19.44-.44 1-.11 1.34 1.16-1.13 1.12-3.16 2.39-4.17a4.93 4.93 0 0 1 1.43-.67l1.78-.59-.82 3.38c-.07.31-.12.7.14.87a.55.55 0 0 0 .69-.18 1.56 1.56 0 0 0 .22-.74 13.35 13.35 0 0 1 1.1-2.45 1.6 1.6 0 0 1 .44-.74.53.53 0 0 1 .77.08c.34.59.72 1.26 1.09 1.82.09.14.24.29.39.21a.3.3 0 0 0 .12-.15 4.21 4.21 0 0 0 -1.34-4.88 8.32 8.32 0 0 0 -5.1-1.61c-1.82 0-3.64.2-5.46.14a6.76 6.76 0 0 1 -2.75-.59 11.2 11.2 0 0 1 -2.28-1.85 16.53 16.53 0 0 0 -4.51-2.9.84.84 0 0 0 -.51-.1.87.87 0 0 0 -.33.17l-2.16 1.52a1.55 1.55 0 0 0 -.64.68c-.1.3.06.71.37.74a1.23 1.23 0 0 0 .46-.1c.63-.16 1.19.39 1.62.88a1 1 0 0 1 -.31 1.12 6.66 6.66 0 0 0 -.89.87.78.78 0 0 0 .15 1.09c.38.19.93-.1 1.21.22s.19 1 .58.92a5.73 5.73 0 0 1 2.45-1.5.72.72 0 0 1 .7 0 .61.61 0 0 1 .17.43 2.89 2.89 0 0 1 -.9 2.07 14.86 14.86 0 0 0 -1.56 1.72.63.63 0 0 0 -.12.31c0 .27.35.41.6.33a1.35 1.35 0 0 0 .58-.51 12.05 12.05 0 0 1 1.67-1.68c.12-.09.28-.19.42-.12a.39.39 0 0 1 .13.27c.17 1.12-.91 2-1.11 3.15a.47.47 0 0 0 0 .37c.18.3.64.07.89-.18a9 9 0 0 0 1.53-2.03 7.43 7.43 0 0 1 .66-1.21 1.44 1.44 0 0 1 1.18-.61c.5.05.88.86.73 1.29z" fill="#d81e46"/><path d="m107.46 69.17a16.46 16.46 0 0 0 -4.22 7.43c-.14.58-.26 1.16-.43 1.73a3.28 3.28 0 0 1 -.23.59 4.54 4.54 0 0 1 -.42.56l-2.67 3.18a9.67 9.67 0 0 0 4.69-1.4 26.42 26.42 0 0 0 4-3 12.05 12.05 0 0 0 2.18-2.22 19 19 0 0 0 1.12-2.04 5.57 5.57 0 0 0 .85-2.35 2.45 2.45 0 0 0 -.63-1.71 3.27 3.27 0 0 0 -1.83-.92 10.19 10.19 0 0 0 -2.07-.08" fill="#ce1d43"/></g><path d="m106.54 67.25c-1.59-.86-3.39-1.68-5.13-1.24l4.23 3.34c.26.21.56.52.42.83a.74.74 0 0 1 -.23.27l-1.9 1.55a15.26 15.26 0 0 1 3.31 1 49.44 49.44 0 0 1 -2.58 3.38 21.14 21.14 0 0 0 3.89-.33 27.49 27.49 0 0 0 -.55 3.73c0 .2 0 .44.18.54a.49.49 0 0 0 .39 0c1.34-.55 2-2.09 2.29-3.5a11.41 11.41 0 0 0 .15-6c-.6-1.95-2.75-2.63-4.47-3.57z" fill="#89cfbb"/><path d="m113.1 67.66c.06-.07.12-.15.21-.14a.22.22 0 0 1 .14.06 1.32 1.32 0 0 1 .63.86 1.43 1.43 0 0 1 -.49 1c-.5.56-3.18 4-3.65 2.67-.39-1.11 2.52-3.61 3.16-4.45z" fill="#89cfbb"/><path d="m175.11 103.8a17.5 17.5 0 0 0 -7 4.11c-1.57 1.41-3.28 3.13-5.39 2.94-.87-.08-1.8-.49-2.6-.12a2.12 2.12 0 0 0 -.71 2.77 11.3 11.3 0 0 0 1.93 2.5 3.25 3.25 0 0 1 .91 2.9 4 4 0 0 1 -1.19 1.59l-2.17 2c-1.12 1-2.3 2.22-2.52 3.73-.25 1.69.75 3.29 1.74 4.68a9.1 9.1 0 0 0 2.16 2.38c1.55 1.05 3.55 1.1 5.42 1.1 5.56 0 12-1.48 17.58-1.47a11.5 11.5 0 0 0 3.37-.33 9.77 9.77 0 0 0 3.24-1.91 35.47 35.47 0 0 0 9.23-10.44c1.17-2 2.14-4.72.52-6.33-.64-.64-1.58-.94-2.16-1.63a3.71 3.71 0 0 1 -.73-2.07c-.39-3.83 1.45-7.5 3.33-10.85a4.23 4.23 0 0 0 .8-2.74c-.76-4-9.67-2-11.76 0s-2.8 4.47-5.64 5.6c-2.68 1.06-5.64.86-8.36 1.59z" fill="#ffc513"/><path d="m191.61 113.59c-.41.57-.63 1.26-1.06 1.82a5.25 5.25 0 0 1 -3.55 1.59 11.45 11.45 0 0 0 -3.91.84c-1.52.81-2.67 2.53-4.39 2.56-1.56 0-2.82-1.38-4.37-1.56a4.74 4.74 0 0 0 -2.28.43 15.27 15.27 0 0 0 -3.82 2.24c-.86.68-1.84 1.5-2.91 1.24a13.59 13.59 0 0 1 -1.3-.58c-1.4-.48-2.86.67-3.64 1.93a8.76 8.76 0 0 0 -1.31 4.7 1.87 1.87 0 0 0 .15.84 2.06 2.06 0 0 0 .78.71c2 1.25 4.12 2.54 6.47 2.49a15.56 15.56 0 0 0 3.23-.59 23.91 23.91 0 0 1 8.64-.32 18.12 18.12 0 0 0 4.32.44c2.21-.18 4.17-1.44 6-2.67a10.85 10.85 0 0 0 3.14-2.73c.36-.52.62-1.1 1-1.61a12.09 12.09 0 0 1 1.95-1.9 19.8 19.8 0 0 0 4.17-5.24 2.18 2.18 0 0 0 .34-1.07c-.07-1.39-2.35-1.5-2.91-2.78a7.12 7.12 0 0 1 -.17-1.86c-.39-2.41-3.89.13-4.57 1.08z" fill="#f9b916"/><path d="m169.84 124.46a10.5 10.5 0 0 0 -1.18 1.48 2.41 2.41 0 0 0 -.34 1.82 1.38 1.38 0 0 0 1.39 1c.86-.1 1.26-1.07 1.52-1.89.31-1 3-6.81 2.38-7.3-.88-.75-1.43 1.14-1.64 1.56a14.65 14.65 0 0 1 -2.13 3.33zm7.41-4.73a18.84 18.84 0 0 0 -.58 3.1l-.47 3.57a13.13 13.13 0 0 0 -.16 2.17 1.81 1.81 0 0 0 .22.89.76.76 0 0 0 .78.39 1 1 0 0 0 .62-.63c.91-1.92.34-4.17.36-6.3a10.32 10.32 0 0 1 .41-2.87c.13-.46 1.12-2.13 1-2.52-.66-1.53-2.05 1.78-2.18 2.2zm5.69 3.67c-.32 1.66-1 3.48-.12 4.94a.85.85 0 0 0 .38.37c.33.13.69-.15.91-.44a6.29 6.29 0 0 0 .93-4.53 46.55 46.55 0 0 1 -.58-4.69c0-1.69.49-3.33.65-5a1.06 1.06 0 0 0 -.25-1c-.92-.72-1.51 3.85-1.55 4.36a47.57 47.57 0 0 1 -.37 5.99zm5.97-5.4c.07 1.58-.15 3.15-.22 4.73a2.12 2.12 0 0 0 .12 1 .77.77 0 0 0 .77.5c.52-.07.68-.73.7-1.25a45.79 45.79 0 0 0 -.35-6.72c-.06-.59 0-3.5-1-2.29-.72.81-.06 3.03-.02 4.03zm3.72-.72c-.07 1.38-.22 2.91.62 4 .6-.82.42-1.93.35-2.94 0-.67.36-5.6-.38-5.73-1.06-.19-.55 4.06-.59 4.67zm3.75.27c.17 0 .29-.17.34-.34a5.87 5.87 0 0 0 -.69-4.07c-.58.55-.43 4.29.35 4.41zm-33.26 9.38c.16.19.47.09.67 0a8.11 8.11 0 0 0 3-5c-1.11.07-4.38 4.17-3.67 5z" fill="#e0a614"/><path d="m190.14 101a7.12 7.12 0 0 0 3.73-3.08.81.81 0 0 0 .13-.65.69.69 0 0 0 -1-.19 2.61 2.61 0 0 0 -.69.94 5.17 5.17 0 0 1 -2.21 1.87 15.32 15.32 0 0 1 -2.83.91c-.75.19-2.73 1.39-.86 1.16a15 15 0 0 0 3.73-.96z" fill="#ffd95f"/><path d="m169.23 51.66a10.35 10.35 0 0 0 -4-2.62 3.63 3.63 0 0 0 -2.27-.21c-1.49.48-2 2.4-1.73 3.94a2.64 2.64 0 0 0 .72 1.51 3.9 3.9 0 0 0 2.15.66 22.31 22.31 0 0 0 2.43.38 2.8 2.8 0 0 0 2.24-.8c.54-.62 1.32-2 .66-2.5" fill="#9e1c4c"/><path d="m108.21 53.71a1.32 1.32 0 0 0 -.73.86 1 1 0 0 0 .1.54 3.08 3.08 0 0 0 1.6 1.43c1.48.72 9.36 1.75 8-1.8-1.12-3.02-6.92-2.27-8.97-1.03z" fill="#f2b52f"/><path d="m188.52 138.83a1.33 1.33 0 0 0 -.17 1.12 1.12 1.12 0 0 0 .37.41 3.12 3.12 0 0 0 2.11.37c1.64-.17 8.88-3.44 5.87-5.75-2.56-1.98-7.09 1.72-8.18 3.85z" fill="#9e1c4c"/><path d="m156 33a3.49 3.49 0 0 0 -2.59 1.48 1.06 1.06 0 0 0 -.22.7c.08.49.66.69 1.16.75 1.07.15 4.53.53 5-.87.53-1.56-2.35-2.13-3.35-2.06zm-10.66 90.87a3.54 3.54 0 0 0 -2.59 1.49 1.05 1.05 0 0 0 -.22.69c.08.49.67.69 1.16.76 1.08.15 4.54.52 5-.88.55-1.57-2.36-2.15-3.35-2.06z" fill="#ec2044"/><path d="m148.56 54.2c-.9 2.59-3.46 4.8-6 5.92a10.25 10.25 0 0 1 -2.36.73 11.1 11.1 0 0 1 -10.35-3.73c-2.47-3-3.73-7.41-2.35-11 .2-.54 1-1 1.56-1.2a2.33 2.33 0 0 1 1-.13 6.08 6.08 0 0 1 3 1" fill="#360"/><path d="m130.24 43.78c4.42-1.29 9.08.89 12.9 3.47a17.63 17.63 0 0 1 4.86 4.39 3.19 3.19 0 0 1 .71 2 3 3 0 0 1 -1.08 1.81 7.5 7.5 0 0 1 -5.75 1.89 13.05 13.05 0 0 1 -3.74-1.14 59.45 59.45 0 0 1 -5.39-2.61 14.08 14.08 0 0 1 -3.85-2.75c-2.28-2.44-2.26-6.01 1.34-7.06z" fill="#519600"/><path d="m146.41 53.44a1 1 0 0 1 .22.14.59.59 0 0 1 .14.57 1.44 1.44 0 0 1 -.28.55 4.38 4.38 0 0 1 -2.21 1.52 1.55 1.55 0 0 1 -.95 0 1.77 1.77 0 0 1 -.69-.56q-1.77-2-3.45-4c-.27-.34-.54-1.09.13-1.22a1.46 1.46 0 0 1 .64.15l.9.29a33.25 33.25 0 0 1 3.57 1.56zm.07-1.19a.49.49 0 0 1 0 .21.32.32 0 0 1 -.32.16.92.92 0 0 1 -.36-.13 50.79 50.79 0 0 0 -4.62-2.12c-.4-.16-.86-.38-.93-.8a.25.25 0 0 1 0-.15.29.29 0 0 1 .22-.1c.93-.11 1.87-.19 2.81-.24s1.53 0 1.93.82 1.17 1.43 1.27 2.35zm-5.95 2.96a.48.48 0 0 1 .1.28c0 .18-.25.26-.43.27a3.71 3.71 0 0 1 -1.27-.17 18 18 0 0 1 -2-.66c-.2-.08-.42-.2-.46-.41a.68.68 0 0 1 .06-.34c.19-.5.38-1 .58-1.51.11-.26.35-1.26.66-1.34s.74.76.89 1l.88 1.37zm-.62-6.48a1.33 1.33 0 0 1 -.84 0 1.06 1.06 0 0 1 -.35-.38 9.63 9.63 0 0 1 -1.21-2.45v-.22a.16.16 0 0 1 .1-.05 3.5 3.5 0 0 1 2.16.35c1.27.56 3.43 2 3.14 2.41m-5.07.52a.22.22 0 0 1 0 .16.23.23 0 0 1 -.21.08 1.94 1.94 0 0 1 -.81-.32c-.51-.29-1-.59-1.5-.92a27 27 0 0 1 -2.74-2.26l-.82-.74c-.14-.13-.29-.32-.18-.48a.5.5 0 0 1 .14-.1 2.88 2.88 0 0 1 1.54-.18 12 12 0 0 0 1.57.14 2.08 2.08 0 0 1 .66 0c.4.11.48.56.64.89s.44.81.67 1.21a8 8 0 0 1 1.04 2.52zm-6.37-2.72a3.59 3.59 0 0 0 -1-.44 1.32 1.32 0 0 0 -1.05.13 1.48 1.48 0 0 0 -.44 1.58c.13.57.44 1.08.61 1.64.08.25.15.54.39.65a1.1 1.1 0 0 0 .57 0 3.54 3.54 0 0 1 .92 0l5.14.44a.77.77 0 0 0 .52-.09c.48-.41-1.41-1.36-1.67-1.52-.84-.53-1.69-1-2.54-1.55zm5.25 5.55-.45 1.26c-.13.36-.32.76-.69.83s-.7-.27-1-.49a6.52 6.52 0 0 0 -.83-.43c-.7-.35-1.33-.84-2-1.18a2.55 2.55 0 0 1 -.48-.27.65.65 0 0 1 -.27-.46.59.59 0 0 1 .22-.44 1.58 1.58 0 0 1 1.23-.23l2.82.28a4.17 4.17 0 0 1 1.42.18c.31.14.13.66.03.95z" fill="#72c900"/></svg>