<svg viewBox="0 0 250 250" xmlns="http://www.w3.org/2000/svg" xmlns:xlink="http://www.w3.org/1999/xlink"><clipPath id="a"><path d="m68.31 176.6c10.21 7.85 26.19 13 41.21 15s29.28 1.13 42.63-.45c17.75-2.09 34.61-5.5 48.29-11.26s24.07-14 27.71-24.25a19.7 19.7 0 0 0 1.19-8.3c-1.14-13.76-20.83-29.52-45-36-21.1-5.67-42.46-4.4-60.65-1.23-14.56 2.54-28.16 6.25-38.76 11.91-11.25 6-17.77 14.92-25 22.82-7.54 8.16-4.36 21.97 8.38 31.76z"/></clipPath><clipPath id="b"><path d="m76.63 153.54c6.15-7.43 15.23-11.8 24.32-15a146.42 146.42 0 0 1 110.69 5.78c4.5 2.14 9.2 4.85 11.13 9.44a17.39 17.39 0 0 1 .75 9.06 38.84 38.84 0 0 1 -13.19 24.07 53 53 0 0 1 -13.62 8.07c-26.94 11.51-57.86 8.33-86.36 1.56-10.83-2.58-28.39-5-36.49-13.58-7.34-7.79-3.21-22.17 2.77-29.4z"/></clipPath><clipPath id="c"><path d="m125 132.09a10.82 10.82 0 0 1 3.26-.09 8.26 8.26 0 0 1 3.37 1.66 19 19 0 0 1 3.87 3.93 1.76 1.76 0 0 1 .15 2.37 32.57 32.57 0 0 1 -5.92 7.14 18.84 18.84 0 0 1 -4.09 3.37 11.93 11.93 0 0 1 -9.45.47 23.36 23.36 0 0 1 -8.1-5.26c-1.86-1.74-7-7.8-8.24-11.28a56 56 0 0 1 7.15-1.3c2.87 0 5.74-.1 8.6-.24 3.13-.15 6.27-.39 9.4-.77z"/></clipPath><clipPath id="d"><path d="m134 86.17a11.39 11.39 0 0 0 13 3.73 6.82 6.82 0 0 1 2.3-.71 5.25 5.25 0 0 1 3.13 1.43c2.39 1.84 6.79 5.71 7.16 5.51s-3.73-4.42-5-7a10.47 10.47 0 0 1 -1.31-4.43c0-1.09.25-2.16.31-3.25a13.2 13.2 0 0 0 -.53-4c-.8-3-2.27-6-4.82-7.78a9.17 9.17 0 0 0 -7-1.44c-7.87 1.57-12.15 11.29-7.24 17.94z"/></clipPath><clipPath id="e"><path d="m142 125.89a19 19 0 0 1 -16.3-2.34c-.74-.49-1.55-1.29-1.25-2.13a1.52 1.52 0 0 1 1.29-.89 9 9 0 0 1 1.64.06 11.59 11.59 0 0 0 2.42-.21c2.84-.46 5.74-1.11 8.08-2.78 2.16-1.55 3.65-3.85 5.52-5.75a18.88 18.88 0 0 1 3.69-2.9 4.84 4.84 0 0 1 1.85-.76 3.93 3.93 0 0 1 1.63.16 6.46 6.46 0 0 1 3.58 2.36c2.41 3.34-.22 5.87-2.43 8.28a24.32 24.32 0 0 1 -9.72 6.9z"/></clipPath><clipPath id="f"><path d="m197.44 164c-16.82 13.29-18.23 11.25-36.95 21.69 2.72-5.21 7.34-9.11 11.73-13 7.4-6.61 16.06-23.26 22.86-29.88 4.09-4 10.7-5.13 13.47 1.23 3.45 7.96-5.75 15.72-11.11 19.96z"/></clipPath><clipPath id="g"><path d="m142.64 60.73a2.76 2.76 0 0 0 2-.69 18.9 18.9 0 0 0 1.53-1.57c3.29-3.4 8.62-4.07 12.09-7.28a6.73 6.73 0 0 0 2.34-4.28 4 4 0 0 0 -2.32-4 6.38 6.38 0 0 0 -2.58-.2 12.62 12.62 0 0 0 -3 .42 12.3 12.3 0 0 0 -3.4 1.87q-2.09 1.49-4.11 3a11.29 11.29 0 0 0 -2.11 2 11.76 11.76 0 0 0 -1.16 1.93c-.89 1.73-1.79 3.62-1.45 5.52.19 1.04.93 3.11 2.17 3.28z"/></clipPath><path d="m158.45 70.62a16.83 16.83 0 0 0 8.1 10.2 26.06 26.06 0 0 0 12.86 3.12c3.3 0 7-.68 8.83-3.44a9.16 9.16 0 0 0 1.06-5.77c-.45-5.29-2.85-10.18-5.23-14.92-3.31-6.61-10.23-16.68-19.13-12.08-6.44 3.34-7.94 16.91-6.49 22.89z" fill="#efefef"/><path d="m63 61.58c10.93-16.92 27.75-25 46.6-32.09a62.91 62.91 0 0 1 23-4.48c6.84.11 14.26 2.15 18.12 7.8 4.07 6 2.94 14 1.06 20.95-3.3 12.2-8.46 24.18-8.43 36.82 0 5.49 1.44 11.62 6.11 14.5 6.31 3.89 14.28-.2 21-3.44a89.43 89.43 0 0 1 23.66-7.64c6.56-1.14 13.72-1.45 19.46 1.93s9.13 10.21 9.67 17-1.34 13.46-3.92 19.72a89.17 89.17 0 0 1 -47.33 47.67c-11.72 4.91-24.77 7.21-37.27 4.91s-24.33-9.56-30.72-20.54c-4.29-7.4-6.46-16.66-13.58-21.4-8.43-5.6-20.11-2.35-29.43-6.29-5.91-2.52-10.34-7.86-12.72-13.84s-2.86-12.56-2.46-19a73.07 73.07 0 0 1 17.18-42.58" fill="#efefef"/><path d="m78.51 183.91c6-5.08 14.57-7.73 23-9.54 33.32-7.12 70.35-3.09 100.61 11 4 1.84 8.11 4.12 9.61 7.6a10.33 10.33 0 0 1 .15 6.68c-1.69 6.71-6.57 12.83-13.42 16.84a52.82 52.82 0 0 1 -12.89 5.09c-25.24 6.8-53.24 2.59-78.84-4.11-9.73-2.54-25.6-5.41-32.49-12.17-6.24-6.17-1.6-16.46 4.27-21.39z" fill="#efefef"/><path d="m29.09 127.2c-2.95-1.65-6-3.51-7.6-6.48s-1.08-7.36 1.94-8.86 6.4.36 9.16 2.13q19.41 12.45 38.77 24.89c1.86 1.19 6 2.54 4.78 5.19s-5.18 1-7.13.44a193.88 193.88 0 0 1 -19.49-7.22 212.78 212.78 0 0 1 -20.43-10.09z" fill="#003d32"/><path d="m48.25 184.44c-2.61-.74-5.31-1.6-6.68-3.37s-.79-4.72 2-6.07 5.75-.51 8.2.33l34.33 11.81c1.65.57 5.36 1 4.18 2.85s-4.7 1.3-6.44 1.14c-5.92-.57-11.72-1.41-17.39-2.45q-9.36-1.68-18.2-4.24z" fill="#efefef"/><path d="m68.31 176.6c10.21 7.85 26.19 13 41.21 15s29.28 1.13 42.63-.45c17.75-2.09 34.61-5.5 48.29-11.26s24.07-14 27.71-24.25a19.7 19.7 0 0 0 1.19-8.3c-1.14-13.76-20.83-29.52-45-36-21.1-5.67-42.46-4.4-60.65-1.23-14.56 2.54-28.16 6.25-38.76 11.91-11.25 6-17.77 14.92-25 22.82-7.54 8.16-4.36 21.97 8.38 31.76z" fill="#89cfbb"/><path d="m190.25 72.17a2.82 2.82 0 0 0 1.19.07 3.1 3.1 0 0 0 1-.51l2.5-1.68a.8.8 0 0 0 .31-.32.66.66 0 0 0 -.17-.57c-.66-.84-1.81-1.1-2.67-1.74-.56-.43-1-1-1.53-1.46a1.87 1.87 0 0 0 -1.95-.37 1.94 1.94 0 0 1 -.43.22 1 1 0 0 1 -.52-.06 13 13 0 0 0 -2.24-.43c-.45 0-1 0-1.21.37s.09.83-.06 1.2-.73.63-.94 1.12a2.32 2.32 0 0 0 .72 2.52 6 6 0 0 0 2.3.6c1.27.3 2.45.77 3.7 1.04z" fill="#e59f13"/><path d="m180 101.66a28.76 28.76 0 0 0 -1.76 3c-2.78 4.2-9.85 5.58-14.82 8.64a2.67 2.67 0 0 0 -1.05 1c-.52 1.16 1.87 1.14 2.34 2.08s-1.3 2.29-2.81 3a72.64 72.64 0 0 1 -9.09 3.68c-2.64.87-5.75 1.55-7.4.42-1.92-1.32-.56-4.41 1.89-6.36s5.62-3.11 8.59-4.44 6.08-3.11 7.41-5.46c1-1.82.85-3.76 2.37-5.47 1.23-1.4 3.28-2.27 5.18-3 4.51-1.85 15.94-8.11 20.14-6 4.5 2.15-9.15 6.7-10.99 8.91z" fill="#ffc513"/><path d="m149 101a6.51 6.51 0 0 0 -3.41-.2 2.53 2.53 0 0 0 -1.56.85 1.85 1.85 0 0 0 -.19 2 1.77 1.77 0 0 0 1.7.73 8.29 8.29 0 0 0 3.61-.89 1.69 1.69 0 0 0 1-1.1c.11-.56-.73-1.16-1.18-1.34" fill="#ffc513"/><path d="m166.29 98.24c11.56 1.05 21.6 8 32.38 12.32a71.84 71.84 0 0 0 17.24 4.44" fill="none" stroke="#fff" stroke-miterlimit="10" stroke-width="3.21"/><path d="m87.48 144.43 4.89-10.7a18.87 18.87 0 0 1 2.85-4.85 6.34 6.34 0 0 1 5-2.31c2 .14 3.71 1.55 5.23 2.89l5.72 5a1.43 1.43 0 0 1 .46.58 1.06 1.06 0 0 1 -.74 1.23 4.92 4.92 0 0 1 -1.58.16c-2.39.13-4.34 1.84-6.17 3.38a72 72 0 0 1 -10.35 7.24 4.16 4.16 0 0 1 -2.55.77c-.9-.13-1.69-1.15-1.26-1.94" fill="#7ebca9"/><g clip-path="url(#a)"><path d="m76.63 153.54c6.15-7.43 15.23-11.8 24.32-15a146.42 146.42 0 0 1 110.69 5.78c4.5 2.14 9.2 4.85 11.13 9.44a17.39 17.39 0 0 1 .75 9.06 38.84 38.84 0 0 1 -13.19 24.07 53 53 0 0 1 -13.62 8.07c-26.94 11.51-57.86 8.33-86.36 1.56-10.83-2.58-28.39-5-36.49-13.58-7.34-7.79-3.21-22.17 2.77-29.4z" fill="#639384"/></g><g fill="#507569"><path d="m151 161.37a1.35 1.35 0 0 1 .75-.14c4.61 0 9.22.14 13.8.43a6.12 6.12 0 0 1 2.15.39 5.15 5.15 0 0 1 1.41 1.07l1.77 1.73c.34.34.7.76.52 1.19a1.59 1.59 0 0 1 -.62.58 29.49 29.49 0 0 1 -12.78 4.26 5.09 5.09 0 0 1 -1.46 0 4.44 4.44 0 0 1 -1.35-.65 10.07 10.07 0 0 1 -4.22-4.29c-.42-.94-.97-3.84.03-4.57z"/><path d="m169.66 142.76c-1.26 0-2.81.25-3.25 1.43a3 3 0 0 0 .52 2.5 20 20 0 0 0 25 8.55 3 3 0 0 0 1.19-.77 2.11 2.11 0 0 0 .23-2.05 6.35 6.35 0 0 0 -1.18-1.81c-5.42-6.61-14.34-7.87-22.51-7.85z"/><path d="m154.87 137.05c-.38.11-.67-.45-.48-.8a1.47 1.47 0 0 1 1-.58c2.48-.62 4.67-2.24 7.23-2.91.68-.17 1.61-.21 1.88.45a1.09 1.09 0 0 1 -.29 1.12 4.61 4.61 0 0 1 -1 .67c-1.57.88-2.82 2.23-4.3 3.25a17.92 17.92 0 0 1 -3.13 1.64c-6 2.49-12.7 2.91-18.91 4.91a42.51 42.51 0 0 1 -4.79 1.44 3 3 0 0 1 -1.54 0 1.18 1.18 0 0 1 -.82-1.19 1.63 1.63 0 0 1 .54-.83c1.82-1.73 4.27-2.57 6.64-3.37a114.4 114.4 0 0 1 19-4.93c1.1-.17 2-.68 3.16-.79a27.66 27.66 0 0 1 4.9 0c3.31.26 6.58.83 9.88 1.09 3.75.29 7.53.17 11.28.41a4.48 4.48 0 0 1 3.08 1 1.69 1.69 0 0 1 .48 1.51c-.2.89-1.21 1.31-2.11 1.49a26.54 26.54 0 0 1 -4.28.44c-2.95.15-5.91.27-8.87.4a59.91 59.91 0 0 1 -8.15 0 29.73 29.73 0 0 1 -9.66-2.61"/><path d="m137.85 150.35c-.57.21-1.19.55-1.31 1.15a1.29 1.29 0 0 0 .42 1.13 3.19 3.19 0 0 0 1.08.64 21.21 21.21 0 0 0 8.46 1.66c.66 0 1.5-.21 1.56-.86a1.33 1.33 0 0 0 -.19-.69c-1.99-3.69-6.44-4.38-10.02-3.03z"/><path d="m183.76 143.78a2.26 2.26 0 0 1 -.24-1.32c.23-1.17 1.78-1.41 3-1.35a59.54 59.54 0 0 1 16 3c1.47.49 3 1.13 3.81 2.47a6.77 6.77 0 0 1 .68 2.59 4.06 4.06 0 0 1 -.17 2.32c-.56 1.15-2 1.51-3.27 1.69a43.45 43.45 0 0 1 -6.65.44 7.57 7.57 0 0 1 -2.72-.39c-1.13-.45-1.8-1.4-2.75-2.1-.73-.54-1.59-.87-2.35-1.39a14.79 14.79 0 0 1 -5.34-5.96z"/><path d="m149.21 137.78a17.41 17.41 0 0 1 -7.87 1.38c-2.69 0-5.37-.35-8.06-.24a2.47 2.47 0 0 1 -1.15-.13.8.8 0 0 1 -.48-.95 1.21 1.21 0 0 1 .28-.36 9.44 9.44 0 0 1 5.56-2.2c2-.21 4 0 6.08-.08a21.77 21.77 0 0 1 5.17.15 3.55 3.55 0 0 1 1.6.73 1.69 1.69 0 0 1 .59 1.6"/><path d="m106.52 144.06a1.41 1.41 0 0 1 .23-.95c.37-.41 1-.25 1.54 0 7 2.83 12 9.18 18.78 12.38 1.64.77 4.15 2.14 4.15 3.24s-10.35 6.33-12.49 5.65c-3.26-1-5.69-3.73-7.82-6.41-3.14-3.97-4.34-8.88-4.39-13.91z"/></g><g clip-path="url(#b)"><path d="m116.85 146.47c-.58-1.69-.86-3.49-1.57-5.13a19.16 19.16 0 0 0 -2.69-4.15c-1.36-1.72-2.88-3.47-5-4.18a5.1 5.1 0 0 0 -2.2-.22l-.7-.24a12.94 12.94 0 0 0 -10.69 1.39 5.32 5.32 0 0 0 -2.12 2.29 2.53 2.53 0 0 0 .56 2.9 3.6 3.6 0 0 0 3 .34 5.52 5.52 0 0 1 3.06-.13 1.36 1.36 0 0 1 .86.78 2.37 2.37 0 0 1 0 1.12 2.46 2.46 0 0 0 .59 2.27 2.33 2.33 0 0 0 2.9-.18 7.82 7.82 0 0 0 1.76-2.6c.5-.95 1.35-2 2-3a3.74 3.74 0 0 1 1.49 1c.66.78.69 1.91 1.1 2.85.65 1.49 2.24 2.44 2.78 4a6.76 6.76 0 0 1 .22 2.42l-.12 3.92c-.07 2-.25 4.3-1.79 5.62a2.55 2.55 0 0 1 -1.75.66 4.59 4.59 0 0 1 -1.47-.47 14.2 14.2 0 0 0 -8.61-.29 8.15 8.15 0 0 1 -2.39.36 2.32 2.32 0 0 1 -2-1.17c-.42-.87 0-1.93-.25-2.87-.37-1.52-2.24-2.33-2.57-3.86-.22-1 .3-2.05.12-3.07a3 3 0 0 0 -2.37-2.34 6.51 6.51 0 0 0 -3.43.38 6.63 6.63 0 0 1 -2.38.53 5.27 5.27 0 0 0 -1.37-.06 1.76 1.76 0 0 0 -1.18 2 3.57 3.57 0 0 0 1.5 2.09c1.52 1.14 3.53 1.77 4.5 3.41.7 1.17.72 2.67 1.48 3.81a9.58 9.58 0 0 0 1.38 1.47c1.5 1.53 2.68 3.68 4.77 4.15s4-.93 6.08-1.25c3.31-.52 6.66 1.69 9.92.91a11.23 11.23 0 0 0 3.77-2c2-1.46 4.19-3.12 4.73-5.56.56-2.67-1.04-5.29-1.92-7.9z" fill="#507569"/></g><path d="m26.16 117.78a4.45 4.45 0 0 0 1.77 1.22l2.41 1.17c.84.41 1.89.79 2.62.23a.82.82 0 0 0 .35-.54 1.3 1.3 0 0 0 -.16-.71 6.12 6.12 0 0 0 -2.08-3c-.46-.27-1-.42-1.46-.66a11.13 11.13 0 0 0 -1.19-.61c-1.84-.58-3.53 1.21-2.26 2.9z" fill="#639384"/><path d="m128.11 105.93c-4.23-2-7.74-5.17-10.87-8.62a17.74 17.74 0 0 1 -3.24-4.48 7.17 7.17 0 0 1 -.43-5.39l5.37 2.2a2 2 0 0 0 1 .21c.69-.13 1-.9 1.54-1.36a2.5 2.5 0 0 1 2.52-.29 7.33 7.33 0 0 1 2.14 1.4c3 2.55 6.08 5.34 7.31 9.07a4.49 4.49 0 0 0 .66 1.5 6.84 6.84 0 0 0 1.49 1.1 8.17 8.17 0 0 1 1.91 2.33l2.35 3.75a2.86 2.86 0 0 1 .63 2.4c-4.03-1.63-8.42-1.98-12.38-3.82z" fill="#519600"/><path d="m137 62.9-1.09 18.1c-.19 3.3-.68 7.11-3.49 8.84-2.3 1.42-5.32.81-7.77-.35a27.6 27.6 0 0 1 -10-8.78" fill="none" stroke="#fff" stroke-miterlimit="10" stroke-width="3.21"/><path d="m170.77 68c-2.49 2.34-4.33 4.93-6.67 7.33a79 79 0 0 1 -9.1 7.67 2.12 2.12 0 0 1 -.86.44 4.33 4.33 0 0 1 -2.48-.54 3.46 3.46 0 0 1 -.79-.43c-.72-.61-.08-1.32.57-1.84l7.79-6.29c1-.8 2-1.6 2.92-2.44 2.32-2.09 4.18-4.39 7-6.27" fill="#fff5ca"/><path d="m170 68.79a95.12 95.12 0 0 1 11.74-9.6c7.35-5.08 16.91-9 22.83-14.77a43.56 43.56 0 0 0 7.12-9.83c-6.14 1.6-10.37 4.53-14.44 7.58-6.07 4.54-17.25 13.83-22.08 18.83-3.96 4-2.05 3.38-5.17 7.79z" fill="#360"/><path d="m181 54.4c4.48-8.38 7.94-17.33 5.09-26.55-3.77 5.22-4.55 11.19-5.78 17a40.73 40.73 0 0 1 -12.43 21.62l2.12 2.32s8.86-10.38 11-14.39z" fill="#360"/><path d="m68.51 105.47a1 1 0 0 1 .73.06c1.29.55 0 3.7 2.07 3.74a1.56 1.56 0 0 0 1.32-1c.24-.53.3-1.13.5-1.68a5.7 5.7 0 0 1 4.17-3.31 40.39 40.39 0 0 1 5.51-.62 4.26 4.26 0 0 0 1.83-.52 1.68 1.68 0 0 0 .84-1.6c-.13-.9-1.15-1.42-1.41-2.29a2.69 2.69 0 0 1 .71-2.25c2.36-3.11 6.36-5.1 10.21-4.45a18.4 18.4 0 0 1 2.9.82c2.59.9 5.27 1.85 7.34 3.63l-2.44-6.88-9.6-2.78-8.44 1.66-4 3.24-6.73 7" fill="#ffa300"/><path d="m105 99.11c-.32 1.09-.93 2.08-1.22 3.17-.53 2 0 4-.28 6.06a14.8 14.8 0 0 1 -2.75 5.84 9.5 9.5 0 0 1 -2.32 2.68 9 9 0 0 1 -4.37 1.22q-4.68.45-9.38.47a12.66 12.66 0 0 0 -3.79.38 10.91 10.91 0 0 1 -2.64.82 4.73 4.73 0 0 1 -3.07-1.33 19.21 19.21 0 0 1 -5.82-9.27 33.37 33.37 0 0 1 -.88-3.68c-1 .29-1.38 2.24-1.46 3a12.2 12.2 0 0 0 0 3.25 9.73 9.73 0 0 0 3 5.87c1.16 1 2.59 1.76 3.67 2.88a32 32 0 0 1 2.21 3 4.92 4.92 0 0 0 3 2.12 6.28 6.28 0 0 0 1.93-.11 12.51 12.51 0 0 0 3.26-.84 21.12 21.12 0 0 1 3.16-1.57c2.08-.54 4.16.66 6.27 1a10.3 10.3 0 0 0 7.91-2.1 16.92 16.92 0 0 0 5-6.67 9.36 9.36 0 0 0 1-4.38c-.11-1.51-.73-2.88-.68-4.39a21.62 21.62 0 0 1 1.18-4.48c.9-3.51-.61-7.14-2.1-10.45-.49-1.09-1.38-2.4-2.55-2.11a16.26 16.26 0 0 1 2.38 6.88l-.47-.42a7.36 7.36 0 0 1 -.19 3.16z" fill="#ffa300"/><path d="m103.47 88.05a14.12 14.12 0 0 0 -5.21-2.71 11.66 11.66 0 0 0 -4.79-.57c-1.6.19-3.13.85-4.74.92-2 .07-4-.77-5.92-.14s-2.81 2.25-3.81 3.82a17.91 17.91 0 0 1 -2.28 3.63c-1 .94-2.4 1.43-3.43 2.4a26.14 26.14 0 0 0 -5.65 8.25c-1.1 2.57-1.76 5.61-.49 8.11 1.08 2.14 3.35 3.42 4.79 5.35s2.26 4.92 4.61 5.84c1.66.65 3.53 0 5.11-.76s3.11-1.84 4.87-2.09c2.76-.41 5.45 1.18 8.24 1.2a9.84 9.84 0 0 0 7.38-3.88 25.53 25.53 0 0 0 3.89-7.64 8.85 8.85 0 0 0 .73-3.74 28.19 28.19 0 0 0 -.83-3.22c-.68-3.21 1-6.54.5-9.78a8.57 8.57 0 0 0 -2.97-4.99zm.15 5.94a4.24 4.24 0 0 1 -2.73 6.55 21.24 21.24 0 0 0 -2.54.32c-.81.26-1.55 1.11-1.27 1.91a2.17 2.17 0 0 0 .72.87c.8.68 1.6 1.35 2.41 2a4.3 4.3 0 0 1 1.79 2.36 3.4 3.4 0 0 1 -1.69 3.08 19.58 19.58 0 0 0 -3 2.09c-.59.6-1 1.4-1.8 1.74-1 .48-2.31-.05-3.43.22-.45.11-.85.35-1.3.44a3.16 3.16 0 0 1 -2.43-.7c-.7-.51-1.27-1.17-1.93-1.74a1.66 1.66 0 0 0 -.81-.44c-.69-.09-1.23.62-1.38 1.3a10.7 10.7 0 0 1 -.34 2 3.29 3.29 0 0 1 -2.76 1.64 6.46 6.46 0 0 1 -3.87-.64 4.57 4.57 0 0 1 -2.37-2.99c-.2-1.06 0-2.23-.49-3.18a7 7 0 0 0 -1.58-1.59c-1.4-1.29-2.51-4-1.65-5.83.76-1.66 3.23-3 4.92-3.27a13.11 13.11 0 0 1 5.31.44 2.85 2.85 0 0 0 2.43-.09 2.71 2.71 0 0 0 .82-1.48 3.53 3.53 0 0 0 .24-1.5c-.16-1.1-1.33-1.77-1.77-2.8a3.1 3.1 0 0 1 .15-2.42 9.23 9.23 0 0 1 1.45-2 5.39 5.39 0 0 1 1.28-1.15 4.85 4.85 0 0 1 2.26-.53 21 21 0 0 1 8.17 1.22 37.92 37.92 0 0 1 3.69 1.63 8.43 8.43 0 0 1 3.5 2.55z" fill="#ffc513"/><path d="m64.19 127.44s11.78 8.3 34.66-5.08 25.86.83 25.86.83" fill="none" stroke="#fff" stroke-miterlimit="10" stroke-width="3.21"/><path d="m136.6 36.63a3.87 3.87 0 0 0 .85 3.11 4.15 4.15 0 0 0 3.44 1.45 4 4 0 0 0 3.36-2.47 4.76 4.76 0 0 0 .25-1.88 3.37 3.37 0 0 0 -.66-2 3.45 3.45 0 0 0 -1.08-.81 4.52 4.52 0 0 0 -3.49-.51 4.47 4.47 0 0 0 -1.81 1.42 3.57 3.57 0 0 0 -.86 1.69z" fill="#72c900"/><path d="m97.81 73.16a3.86 3.86 0 0 0 .85 3.11 4.21 4.21 0 0 0 3.45 1.46 4 4 0 0 0 3.35-2.47 4.66 4.66 0 0 0 .26-1.89 2.95 2.95 0 0 0 -1.72-2.83 4.54 4.54 0 0 0 -3.48-.51 4.43 4.43 0 0 0 -1.81 1.43 3.47 3.47 0 0 0 -.9 1.7z" fill="#72c900"/><path d="m191.82 106c1.72 2.63 3.26 3.42 5.56 5a14.49 14.49 0 0 0 3.1 1.78 14.73 14.73 0 0 0 5.08.69 16.15 16.15 0 0 0 3.74-.29 11.24 11.24 0 0 0 4.94-2.71 24.65 24.65 0 0 0 3.68-4.34 8.46 8.46 0 0 0 1.43-2.68 8.51 8.51 0 0 0 -.16-3.75 21.38 21.38 0 0 0 -1.3-4c-.46-.92-.79-.64-1.74-1a5.16 5.16 0 0 0 -2.5-.26 13 13 0 0 0 -3.78.94" fill="#c6173d"/><path d="m191.6 105.53a5.68 5.68 0 0 0 4.4 3.36c7.45 1 15-2.74 20.07-8.28 1.45-1.59 2.85-3.74 1.29-5.84a4.7 4.7 0 0 0 -2.31-1.62 27.42 27.42 0 0 0 -7.44-1.46 15 15 0 0 0 -5.3.51 15.24 15.24 0 0 0 -4.23 2.25c-3.3 2.38-6.17 5.69-7 9.67a.7.7 0 0 0 0 .4z" fill="#ff4363"/><path d="m196.72 106.72a19.65 19.65 0 0 0 8.61-1.33 26.31 26.31 0 0 0 7.49-4.53 12.48 12.48 0 0 0 3.31-3.86 1.35 1.35 0 0 0 .15-1.18 1.32 1.32 0 0 0 -.75-.57 12.31 12.31 0 0 0 -3.72-1c-.77-.08-1.54-.08-2.31-.09h-4.05a10.14 10.14 0 0 0 -4.8.88 16.24 16.24 0 0 0 -3.26 1.62 18.17 18.17 0 0 0 -2.33 2.06.51.51 0 0 0 -.15.21.37.37 0 0 0 .29.41 1 1 0 0 0 .54-.07c1.34-.42 2.66-.91 4-1.46a13.58 13.58 0 0 1 2.26-.81 3.69 3.69 0 0 1 2.39.14c1.28.57 1.93 2 2.39 3.31a.8.8 0 0 1 .05.48.78.78 0 0 1 -.25.32 10.27 10.27 0 0 1 -5.5 1.86 18.22 18.22 0 0 0 -5.74 1.16 2.25 2.25 0 0 0 -.95.71c-1.05 1.45 1.44 1.67 2.33 1.74z" fill="#ec2044"/><path d="m202.71 102.17a5.76 5.76 0 0 0 3.19 1.8.78.78 0 0 0 .34 0 .54.54 0 0 0 .31-.53 2 2 0 0 0 -1.16-1.59c-.4-.23-.82-.42-1.23-.62a1.13 1.13 0 0 0 -.85-.14c-.51.22-1.07.56-.6 1.08z" fill="#ffc513"/><path d="m206.46 96.61a3.55 3.55 0 0 0 .89-.75 1.29 1.29 0 0 0 .26-1.11 1.71 1.71 0 0 0 -1.21.17 5.57 5.57 0 0 0 -1 .74c-.31.27-1.12 1-.7 1.48s1.4-.29 1.76-.53z" fill="#ffc513"/><path d="m198.84 98.16a.42.42 0 0 0 .38.35c.2 0 .34-.17.45-.33a3.51 3.51 0 0 0 .53-1.89c0-.28-.09-.62-.36-.7s-.56.21-.7.49a3.46 3.46 0 0 0 -.3 2.08z" fill="#ffc513"/><path d="m207.59 99.55c-.47 0-1.21-.09-1.27.48s2.36 1.41 3 .68c.93-.96-1.17-1.18-1.73-1.16z" fill="#ffc513"/><path d="m169.25 106.45a6.52 6.52 0 0 0 -2.61 4.65 12.85 12.85 0 0 0 .74 5.41 25.42 25.42 0 0 0 8.62 12.17 16.59 16.59 0 0 0 9.07 3.69 9.86 9.86 0 0 0 8.66-4 10.19 10.19 0 0 0 .71-9.19 19.67 19.67 0 0 0 -5.71-7.56 28.8 28.8 0 0 0 -12.86-6.62 8 8 0 0 0 -5.6.91z" fill="#3e6d00"/><path d="m168.75 110a8.67 8.67 0 0 0 .83 3 44.63 44.63 0 0 0 5.52 8.71 41.68 41.68 0 0 0 4.45 5.2 15.18 15.18 0 0 0 5.77 3.56 5.42 5.42 0 0 0 3.28.16 7.17 7.17 0 0 0 2.59-1.83 10.89 10.89 0 0 0 1.89-2.18 7 7 0 0 0 .08-6.28 17.54 17.54 0 0 0 -1.95-3.17q-1.58-2.17-3.26-4.28a19.29 19.29 0 0 0 -3.18-3.33 18.8 18.8 0 0 0 -4.61-2.37 19.2 19.2 0 0 0 -3.53-1.09 11.67 11.67 0 0 0 -5.66.34 3.26 3.26 0 0 0 -2.22 3.56z" fill="#7acc46"/><path d="m175.8 110.64a2.32 2.32 0 0 0 -1.07 1.58 4.64 4.64 0 0 0 1.21 3.21l2.51 3.57a37.87 37.87 0 0 0 3.45 4.41 13 13 0 0 0 4.51 3.23c.64.26 1.48.4 1.93-.13a1.65 1.65 0 0 0 .13-1.49 13.63 13.63 0 0 0 -.72-1.83 40 40 0 0 0 -6.54-10.62 5.85 5.85 0 0 0 -2.77-1.88c-.93-.25-1.71-.62-2.64-.05z" fill="#85db4d"/><path d="m180.5 116.78c.2 0 .49 0 .51-.19a.33.33 0 0 0 -.07-.21c-.31-.49-1.8-2.1-2.46-1.48-.91.86 1.52 1.78 2.02 1.88z" fill="#c4e8dd"/><path d="m180.21 122.38c.22.16.5-.08.69-.27.41-.41 2.4-1.86.85-2.14-.93-.16-2.18 1.96-1.54 2.41z" fill="#c4e8dd"/><path d="m183.75 119.58a4.41 4.41 0 0 0 .61 1.18c.41.63.91 1.32 1.65 1.43h.11a.18.18 0 0 0 .06-.09 1.37 1.37 0 0 0 -.07-1 3.4 3.4 0 0 0 -.63-.87c-.25-.28-.8-1.09-1.13-1.23-.49-.26-.75.08-.6.58z" fill="#c4e8dd"/><path d="m182.14 112.21c.07-.16.17-.34.35-.36s.38.19.47.39c.21.5.54 2.34-.32 2.4-1.1.06-.7-1.95-.5-2.43z" fill="#c4e8dd"/><path d="m187.43 117.19a.66.66 0 0 0 -.13-.74c-.46-.52-2.23-1-2 .14.13.8 1.7 1.41 2.13.6z" fill="#c4e8dd"/><path d="m125 132.09a10.82 10.82 0 0 1 3.26-.09 8.26 8.26 0 0 1 3.37 1.66 19 19 0 0 1 3.87 3.93 1.76 1.76 0 0 1 .15 2.37 32.57 32.57 0 0 1 -5.92 7.14 18.84 18.84 0 0 1 -4.09 3.37 11.93 11.93 0 0 1 -9.45.47 23.36 23.36 0 0 1 -8.1-5.26c-1.86-1.74-7-7.8-8.24-11.28a56 56 0 0 1 7.15-1.3c2.87 0 5.74-.1 8.6-.24 3.13-.15 6.27-.39 9.4-.77z" fill="#519600"/><g clip-path="url(#c)"><path d="m99.22 133.55a100.38 100.38 0 0 0 13.69 13.5 19.43 19.43 0 0 0 3.15 2.18 11.3 11.3 0 0 0 5.66 1.15 7 7 0 0 0 2.57-.54 6.66 6.66 0 0 0 3.48-5.66 19.36 19.36 0 0 0 -1.12-6.84l-2.28-7.94a1 1 0 0 1 0-.83.85.85 0 0 1 .37-.24 16 16 0 0 1 5.52-1.33l24.24 18.3-25.49 9h-17l-18.8-20.4" fill="#360"/></g><path d="m115 144.54a5.62 5.62 0 0 0 .66 2 4.12 4.12 0 0 0 1.31 1.25 7.56 7.56 0 0 0 5.26 1.1c.41-.07.87-.22 1-.61a1.19 1.19 0 0 0 -.07-.74 19.25 19.25 0 0 0 -2.51-4.49l-2.53-3.7a21 21 0 0 0 -2.62-3.32c-.61-.59-2-1.95-2.1-.39a16.93 16.93 0 0 0 .68 4z" fill="#72c900"/><path d="m124.59 145c.21.27.56.56.84.37a.69.69 0 0 0 .22-.41 12.66 12.66 0 0 0 -.11-4.67 6.09 6.09 0 0 0 -1.05-3.11 5.28 5.28 0 0 0 -2.47-1.47c-.93-.33-1.88-.59-2.83-.84a1.8 1.8 0 0 0 -1.33 0c-1.22.68 2 4 2.54 4.68q2.09 2.77 4.19 5.45z" fill="#72c900"/><path d="m110.34 136a3.4 3.4 0 0 1 1.23-1.56 4.73 4.73 0 0 1 .57 2.59c.13 2.1.88 4.16.72 6.26a1.21 1.21 0 0 1 -.22.7.86.86 0 0 1 -.88.23 2.21 2.21 0 0 1 -.83-.47c-.81-.65-3-2.59-2.79-3.76a10.52 10.52 0 0 1 1-1.74z" fill="#72c900"/><path d="m105.43 138.77a1.19 1.19 0 0 0 1.11.12 1.67 1.67 0 0 0 .57-.52 13.25 13.25 0 0 0 1.36-2.18 1 1 0 0 0 .15-.61c-.09-.35-.51-.49-.87-.56a5 5 0 0 0 -1.68-.16c-.78.1-2.35.47-2.41 1.46-.06.78 1.13 2.11 1.77 2.45z" fill="#72c900"/><path d="m115.18 70a34.78 34.78 0 0 1 -8.28-3.75 17.3 17.3 0 0 1 -6.9-9.86c1.68 0 3.24.82 4.9 1.12 1.32.24 2.69.12 4 .33a14.14 14.14 0 0 1 4.72 1.91 61.48 61.48 0 0 1 7.54 5c2.42 1.88 4.72 4 7.47 5.28 2 .94 4.41 1.37 6.15 2.68 1.37 1 .25 1-.9.93a63.9 63.9 0 0 1 -11.78-1.47c-2.34-.61-4.63-1.41-6.92-2.17z" fill="#3e6d00"/><path d="m118.34 58.65c-3.68-4.46-7.38-9.27-8.33-15 .28-.37.86-.14 1.24.12 5.42 3.68 9.66 8.83 14.35 13.41 1.93 1.88 4 3.75 5 6.24.48 1.17.7 2.43 1.09 3.63a13.56 13.56 0 0 0 3.63 5.69c.35.33 1.83 1.16 1.48 1.61s-1.65-.14-2-.3c-4.2-1.94-7.95-5.9-11.06-9.21-1.86-1.98-3.65-4.07-5.4-6.19z" fill="#3e6d00"/><path d="m134 86.17a11.39 11.39 0 0 0 13 3.73 6.82 6.82 0 0 1 2.3-.71 5.25 5.25 0 0 1 3.13 1.43c2.39 1.84 6.79 5.71 7.16 5.51s-3.73-4.42-5-7a10.47 10.47 0 0 1 -1.31-4.43c0-1.09.25-2.16.31-3.25a13.2 13.2 0 0 0 -.53-4c-.8-3-2.27-6-4.82-7.78a9.17 9.17 0 0 0 -7-1.44c-7.87 1.57-12.15 11.29-7.24 17.94z" fill="#d81e46"/><g clip-path="url(#d)"><path d="m131.9 77.09a24.38 24.38 0 0 0 1.75 5 3.59 3.59 0 0 0 1.11 1.49 3.43 3.43 0 0 0 1.51.47c2.71.39 5.74.51 7.66 2.45a6.49 6.49 0 0 0 1 .93 5.11 5.11 0 0 0 1.25.53c2.14.73 4.05 2.13 6.28 2.55 2 .37 4.14-.06 5.93.86a10.3 10.3 0 0 1 3 2.89 41.86 41.86 0 0 1 3.5 4.37 7.13 7.13 0 0 1 1.15 5.33 6.09 6.09 0 0 1 -3.57 4 10.11 10.11 0 0 1 -5.42.58 23 23 0 0 1 -10-4.41c-3-2.15-5.71-4.67-8.64-6.92-2-1.55-4.13-3-6-4.69a15.18 15.18 0 0 1 -4.34-6.17 21.83 21.83 0 0 1 -.82-4.48 6.94 6.94 0 0 1 0-2.49 3.48 3.48 0 0 1 2.23-2.37" fill="#c6173d"/></g><path d="m140.13 73.51a12.16 12.16 0 0 0 3.7.36 5.34 5.34 0 0 1 1.74.06 4.32 4.32 0 0 1 1.33.77l2.33 1.74c.33.25.84.49 1.12.17a.8.8 0 0 0 .08-.68 7.51 7.51 0 0 0 -1.5-3.19 6.83 6.83 0 0 0 -2.34-2 8.5 8.5 0 0 0 -2.78-.71 7.8 7.8 0 0 0 -5 .76c-1.87 1.21-.12 2.36 1.32 2.72z" fill="#ff4363"/><path d="m159.87 109.38a2.27 2.27 0 0 0 -1.83-1.91 2.44 2.44 0 0 0 -1.19.18 4.14 4.14 0 0 0 -2.31 3.76 1.56 1.56 0 0 1 -.29 1.13c-.45.44-1.2.1-1.71-.25l-1.77-1.19c-.67-.45-1.44-1.15-1.17-1.92s1.06-.84 1.7-1.12a12.67 12.67 0 0 0 1.36-.83 7.74 7.74 0 0 1 5-1.12 3.75 3.75 0 0 1 3.09 1.81 3.48 3.48 0 0 1 .13 2.21 5.93 5.93 0 0 1 -.73 1.81 1 1 0 0 1 -.63.54c-1 .17-.14-.86 0-1.06a3.44 3.44 0 0 0 .35-2.04z" fill="#6b3d3b"/><path d="m142 125.89a19 19 0 0 1 -16.3-2.34c-.74-.49-1.55-1.29-1.25-2.13a1.52 1.52 0 0 1 1.29-.89 9 9 0 0 1 1.64.06 11.59 11.59 0 0 0 2.42-.21c2.84-.46 5.74-1.11 8.08-2.78 2.16-1.55 3.65-3.85 5.52-5.75a18.88 18.88 0 0 1 3.69-2.9 4.84 4.84 0 0 1 1.85-.76 3.93 3.93 0 0 1 1.63.16 6.46 6.46 0 0 1 3.58 2.36c2.41 3.34-.22 5.87-2.43 8.28a24.32 24.32 0 0 1 -9.72 6.9z" fill="#f22222"/><g clip-path="url(#e)"><path d="m155.06 111.86-.06-.11a19.48 19.48 0 0 1 -8.34 7.53 29.26 29.26 0 0 0 -3.83 1.94 26.5 26.5 0 0 1 -2.9 2.08 9.19 9.19 0 0 1 -2.46.74 16.32 16.32 0 0 1 -4.72.41 18.3 18.3 0 0 1 -4.23-1.1l-4.75-1.64c-.38.42.06 1.06.48 1.43a54.56 54.56 0 0 0 7.84 5.77 17.42 17.42 0 0 0 3.26 1.63 10.17 10.17 0 0 0 6.54 0c3-1 5.38-3.37 7.87-5.38s5-3.64 6.84-6.11a3.77 3.77 0 0 0 .71-1.34 4.58 4.58 0 0 0 0-1.61c-.15-1.29-.47-2.81-1.66-3.32l.64-.19" fill="#ce1d43"/></g><path d="m146.26 111.26a58.17 58.17 0 0 0 -5.48 5.51 7.9 7.9 0 0 1 -2.1 1.94 1.5 1.5 0 0 0 1.23 0 4.46 4.46 0 0 0 1.07-.67 29.41 29.41 0 0 0 4-3.83 12.9 12.9 0 0 1 1-1.08 8.79 8.79 0 0 1 1.45-1c.78-.46 1.58-.88 2.38-1.29.52-.27 1-.62.39-1.1-1.2-.91-3.08.76-3.94 1.52z" fill="#ff6161"/><path d="m105.44 175.67c.17-.41.62-1 .79-1.37a2.81 2.81 0 0 1 .26-.38l.64-.15s6.58-.75 9.87-1.35a25.84 25.84 0 0 0 6.25-1.71 30.42 30.42 0 0 0 6.82-4.8 16.41 16.41 0 0 0 2.73-4.07 40 40 0 0 0 3.43-9.37 39.3 39.3 0 0 1 3.05-4.54l3.56.12-3.4 11.52-15.31 16.12-6.55.34" fill="#cc89a7"/><path d="m119.5 178.79a25.8 25.8 0 0 0 11.24-2.35 22.31 22.31 0 0 0 5.66-4.1 25.31 25.31 0 0 0 6.92-11.92c1-4.23-.48-12.37-.48-12.37l-2.49.94s-1.47 6.16-2.6 9.21a21.33 21.33 0 0 1 -5.56 8.53 30.24 30.24 0 0 1 -5.2 3.61c-4.21 2.43-8.9 4.53-13.7 4.85-2 .14-6-.1-6-.1l-1.81.58s2.21 1.13 3 1.43a29.38 29.38 0 0 0 4.7 1.18 37.53 37.53 0 0 0 6.32.51z" fill="#9e1c4c"/><path d="m129.12 176a11.78 11.78 0 0 0 2.57-1.19 11 11 0 0 0 1.37-1 25.86 25.86 0 0 0 5.42-6.79 65.08 65.08 0 0 0 3.45-7.47 23.65 23.65 0 0 1 -3.46 5.2c-.71.89-1.42 1.78-2.21 2.63-1.61 1.75-3.51 3.32-5.08 5.08a11.12 11.12 0 0 1 -1.6 1.62 9.75 9.75 0 0 1 -2.61 1.22 84.34 84.34 0 0 1 -9 2.55 37.41 37.41 0 0 0 11.15-1.85z" fill="#681436"/><path d="m155.53 133a3.66 3.66 0 0 0 -1.35-.71 3 3 0 0 0 -1.62.22 11.48 11.48 0 0 0 -3.88 2.3 4.39 4.39 0 0 0 -1.62 2.65 5.4 5.4 0 0 0 .69 2.72l5.6 12.34a7.32 7.32 0 0 0 1 1.78 6.44 6.44 0 0 0 2 1.39 49.39 49.39 0 0 0 6 2.67 5.62 5.62 0 0 0 2.54.46 4.67 4.67 0 0 0 1.68-.65 10.94 10.94 0 0 0 5.08-10.11c-.16-2.26-.55-3.44-2.36-4.82-2.12-1.63-4.27-3.21-6.42-4.81q-3.63-2.69-7.34-5.43z" fill="#683c3a"/><path d="m155.35 135.73a3.21 3.21 0 0 0 -1.71-.39 3.71 3.71 0 0 0 -2.25 1.76 82.55 82.55 0 0 0 7.19 14.42 10.12 10.12 0 0 0 1.8 2.3 5.52 5.52 0 0 0 5.45 1c2.91-1.06 4.8-5.22 3.07-8a11.73 11.73 0 0 0 -3.14-2.73 56.17 56.17 0 0 1 -4.64-4.08 22.16 22.16 0 0 0 -5.77-4.28z" fill="#9e5a57"/><path d="m160.75 143.42a2.17 2.17 0 0 0 -1.28-.71 1.28 1.28 0 0 0 -1.13.64 1.47 1.47 0 0 0 -.05 1.31 4 4 0 0 0 .87 1.1 8.16 8.16 0 0 1 1.33 1.87c.62 1.18 3.12 4.43 3.93 1.55.58-2.18-2.3-4.52-3.67-5.76z" fill="#d67567"/><path d="m76.5 136.6c-.23.51-.41 1-.65 1.54a20 20 0 0 1 -1.33 2.17 7.5 7.5 0 0 0 -1.38 4.3c.1 1.87 1.23 3.5 2.32 5l1.68 2.39a4.11 4.11 0 0 0 2.86 2l3.6 1a6.62 6.62 0 0 0 2.6.37 10 10 0 0 0 3.4-1.65c1.68-.95 3.66-1.4 5.08-2.71 1.79-1.65 2.26-4.25 2.63-6.66a20.2 20.2 0 0 0 .3-5.85 6.74 6.74 0 0 0 -2.91-4.89c-.86-.51-1.85-.76-2.7-1.27a12.93 12.93 0 0 0 -2-1.26 5 5 0 0 0 -2.1-.16c-4.04.34-9.54 1.65-11.4 5.68z" fill="#824646"/><path d="m76.26 140.9a3.2 3.2 0 0 0 -.69 2.86c.15.39.43.73.58 1.12a7.1 7.1 0 0 1 .21 1.85 5.56 5.56 0 0 0 2.17 3.51 4.55 4.55 0 0 0 2.31 1.14c.87.09 1.75-.2 2.63-.1a17.88 17.88 0 0 1 2.51.81 2.06 2.06 0 0 0 2.36-.65 2.27 2.27 0 0 0 -.42-2.29 1.1 1.1 0 0 0 -.37-.4c-.46-.27-1 .06-1.52.25a3.49 3.49 0 0 1 -3.56-1.1 9.73 9.73 0 0 1 -1.88-3.76c-.32-1-.64-1.91-.89-2.89-.13-.48-.23-2.64-.55-2.9-.89-.72-2.44 1.9-2.89 2.55z" fill="#5e3434"/><path d="m87.47 140.2c.35.86.86 1.8 1.76 2a.38.38 0 0 0 .51-.4 10 10 0 0 0 .16-2.5 3.2 3.2 0 0 1 .1-1.5c.32-.72 1.19-1.12 1.17-2 0-1.09-1.09-1.54-2-1.68a11.07 11.07 0 0 0 -4.78.46c-1.1.4-1.87 1.19-.94 2.3.66.78 1.69.56 2.49 1a4.14 4.14 0 0 1 1.53 2.32z" fill="#935650"/><path d="m223.2 132.58a38.37 38.37 0 0 1 -11.73 8.06l9.53-10.18a20.57 20.57 0 0 0 3.95-5.25 209.87 209.87 0 0 0 -16.65 13.79 95.27 95.27 0 0 1 10.17-13.88c-5.53 2.36-9.14 7.64-12.45 12.65a24.63 24.63 0 0 1 5.08-11.16c-4.1 2.37-12.4 15.47-5.82 18.62 7.72 3.64 14-8.7 17.92-12.65z" fill="#360"/><path d="m197.44 164c-16.82 13.29-18.23 11.25-36.95 21.69 2.72-5.21 7.34-9.11 11.73-13 7.4-6.61 16.06-23.26 22.86-29.88 4.09-4 10.7-5.13 13.47 1.23 3.45 7.96-5.75 15.72-11.11 19.96z" fill="#ffa300"/><g clip-path="url(#f)"><path d="m208.26 141.1a39.36 39.36 0 0 1 -2.59 9 7.85 7.85 0 0 1 -.88 1.64 8.08 8.08 0 0 1 -1.9 1.64q-13.89 9.81-26.89 20.69a7.15 7.15 0 0 1 -2.64 1.61c-.58.15-1.19.15-1.77.29a7.41 7.41 0 0 0 -2.69 1.51 91.49 91.49 0 0 0 -11.42 10.58c-.26.29-.55.66-.45 1.05s.77.63 1.29.63c3.65 0 7.1-1.6 10.41-3.14l17.87-8.35c6.76-3.16 13.61-6.37 19.25-11.24s10-11.71 10.25-19.16a10.55 10.55 0 0 0 -.81-4.85 5.43 5.43 0 0 0 -3.66-3.08 6.43 6.43 0 0 1 -2.53-.59" fill="#e59f13"/></g><path d="m196.54 143.27c-5.22 5.31-8.65 12.07-13 18.14a54.48 54.48 0 0 0 5.77-5.9c2.9-3.47 5.44-7.38 9.22-9.87a12.42 12.42 0 0 0 3.32-2.54c.21-.28.38-.72.12-1a.86.86 0 0 0 -.42-.16c-2.21-.34-3.27-.38-5.01 1.33z" fill="#ffda71"/><path d="m100.71 53.75a8.29 8.29 0 0 0 -3.54 0 15.27 15.27 0 0 0 -4.72 1.75 2.42 2.42 0 0 0 -1.14 1.09 2.17 2.17 0 0 0 1 2.36 7.16 7.16 0 0 0 4.27 1.28 17.94 17.94 0 0 0 4.47-.69c1.28-.34 3.45-1.2 3.21-2.93-.17-1.43-2.32-2.56-3.55-2.86z" fill="none" stroke="#f22222" stroke-miterlimit="10" stroke-width="2.14"/><path d="m167.22 83a12.45 12.45 0 0 0 4.78 2.87 11.47 11.47 0 0 0 5.39 1 4.42 4.42 0 0 0 3.18-7.49 12.19 12.19 0 0 0 -3.68-2.88c-2.49-1.41-6.55-3.18-9.33-1.46s-2.28 5.89-.34 7.96z" fill="#af6461"/><path d="m166.85 79c0 .4.11.89.49 1s.79-.29 1-.68c.36-.64 2-3.71.64-3.68s-2.11 2.41-2.13 3.36z" fill="#6b3d3b"/><path d="m176.8 79.63a6.54 6.54 0 0 1 2 1.76c.51.76.67 1.72 1.15 2.5a2.1 2.1 0 0 0 .61-2.45 5.76 5.76 0 0 0 -1.67-2.13 7.7 7.7 0 0 0 -1.52-1.15 6.57 6.57 0 0 0 -1-.42l-2.26-.87c-.29-.11-1.77-.86-1.31-.05.31.53 1.41 1.06 1.92 1.42.72.47 1.4.93 2.08 1.39z" fill="#d37676"/><path d="m202.1 77.44a5 5 0 0 0 .35 2.3 5.57 5.57 0 0 0 2.12 2.05 11.59 11.59 0 0 0 3.15 1.61c3.24.9 6.8-1.1 8.47-4 2.37-4.15 2.39-15.15-4.14-15.95-6.05-.75-9.81 9.39-9.95 13.99z" fill="#efefef"/><path d="m67.44 43.74a8.18 8.18 0 0 0 2.75-4.49 3.55 3.55 0 0 0 -.92-3c-3-3.14-9.91-.43-11.85 2.83-1.58 2.68-.91 6.64.44 9.58a1.94 1.94 0 0 0 2.75.82 37.27 37.27 0 0 0 6.83-5.74z" fill="#efefef"/><path d="m197.21 78.11c-4.48 4.8-8.77 6.57-14.42 9.89-1 .59-4.71 1.27-5.76 1.77-6.35 3-15.66 3.14-22.13 5.64.64.68 1.7.54 2.34 1.22a2.13 2.13 0 0 0 .55.45 2.09 2.09 0 0 0 .65.13c4.52.35 7.95-.81 12.46-1.33a40.14 40.14 0 0 0 25.66-13.65" fill="#cc89a7"/><path d="m197.21 78.11a35.07 35.07 0 0 1 -7.6 7.54 43.05 43.05 0 0 1 -8 5.11 46.31 46.31 0 0 1 -13 3.54 103.16 103.16 0 0 1 -13.71 1.11 6.7 6.7 0 0 0 3.1 2.17 15.49 15.49 0 0 0 4.49 1.48 14.43 14.43 0 0 0 3.65-.21 89.06 89.06 0 0 0 14.94-3.59 38.34 38.34 0 0 0 5.17-2.05 25.52 25.52 0 0 0 10.68-10.06c.75-1.33.28-5.04.28-5.04z" fill="#9e1c4c"/><path d="m121.46 181.89a27.37 27.37 0 0 0 5.26 1.11 15.9 15.9 0 0 0 6.25-1.58l9.75-4a.63.63 0 0 1 .55 0 .59.59 0 0 1 .2.5 6.44 6.44 0 0 1 -3.15 5.35 16.51 16.51 0 0 1 -6.11 2.06 42.34 42.34 0 0 1 -15.42.42c-1.39-.26-3.35-1.27-2.45-3s3.66-1.19 5.12-.86z" fill="#507569"/><path d="m81 165a9.14 9.14 0 0 0 -2.6.91 1.08 1.08 0 0 0 -.55.6 1 1 0 0 0 .15.49c.49 1.19 1.88 1.69 3.14 1.94s2.65.42 3.56 1.34a5.65 5.65 0 0 0 1 1.05 2.94 2.94 0 0 0 1.69.24c3.08-.18 6.26-.38 9.07-1.67 1.09-.49 2.25-1.46 2-2.63a2.59 2.59 0 0 0 -1.39-1.57 14.69 14.69 0 0 0 -7.95-1.63 55.92 55.92 0 0 0 -8.12.93z" fill="#507569"/><path d="m180.35 179.19a32.48 32.48 0 0 0 5.7-1.39 20.62 20.62 0 0 0 4.1-2.35c3.62-2.52 7-5.37 10.82-7.61 1.53-.9 3.37-1.72 5-1.08a6.4 6.4 0 0 1 2.78 2.83 4.25 4.25 0 0 1 .73 1.64c.16 1.29-.87 2.4-1.82 3.29-3.46 3.22-7.1 6.44-11.54 8.07a41.06 41.06 0 0 1 -7.53 1.7c-6.71 1.12-13.42 2.55-20.22 2.45-1 0-3.57-.28-2.76-1.81.63-1.21 3.34-2 4.51-2.46a50.86 50.86 0 0 1 10.23-3.28z" fill="#507569"/><path d="m200.44 179.88c-13.68 5.76-30.54 9.17-48.29 11.26-13.35 1.58-27.61 2.42-42.63.45s-31-7.14-41.21-15c-8.62-6.62-12.85-15.1-12.37-22.41-1.12 16.21 8.78 28.12 17.67 36.35 12.5 11.58 30.61 14.43 47.6 15.64q17 1.22 34 1c6.66-.1 13.39-.37 19.8-2.19a73.82 73.82 0 0 0 9.57-3.64c10.64-4.68 21.26-10.15 29.09-18.75 6.84-7.51 14.43-18.22 15.6-31.91a21.75 21.75 0 0 1 -1.15 5c-3.61 10.22-14.01 18.44-27.68 24.2z" fill="#003d32"/><path d="m206.12 167.27a24.93 24.93 0 0 1 7.24-6 65.44 65.44 0 0 1 -4.71 5.53 47.75 47.75 0 0 1 7-5.53 1.53 1.53 0 0 1 -.56 1.06c-1.9 2-4 3.8-6 5.61a63.25 63.25 0 0 1 8.11-5.08 3.88 3.88 0 0 1 -1.2 1.34 50.24 50.24 0 0 1 -6.62 4.43c2.48-.65 4.7-2.17 7.24-2.54a1.34 1.34 0 0 1 -.63.72l-4.36 3a39.16 39.16 0 0 1 -5.27 3.17 4.09 4.09 0 0 1 -1.22.41.25.25 0 0 1 -.22 0 .25.25 0 0 1 0-.17l-.05-.68" fill="#507569"/><path d="m102.74 152.62a6.2 6.2 0 0 0 -3.17-.07 1.21 1.21 0 0 0 -.71.38.86.86 0 0 0 .06 1 1.94 1.94 0 0 0 .89.59 10.36 10.36 0 0 0 2.54.47 3.85 3.85 0 0 0 1.94-.15 1.32 1.32 0 0 0 .81-1.58c-.29-.72-1.24-.82-2-.81" fill="#507569"/><path d="m142.64 60.73a2.76 2.76 0 0 0 2-.69 18.9 18.9 0 0 0 1.53-1.57c3.29-3.4 8.62-4.07 12.09-7.28a6.73 6.73 0 0 0 2.34-4.28 4 4 0 0 0 -2.32-4 6.38 6.38 0 0 0 -2.58-.2 12.62 12.62 0 0 0 -3 .42 12.3 12.3 0 0 0 -3.4 1.87q-2.09 1.49-4.11 3a11.29 11.29 0 0 0 -2.11 2 11.76 11.76 0 0 0 -1.16 1.93c-.89 1.73-1.79 3.62-1.45 5.52.19 1.04.93 3.11 2.17 3.28z" fill="#ec2044"/><g clip-path="url(#g)" fill="#c11e49"><path d="m140.18 61.09c2.39-1.16 4-3.42 6.15-5 3.2-2.45 7.34-3.36 10.62-5.69a3.94 3.94 0 0 0 1.36-1.4 4.59 4.59 0 0 0 .18-2.55l-.6-5.19a1 1 0 0 1 0-.35c.09-.29.45-.39.75-.41a4.6 4.6 0 0 1 3.81 2 9.77 9.77 0 0 1 1.55 4.1 9 9 0 0 1 -.14 4.55 8.79 8.79 0 0 1 -3.11 3.85 20 20 0 0 1 -8.58 3.81 13 13 0 0 0 -2.16.49 3 3 0 0 0 -1.67 1.38c-.4.83-.24 1.86-.73 2.64a3 3 0 0 1 -1.42 1.07 10.75 10.75 0 0 1 -6.78.69"/><path d="m153.74 46.93c-.12-2-.07-4 0-6 .44.16.52.74.53 1.21a73.46 73.46 0 0 0 .6 7.85 3.68 3.68 0 0 0 .29 1.14c.38.72 1.4 1.24 1.63 2-.76 0-1.62-1-2-1.61a7.79 7.79 0 0 1 -.77-2.25 6.11 6.11 0 0 1 -.28-2.34z"/><path d="m149.73 51.12a26.25 26.25 0 0 1 -.35-5.09 6.15 6.15 0 0 1 .42-2.74l.43 5.65a23.91 23.91 0 0 0 .26 2.39 19.41 19.41 0 0 1 .67 2.24c0 .83-.52.28-.75-.22a11 11 0 0 1 -.68-2.23z"/><path d="m145.33 48.45a1.78 1.78 0 0 1 .29-1.4 23.28 23.28 0 0 1 .81 4.68c.07.84.09 1.68.23 2.51s.56 1.4.73 2.1c-1.7.34-1.98-6.78-2.06-7.89z"/><path d="m141.47 51.82c0-.19.07-.48.25-.4a.35.35 0 0 1 .11.13 6.29 6.29 0 0 1 .43 1.54 25.3 25.3 0 0 0 1.92 6.44c-1 .65-1.62-2.64-1.8-3.26a32.21 32.21 0 0 1 -.91-4.45z"/></g><path d="m122.74 113.61a3.75 3.75 0 0 0 2.13-.09 3.57 3.57 0 0 0 -1.13-2.18c-1.08-1.13-6.95-5.06-7.68-2.23-.83 3.25 4.67 4.16 6.68 4.5z" fill="#f2dcb1"/><path d="m161.34 94.81a3.76 3.76 0 0 0 .36 2.1 3.54 3.54 0 0 0 2-1.4c1-1.22 4.13-7.54 1.24-7.9-3.31-.41-3.52 5.15-3.6 7.2z" fill="#f2dcb1"/><path d="m81.89 75.59a2.94 2.94 0 0 0 .7-1 1.06 1.06 0 0 0 -.21-1.12 1.38 1.38 0 0 0 -1-.25c-1.61.06-5.67 1.3-4.91 3.61.89 2.76 4.4-.17 5.42-1.24z" fill="#f2dcb1"/><path d="m168 122.7a4.08 4.08 0 0 0 -1.07 1.57 1.47 1.47 0 0 0 .55 1.69c.7.4 1.57-.07 2.18-.59.86-.71 4.4-3.55 3.15-4.68-1.45-1.33-3.94 1.14-4.81 2.01z" fill="#f2dcb1"/><path d="m207.9 82.93a4 4 0 0 0 -1.07 1.57 1.48 1.48 0 0 0 .55 1.69c.7.39 1.57-.08 2.18-.6.86-.71 4.4-3.55 3.15-4.68-1.48-1.32-3.97 1.14-4.81 2.02z" fill="#f2dcb1"/></svg>