<?xml version="1.0" encoding="UTF-8"?>
<svg width="200px" height="200px" viewBox="0 0 200 200" version="1.1" xmlns="http://www.w3.org/2000/svg" xmlns:xlink="http://www.w3.org/1999/xlink">
    <title>american-dynamic-200</title>
    <g id="american-dynamic-200" stroke="none" stroke-width="1" fill="none" fill-rule="evenodd">
        <g id="american-dynamic" transform="translate(0.000000, 10.000000)" fill-rule="nonzero">
            <path d="M42.6095436,31.2200339 C37.2705515,30.5354228 31.8490162,31.4567487 27.0335045,33.866998 C24.777944,34.9999596 21.9648292,36.3818679 21.5491978,38.8764156 C20.6824543,44.2262297 31.4990074,44.0941356 35.7871067,43.9569608 C38.1440407,43.8858332 40.5009747,43.6775309 42.8427026,43.4031814 C44.7738679,43.1796374 46.7455826,42.8951269 48.4486575,41.9603066 C50.1517324,41.0254862 51.5,39.2777787 51.5,37.3319299 C51.5,35.2082619 49.7969251,33.3843462 47.8454851,32.5562173 C46.1480582,31.9399628 44.394315,31.4924172 42.6095436,31.2200339 L42.6095436,31.2200339 Z" id="Path" fill="#EFEFEF"></path>
            <path d="M80.5054898,15.9761713 C80.4767369,16.9873013 81.2099369,18.0969517 82.1396154,17.9932461 C82.5680317,17.9083737 82.9643395,17.6903607 83.2801488,17.3658269 C85.2497254,15.6339427 89.7016395,10.3449547 86.1937804,9.14196922 C83.6251842,8.25528595 81.3201566,11.7657221 80.9224075,12.9272253 C80.610835,13.907019 80.4694836,14.9407312 80.5054898,15.9761713 L80.5054898,15.9761713 Z" id="Path" fill="#EFEFEF"></path>
            <path d="M165.693948,40.0078997 C166.984363,42.6208484 168.839961,44.9052834 170.750577,47.083583 C172.091009,48.5998009 173.566484,50.1918296 175.512111,50.7730465 C177.92789,51.4856689 180.613756,50.4495867 182.389328,48.6503415 C184.1649,46.8510963 185.150217,44.3998774 185.760414,41.9334963 C186.980807,36.9906261 186.785744,31.552458 184.459995,27.0290747 C182.134245,22.5056915 177.482747,19.0942013 172.446123,19.0032282 C169.345124,18.9476335 166.594238,19.579391 164.793657,23.3042329 C162.993077,27.0290747 162.87804,34.3170286 165.693948,40.0078997 Z" id="Path" fill="#EFEFEF"></path>
            <path d="M159.917897,17.9860736 C160.782491,18.1141641 161.461816,17.3357681 161.873527,16.5918581 C162.506534,15.3897782 162.810172,13.8773253 162.053651,12.7491438 C161.168471,11.4288266 158.934935,9.7143849 157.833606,12.4831098 C156.732277,15.2518346 158.600419,17.7890113 159.917897,17.9860736 Z" id="Path" fill="#EFEFEF"></path>
            <path d="M25.6287437,138.094754 C11.8271491,124.165308 3.10390064,105.994335 0.861012173,86.5023035 C-0.364659962,75.5544385 1.25261696,62.9414795 10.0510103,56.3320243 C16.8659508,51.2094418 27.5053952,48.373181 36.0240709,48.5157578 C73.9690493,49.2388261 80.9670777,22.9384898 99.1894149,8.61970077 C107.972551,1.71999978 119.756295,-1.46251913 130.721229,0.640489366 C141.686163,2.74349786 151.618685,10.6259607 155.204157,21.2122916 C157.238468,27.2870837 157.238468,33.8354346 158.133564,40.1851963 C159.028661,46.534958 161.144344,53.1851496 166.214863,57.1009208 C170.664918,60.5380412 176.615276,61.2814777 181.528136,64.0108059 C185.561157,66.2512992 188.749939,69.759708 191.491173,73.4819822 C194.232406,77.2042563 196.678665,81.374629 197.324558,85.9778244 C198.590917,94.9550737 192.81856,103.509685 185.917161,109.401164 C170.05971,122.88486 148.419731,126.739527 127.888452,130.105359 L74.9963761,138.76181 C65.6538047,140.289419 56.1434027,141.817028 46.7703166,140.498192 C37.3972305,139.179356 25.6287437,138.094754 25.6287437,138.094754 Z" id="Path" fill="#EFEFEF"></path>
            <path d="M15.6621796,145.688367 C5.23710513,151.049815 8.73083117,164.87429 43.6272889,172.459898 C78.5237466,180.045505 105.132168,185.213104 153.024267,171.23559 C200.916365,157.258076 209.316609,130.154962 189.517128,124.155853 C169.717647,118.156745 176.633694,122.554051 176.633694,122.554051 L15.6621796,145.688367 Z" id="Path" fill="#EFEFEF"></path>
            <path d="M15.5,151.983668 C15.5,151.983668 43.3844221,182.016669 116.431749,164.530332 C190.55644,146.782393 194.5,114 194.5,114 L15.5,151.983668 Z" id="Path" fill="#002C1F"></path>
            <path d="M7.54428273,137.622714 C8.61070837,151.568492 34.0221077,177.485287 116.827519,157.997939 C198.444627,138.791241 199.638008,109.562769 196.723112,99.0358251 C193.513678,87.4117926 157.422788,76.7725882 99.5412673,87.3301488 C42.1726465,97.7958603 6.05636506,118.06903 7.54428273,137.622714 Z" id="Path" fill="#8ACFBB"></path>
            <path d="M31.5,122.542015 C37.7469164,127.871675 32.3509258,129.304818 31.836294,134.705881 C31.3216623,140.106944 36.8195601,143.131335 45.2625785,143.065033 C53.7055969,142.998731 54.4342339,141.468685 58.6481001,144.436974 C62.8619662,147.405264 67.014688,147.899979 70.7801621,145.370303 C74.5456361,142.840626 76.0080056,140.458855 79.2639433,142.412213 C82.519881,144.365572 86.7643193,138.122984 97.0977178,135.919718 C107.431116,133.716451 109.881986,139.719332 121.377128,137.745573 C132.872269,135.771813 135.221232,128.284788 143.389101,128.718301 C151.55697,129.151814 158.588572,130.120843 163.846988,126.555836 C169.105404,122.990828 175.357415,122.985728 177.854144,112.387609 C180.350872,101.789489 174.852974,97.8776715 174.144719,95.2306917 C173.436463,92.583712 153.66645,91.9461928 143.888447,95.2306917 C134.110443,98.5151907 104.75605,100.626654 104.75605,100.626654 L31.5,122.542015 Z" id="Path" fill="#639384"></path>
            <path d="M83.8033294,87.8116066 C78.5694244,89.6806583 72.8005203,86.0606543 72.8005203,86.0606543 C72.8005203,86.0606543 62.2721443,77.0337506 58.8299811,81.0131877 C55.387818,84.9926247 56.7051267,92.9874422 51.4510331,94.6562383 C46.1969394,96.3250345 38.0154928,93.5882088 38.2829923,99.2004987 C38.5504918,104.812789 45.4398654,111.339065 39.1107266,112.037392 C32.7815878,112.73572 34.2402171,115.030956 29.9248952,117.07459 C25.6095733,119.118223 31.9841365,123.611136 37.233183,125.901238 C42.4822295,128.19134 39.8425648,131.123286 37.6621916,132.391571 C35.4818185,133.659856 36.0420532,138.738131 41.5686936,139.210529 C47.0953339,139.682927 48.801274,139.83697 52.4655122,141.582787 C56.1297505,143.328605 60.9750242,138.039804 63.2512934,141.757369 C65.5275626,145.474933 67.2486442,147.729092 70.9229768,144.324748 C74.5973093,140.920403 74.1228763,137.233648 77.1461252,140.252885 C80.1693741,143.272122 83.4601225,138.97433 87.3111057,134.4198 C91.1620888,129.865271 91.8535498,130.594406 98.1624999,130.568732 C104.47145,130.543059 109.0038,113.99887 109.0038,113.99887 C109.0038,113.99887 111.184173,94.2762663 110.280731,87.5291949 C109.37729,80.7821236 92.6711897,84.648596 83.8033294,87.8116066 Z" id="Path" fill="#65A43A"></path>
            <path d="M46.077261,114.886533 C48.3188517,115.344248 50.7095269,114.321453 52.7967088,113.52469 C54.9611576,112.698653 57.0678018,111.711062 59.10085,110.56932 C60.0113299,110.060748 59.2020145,108.59719 58.2915346,109.105762 C56.451887,110.138625 54.5464092,111.033637 52.5890555,111.784242 C51.6448542,112.160963 50.6953284,112.488709 49.7404782,112.767482 C48.6755895,113.089578 47.6107007,113.451229 46.497892,113.225197 C45.4968966,113.021768 45.0656167,114.65485 46.077261,114.86393 L46.077261,114.886533 Z" id="Path" fill="#529700"></path>
            <path d="M71.8964808,114.515659 C70.1826705,119.091087 67.3947825,123.260753 63.7320287,126.726709 C63.0078493,127.409775 64.1450791,128.464073 64.8692585,127.776057 C68.7244478,124.123299 71.6555215,119.728373 73.4521254,114.90669 C73.7900758,114.000884 72.2397955,113.609854 71.9018451,114.510709 L71.8964808,114.515659 Z" id="Path" fill="#529700"></path>
            <path d="M74.0926633,122.53453 C73.2473318,125.760201 71.4013276,128.594838 68.8489623,130.586508 C68.5162098,130.807853 68.4029945,131.262891 68.5898957,131.627755 C68.7917415,131.987203 69.2314808,132.106983 69.5733895,131.895649 C72.442715,129.695506 74.5235277,126.539719 75.4791496,122.938898 C75.5718086,122.540701 75.3472385,122.137031 74.972204,122.027653 C74.5971694,121.918274 74.2075448,122.142814 74.0926633,122.53453 L74.0926633,122.53453 Z" id="Path" fill="#529700"></path>
            <path d="M81.1763983,119.718269 C81.3761975,123.517891 80.8221207,127.320192 79.5595501,130.813742 C79.2327403,131.720757 80.3421734,132.504088 80.6775834,131.597073 C82.0428067,127.869434 82.6556618,123.808624 82.4664368,119.744037 C82.4148352,118.754566 81.1247968,118.749413 81.1763983,119.744037 L81.1763983,119.718269 Z" id="Path" fill="#529700"></path>
            <path d="M45.02009,121.844177 C48.2261436,122.468901 51.4859571,121.106357 54.3792249,119.689958 C57.209094,118.301494 59.8571713,116.50103 62.2526277,114.336722 C62.9808319,113.679685 61.939842,112.543334 61.2116378,113.194986 C59.0152531,115.16079 56.6011681,116.811205 54.027341,118.106606 C52.7581812,118.74053 51.4519975,119.280287 50.1175196,119.722271 C48.6102635,120.305197 46.9997923,120.489673 45.4159594,120.260826 C44.4971514,120.083103 44.101282,121.639526 45.0298646,121.822635 L45.02009,121.844177 Z" id="Path" fill="#529700"></path>
            <g id="Group-5" transform="translate(40.500000, 50.000000)">
                <path d="M99.9407065,53.8960645 C92.2976442,64.7865953 87.3392418,67.0133249 70.0807141,67.8973862 C52.8221865,68.7814476 48.8499856,57.6588507 22.5184034,48.0391581 C-3.8131788,38.4194655 -1.39698493,24.8325475 2.15881966,16.6770815 L6.45427544,6.84189899 L6.66247355,6.36119063 L89.470533,26.5675179 L107.846756,36.2479898 C107.846756,36.2479898 102.389774,50.3929714 99.9407065,53.8960645 Z" id="Path" fill="#5E3636"></path>
                <path d="M98.5983765,46.9561829 C97.3686344,49.940646 96.3506504,53.0094306 95.5521094,56.1393702 C97.5080759,53.9292168 98.0450079,50.8239513 99.6119726,48.3320034 C99.8034504,47.9342811 100.147889,47.6328359 100.565301,47.4976705 C100.513211,47.7155643 100.513211,47.9428227 100.565301,48.1607165 C101.542392,46.9030094 102.249523,45.4541693 102.641803,43.9061712 C102.268864,43.9798802 101.92251,44.1535721 101.639165,44.4089811 L98.1271913,47.0390636" id="Path" fill="#512928"></path>
                <path d="M24.7099625,31.8663607 L20.9569176,40.358875 C20.0693362,42.3645892 19.1762758,44.4089811 18.9571199,46.5915076 C19.2459467,46.2324025 19.499186,45.8456194 19.7132078,45.4367024 L24.0963259,37.6459118 L22.5184034,45.4201263 L26.7590702,36.9883911 C26.808058,37.6216036 26.731699,38.258319 26.5344354,38.8614961 C27.330736,37.9286516 27.9142744,36.8308925 28.2438515,35.645723 C28.3205561,35.3805046 28.3589083,35.0489815 28.1397524,34.88322 C27.9205965,34.7174585 27.5535104,34.88322 27.3233967,35.0821338 C26.9053365,35.4554879 26.5468268,35.891586 26.2604905,36.3750736 L26.2604905,35.3639284 C25.5350827,36.4873442 24.9429617,37.6927609 24.4962855,38.9554276 C24.9681567,37.801894 25.2566057,36.5805024 25.3509935,35.3363015 C24.3826937,35.9931437 23.5842894,36.8741035 23.022462,37.9056048 L25.3455146,31.7890053 C25.1136792,31.7837463 24.8905657,31.8781687 24.7318781,32.0486983" id="Path" fill="#512928"></path>
                <path d="M19.8720958,32.7835743 C18.4274393,35.1907342 17.2129661,37.7309449 16.2450656,40.3699258 C16.5506438,40.2584731 16.8069791,40.0410896 16.9682801,39.7566082 C17.8232944,38.701037 18.5362435,37.5361485 19.0886135,36.2921928 C19.3422565,35.4443414 19.6497094,34.6138196 20.0090683,33.8057703 C20.094366,33.6707597 20.1538329,33.520831 20.184393,33.3637396 C20.215727,33.2013639 20.1347607,33.0380575 19.9871527,32.965912 C19.8392225,32.9106581 19.6419821,33.0653689 19.6967711,33.2145542" id="Path" fill="#512928"></path>
                <path d="M39.78241,41.2208349 C38.1203504,43.8593411 36.8105609,46.7073627 35.8869137,49.6912477 C37.2630416,48.3039736 38.515249,46.7970807 39.6290009,45.1880602 C39.9014133,44.7090568 40.2921278,44.3093168 40.7631327,44.0277297 C40.5911388,45.1608751 40.2667212,46.2650741 39.7988467,47.3098074 C41.2069858,45.7556145 42.1724373,43.8465108 42.5930845,41.784424 L41.0370776,42.707163 C40.9768097,41.5026294 40.8288794,40.3091466 40.6754703,39.1101384 C39.9735959,40.1477333 39.43917,41.2909259 39.0920689,42.4971984" id="Path" fill="#512928"></path>
                <path d="M52.8605387,48.326478 C52.3074461,50.1221259 51.6338114,51.8777292 50.8443044,53.5811177 C50.5491995,54.0817466 50.4010091,54.6565455 50.4169504,55.2387327 C51.56204,54.3601967 51.9291261,52.735734 53.0358635,51.8074696 L52.4879737,53.9236914 C53.4283907,52.7767985 54.1525925,51.4659204 54.6247438,50.055923 C54.7124062,49.79623 54.6850117,49.3818262 54.4110668,49.3984024 C54.3223754,49.4134659 54.2413071,49.4582371 54.1809531,49.5254862 C53.8682399,49.7966518 53.5735684,50.088286 53.2988506,50.3984968 C53.6698392,49.1435933 53.8544726,47.8401939 53.8467403,46.5307284 C53.5892321,46.5307284 53.4303441,46.8235737 53.2988506,47.0832667 C52.9523926,47.8808657 52.6523699,48.6981691 52.4003113,49.5310116" id="Path" fill="#512928"></path>
                <path d="M58.202464,49.6249431 L54.7014484,57.6367491 C54.0823329,59.0512473 53.4522597,60.5154739 53.4686964,62.0570559 L57.8518145,53.1501378 C58.4654511,51.9124519 59.0900454,50.5863598 58.9475941,49.2105393 C58.6504686,49.2391661 58.4097455,49.4660497 58.361352,49.7630777" id="Path" fill="#512928"></path>
                <path d="M60.6405734,53.0451555 L60.876166,52.7191578 L58.5585923,58.0014244 C58.4201691,58.2723884 58.3310946,58.5662084 58.2956052,58.8689096 C58.3474676,59.2483673 58.3474676,59.6332063 58.2956052,60.012664 C58.8372844,58.6097528 59.5048274,57.2596402 60.289924,55.9791341 C60.9199972,54.9514128 61.6541695,53.8297599 61.4459714,52.663904 C61.4337507,52.4882029 61.3430458,52.3276143 61.199421,52.2273987 C60.9254761,52.0947895 60.6515312,52.3876348 60.4816854,52.6418025" id="Path" fill="#512928"></path>
                <path d="M67.2919552,53.0341047 C66.0446315,55.4319797 65.0528881,57.9564523 64.3333505,60.5652024 L67.5549423,55.7139157 C68.0094212,54.9802372 68.5322863,54.2919701 69.1164281,53.658473 L68.9411034,55.0784966 C69.4122886,55.0066666 69.7245858,54.5646359 70.0752352,54.2331129 C70.4258847,53.9015899 71.0450001,53.6805746 71.3353817,54.0894529 C71.471154,54.320785 71.5105528,54.5969299 71.4449597,54.8574812 L70.732703,61.3719083 L73.6584343,55.7691695 C73.934919,55.0851576 74.4057449,54.4988406 75.011722,54.0839276 C75.1994758,54.2736659 75.2614132,54.555826 75.1706101,54.8077528 C75.6192576,54.3858018 76.1654755,54.0837827 76.7594904,53.9292168 L76.9731674,55.3768673 L81.3069755,52.7302086 C81.328097,53.4015306 81.4217928,54.0685241 81.5863992,54.7193467 C82.8871323,53.9743711 83.8832252,52.7877165 84.3970738,51.3709643 C83.7779583,51.0118144 83.0109126,51.1831012 82.3041348,51.2770328 C80.4705662,51.435169 78.6238572,51.3159768 76.8252372,50.9234082 L68.8260466,49.5973162 C68.6683333,49.5530199 68.5016168,49.5530199 68.3439036,49.5973162 C68.1707834,49.6948793 68.0355818,49.8487585 67.9603807,50.0338215 C67.384595,51.1353601 66.9641396,52.3125811 66.7111921,53.5313892" id="Path" fill="#512928"></path>
                <path d="M87.7501591,62.836135 L92.5989836,51.5367258 L90.0019861,60.1452732 C89.7223892,61.1964595 89.342575,62.2178909 88.8678543,63.1952849 C88.7657062,63.4311978 88.6007086,63.6339351 88.3911902,63.7809755 C88.1684178,63.92021 87.8790668,63.8808394 87.7008491,63.687044 L87.7665958,63.3057926" id="Path" fill="#512928"></path>
                <path d="M15.2533851,26.0260304 C15.0996174,26.2065786 14.8555039,26.2800021 14.6287908,26.2138934 C13.971323,26.092335 13.4617856,25.5839997 12.8591068,25.2911544 C11.5058191,24.6336337 9.90598097,25.1751213 8.47598868,25.7221343 C12.0701456,20.3901392 8.04315576,23.93191 7.92809891,22.9594425 C7.00216521,16.0527132 2.08759399,29.7943419 2.39989116,28.6395367 L5.72010315,16.5223708 L4.43804109,17.461686 C4.78834852,16.4606487 5.01290599,15.4192913 5.10646661,14.3619459 L2.18621415,17.533516 C2.18154537,17.2087681 2.19618201,16.88403 2.23004533,16.5610485 L6.48166993,6.83084822 C6.46710701,7.40938719 6.64664725,7.9759409 6.99120741,8.43873481 C7.643264,9.12217416 8.15033951,9.93248237 8.48146758,10.8201751 C8.98552616,11.9252518 9.49506365,13.0303285 9.93337546,14.1961844 C10.7552101,16.3345078 11.3469311,18.6164911 12.5248941,20.5559007 C13.5001378,22.1858889 14.8808201,23.6390647 15.3026952,25.4955935 C15.3591776,25.6717333 15.3413463,25.863547 15.2533851,26.0260304 Z" id="Path" fill="#512928"></path>
                <path d="M7.7253797,4.37757796 C4.33942094,9.46093075 2.75054061,23.4954047 29.0930806,33.1095719 C55.4356206,42.7237392 59.3859059,53.8573868 76.6444335,52.9678001 C93.9029612,52.0782134 98.949026,49.9177884 106.498947,38.960953 C113.884501,28.2472345 102.362379,6.36119063 70.6614773,9.44987998 C38.9605753,12.5385693 16.5299683,-8.8943931 7.7253797,4.37757796 Z" id="Path" fill="#804746"></path>
                <path d="M103.874555,31.2309416 C99.6722405,32.418899 95.4315737,33.441095 91.185428,34.4135624 C89.0650946,34.910847 86.9283245,35.3528776 84.8025122,35.8225352 L78.4031597,37.1431019 L71.9873705,38.3752624 C69.8451215,38.7565138 67.7028725,39.1653922 65.5551447,39.5134914 C61.2596889,40.242842 56.9532753,40.9169388 52.6139883,41.4307994 C56.8217818,40.242842 61.0569697,39.2206461 65.3085943,38.2426532 C67.4289277,37.7453687 69.5602189,37.303338 71.6860311,36.8336804 L78.0853836,35.5186391 L84.5011728,34.2864786 C86.6489007,33.9052272 88.7856708,33.4963488 90.9388776,33.1482496 C95.2343334,32.418899 99.5407469,31.7448022 103.874555,31.2309416 Z" id="Path" fill="#D47163"></path>
                <path d="M16.9518434,5.3334693 C20.6007892,8.31717637 24.1346782,11.4113911 27.6302149,14.5663851 C29.3889411,16.1245432 31.1038361,17.7324298 32.8406466,19.3182148 L37.9908105,24.1308238 L43.0807064,29.0152628 C44.7572491,30.6728778 46.4557074,32.2918152 48.1103345,33.9881079 C51.4360253,37.303338 54.7288428,40.6738219 57.9066035,44.1603389 C54.2576576,41.1766318 50.7237686,38.0824171 47.2282319,34.9329485 C45.4695058,33.369265 43.7546108,31.7669038 42.0178002,30.1811187 L36.8676364,25.3629843 L31.7777405,20.4785454 C30.1011978,18.8209303 28.4082184,17.201993 26.7535913,15.5057002 C23.4224215,12.1849448 20.1350829,8.81998626 16.9518434,5.3334693 Z" id="Path" fill="#D47163"></path>
                <path d="M79.3619668,48.6414249 C75.6965842,45.646667 72.1517375,42.5303507 68.639764,39.3698314 C66.875559,37.8006225 65.1497062,36.1872105 63.4019379,34.5959001 L58.2298585,29.7611896 L53.1180469,24.8546491 C51.4360253,23.197034 49.7320882,21.539419 48.0719822,19.8818039 C44.7243757,16.5665739 41.4206004,13.168463 38.2099664,9.67089532 C41.86987,12.6656532 45.4201957,15.7819694 48.9321691,18.9424888 C50.6963742,20.5116977 52.4222269,22.1195842 54.1699953,23.7108947 L59.3365958,28.5511306 L64.4484073,33.4576711 C66.1304289,35.1152861 67.8343661,36.7729012 69.499951,38.4305162 C72.8585153,41.7733732 76.1622905,45.1438571 79.3619668,48.6414249 Z" id="Path" fill="#D47163"></path>
                <path d="M56.5204424,11.179325 C59.5502728,13.5828668 62.4705253,16.1024417 65.3524254,18.6662196 C66.8043333,19.9370578 68.2178889,21.252099 69.6478812,22.533988 L73.8775902,26.4791118 L78.0415525,30.4850148 C79.4112769,31.8442591 80.7810013,33.1814019 82.1452468,34.5627478 C84.8846956,37.3254395 87.541961,40.0881313 90.1060851,42.994483 C87.0707758,40.5909412 84.1505234,38.0713663 81.2686232,35.5075884 C79.8167153,34.2367502 78.4086386,32.9217089 76.9786463,31.6398199 L72.7489373,27.6946962 L68.5849751,23.6832678 C67.2152506,22.3240234 65.8455262,20.9868806 64.4812807,19.6055348 C61.7637475,16.8649446 59.0845665,14.0856767 56.5204424,11.179325 Z" id="Path" fill="#D47163"></path>
                <path d="M74.8144817,12.6932801 C77.2361545,14.522182 79.5482493,16.467117 81.8219918,18.4507296 C82.9670815,19.4342479 84.0738188,20.4564438 85.2024717,21.4620636 L88.5172048,24.5397022 L91.77167,27.6836454 C92.8345762,28.7555698 93.9193979,29.8053926 94.9658674,30.8994186 C97.0697641,33.0653689 99.1407874,35.2699969 101.096754,37.5961833 C98.6696022,35.7728068 96.3575074,33.8278718 94.0837648,31.8442591 C92.9386752,30.8607409 91.8319379,29.8330196 90.7087639,28.8273998 L87.3940308,25.7497612 L84.1395656,22.605818 C83.0766594,21.5338936 81.9918377,20.4840707 80.9453682,19.3900448 C78.8414715,17.2240945 76.7594904,15.0194665 74.8144817,12.6932801 Z" id="Path" fill="#D47163"></path>
                <path d="M99.2229709,19.5613317 C93.913919,20.9647791 88.5719938,22.2135158 83.2191108,23.4014732 C80.5454087,24.0092654 77.8607488,24.5618037 75.1815679,25.141969 L67.1275883,26.799584 L59.057172,28.3577422 C56.3560755,28.8495013 53.6659367,29.3688873 50.9648401,29.8274942 C45.562647,30.7778601 40.154975,31.6729722 34.7144296,32.4023229 C40.0234815,30.9933501 45.3654067,29.7501388 50.7182897,28.5345544 C53.3919918,27.9267623 56.0766517,27.3797493 58.7558326,26.799584 L66.8098122,25.141969 L74.8802285,23.5838109 C77.5758461,23.0920517 80.2714638,22.5781911 82.9725604,22.1140589 C88.3747535,21.1857944 93.7879044,20.2962077 99.2229709,19.5613317 Z" id="Path" fill="#D47163"></path>
                <path d="M64.9086347,13.2789707 C61.0734064,14.3840474 57.238178,15.3344134 53.3700762,16.2295255 C51.4415042,16.6881323 49.5019745,17.0914853 47.5679236,17.5224652 L41.7438554,18.7325242 L35.9033504,19.8376009 C33.9528629,20.1801747 32.0078542,20.5503753 30.0464088,20.8597968 C26.1344759,21.5173175 22.217064,22.1140589 18.2612999,22.5450388 C22.0965283,21.4399621 25.9317567,20.4840707 29.7998584,19.594484 C31.7284304,19.1303518 33.6679602,18.7269988 35.6020111,18.2960189 L41.4260793,17.0914853 L47.2665842,15.9864086 C49.2170718,15.6438348 51.1675594,15.2736341 53.1235258,14.9586873 C57.0354588,14.3122174 60.9583495,13.715476 64.9086347,13.2789707 Z" id="Path" fill="#D47163"></path>
                <path d="M33.6022134,6.69271363 C31.7540124,7.3940796 29.868112,7.98992259 27.9534699,8.47741249 C26.0577713,8.98574777 24.1182415,9.41672768 22.217064,9.80350452 C20.3158866,10.1902814 18.3818357,10.5218044 16.4094325,10.775972 C14.4554821,11.0589434 12.487256,11.2305029 10.5141386,11.2898327 C12.3623396,10.5884667 14.24824,9.99262372 16.1628821,9.50513381 C18.0640596,8.99679854 19.9981105,8.56029324 21.899288,8.17904178 C23.8004655,7.79779032 25.7345164,7.46626732 27.7069195,7.21209968 C29.6611341,6.93049653 31.6291829,6.75710788 33.6022134,6.69271363 Z" id="Path" fill="#D47163"></path>
                <path d="M82.9122925,41.9888632 C82.2767404,42.2485562 81.5425681,41.9170332 80.8741425,42.0606932 C80.3435663,42.2294509 79.870795,42.5453912 79.509897,42.9723814 C79.3236145,43.1547191 79.1154164,43.3923106 79.1756843,43.6520036 C79.2359521,43.9116966 79.4934603,44.0277297 79.723574,44.1216612 C81.1438239,44.7203409 82.6096085,45.2026105 84.1066922,45.5637863 C84.9778369,45.7516493 86.150321,45.6908701 86.4352237,44.839961 C86.687253,44.0885089 86.0133486,43.3536329 85.3394442,42.9116022 C83.9933498,41.9871879 82.4705321,41.3567072 80.8686637,41.0605987" id="Path" fill="#A05956"></path>
                <path d="M14.4370293,13.8922883 L17.8339459,14.1575067 C18.1494008,14.1634705 18.4604898,14.2329791 18.7489218,14.3619459 C19.1659609,14.663626 19.4676765,15.1005345 19.6036299,15.5996318 C19.7820785,15.9826831 19.866636,16.4033727 19.8501803,16.8262669 C19.7283657,17.4823788 19.2451957,18.010433 18.6064705,18.1855112 C17.9766898,18.3567971 17.3131581,18.3567971 16.6833774,18.1855112 C14.7779156,17.7402516 13.0681018,16.6812199 11.8126374,15.1686519 C11.6044393,14.9200096 11.40172,14.5829612 11.5386925,14.2901159 C11.6967551,14.0488715 11.9642308,13.9036241 12.2509492,13.903339 C13.2542125,13.75121 14.2762515,13.7792693 15.2698218,13.9862198" id="Path" fill="#A05956"></path>
                <path d="M40.8672317,22.8323587 C41.335164,23.5500401 41.9405595,24.1662078 42.6478735,24.6446845 C43.3767223,25.1255971 44.3187818,25.1255971 45.0476307,24.6446845 C45.2881053,24.4371031 45.4854822,24.1835941 45.6283938,23.8987577 C46.0502689,23.1031025 46.209157,22.0367035 45.6283938,21.3570813 C45.0476307,20.6774592 43.9847245,20.7050861 43.0971431,20.6995607 C42.1470027,20.6950176 41.1997748,20.5931967 40.2700319,20.3956646 C40.0319425,20.3267342 39.7794279,20.3267342 39.5413385,20.3956646 C39.3459402,20.506549 39.2035357,20.692665 39.1467302,20.9113991 C39.0899246,21.1301333 39.1235831,21.3627522 39.2399991,21.5559951 C39.5006484,21.9388322 39.8898767,22.2136037 40.3357787,22.3295488 C40.7717525,22.4554306 41.1884235,22.6413626 41.5740095,22.8820872" id="Path" fill="#A05956"></path>
                <path d="M51.0689392,32.9714374 C51.885295,33.4024173 52.8660176,33.3195365 53.7755147,33.4576711 C54.6850117,33.5958057 55.6986077,34.148344 55.7753123,35.0766085 C55.8097606,35.2948953 55.7312342,35.5158011 55.5671142,35.6622991 C55.3437323,35.7704798 55.0837183,35.7704798 54.8603364,35.6622991 C52.9463934,35.0699742 51.1324098,34.1888193 49.4800589,33.0487927 C49.2707061,32.9408362 49.1143003,32.7511574 49.047226,32.5238813 C48.9760003,32.0321222 49.6444258,31.8332084 50.1430055,31.827683 L52.0277463,31.827683 C53.1235258,31.827683 54.34532,31.827683 55.2493381,32.4852036 C56.1533562,33.1427242 56.4711323,34.695357 55.5561564,35.3528776" id="Path" fill="#A05956"></path>
                <path d="M27.0604096,25.401662 L29.3560677,26.6890764 C29.5392559,26.8202345 29.7621055,26.8827709 29.9861409,26.8658886 C30.2932067,26.7652829 30.4687987,26.4402286 30.3861005,26.1254873 C30.2894184,25.824509 30.078698,25.5742655 29.7998584,25.4292889 C28.9615871,24.9375298 27.8603287,25.0148852 27.0604096,24.4457707 C26.8606112,24.2716073 26.6481671,24.1127693 26.4248575,23.9705877 C25.9844732,23.805641 25.5045791,23.7805751 25.0496541,23.8987577 C24.5623466,23.9439126 24.0881104,24.0827017 23.6525352,24.3076361 C23.2099467,24.5447424 22.9430779,25.0184166 22.967673,25.5232205 C23.0774113,25.9798472 23.3581992,26.3758894 23.7511554,26.6282972 C24.6598867,27.431738 25.7485145,28.0005796 26.9234371,28.2859122 C28.1180289,28.5641718 29.3711559,28.2149751 30.2546069,27.3576478" id="Path" fill="#A05956"></path>
                <path d="M69.9327839,16.3566093 C70.500968,17.0244765 71.1593945,17.6085102 71.8887504,18.0915797 C72.1451896,18.317754 72.4963312,18.4005893 72.8256419,18.312595 C73.1589253,18.1013414 73.2676887,17.6625962 73.0721923,17.318026 C72.8666498,16.991774 72.5768473,16.7281658 72.2339209,16.5555231 C70.7162663,15.6051572 69.0945125,14.6271643 67.302913,14.6492658 C67.0672499,14.6260454 66.8317781,14.6953073 66.6454453,14.8426542 C66.5007325,15.0082945 66.4260091,15.2244513 66.4372472,15.444921 C66.480482,16.3647104 66.9649042,17.2057281 67.7357459,17.6992775 C68.5001075,18.1770524 69.3365528,18.52604 70.2122077,18.7325242 C71.1545781,19.0087934 72.2613154,19.2850625 73.0557556,18.6827957" id="Path" fill="#A05956"></path>
                <path d="M70.7655763,31.7116499 L68.8972722,31.1591116 C68.2781568,30.9822993 67.5549423,30.8165378 67.0289681,31.1922639 C66.5743276,31.563751 66.4065709,32.1870457 66.6125719,32.7393713 C66.8250051,33.2774722 67.2241943,33.719324 67.7357459,33.9825825 C69.121907,34.767187 70.8258442,34.6124762 72.4092456,34.435664 C72.6777116,34.4025117 73.0064455,34.3251563 73.0721923,34.0599379 C73.137939,33.7947195 72.9626143,33.6344834 72.8037263,33.4742473 L71.4120863,31.9989699 C71.0285634,31.5956169 70.3163067,31.2033147 70.0094885,31.6674469" id="Path" fill="#A05956"></path>
                <path d="M95.1028398,22.4732088 C94.2875444,21.9826831 93.2480332,22.1001685 92.5606313,22.7605287 C91.9142641,23.4739043 91.9142641,24.566728 92.5606313,25.2801036 C93.050542,25.678845 93.6402578,25.9331783 94.2645685,26.0149796 C95.231592,26.2797321 96.232803,26.3952335 97.234131,26.3575534 C97.5228189,26.365229 97.800628,26.2463095 97.9956978,26.0315557 C98.0792918,25.9010493 98.1265969,25.7502969 98.1326702,25.5950504 C98.1545472,24.6788261 97.6856168,23.8216784 96.9053971,23.3517448 C96.1302366,22.9017936 95.2571216,22.6513 94.3631886,22.6223941" id="Path" fill="#A05956"></path>
            </g>
            <path d="M137.449798,105.420748 C142.237966,98.8761276 153.007421,99.19329 155.288996,101.509079 C155.883518,102.037267 156.296146,102.727564 156.471648,103.487568 C156.743762,105.209307 155.08491,107.328757 150.291509,111.416628 C143.567141,117.145688 140.348864,123.186876 138.339403,122.995572 C138.003258,122.957756 137.678941,122.853183 137.387002,122.688478 C134.032668,120.866053 133.048869,111.421662 137.449798,105.420748 Z" id="Path" fill="#CE7F00"></path>
            <path d="M139.550149,112.122603 C142.15226,106.678474 146.124424,102.104997 155.473299,103.149778 C155.729567,104.901322 154.167315,107.057464 149.653045,111.216102 C143.320254,117.044341 140.289385,123.190111 138.39694,122.995495 C138.080369,122.957025 137.774938,122.850641 137.5,122.683085 C137.5,120.178684 137.790766,115.804944 139.550149,112.122603 Z" id="Path" fill="#FFA300"></path>
            <path d="M148.439063,108.667839 C147.922226,108.17311 147.472338,107.649638 147.094547,107.103414 C147.003513,107.004051 146.808246,106.970612 146.654871,107.028121 C146.507214,107.087689 146.456748,107.21284 146.540173,107.312562 C146.921204,107.858532 147.373171,108.381942 147.891061,108.876987 C147.941147,108.949736 148.049953,108.997422 148.17151,108.999899 C148.293067,109.002375 148.406169,108.959209 148.46303,108.888639 C148.519891,108.818068 148.510593,108.732404 148.439063,108.667839 L148.439063,108.667839 Z" id="Path" fill="#CE7F00"></path>
            <path d="M148.438304,110.490687 C147.967088,109.965708 147.464304,109.482995 146.93402,109.046456 C146.795293,108.951451 146.618676,109.006691 146.536336,109.170839 C146.460879,109.335579 146.506525,109.542327 146.64008,109.640733 L147.01471,109.965512 L147.101163,110.041524 L147.141508,110.076075 L147.176089,110.076075 L147.176089,110.076075 L147.222197,110.117536 L147.314414,110.207369 C147.550719,110.435405 147.78126,110.677262 148.006038,110.898388 C148.119039,111.033871 148.302249,111.033871 148.41525,110.898388 C148.52825,110.762906 148.52825,110.543247 148.41525,110.407765 L148.438304,110.490687 Z" id="Path" fill="#CE7F00"></path>
            <path d="M143.623704,112.653711 C144.148084,113.029423 144.65074,113.463414 145.126976,113.951633 C145.244999,114.049907 145.396763,113.993671 145.465949,113.826027 C145.535135,113.658383 145.495545,113.442814 145.377521,113.34454 C144.898429,112.858767 144.394277,112.424901 143.869337,112.046618 C143.751313,111.950271 143.600649,112.008069 143.53282,112.175713 C143.46499,112.343357 143.50568,112.557364 143.623704,112.653711 L143.623704,112.653711 Z" id="Path" fill="#CE7F00"></path>
            <path d="M144.205882,114.115044 L142.794118,114 C142.631681,114 142.5,114.198104 142.5,114.442478 C142.503129,114.684875 142.632995,114.880248 142.794118,114.884956 L144.205882,115 C144.368319,115 144.5,114.801896 144.5,114.557522 C144.496871,114.315125 144.367005,114.119752 144.205882,114.115044 L144.205882,114.115044 Z" id="Path" fill="#CE7F00"></path>
            <path d="M142.31547,116.193551 C141.446443,115.935483 140.555697,115.935483 139.68667,116.193551 C139.621381,116.222208 139.565905,116.292062 139.532652,116.387489 C139.499399,116.482916 139.491143,116.595953 139.509732,116.701317 C139.548921,116.914763 139.684585,117.040865 139.81811,116.987959 C140.598234,116.750406 141.398851,116.750406 142.178975,116.987959 C142.313412,117.037242 142.448995,116.913247 142.492409,116.701317 C142.525414,116.482933 142.447941,116.260605 142.31547,116.193551 L142.31547,116.193551 Z" id="Path" fill="#CE7F00"></path>
            <path d="M160.559777,52.9309713 C161.581885,49.8702603 162.349938,46.732457 162.856324,43.5486579 C163.534252,39.5476824 163.823291,36.7765788 165.04251,36.2420775 L165.04251,36.2420775 C165.37431,36.0972615 165.73103,36.016245 166.093562,36.0033682 C167.985454,35.9203389 170.329298,37.3785414 172.31053,39.6929837 C174.848818,42.6509033 176.798518,47.0151321 176.462182,51.3222781 C175.81053,59.6926717 163.103321,65.7019188 159.503471,64.9338976 C159.035753,64.8353003 158.736203,64.3838284 158.589056,63.6573218 L158.589056,63.6573218 C158.226443,61.6282927 158.988455,57.4923946 160.559777,52.9309713 Z" id="Path" fill="#FFA300"></path>
            <path d="M169.66483,50.310405 C171.027425,42.676921 166.966046,38.0117259 164.98553,36.2421691 C165.318979,36.0973535 165.677472,36.0163373 166.041806,36.0034605 C170.383097,35.8114558 177.064038,43.6421338 176.461961,51.3223217 C175.807071,59.6926886 163.036702,65.7019166 159.41896,64.9338978 C158.948917,64.8353008 158.647879,64.3838303 158.5,63.6573261 L158.5,63.6573261 C158.5,63.6573261 167.890287,60.2687026 169.66483,50.310405 Z" id="Path" fill="#CE7F00"></path>
            <path d="M165.40211,57.502322 C164.527611,57.0653603 163.673492,56.5759604 162.843246,56.0361238 C162.772985,55.9885884 162.686089,55.9879247 162.61529,56.0343829 C162.54449,56.0808411 162.500544,56.167363 162.5,56.2613567 C162.499466,56.3553503 162.542416,56.4425358 162.612677,56.4900713 C163.439238,57.030975 164.288734,57.5238026 165.157978,57.966705 C165.267115,58.0355711 165.403843,57.994405 165.469924,57.8727849 C165.531654,57.7487651 165.495356,57.5905055 165.388547,57.5179754 L165.40211,57.502322 Z" id="Path" fill="#CE7F00"></path>
            <path d="M165.389808,54.4971744 C164.881045,54.1539649 164.305242,53.982706 163.722855,54.001379 C163.599775,54.001379 163.5,54.1220177 163.5,54.270833 C163.502371,54.4184445 163.600771,54.53742 163.722855,54.5402871 C164.227275,54.5208902 164.726529,54.6680764 165.166953,54.9660244 C165.273211,55.0365795 165.406564,54.9938991 165.470036,54.869021 C165.531314,54.7393071 165.495684,54.5741649 165.389808,54.4971744 L165.389808,54.4971744 Z" id="Path" fill="#CE7F00"></path>
            <path d="M167.381619,52.2547632 C166.55231,51.5659173 165.655889,51.1406688 164.736586,51 C164.605923,51 164.5,51.1800566 164.5,51.4021677 C164.5,51.6242788 164.605923,51.8043354 164.736586,51.8043354 C165.573171,51.9367116 166.388953,52.3235791 167.145033,52.9464916 C167.257499,53.0563164 167.401016,52.9917384 167.46679,52.8017112 C167.499132,52.7103746 167.508328,52.6006623 167.49228,52.4976054 C167.476232,52.3945485 167.436309,52.3069383 167.381619,52.2547632 Z" id="Path" fill="#CE7F00"></path>
            <path d="M167.282293,47.1874571 C166.430381,47.0251434 165.57365,46.968141 164.717707,47.0168231 C164.597471,47.0168231 164.5,47.198717 164.5,47.4230946 C164.5,47.6474721 164.597471,47.829366 164.717707,47.829366 C165.57365,47.7806839 166.430381,47.8376863 167.282293,48 C167.402529,48 167.5,47.8181061 167.5,47.5937286 C167.497684,47.3711662 167.401557,47.1917799 167.282293,47.1874571 Z" id="Path" fill="#CE7F00"></path>
            <path d="M167.376079,46.4031562 C166.854309,45.9992431 166.241602,45.8939781 165.665881,46.1093388 C165.547339,46.1588531 165.477305,46.3302614 165.506687,46.4989662 C165.522602,46.5814575 165.561398,46.6515492 165.614395,46.6935634 C165.667393,46.7355777 165.730172,46.7460085 165.788688,46.7225229 C166.247443,46.5457019 166.737268,46.6282454 167.153208,46.952467 C167.223164,47.0130493 167.310953,47.0159128 167.382836,46.9599569 C167.45472,46.904001 167.499511,46.7979331 167.5,46.6825178 C167.500481,46.5671024 167.456584,46.4602996 167.385176,46.4031562 L167.376079,46.4031562 Z" id="Path" fill="#CE7F00"></path>
            <path d="M167.308774,42.078546 C166.728207,41.8975972 166.110271,42.0328131 165.621338,42.447788 C165.505652,42.5325984 165.466113,42.7107827 165.531475,42.852763 C165.602798,42.994233 165.755785,43.0418417 165.875951,42.9599623 C165.977485,42.8685039 166.088169,42.7924826 166.205451,42.7336527 L166.255375,42.7336527 L166.345238,42.6979196 L166.519973,42.64432 L166.599851,42.64432 L166.649775,42.64432 C166.714581,42.6383674 166.779674,42.6383674 166.844479,42.64432 L166.939335,42.64432 C166.939335,42.64432 167.039184,42.64432 166.989259,42.64432 L167.173979,42.6919641 C167.31184,42.7363675 167.453774,42.6390448 167.490997,42.4745878 C167.52822,42.3101308 167.446636,42.1408159 167.308774,42.0964125 L167.308774,42.078546 Z" id="Path" fill="#CE7F00"></path>
            <path d="M174.09112,99.9939217 C172.592648,100.085285 170.784148,99.1412009 169.084158,97.5321978 C165.983872,94.6085834 163.281457,89.4719553 163.513978,84.3353272 C163.917015,75.7066041 176.183812,69.2655161 179.712971,70.0674798 C180.7464,70.2908114 180.978921,76.0263744 179.067078,82.4471595 C176.374997,91.4464101 177.113898,98.7503705 175.155551,99.7046057 C174.824745,99.8718586 174.462397,99.9703459 174.09112,99.9939217 Z" id="Path" fill="#FFA300"></path>
            <path d="M169.010805,98 C165.951245,95.0267102 163.284327,89.8028051 163.513794,84.5789001 C163.911537,75.8035655 176.0172,69.2530364 179.5,70.0686263 C179.5,70.0892742 164.074714,80.031212 169.010805,98 Z" id="Path" fill="#CE7F00"></path>
            <path d="M177.373377,79.4704938 C177.104063,79.2896403 176.848994,79.082991 176.61098,78.8528237 C176.363574,78.6176996 176.133742,78.3599367 175.92382,78.0821528 C175.826865,77.9726157 175.669671,77.9726157 175.572716,78.0821528 C175.475761,78.1916899 175.475761,78.3692846 175.572716,78.4788217 C176.015296,79.0609094 176.536713,79.5601003 177.117573,79.9578298 C177.194717,80.0115771 177.291527,80.0141175 177.370797,79.9644747 C177.450067,79.9148319 177.499461,79.8207309 177.5,79.718337 C177.50053,79.6159432 177.452123,79.5211901 177.373377,79.4704938 L177.373377,79.4704938 Z" id="Path" fill="#CE7F00"></path>
            <path d="M177.46764,81.6838055 C176.819737,80.8708019 175.8777,80.2790086 174.798134,80.0068044 C174.715775,79.9878074 174.628247,80.0092333 174.568523,80.0630112 C174.508799,80.116789 174.485951,80.1947487 174.508586,80.2675235 C174.531221,80.3402983 174.5959,80.3968321 174.67826,80.415829 C175.643198,80.6545674 176.487368,81.1783684 177.071133,81.9005885 C177.136791,81.9953695 177.274734,82.0277634 177.38465,81.974213 C177.43794,81.9476806 177.47684,81.9031286 177.492477,81.8507216 C177.508115,81.7983146 177.499154,81.7425232 177.46764,81.6960762 L177.46764,81.6838055 Z" id="Path" fill="#CE7F00"></path>
            <path d="M175.313416,84.4198153 L173.817927,84.0099826 C173.683186,83.9682819 173.544804,84.0609943 173.507638,84.2178688 C173.474429,84.3762514 173.552382,84.5374941 173.685673,84.5861243 L175.181162,84.9900174 C175.315904,85.0317181 175.454285,84.9390057 175.491451,84.7821312 C175.527163,84.6247973 175.447764,84.4632128 175.313416,84.4198153 L175.313416,84.4198153 Z" id="Path" fill="#CE7F00"></path>
            <path d="M175.315838,86.2708333 L173.684162,86 C173.582452,86 173.5,86.1554567 173.5,86.3472222 C173.5,86.5389878 173.582452,86.6944444 173.684162,86.6944444 L175.315838,87 C175.416725,86.9963055 175.49804,86.842992 175.5,86.6527778 C175.5,86.4610122 175.417548,86.3055556 175.315838,86.3055556 L175.315838,86.2708333 Z" id="Path" fill="#CE7F00"></path>
            <path d="M175.223528,90.0031594 L172.659258,90.5590956 C172.382159,90.6160024 172.496517,91.040615 172.773617,90.9968406 L175.342285,90.4409044 C175.619384,90.3839976 175.500627,89.959385 175.223528,90.0031594 Z" id="Path" fill="#CE7F00"></path>
            <path d="M179.357426,78.4214444 C179.124099,78.2362749 178.908648,78.0351716 178.713193,77.8201113 L178.713193,77.77864 C178.713193,77.77864 178.753457,77.833935 178.713193,77.77864 C178.688955,77.7526493 178.667399,77.7248971 178.648769,77.6956975 L178.503817,77.5229007 C178.415235,77.4123107 178.326653,77.2878969 178.246123,77.170395 C178.134183,77.0070994 177.889932,76.9516058 177.698525,77.0459813 C177.508271,77.1420602 177.443617,77.3517028 177.553572,77.5159888 C177.892819,78.0261628 178.315915,78.491735 178.809828,78.8983638 C178.967714,79.0338787 179.223699,79.0338787 179.381585,78.8983638 C179.539472,78.7628488 179.539472,78.5431357 179.381585,78.4076207 L179.357426,78.4214444 Z" id="Path" fill="#CE7F00"></path>
            <path d="M168.5,68.5984811 C168.5,68.9306805 168.427047,69.2587682 168.285783,69.5589668 C166.730167,73.0054153 156.748717,74.6438908 149.817296,70.7197676 C142.268729,66.4463769 141.335359,55.7885815 143.548925,53.3693903 C144.05425,52.73521 144.744742,52.277032 145.522774,52.0596372 C147.33341,51.6692794 149.791794,53.1588026 154.703463,57.6068271 C161.634884,63.8474157 168.474498,66.6158743 168.5,68.5984811 Z" id="Path" fill="#FFA300"></path>
            <path d="M168.5,69.5491668 C166.93146,73.0054307 156.867089,74.6485725 149.878085,70.7132736 C142.266808,66.4277125 141.325684,55.7395642 143.557639,53.3134833 C144.067162,52.6774968 144.76339,52.2180139 145.547885,52 C148.700394,73.3453911 168.5,69.5491668 168.5,69.5491668 Z" id="Path" fill="#CE7F00"></path>
            <path d="M150.828313,59.9540162 C151.315495,59.4870322 151.820365,59.0728528 152.339759,58.7140722 C152.454271,58.6575311 152.521923,58.4617975 152.49354,58.2691512 C152.479165,58.1754977 152.442555,58.0955011 152.392058,58.0474034 C152.34156,57.9993057 152.281482,57.9872079 152.225522,58.0138686 C151.670363,58.3914788 151.130298,58.8275624 150.608626,59.3194566 C150.504255,59.4236585 150.469131,59.6471683 150.529538,59.822728 C150.592108,59.9917429 150.723565,60.0495081 150.828313,59.9540162 L150.828313,59.9540162 Z" id="Path" fill="#CE7F00"></path>
            <path d="M151.984809,61.9288248 C152.421968,61.4143085 152.899669,60.9350205 153.413406,60.4954824 C153.468827,60.4410018 153.5,60.3668406 153.5,60.2894757 C153.5,60.2121107 153.468827,60.1379495 153.413406,60.083469 C153.297588,59.972177 153.113526,59.972177 152.997708,60.083469 C152.483925,60.5250541 152.006233,61.0062736 151.569111,61.5226144 C151.470407,61.6384267 151.478297,61.8100308 151.587218,61.9164661 C151.696139,62.0229014 151.869373,62.0282861 151.984809,61.9288248 Z" id="Path" fill="#CE7F00"></path>
            <path d="M155.907484,61.0207438 C155.288277,61.4751148 154.811459,62.0301803 154.512544,62.6445983 C154.460596,62.7943191 154.574592,62.9483326 154.769506,62.9917672 C154.963421,63.0279399 155.160442,62.9417216 155.217356,62.7957848 C155.217356,62.7621878 155.254065,62.7229913 155.27609,62.6893943 C155.298115,62.6557973 155.27609,62.6389988 155.27609,62.6893943 L155.27609,62.6893943 L155.408242,62.4878123 C155.494628,62.355929 155.592748,62.2287097 155.701914,62.1070465 L155.856091,61.9278625 L155.900142,61.888666 C155.936851,61.8494695 155.84875,61.9390615 155.900142,61.888666 C155.925259,61.8614832 155.952215,61.8353167 155.980902,61.8102731 C156.108334,61.6934148 156.245676,61.5830546 156.392042,61.4799027 C156.535986,61.3701183 156.535986,61.1921227 156.392042,61.0823383 C156.248098,60.9725539 156.014719,60.9725539 155.870775,61.0823383 L155.907484,61.0207438 Z" id="Path" fill="#CE7F00"></path>
            <path d="M156.777245,63.1226822 C156.275287,63.6152593 155.851287,64.1389133 155.511589,64.6858099 C155.461204,64.8181324 155.579473,64.9528444 155.781698,64.9934731 C155.986926,65.0233344 156.193905,64.9482043 156.260178,64.8197922 C156.579488,64.312306 156.977668,63.826846 157.44866,63.3707977 C157.554034,63.2528502 157.492073,63.1023395 157.309746,63.0333606 C157.12399,62.9651363 156.887499,63.0048053 156.777245,63.1226822 L156.777245,63.1226822 Z" id="Path" fill="#CE7F00"></path>
            <path d="M159.948875,64.188721 C159.689441,65.0129258 159.53859,65.8663254 159.5,66.7281161 C159.5,66.8782735 159.624054,67 159.777083,67 C159.930112,67 160.054166,66.8782735 160.054166,66.7281161 C160.092232,65.9156079 160.237527,65.1113746 160.486416,64.3355383 C160.591707,63.9984023 160.054166,63.8570227 159.93225,64.188721 L159.948875,64.188721 Z" id="Path" fill="#CE7F00"></path>
            <path d="M153.00282,35.9470153 C148.597776,43.4648935 138.095384,44.1201924 135.776674,41.8447056 C135.163252,41.3064891 134.731877,40.5841733 134.54407,39.780772 C134.21066,37.9438711 135.73626,35.4981097 140.242338,30.6323862 C146.577114,23.8162454 149.471713,16.9691456 151.421652,17 C151.557655,17.0042466 151.692968,17.0215231 151.825785,17.0517029 C152.010251,17.0904742 152.188696,17.1547012 152.356208,17.2426168 C155.705456,18.914403 157.044145,29.0483171 153.00282,35.9470153 Z" id="Path" fill="#FFA300"></path>
            <path d="M152.997569,35.9259285 C148.583261,43.4662834 138.058782,44.1235415 135.735196,41.8412516 C135.120484,41.3014259 134.688202,40.5769506 134.5,39.7711473 C134.5,39.7711473 140.311497,43.7612733 148.866749,35.7292686 C155.721075,29.2912443 153.139313,20.2914658 151.818058,17 C152.002913,17.0388872 152.181732,17.1033062 152.349597,17.1914846 C155.705888,18.8423928 157.047392,29.0066049 152.997569,35.9259285 Z" id="Path" fill="#CE7F00"></path>
            <path d="M140.54641,34.296094 L141.901946,35.9183095 C142.001664,36.0005551 142.188938,36.024227 142.335507,35.9731127 C142.482076,35.9219984 142.540433,35.8126655 142.47061,35.7199947 L141.115074,34.0977791 C141.023158,34.0040739 140.8226,33.9722296 140.665433,34.0263858 C140.589006,34.0521141 140.533215,34.095316 140.510789,34.1461349 C140.488362,34.1969538 140.501213,34.2510545 140.54641,34.296094 L140.54641,34.296094 Z" id="Path" fill="#CE7F00"></path>
            <path d="M142.56136,34.3434038 C143.047704,34.9092392 143.573575,35.4441298 144.135499,35.9445418 C144.331734,36.120667 144.634617,35.836465 144.434117,35.6603398 C143.872572,35.1608002 143.348059,34.6258416 142.864244,34.0592017 C142.824193,34.0213123 142.769675,34 142.712802,34 C142.655929,34 142.601411,34.0213123 142.56136,34.0592017 C142.479547,34.1383835 142.479547,34.264222 142.56136,34.3434038 L142.56136,34.3434038 Z" id="Path" fill="#CE7F00"></path>
            <path d="M144.64704,29.5042803 C145.427434,30.0890634 146.265672,30.5827102 147.147022,30.9765458 C147.263844,31.0322675 147.40167,30.9856963 147.466106,30.8687282 C147.530541,30.7517601 147.5007,30.6023078 147.39702,30.5227292 C146.51718,30.1256401 145.679263,29.6321816 144.897038,29.0504637 C144.819862,28.9912279 144.717466,28.9835276 144.633112,29.0306161 C144.548758,29.0777046 144.497161,29.1713674 144.500121,29.2720322 C144.503081,29.372697 144.560082,29.4628028 144.64704,29.5042803 L144.64704,29.5042803 Z" id="Path" fill="#CE7F00"></path>
            <path d="M145.639467,28.7830961 C146.141977,29.249421 146.663439,29.6520146 147.199731,29.9876947 C147.32619,30.0411949 147.454934,29.9156139 147.493762,29.7008855 C147.522301,29.4829694 147.450499,29.2631943 147.327777,29.1928235 C146.828323,28.8857586 146.343181,28.5131876 145.876589,28.078365 C145.803388,27.9863778 145.706266,27.97442 145.626256,28.0475437 C145.546246,28.1206674 145.497307,28.2661161 145.500115,28.4224384 C145.502922,28.5787606 145.556987,28.7186858 145.639467,28.7830961 L145.639467,28.7830961 Z" id="Path" fill="#CE7F00"></path>
            <path d="M150.231694,24.2720933 L149.861431,24.2226239 L149.780939,24.2226239 L149.73801,24.2226239 L149.555562,24.1872886 C149.314087,24.1448863 149.077977,24.0812828 148.841868,24.0106122 C148.698777,23.9644731 148.553103,24.0727753 148.509168,24.2579592 C148.4712,24.4469199 148.554519,24.6412984 148.696983,24.6961166 C149.20271,24.8432588 149.715471,24.944789 150.231694,25 C150.379875,25 150.5,24.8417986 150.5,24.6466472 C150.497145,24.4530746 150.378676,24.2970542 150.231694,24.2932945 L150.231694,24.2720933 Z" id="Path" fill="#CE7F00"></path>
            <path d="M175.5,103.6757 C175.5,106.574487 174.741091,109.012102 173.659133,109.959783 C173.623291,110.002172 173.581906,110.039664 173.536067,110.071274 C172.922048,110.598696 172.156417,110.922987 171.346512,110.998683 C169.895355,111.044294 168.244215,109.909105 165.634183,106.944437 C164.906041,106.113316 164.095854,105.145365 163.219007,104.020311 C157.470784,96.7530742 151.184146,92.871133 151.512323,90.9402981 C151.566912,90.6163181 151.696801,90.3092697 151.891777,90.043296 C154.035182,86.9722042 164.198409,87.1242384 170.351726,92.1413686 C174.136015,95.1871214 175.494872,99.8393694 175.5,103.6757 Z" id="Path" fill="#FFA300"></path>
            <path d="M170.503879,92.1483846 C176.936332,97.5342981 176.157246,107.793905 173.705123,110 C173.705123,106.536178 172.706295,101.586412 168.281486,96.6315744 C160.20596,87.5789797 152.5,90.0386483 152.5,90.0386483 C154.597539,86.9704019 164.490933,87.1276178 170.503879,92.1483846 Z" id="Path" fill="#CE7F00"></path>
            <path d="M166.87684,104 L168.273404,103.645102 C168.379112,103.614535 168.461564,103.525895 168.489701,103.412571 C168.517838,103.299247 168.487385,103.178456 168.409813,103.095698 C168.332241,103.01294 168.219336,102.980788 168.113627,103.011354 L166.717063,103.37259 C166.560769,103.418895 166.468399,103.591303 166.509946,103.759176 C166.555848,103.927427 166.718612,104.025829 166.87684,103.980988 L166.87684,104 Z" id="Path" fill="#CE7F00"></path>
            <path d="M165.900591,102.977205 C167.088429,102.506448 168.250102,101.982895 169.375146,101.415346 C169.662948,101.265759 169.40131,100.887393 169.113508,101.03258 C167.986996,101.605533 166.825467,102.12834 165.63372,102.598839 C165.33022,102.717629 165.597091,103.095995 165.900591,102.977205 L165.900591,102.977205 Z" id="Path" fill="#CE7F00"></path>
            <path d="M166.035568,98.1521901 C165.996361,98.2184011 165.954049,98.2819589 165.90883,98.3425643 C165.860085,98.4175602 165.806465,98.4810183 165.752845,98.5502453 C165.644223,98.6875566 165.526892,98.8148433 165.401879,98.9309938 L165.401879,98.9309938 L165.353134,98.9713762 L165.255643,99.0579099 L165.055787,99.2079017 C164.916792,99.306996 164.771784,99.3937672 164.621954,99.467503 C164.565614,99.5049244 164.524486,99.5677609 164.507953,99.6416761 C164.491421,99.7155914 164.500894,99.7942801 164.534213,99.8597893 C164.603629,99.9934691 164.749471,100.039158 164.865681,99.9636298 C165.507455,99.6353292 166.060575,99.1044597 166.464527,98.429098 C166.498247,98.3642968 166.508464,98.286142 166.492868,98.2123108 C166.477271,98.1384796 166.43718,98.0752097 166.38166,98.0368117 C166.263988,97.9606718 166.116566,98.0061859 166.045317,98.1406522 L166.035568,98.1521901 Z" id="Path" fill="#CE7F00"></path>
            <path d="M161.938402,99.921001 C162.914704,98.8487242 163.767213,97.6571013 164.477954,96.3712568 C164.53033,96.2483852 164.486555,96.1034216 164.376611,96.0356496 C164.266667,95.9678776 164.126189,95.999264 164.051389,96.1083127 C163.354816,97.3539204 162.522415,98.5082941 161.571357,99.5476205 C161.348154,99.7947879 161.700319,100.16291 161.918562,99.921001 L161.938402,99.921001 Z" id="Path" fill="#CE7F00"></path>
            <path d="M160.022553,95.8189972 L160.462332,94.5569319 C160.499576,94.4687504 160.509668,94.3650996 160.490523,94.2673993 C160.470894,94.1756935 160.424192,94.0981573 160.360845,94.0521058 C160.29682,94.0013622 160.219914,93.9869339 160.147674,94.0121128 C160.075433,94.0372917 160.014021,94.0999298 159.977447,94.1857362 L159.537668,95.4403776 C159.500424,95.5285591 159.490332,95.6322099 159.509477,95.7299102 C159.529921,95.820867 159.573778,95.8996135 159.633517,95.9526276 C159.769624,96.0506108 159.940142,95.9920394 160.022553,95.8189972 L160.022553,95.8189972 Z" id="Path" fill="#CE7F00"></path>
            <path d="M176.5,104 C176.5,106.770436 175.730769,109.100121 174.634096,110.005841 C174.597766,110.046353 174.555819,110.082185 174.509356,110.112396 C173.886986,110.616464 173.110941,110.926397 172.290021,110.998742 C170.819127,111.042332 169.14553,109.957406 166.5,107.124006 L168.012474,106.615447 C171.95738,105.254446 175.091476,104.16952 176.5,104 Z" id="Path" fill="#CE7F00"></path>
            <path d="M168.383697,121.588652 C160.426323,124.849219 153.296797,121.839465 150.100802,118.824592 C149.465093,118.262313 148.940578,117.581261 148.555486,116.818089 C148.4693,116.608527 148.484151,116.3699 148.595624,116.173141 C149.358248,114.483994 154.616336,111.766001 159.382733,110.117802 L160.205564,109.841396 L160.70729,109.672482 C163.602249,108.720416 166.40188,107.681335 168.875389,106.770219 C172.939369,105.23463 176.110277,104.052226 177.319437,104.00104 C180.936881,103.857718 175.754052,118.573779 168.383697,121.588652 Z" id="Path" fill="#FFA300"></path>
            <path d="M168.163519,121.588652 C160.040483,124.849219 152.762531,121.839465 149.5,118.824592 C153.500057,119.848318 158.591039,120.201503 163.625682,117.974899 C174.381277,113.219692 177.305775,104.00104 177.305775,104.00104 C180.978042,103.857718 175.687314,118.573779 168.163519,121.588652 Z" id="Path" fill="#CE7F00"></path>
            <path d="M167.578415,109.472976 C168.086849,109.943167 168.579057,110.430151 169.055038,110.933928 C169.162984,111.028292 169.322933,111.020749 169.42214,110.916616 C169.521346,110.812483 169.526365,110.646866 169.433659,110.536504 C168.963087,110.032727 168.470879,109.545744 167.957036,109.08115 C167.852483,108.97295 167.682968,108.97295 167.578415,109.08115 C167.473862,109.18935 167.473862,109.364776 167.578415,109.472976 L167.578415,109.472976 Z" id="Path" fill="#CE7F00"></path>
            <path d="M166.554384,109.3506 L167.764107,110.88372 C167.872566,110.99466 168.113478,111.032909 168.302197,110.96915 C168.490917,110.905391 168.555981,110.763769 168.447521,110.652828 L167.237799,109.115091 C167.166234,109.043325 167.034977,108.999455 166.893471,109 C166.751964,109.000556 166.621706,109.045443 166.551763,109.11776 C166.481821,109.190076 166.48282,109.278835 166.554384,109.3506 L166.554384,109.3506 Z" id="Path" fill="#CE7F00"></path>
            <path d="M162.591617,111.216094 C162.395126,112.418506 162.515929,113.651259 162.942125,114.792903 C162.985977,114.942681 163.141471,115.030279 163.292632,114.990361 C163.441945,114.949141 163.530189,114.795662 163.490499,114.64622 C163.0903,113.60256 162.969496,112.472853 163.139991,111.368419 C163.182142,111.212629 163.089757,111.052237 162.933644,111.010174 C162.777532,110.968111 162.616808,111.060304 162.574657,111.216094 L162.591617,111.216094 Z" id="Path" fill="#CE7F00"></path>
            <path d="M161.500967,112.231319 C161.48896,112.768482 161.588812,113.304141 161.797634,113.822794 C161.849074,113.950548 162.045219,114.026151 162.235736,113.991657 C162.426253,113.957163 162.538998,113.825636 162.487558,113.697882 C162.294682,113.220048 162.204085,112.726253 162.218488,112.231319 C162.214817,112.104599 162.062502,112.002461 161.873526,112 C161.683009,112 161.528564,112.103565 161.528564,112.231319 L161.500967,112.231319 Z" id="Path" fill="#CE7F00"></path>
            <path d="M156.972769,114.108971 C156.438633,114.965526 156.353617,115.948157 156.735455,116.851912 C156.840315,117.111724 157.375651,117.000984 157.287348,116.741172 C156.945625,115.946388 157.010786,115.080828 157.469473,114.321932 C157.624003,114.079157 157.149375,113.861936 156.994845,114.108971 L156.972769,114.108971 Z" id="Path" fill="#CE7F00"></path>
            <path d="M156.084592,113.107061 C155.791441,113.520649 155.592545,114.020018 155.507636,114.555623 C155.491241,114.64792 155.501423,114.744244 155.536484,114.82854 C155.575907,114.906171 155.637525,114.963469 155.70957,114.989492 C155.863419,115.035179 156.020045,114.927937 156.067283,114.744566 C156.082311,114.628725 156.10351,114.514186 156.130748,114.401669 C156.130748,114.345686 156.159596,114.289703 156.176905,114.240718 L156.205752,114.156743 C156.205752,114.114756 156.205752,114.156743 156.205752,114.156743 C156.205752,114.156743 156.205752,114.156743 156.205752,114.107758 L156.338452,113.806849 L156.419226,113.666892 L156.419226,113.631902 C156.419226,113.631902 156.419226,113.582917 156.419226,113.631902 C156.419226,113.680887 156.419226,113.631902 156.419226,113.631902 L156.419226,113.596913 C156.470839,113.52789 156.499605,113.438171 156.5,113.344989 C156.498379,113.205005 156.428119,113.079668 156.321388,113.026364 C156.214658,112.97306 156.092006,113.002051 156.009587,113.100063 L156.084592,113.107061 Z" id="Path" fill="#CE7F00"></path>
            <g id="Group-6" transform="translate(17.500000, 51.000000)">
                <path d="M6.73182152,26.5545241 L6.73182152,26.5545241 C6.28794397,26.1545241 -5.8957295,15.1145241 3.67059703,4.8195241 C13.4052909,-5.6504759 24.5481481,4.1995241 24.8236583,4.4445241 L24.8236583,4.4445241 L6.73182152,26.5545241 Z" id="Path" fill="#EA2145"></path>
                <path d="M6.7165154,26.5445241 C6.27263785,26.1445241 -5.91103562,15.1045241 3.65529091,4.8095241 C13.3899848,-5.6604759 24.5328419,4.1895241 24.8083521,4.4345241 C24.4461072,4.2645241 13.1961072,-0.9504759 5.93080112,8.0145241 C-1.33450501,16.9795241 6.38488275,26.1595241 6.7165154,26.5445241 Z" id="Path" fill="#AF174A"></path>
                <path d="M21.1501889,5.1195241 C17.1450868,3.2195241 12.6756991,4.3245241 9.47671948,7.2195241 C6.60909472,9.79213979 5.08091856,13.4966638 5.31855622,17.2995241 C5.47524544,19.5652955 6.23903486,21.7504724 7.53284193,23.6345241 C8.08386234,24.4245241 9.41039295,23.6795241 8.8542705,22.8745241 C6.84746928,20.0074701 6.29981895,16.3944459 7.36957663,13.0795241 C8.42059015,9.92685118 10.8527385,7.39850196 14.0022297,6.1845241 C16.0707665,5.42202381 18.3663824,5.51403254 20.3644746,6.4395241 C21.2471276,6.8545241 22.0226379,5.5645241 21.1348827,5.1445241 L21.1501889,5.1195241 Z" id="Path" fill="#FD879C"></path>
                <path d="M15.8185562,9.0545241 L16.4256991,10.9145241 C16.548472,11.3056128 16.9684513,11.5280883 17.3695766,11.4145241 C17.7631844,11.2877421 17.9871517,10.8816895 17.8797807,10.4895241 L17.2726379,8.6295241 C17.2185421,8.44354839 17.094582,8.2845513 16.9256991,8.1845241 C16.7463294,8.08405871 16.5342866,8.05539638 16.3338623,8.1045241 C15.9317735,8.22304761 15.6958309,8.63044181 15.7981481,9.0295241 L15.8185562,9.0545241 Z" id="Path" fill="#FD879C"></path>
                <path d="M11.4869236,13.0145241 L13.287944,14.2195241 C13.4671174,14.3208873 13.6801911,14.3478888 13.8797807,14.2945241 C14.0718712,14.243154 14.2352336,14.1190353 14.3338623,13.9495241 C14.4387328,13.7763678 14.4681502,13.5691587 14.415495,13.3745241 C14.3534331,13.1898353 14.2293374,13.0312086 14.0634542,12.9245241 L12.2777399,11.7195241 C12.1003031,11.6188583 11.8897433,11.5901489 11.6910052,11.6395241 C11.2919351,11.7598416 11.0649193,12.1714213 11.1808011,12.5645241 C11.2409942,12.7501745 11.365526,12.9093586 11.5328419,13.0145241 L11.4869236,13.0145241 Z" id="Path" fill="#FD879C"></path>
                <path d="M10.1961072,17.7195241 L11.9716174,17.4695241 C12.3706875,17.3492066 12.5977034,16.9376269 12.4818215,16.5445241 C12.4266919,16.356329 12.3009188,16.1955581 12.1297807,16.0945241 L11.9461072,16.0195241 C11.8123968,15.9845227 11.6716545,15.9845227 11.537944,16.0195241 L9.76243377,16.2745241 C9.57034325,16.3258942 9.40698089,16.4500129 9.30835214,16.6195241 C9.20450988,16.7903519 9.17466035,16.9947727 9.22544765,17.1872854 C9.27623496,17.379798 9.40344419,17.5444255 9.5787603,17.6445241 L9.76243377,17.7195241 C9.89614425,17.7545255 10.0368865,17.7545255 10.170597,17.7195241 L10.1961072,17.7195241 Z" id="Path" fill="#FD879C"></path>
            </g>
            <path d="M41.8002761,111.163433 C37.2599577,115.109441 26.5130089,119.715676 19.1598334,111.163433 C11.8066579,102.611191 17.0654778,93.3117148 21.6057961,89.365707 C26.1461145,85.4196993 30.2685809,90.6708069 35.5987414,96.8841058 C40.9289018,103.097405 46.3405944,107.222544 41.8002761,111.163433 Z" id="Path" fill="#AF174A"></path>
            <ellipse id="Oval" fill="#EA2145" transform="translate(32.682218, 100.051945) rotate(-40.850000) translate(-32.682218, -100.051945) " cx="32.6822176" cy="100.051945" rx="10.8596422" ry="14.8112488"></ellipse>
            <path d="M36.0326811,95.1577631 C37.1460693,93.279673 39.6511929,95.6209918 40.3549383,96.6985019 C41.4724987,98.5117151 42.0196348,100.595953 41.9304877,102.700334 C41.8832212,104.714372 41.3160234,107.156392 39.8770216,108.707201 C39.0419804,109.603448 37.8445629,109.663869 36.7259228,109.185535 C35.8436152,108.807903 35.0505886,108.077814 35.0768478,107.106041 C35.1031069,106.134268 33.5012984,106.134268 33.5012984,107.106041 C33.4382764,109.286237 35.6808084,110.796765 37.7605336,110.983064 C40.3864492,111.214678 41.8149474,109.029447 42.6394849,106.954988 C43.4908817,104.762206 43.7157106,102.39115 43.290712,100.08712 C42.9283356,98.0277667 42.0565316,95.8626763 40.4389676,94.4075341 C38.8214035,92.9523919 35.9854146,92.1618822 34.6619531,94.3823586 C34.4618147,94.7406979 34.5933865,95.1866269 34.9596587,95.3913552 C35.3259308,95.5960835 35.7955141,95.486171 36.0221774,95.1426578 L36.0326811,95.1577631 Z" id="Path" fill="#FD879C"></path>
            <path d="M33.2888971,96.5497893 C32.8885232,99.1021545 32.6254098,101.683315 32.5012174,104.276981 C32.4558537,105.241006 33.6930469,105.241006 33.7384106,104.276981 C33.853559,101.817445 34.1015279,99.3696793 34.4807266,96.9493855 C34.5634295,96.5507061 34.3727172,96.1437232 34.0477089,96.0253194 C33.7189656,95.919852 33.3811608,96.1533335 33.2888971,96.5497893 L33.2888971,96.5497893 Z" id="Path" fill="#FD879C"></path>
            <path d="M34.4936559,93.8340534 C34.1290896,91.4150013 32.2824146,89.5084839 29.9154423,89.1074806 C28.5264549,88.8114121 27.0796047,89.1335491 25.9378983,89.9930694 C24.985778,90.7244692 24.20192,91.659342 23.6412201,92.7322162 C21.1830171,97.3970037 22.9496927,102.880446 26.5234251,106.361016 C27.532954,107.344431 28.7797222,108.456566 30.1425863,108.863319 C30.8146943,109.09609 31.5518269,109.029413 32.1732905,108.679634 C32.7947541,108.329854 33.2430954,107.729308 33.4084123,107.025207 C33.625461,106.057238 32.1666917,105.645337 31.949643,106.618454 C31.4196403,108.961146 28.0478138,105.743163 27.3108577,104.981145 C25.9125446,103.593042 24.8856041,101.863136 24.3276997,99.9559434 C23.8351512,98.1718794 23.8968727,96.2759408 24.5043673,94.5291376 C25.0848464,92.8609355 26.467901,90.8477656 28.3153389,90.5697319 C30.2788727,90.2762519 32.7269803,91.7076105 32.9793625,93.8340534 C33.0954583,94.8071713 34.6097517,94.8174689 34.4936559,93.8340534 L34.4936559,93.8340534 Z" id="Path" fill="#FD879C"></path>
            <path d="M37.2187968,98.966257 L38.0838212,98.5286426 C38.2253055,98.4680831 38.3464626,98.3389983 38.4252782,98.1648427 C38.4985033,97.9798972 38.5188263,97.7633694 38.4821877,97.5585095 C38.3908917,97.1461095 38.0785877,96.9115107 37.7803039,97.0312633 L36.9152794,97.4425153 C36.7750409,97.5037642 36.6552432,97.6328348 36.5776163,97.8063152 C36.4192965,98.1850381 36.5108406,98.6703531 36.7824906,98.8924425 C36.9142724,98.9996073 37.0716438,99.0281332 37.2187968,98.9715294 L37.2187968,98.966257 Z" id="Path" fill="#FD879C"></path>
            <path d="M37.0547648,102.499965 L38.5536834,102.974328 C38.7476605,103.026235 38.9538239,102.998783 39.1282689,102.897818 C39.2968934,102.795931 39.4204167,102.631451 39.4730202,102.438757 C39.5266601,102.240922 39.4996279,102.029349 39.3980742,101.852179 C39.295653,101.682426 39.1355704,101.557134 38.9483986,101.500232 L37.44948,101.025869 C37.2538776,100.973671 37.0460606,101.001105 36.8698981,101.102379 C36.7012736,101.204267 36.5777503,101.368747 36.5251468,101.561441 C36.474301,101.759466 36.5011919,101.969933 36.6000928,102.148018 C36.7038876,102.3165 36.8634432,102.441379 37.0497684,102.499965 L37.0547648,102.499965 Z" id="Path" fill="#FD879C"></path>
            <path d="M36.6852632,105.986518 L37.4221053,106.830135 C37.4769288,106.885394 37.5466059,106.926564 37.6242105,106.949552 C37.6994108,106.985535 37.7836274,107.002804 37.8684211,106.999629 C38.0355066,106.997854 38.1953932,106.937135 38.3147368,106.830135 C38.4324425,106.721406 38.4989425,106.574837 38.5,106.421809 L38.4747368,106.267723 C38.447117,106.171448 38.3918783,106.083673 38.3147368,106.013482 L37.5778947,105.169865 C37.5246553,105.112923 37.4544191,105.071423 37.3757895,105.050448 C37.3005892,105.014465 37.2163726,104.997196 37.1315789,105.000371 C36.9644037,105.001745 36.8043599,105.062524 36.6852632,105.169865 C36.5690383,105.279491 36.5027967,105.425489 36.5,105.578191 L36.5252632,105.732277 C36.5549808,105.827753 36.6099307,105.915069 36.6852632,105.986518 L36.6852632,105.986518 Z" id="Path" fill="#FD879C"></path>
            <path d="M28.6760279,94.0243873 L29.4760082,94.8240185 C29.590282,94.9337067 29.7416039,94.9964922 29.8999978,94.9999373 C29.9803537,95.0011992 30.0598626,94.983386 30.1319921,94.9479613 C30.2057147,94.9241023 30.2719063,94.8813722 30.3239874,94.8240185 C30.4376795,94.712423 30.5011916,94.5594832 30.5,94.400214 C30.499843,94.241211 30.4365386,94.0887715 30.3239874,93.9764094 L29.524007,93.1767783 C29.4097333,93.0670901 29.2584113,93.0043046 29.1000174,93.0008594 C29.0193095,92.9957145 28.9388129,93.013749 28.8680231,93.0528354 C28.7933269,93.0746049 28.7266041,93.1176779 28.6760279,93.1767783 C28.5619442,93.288109 28.4983596,93.4412233 28.5000322,93.6005828 C28.5001722,93.7595857 28.5634766,93.9120252 28.6760279,94.0243873 L28.6760279,94.0243873 Z" id="Path" fill="#FD879C"></path>
            <path d="M28.0357839,98.6299552 L29.5871954,98.9760104 C29.7777722,99.0271867 29.9783491,98.9958415 30.149582,98.8881234 C30.4818634,98.659965 30.5971547,98.1761707 30.4113827,97.7895354 C30.3134169,97.6052854 30.1575283,97.469876 29.9750482,97.4105226 L28.4236368,97.0260168 C28.2336867,96.9726306 28.0329666,97.0020377 27.8612501,97.1084109 C27.6989407,97.217256 27.5793225,97.3920659 27.526727,97.5972825 C27.4747325,97.8085387 27.4992211,98.0345636 27.5947692,98.2252996 C27.6903174,98.4160356 27.8490397,98.5557414 28.0357839,98.6134764 L28.0357839,98.6299552 Z" id="Path" fill="#FD879C"></path>
            <path d="M29.5386642,101.102564 L28.8074666,101.5641 C28.7368528,101.614051 28.6762299,101.682352 28.6299504,101.764099 C28.5757484,101.839393 28.5366848,101.92892 28.5158329,102.025637 C28.4947224,102.126601 28.4947224,102.232363 28.5158329,102.333328 C28.5204354,102.435395 28.5466373,102.534301 28.5919113,102.620506 C28.6773169,102.792521 28.8132189,102.918939 28.9723031,102.974351 L29.1413661,103 C29.2532377,103.000642 29.3630323,102.963342 29.4583593,102.8923 L30.1895569,102.430763 C30.2640462,102.385471 30.3268978,102.316306 30.3712996,102.230764 C30.4281525,102.15844 30.4663481,102.067536 30.4811906,101.969227 C30.5062698,101.870668 30.5062698,101.765223 30.4811906,101.666664 C30.477372,101.564423 30.4511067,101.465278 30.4051122,101.379486 C30.3223588,101.206737 30.1874528,101.079836 30.028947,101.025641 L29.8810168,101 C29.7680827,101.001701 29.6574293,101.038799 29.5597971,101.107692 L29.5386642,101.102564 Z" id="Path" fill="#FD879C"></path>
            <path d="M46.5,92.8968364 L46.5,92.8968364 C47.0988336,92.7228547 63.6000264,87.9997629 67.7457976,102.107633 C71.9683423,116.435539 57.0998667,120.892541 56.7313537,121 L56.7313537,121 L46.5,92.8968364 Z" id="Path" fill="#EA2145"></path>
            <path d="M46.5,92.8968364 C47.0988336,92.7228547 63.6000264,87.9997629 67.7457976,102.107633 C71.9683423,116.435539 57.0998667,120.892541 56.7313537,121 C57.0793938,120.774847 67.8225711,113.687651 63.6512088,102.332786 C59.4798465,90.9779204 47.0169418,92.8251968 46.5,92.8968364 Z" id="Path" fill="#AF174A"></path>
            <path d="M58.1295223,116.87389 C61.6711915,114.480061 62.9944525,110.178255 62.3376869,105.952363 C61.6700518,101.850272 59.1768884,98.3182971 55.6143534,96.4276575 C53.6295666,95.3904524 51.4209222,94.9040789 49.2023755,95.0156528 C48.2683089,95.0662623 48.263444,96.5845469 49.2023755,96.5339374 C52.6732021,96.3375204 56.0394419,97.8050251 58.3387143,100.516904 C60.6955217,103.340604 61.5879743,107.178793 60.73226,110.810873 C60.2197214,112.768139 59.031501,114.460113 57.3949179,115.563104 C56.6067992,116.094504 57.3414036,117.41035 58.1295223,116.87389 L58.1295223,116.87389 Z" id="Path" fill="#FD879C"></path>
            <path d="M58.0217227,110.505525 L56.3237055,110.027271 C56.1538189,109.972969 55.9724548,110.000445 55.819946,110.103588 C55.6757035,110.205921 55.5689467,110.367246 55.5202959,110.556403 C55.4332056,110.962494 55.6340352,111.377043 55.9762852,111.497648 L57.6743023,111.975902 C57.8444506,112.025351 58.0242463,111.998113 58.1780618,111.899585 C58.4039154,111.744435 58.5285363,111.445945 58.4944302,111.141825 C58.4603241,110.837704 58.2741196,110.587059 58.0217227,110.505525 Z" id="Path" fill="#FD879C"></path>
            <path d="M56.5510819,104.081018 L54.8235988,104.834015 C54.6778457,104.917578 54.5710765,105.052476 54.5256079,105.210513 C54.4275178,105.539407 54.6196792,105.883761 54.9574787,105.984426 C55.1255935,106.018462 55.3006529,105.996344 55.4541301,105.921676 L57.1816133,105.164496 C57.3273664,105.080934 57.4341356,104.946035 57.4796041,104.787998 C57.5222515,104.625047 57.497454,104.452403 57.4105048,104.306917 C57.3270188,104.165093 57.188738,104.061248 57.0261398,104.018269 C56.8568006,103.980003 56.6788903,104.002287 56.5251697,104.081018 L56.5510819,104.081018 Z" id="Path" fill="#FD879C"></path>
            <path d="M53.2267491,100.350312 L52.5892331,101.930493 C52.5048859,102.099068 52.4793056,102.293126 52.5168909,102.479299 C52.566351,102.655834 52.6778016,102.806256 52.8288668,102.900365 C52.9840358,102.996877 53.1695722,103.024679 53.3443909,102.977616 C53.5192096,102.930552 53.6688851,102.812506 53.7602731,102.649618 L54.3977891,101.069436 C54.4469918,100.990288 54.4750892,100.898819 54.4791741,100.804496 C54.506942,100.712105 54.506942,100.613022 54.4791741,100.520631 C54.432923,100.343777 54.3226379,100.192739 54.1717196,100.099565 C54.0135696,100.002052 53.8247109,99.9747946 53.6472384,100.023868 C53.4757771,100.072304 53.3295304,100.189626 53.2403133,100.350312 L53.2267491,100.350312 Z" id="Path" fill="#FD879C"></path>
            <path d="M76.9980611,97.0020159 L76.9980611,98.5141024 C79.9620073,98.5141024 83.6491156,100.726789 86.3940761,104.154185 C88.2375818,106.345892 89.4497625,108.989079 89.9029402,111.805343 C90.1779455,114.033151 89.6737691,115.777091 88.4769867,116.714584 C87.7613146,117.247681 86.8817119,117.520062 85.9866608,117.485748 C83.0278073,117.485748 79.3661625,115.273062 76.5957385,111.845666 C74.7559014,109.652845 73.547283,107.009753 73.0970598,104.194508 C72.8220545,101.9667 73.3262309,100.22276 74.5230133,99.2852666 C75.2367324,98.7521612 76.1147538,98.4797124 77.0082465,98.5141024 L77.0082465,97.0020159 M77.0082465,97.0020159 C75.7715348,96.9684725 74.5604026,97.3543944 73.5757728,98.0957585 C70.2044113,100.74191 71.0294272,107.314446 75.3989561,112.783159 C78.5411465,116.709544 82.6662262,118.997835 85.9866608,118.997835 C87.225951,119.032735 88.4396728,118.644782 89.4242272,117.899052 C92.7955887,115.257941 91.9705728,108.685405 87.6010439,103.216692 C84.4588535,99.2903069 80.3337738,97.0020159 77.0082465,97.0020159 L77.0082465,97.0020159 Z" id="Shape" fill="#D589AA"></path>
            <path d="M78.0342397,97.0090455 C81.3496835,97.0090455 85.4622553,99.2958729 88.5949181,103.219746 C92.9562752,108.684961 93.7737123,115.253294 90.4125733,117.892715 C89.4310042,118.637968 88.2209625,119.025674 86.9854301,118.990796 C83.6750636,118.990796 79.5624917,116.703968 76.429829,112.780095 C72.0633947,107.31488 71.2510348,100.746547 74.6121738,98.1020886 C75.5938181,97.3611986 76.8012779,96.9755236 78.0342397,97.0090455 M78.0342397,96.0016326 L78.0342397,96.0016326 C76.5689947,95.9687825 75.136246,96.4325172 73.9724404,97.3163065 C70.1188082,100.338545 70.8448548,107.415621 75.6276236,113.404691 C78.8770631,117.474639 83.2434974,119.998208 86.9803528,119.998208 C88.4458385,120.032681 89.8791165,119.568775 91.0421522,118.683535 C92.9562752,117.172415 93.7940213,114.653883 93.4081503,111.495643 C92.8974607,108.222592 91.5045681,105.147326 89.3768145,102.59515 C86.127375,98.525202 81.7609407,96.0016326 78.019008,96.0016326 L78.0342397,96.0016326 Z" id="Shape" fill="#99224C"></path>
            <path d="M138.927893,105.48859 L138.927893,105.48859 C139.781107,105.462336 140.619753,105.706131 141.315508,106.182673 C144.078761,108.165766 143.291465,113.877074 139.601983,118.661285 C136.854168,122.21598 133.113228,124.516367 130.072107,124.516367 C129.218893,124.542622 128.380247,124.298827 127.684492,123.822285 C124.921239,121.839192 125.708535,116.127884 129.398017,111.343672 C132.145832,107.788978 135.886772,105.48859 138.927893,105.48859 M138.927893,104.001271 C135.521426,104.001271 131.296788,106.400813 128.163044,110.446323 C123.892095,115.979152 123.264317,122.49857 126.763408,125.007183 C127.72496,125.675734 128.88661,126.023855 130.072107,125.998729 C133.478574,125.998729 137.703212,123.599187 140.836956,119.553677 C145.107905,114.020848 145.735683,107.50143 142.236592,104.992817 C141.27504,104.324266 140.11339,103.976145 138.927893,104.001271 L138.927893,104.001271 Z" id="Shape" fill="#D589AA"></path>
            <path d="M138.907292,103.034848 C140.087273,103.008663 141.243519,103.371464 142.200597,104.068207 C145.683408,106.682604 145.058551,113.476938 140.807473,119.24308 C137.688308,123.469517 133.483327,125.959912 130.092708,125.959912 C128.912727,125.986097 127.756481,125.623295 126.799403,124.926553 C123.316592,122.312155 123.941449,115.517822 128.192527,109.75168 C131.311692,105.525243 135.516673,103.034848 138.907292,103.034848 M138.907292,102.001489 L138.907292,102.001489 C135.040348,102.001489 130.620251,104.73989 127.367921,109.147165 C122.7071,115.460987 122.1898,122.761666 126.189911,125.763573 C127.321479,126.595659 128.692761,127.02954 130.092708,126.998437 C133.959652,126.998437 138.379749,124.260037 141.632079,119.852762 C146.2929,113.533773 146.8102,106.23826 142.810089,103.236353 C141.678176,102.404959 140.307131,101.971154 138.907292,102.001489 Z" id="Shape" fill="#99224C"></path>
            <path d="M82.06115,77.0000516 L82.06115,78.5647426 L82.06115,78.5647426 C85.2931782,78.5647426 88.6266829,83.0814839 89.6718914,88.8447623 C90.2526978,91.7478306 90.0634325,94.7580302 89.123918,97.5600909 C88.3070318,99.740227 87.0284272,101.101508 85.5215004,101.383153 C85.3238394,101.418834 85.1234722,101.436289 84.9227888,101.435348 C81.6907606,101.435348 78.3572559,96.9237833 77.3374166,91.1552892 C76.7567862,88.2539478 76.9460563,85.2454733 77.8853899,82.4451762 C78.7022762,80.2598245 79.9808807,78.903759 81.4878075,78.6221146 C81.6853156,78.5846847 81.885684,78.5654842 82.0865192,78.5647426 L82.0865192,77.0000516 M82.0865192,77.0000251 C81.7936897,76.9990403 81.5014444,77.0269857 81.2138208,77.0835018 C76.9873224,77.8762786 74.5721805,84.3019428 75.8355636,91.4369336 C77.0126916,98.0868702 80.9601294,103 84.917715,103 C85.2102746,103 85.5022819,102.973892 85.7904133,102.921765 C90.0219855,102.128989 92.4269798,95.7033243 91.1635967,88.5683335 C89.9864687,81.9183969 86.0390309,77.0000251 82.0814453,77.0000251 L82.0865192,77.0000251 Z" id="Shape" fill="#D589AA"></path>
            <path d="M82.0788951,78.00276 C86.0255364,78.00276 89.9620581,82.7309188 91.1359309,89.1236761 C92.3958202,95.9827285 89.9974767,102.159887 85.7776064,102.922004 C85.4902718,102.972115 85.1990719,102.997213 84.9073214,102.997213 C80.9606801,102.997213 77.0241584,98.2740933 75.8502856,91.881336 C74.5903962,85.0222836 76.9887398,78.8451252 81.2086101,78.0830083 C81.4954383,78.0286779 81.7868754,78.0018132 82.0788951,78.00276 M82.0788951,77 L82.0788951,77 C81.7259552,77.0013834 81.3738091,77.033259 81.0264574,77.0952646 C78.6281139,77.5314763 76.6750324,79.3916433 75.5315184,82.3348186 C74.4487219,85.1125343 74.2109115,88.5671301 74.8535056,92.0618374 C76.1083352,98.8707506 80.4192818,104 84.9073214,104 C85.2601137,104 85.6122586,103.970072 85.959759,103.909747 C88.3581026,103.473536 90.3111841,101.613369 91.4546981,98.6701935 C92.5594755,95.5473016 92.7937073,92.1869268 92.1327108,88.9431747 C90.8778813,82.1342615 86.5669346,77 82.0788951,77 L82.0788951,77 Z" id="Shape" fill="#99224C"></path>
            <path d="M112.822708,42.3385742 C113.397566,41.8072096 113.957384,41.2479649 114.502162,40.6608399 C115.166774,40.4261423 115.797142,40.106896 116.377135,39.7112718 C117.946296,38.5993423 119.21466,36.7592466 118.041549,36.1491614 C116.422254,35.3029142 114.662587,38.2598594 113.825367,39.9277536 C113.228785,40.5821192 112.59711,41.2020445 111.950394,41.7875295 C112.123627,41.3439152 112.24963,40.8839026 112.326392,40.4148378 C112.59711,38.6485427 112.1409,36.6362455 110.907629,37.0593691 C109.062736,37.6891345 110.31606,41.2414048 110.907629,42.6829771 C109.680561,43.6912616 108.387723,44.6198445 107.037365,45.4628008 C107.361214,44.8200015 107.585925,44.1335373 107.704133,43.4259034 C107.974851,41.6645284 107.523654,39.6522313 106.28537,40.0753549 C104.360265,40.7346405 105.784041,44.5673532 106.365583,45.8711643 C105.097219,46.6337708 103.858935,47.2881364 102.705877,47.8391811 C103.078973,47.1346305 103.33937,46.3779284 103.477925,45.595642 C103.748643,43.8293469 103.292433,41.8170497 102.059162,42.2401733 C100.103977,42.909299 101.623005,46.8502527 102.159428,48.0950233 C100.901091,48.6854283 99.7580592,49.1577523 98.8305995,49.5070753 C98.600008,49.5890715 98.4637186,49.8227597 98.5084671,50.0594185 C98.5532155,50.2960774 98.7658627,50.4662189 99.0110781,50.4615635 C99.0727276,50.4596321 99.1336618,50.4480042 99.1915568,50.4271232 C100.259389,50.0187597 101.607965,49.4431148 103.091901,48.7444688 C103.653831,49.3621916 104.316208,49.8842311 105.052099,50.289362 C106.651341,51.1356092 108.731859,51.3963714 108.746898,50.1122405 C108.746898,48.4787865 105.994599,48.2032642 104.189813,48.1983442 C105.297751,47.6325393 106.465849,46.9781737 107.643973,46.2303274 C108.261021,46.8339183 108.975957,47.3327126 109.759584,47.70634 C111.413972,48.4394262 113.514543,48.5624273 113.43433,47.2832163 C113.334064,45.5661217 110.255901,45.5562816 108.481194,45.6989628 C109.649569,44.9255598 110.7711,44.086094 111.840102,43.1848214 C112.476991,43.6516412 113.18395,44.0184636 113.93566,44.2721507 C115.675273,44.7985952 117.770831,44.660834 117.530193,43.3963832 C117.229395,41.8121297 114.587388,42.0138514 112.822708,42.3385742 Z" id="Path" fill="#65A43A"></path>
            <circle id="Oval" fill="#FFA300" cx="173" cy="30.5" r="1.5"></circle>
            <circle id="Oval" fill="#EA2145" cx="109" cy="24.5" r="1.5"></circle>
            <circle id="Oval" fill="#EA2145" cx="67" cy="47.5" r="1.5"></circle>
            <circle id="Oval" fill="#FFA300" cx="102" cy="19.5" r="1.5"></circle>
            <circle id="Oval" fill="#FFA300" cx="129" cy="56.5" r="1.5"></circle>
        </g>
    </g>
</svg>