<svg id="dynamic" xmlns="http://www.w3.org/2000/svg" xmlns:xlink="http://www.w3.org/1999/xlink" viewBox="0 0 420 420"><defs><style>.cls-1,.cls-15{fill:none;}.cls-2{fill:#efefef;}.cls-3{fill:#89cfbb;}.cls-4{fill:#003d32;}.cls-5{fill:#639384;}.cls-6{fill:#ce7f00;}.cls-7{fill:#ffa300;}.cls-8{fill:#fff5ca;}.cls-9{fill:#ffcf8f;}.cls-10{fill:#ec2044;}.cls-11{fill:#b21b43;}.cls-12{fill:#71bc40;}.cls-13{fill:#e2b283;}.cls-14{clip-path:url(#clip-path);}.cls-15{stroke:#b21b43;stroke-linecap:round;stroke-miterlimit:10;stroke-width:3px;}.cls-16{fill:#dba17b;}.cls-17{fill:#683c3a;}.cls-18{fill:#975553;}.cls-19{fill:#824646;}.cls-20{fill:#fff0b0;}</style><clipPath id="clip-path"><path class="cls-1" d="M261,159.29s-11.18,35.76-11.15,39,4.73,16.81,21.21,25.32,26.17,7.2,28.32,5.63,31.72-32.86,31.72-32.86-3.12,2.7-6.11,1.64a3.8,3.8,0,0,1-2.77-3.73s-2.82,3.43-6.46,1.93-3.82-4.27-3.82-4.27-3.27,2.62-6.83,1-4.38-5.8-4.38-5.8a6.24,6.24,0,0,1-6.25.87,5.25,5.25,0,0,1-3.25-4.73s-3.37,2.26-6.55.07a7.48,7.48,0,0,1-3.27-5.53s-3.8,2.16-6.93-.13a4.49,4.49,0,0,1-1.53-5.57,6.2,6.2,0,0,1-6.1-1.53,4.06,4.06,0,0,1-.47-5.58S260.45,166,261,159.29Z"/></clipPath></defs><title>bakery icons</title><path class="cls-2" d="M15.7,156.33c-3.58-6.81-12.25,5.27-13.27,23.49s5.1,15.31,9.36,11.06S20.64,165.69,15.7,156.33Z"/><path class="cls-2" d="M198.85,48.93c-11.86,2-23.75,7.83-12.94,15.32s45-.17,49.46-17.71-13.87-10.89-19.79-5.95S204.19,48,198.85,48.93Z"/><path class="cls-2" d="M255.89,29c-6.93.31-9.19,5.78-6.12,8.68S261.34,40,262.7,34.92,259.64,28.8,255.89,29Z"/><path class="cls-2" d="M370.94,77.69c-9.58-3.25-18.05,7.54-3.75,18.33s25.7,7,22-.8S379.45,80.59,370.94,77.69Z"/><path class="cls-2" d="M66.09,285.69s-32.15-8.25-49.95-27.95,3-31.28,5.69-45.24,6.47-19.4,1-64.17S40.21,68.16,72.21,56.59s49.13-10.9,93.06,22.81c48.82,37.45,69.31-28.6,116.81-35.75S335.71,66,343.2,82.2s16.67,23.23,52.08,42S433.74,233,332.63,237.75,66.09,285.69,66.09,285.69Z"/><path class="cls-2" d="M42.35,350s-5.88,36.15,27.48,40.23,157.28-7.83,206.64-9.53,104.17-4.08,105.87-25.53-19.4-64-19.4-64Z"/><path class="cls-3" d="M372.22,160.82A20.79,20.79,0,0,0,369,162h0c-8.67,4.12-14.5,13.92-20.73,21-7,7.88-24.71,8.73-80.87,17.4S84.28,224.7,76.1,225.07,65,205.88,52.21,207.52a11.55,11.55,0,0,0-3.27.89c-10.41,4.48-15.11,24.07-23,58.66-3.51,15.32-11.44,43-9.42,53.83S37.1,366,53.38,367.07s52.57,1.63,120.08-9.61,192.82-30.62,214.73-46.3,16.75-55.76,9-99.22S382.72,157.83,372.22,160.82ZM68.36,246c.5,4.51-7.59,40.06-12.43,56.75C52.42,314.88,49,319.3,46,318.15a3.86,3.86,0,0,1-1.21-.79c-3.23-3-10.31-10.65-9.12-19.16.71-5.13,2-8.55,6.13-24,3.61-13.55,7-27.69,9.77-35.07,1.09-3,2.08-4.86,2.91-5.16C57.41,232.94,67.85,241.52,68.36,246Zm303.4-54.49c2.14,11.06,4.78,35.28,6.8,51,2.68,21,1.09,20.12-4.45,24.19a9.69,9.69,0,0,1-1.51.93c-5.47,2.71-6.65-4.95-7.42-12.4-.83-8.11-5.71-52.55-5.42-56.71s7.8-12.78,10.06-12.91C370.38,185.64,371,187.87,371.76,191.55Z"/><path class="cls-4" d="M397.16,211.94c7.78,43.46,12.92,83.53-9,99.22S241,346.23,173.46,357.46s-103.81,10.7-120.08,9.61S18.49,331.73,16.47,320.9s5.91-38.51,9.42-53.83c7.94-34.59,12.64-54.18,23-58.66-1.13.71-9.54,7-16,40.05C26,284,16.92,305.83,23,322.36s22.48,32.94,31.49,35.45,73.8-.37,167.16-17.4,144.19-24.17,161.36-39.17,12.61-52.4,7.9-85.66S379.31,161.28,369,162a20.79,20.79,0,0,1,3.19-1.22C382.72,157.83,389.37,168.47,397.16,211.94Z"/><path class="cls-4" d="M68.36,246c.5,4.51-7.59,40.06-12.43,56.75C52.42,314.88,49,319.3,46,318.15c0,0,16.4-57.6,17.08-64.48.81-8.41-9.17-12.64-11.51-14.55,1.09-3,2.08-4.86,2.91-5.16C57.41,232.94,67.85,241.52,68.36,246Z"/><path class="cls-4" d="M371.76,191.55c-1.55,1.82-4.45,5.2-6,6.8-2.18,2.26-2.19,1.45.06,23.13s6.78,46.21,6.78,46.21c-5.47,2.71-6.65-4.95-7.42-12.4-.83-8.11-5.71-52.55-5.42-56.71s7.8-12.78,10.06-12.91C370.38,185.64,371,187.87,371.76,191.55Z"/><path class="cls-5" d="M219.79,233.88c0-1.6-9.11-5.95-26.3-5.55-16.84.39-27.4,5.16-34.78,8.38-12.1,1.16-22.63,2.85-34.16,3.88-18.1,1.61-31.66,12.76-18.38,19.15s27.83-1.43,39.06,1.46,26.09,6.43,41.64,2c13.82-4,25.67-17.9,21-22.43C214.45,237.39,219.79,234.49,219.79,233.88Z"/><path class="cls-5" d="M199.61,301.16c-7.91,7-13.51,14.49,8.18,15.51s43.83-2.83,59.15-12.65,7.15-14.25,0-18.33-34.68.47-43.05,1.77S199.61,301.16,199.61,301.16Z"/><path class="cls-5" d="M254,246.2c7.76-9.23,28.44-11.84,44.09-6.68s23.57,15.11,9.78,20-40.56,7.9-52.83,3.69S254,246.2,254,246.2Z"/><path class="cls-6" d="M239.69,129c-5.85,2.25-12.44,2.39-18.7,2.29-1,0-2.05,0-3.05-.06-2.21,0-4.34-.08-6.37,0A80.69,80.69,0,0,0,199,132.41c-1.12.21-2.27.46-3.42.76a38.86,38.86,0,0,0-10.22,4.1,34.14,34.14,0,0,0-2.87,1.92,26.46,26.46,0,0,0-5.51,5.7,41.7,41.7,0,0,1-12.38,11c-1,.6-1.94,1.17-2.9,1.7-7.05,3.92-13.82,6.32-16.22,8.07l-.26.21a17.23,17.23,0,0,0-1.78,1.58,32,32,0,0,0-4.71,6.46c-.18.33-.37.65-.54,1a59.36,59.36,0,0,0-2.61,5.52,11,11,0,0,0-.43,4.37c.06,1.51.23,3.23.35,5,.56,7.37.71,16.27-7.68,18.93-12.93,4.12-22.68-5.44-26.75-13a46.24,46.24,0,0,1-7.71-7.05,22.6,22.6,0,0,1-1.43-1.91c-3-4.67-3-13.31-3-13.31A27.67,27.67,0,0,1,81,162.77a16.19,16.19,0,0,1-.61-1.86c-2-7.44,5.13-16.42,5.13-16.42a18.8,18.8,0,0,1-4.14-9.19,26.28,26.28,0,0,1-.34-5.93c.54-9.94,18-26.91,18-26.91a18.53,18.53,0,0,1,3-10.07c4.54-7.39,15.12-15.72,37.27-22,28.34-8.09,33.77.16,34.76,2.78a5.08,5.08,0,0,1,.2.71v0c1.67-.11,3.38-.16,5.08-.13a112.85,112.85,0,0,1,33.73,5.91,9.67,9.67,0,0,1,3.73,2.45c3.75,3.91,3.94,10,3.94,10s4.06.51,10.3,1.69c3.51.66,5.76,4.48,7.19,7.89,1.1,2.67,1.72,5.08,2,5.55.71,1.09,2.64.24,8,5.37S248.6,125.54,239.69,129Z"/><path class="cls-7" d="M135.48,189.81c.56,7.37.71,16.27-7.68,18.93-12.93,4.12-22.68-5.44-26.75-13C101.05,195.71,112,186.58,135.48,189.81Z"/><path class="cls-7" d="M138.17,174.88a59.36,59.36,0,0,0-2.61,5.52,11,11,0,0,0-.43,4.37,73.53,73.53,0,0,0-22.41-1.59c-9.31.94-15.59,3.42-19.38,5.48a22.6,22.6,0,0,1-1.43-1.91c-3-4.67-3-13.31-3-13.31s5.39-9.9,25.75-7C127.15,168.22,134.41,172.12,138.17,174.88Z"/><path class="cls-7" d="M143.42,167.44a32,32,0,0,0-4.71,6.46c-4-4.71-12.7-12.15-29-14.21-12.79-1.61-22.44.61-28.72,3.08a16.19,16.19,0,0,1-.61-1.86c-2-7.44,5.13-16.42,5.13-16.42s12.62-7,34.63,5.47C132.3,156.85,139.45,163.17,143.42,167.44Z"/><path class="cls-7" d="M161.68,157.58c-7.05,3.92-13.82,6.32-16.22,8.07l-.26.21c-4.52-6.13-17.43-21.85-34-27.14-13.66-4.34-24.15-4.1-29.76-3.42a26.28,26.28,0,0,1-.34-5.93c.54-9.94,18-26.91,18-26.91a47,47,0,0,1,42.4,18.64C155.22,139.23,160.23,152.86,161.68,157.58Z"/><path class="cls-7" d="M184.11,116c-.55,11-1.12,18.29-1.64,23.15a26.46,26.46,0,0,0-5.51,5.7,41.7,41.7,0,0,1-12.38,11c-1.74-6.34-11.33-38.56-28.88-51.24a67.42,67.42,0,0,0-33.64-12.25c4.54-7.39,15.12-15.72,37.27-22,28.34-8.09,33.77.16,34.76,2.78l.2.71v0S185.57,86.25,184.11,116Z"/><path class="cls-7" d="M216.83,82.09s-11.9,4.3-17.18,25.92a140.24,140.24,0,0,0-4.09,25.16,38.86,38.86,0,0,0-10.22,4.1c1.81-9.69,4.28-29.07-.5-46.23-2.29-8.17-4.09-13.64-5.47-17.31a112.85,112.85,0,0,1,33.73,5.91A9.67,9.67,0,0,1,216.83,82.09Z"/><path class="cls-7" d="M238.26,101.72S219.61,114,217.94,131.2c-2.21,0-4.34-.08-6.37,0A80.69,80.69,0,0,0,199,132.41c1.45-7.76,6.58-28.28,21.79-40.27,0,0,4.06.51,10.3,1.69C234.58,94.49,236.83,98.31,238.26,101.72Z"/><path class="cls-7" d="M239.69,129c-5.85,2.25-12.44,2.39-18.7,2.29.08-.44,2.36-13.78,19.29-24,.71,1.09,2.64.24,8,5.37S248.6,125.54,239.69,129Z"/><ellipse class="cls-8" cx="143.07" cy="87.15" rx="3.06" ry="1.36" transform="translate(-12.66 25.41) rotate(-9.72)"/><ellipse class="cls-8" cx="111.73" cy="122.48" rx="3.06" ry="1.36" transform="matrix(0.99, -0.17, 0.17, 0.99, -19.07, 20.62)"/><ellipse class="cls-8" cx="160.91" cy="88.68" rx="3.06" ry="1.36" transform="translate(-22.79 92.03) rotate(-29.9)"/><ellipse class="cls-8" cx="93.08" cy="150.86" rx="3.06" ry="1.36" transform="matrix(0.87, -0.5, 0.5, 0.87, -62.82, 66.49)"/><ellipse class="cls-8" cx="104.72" cy="111.88" rx="3.06" ry="1.36" transform="translate(-41.83 67.1) rotate(-29.9)"/><ellipse class="cls-8" cx="157.58" cy="77.46" rx="1.36" ry="3.06" transform="translate(35.17 203.34) rotate(-71.98)"/><ellipse class="cls-8" cx="93.53" cy="123.7" rx="1.36" ry="3.06" transform="translate(-53.03 174.37) rotate(-71.98)"/><ellipse class="cls-8" cx="191.04" cy="82.2" rx="1.36" ry="3.06" transform="translate(53.77 238.45) rotate(-71.98)"/><ellipse class="cls-8" cx="126.49" cy="84.17" rx="3.06" ry="1.36" transform="translate(-25.44 84.2) rotate(-33.65)"/><ellipse class="cls-9" cx="116.22" cy="61.5" rx="3.06" ry="1.36" transform="translate(-1.6 119.87) rotate(-54.25)"/><ellipse class="cls-9" cx="140.79" cy="34.57" rx="3.06" ry="1.36" transform="translate(-3.05 52.67) rotate(-20.97)"/><ellipse class="cls-9" cx="82.16" cy="62.77" rx="1.36" ry="3.06" transform="translate(4.92 131.5) rotate(-79.04)"/><path class="cls-10" d="M286.17,135.86l-1.38-11.08-.39-3.18-.57-4.57-.4-3.19-.56-4.48-.39-3.22-.4-3.23,7.42-2.69.93,10.6.28,3.3.37,4.23.29,3.27.38,4.3.29,3.27.14,1.72S291.57,137.65,286.17,135.86Z"/><path class="cls-11" d="M286.08,103.22c2.79-.74,3.76-1.9,3.41-3-.27-.86-3.15-1.39-5.28-.34s-2.2,2.5-2.13,3S283.62,103.87,286.08,103.22Z"/><polygon class="cls-12" points="290.71 114.12 282.87 109.36 282.48 106.14 290.43 110.82 290.71 114.12"/><polygon class="cls-12" points="291.37 121.61 283.83 117.03 283.43 113.84 291.08 118.35 291.37 121.61"/><polygon class="cls-12" points="292.04 129.19 284.79 124.78 284.4 121.59 291.75 125.92 292.04 129.19"/><path class="cls-10" d="M294.8,131.09l1.89-11,.54-3.16.78-4.53.54-3.18.76-4.45.56-3.19.55-3.22,7.88-.42-2.18,10.42-.68,3.24-.87,4.16-.67,3.2L303,123.2l-.67,3.2-.36,1.69S299.45,134.37,294.8,131.09Z"/><path class="cls-11" d="M304.16,99.83c2.88.1,4.15-.73,4.14-1.89,0-.9-2.62-2.24-5-1.86s-2.83,1.76-2.92,2.28S301.62,99.74,304.16,99.83Z"/><polygon class="cls-12" points="305.44 111.6 299.31 104.77 299.87 101.58 306.12 108.36 305.44 111.6"/><polygon class="cls-12" points="303.9 118.96 298.01 112.4 298.55 109.22 304.57 115.76 303.9 118.96"/><polygon class="cls-12" points="302.35 126.4 296.69 120.09 297.23 116.93 303.02 123.2 302.35 126.4"/><path class="cls-8" d="M331.84,195.4a7,7,0,0,1-.75,1l-9.66,8.32-49.59-15.46-13.44-19L261,159.3a7.76,7.76,0,0,1,.19-3,18,18,0,0,1,1.53-4.26,9.6,9.6,0,0,1,6.54-4.85l.2,0a1.41,1.41,0,0,0,.27,0l.4-.07h.12s0,0,.06,0a9.81,9.81,0,0,1,.3-1.67,13.28,13.28,0,0,1,7.45-8.89c6.06-2.77,10-2.51,11.17-2.34a1.07,1.07,0,0,1,.23,0l.12,0a11.43,11.43,0,0,1,.41-2.42,9.34,9.34,0,0,1,7.52-7.18,35.22,35.22,0,0,1,9.27-.15h.13l.25,0c3.18.25,6,.45,7.88-.47,0,0,0,0,0,0a3.93,3.93,0,0,0,1.42-1.18c1.32-1.81,2.88-6.56,9.29-7.42a16.18,16.18,0,0,0,3.8,13.09,42.4,42.4,0,0,1,5.88,8.51,16.54,16.54,0,0,1,1.61,11.74,20.58,20.58,0,0,1-2.11,5.74s4.67,6.34,2,13.58a20.45,20.45,0,0,1-2.6,4.87l0,.06s0,0,0,0,0,.06-.07.08a19.43,19.43,0,0,1-5.66,5.27h0s5.06,3.76,5.21,9.39A13.79,13.79,0,0,1,331.84,195.4Z"/><path class="cls-13" d="M331.84,195.4a7,7,0,0,1-.75,1l-9.66,8.32-49.59-15.46-13.44-19L261,159.3a7.76,7.76,0,0,1,.19-3c-.39,6.55,6.31,6.53,6.31,6.53a4.07,4.07,0,0,0,.47,5.58,6.2,6.2,0,0,0,6.11,1.52,4.5,4.5,0,0,0,1.52,5.58c3.13,2.29,6.93.14,6.93.14a7.5,7.5,0,0,0,3.27,5.51c3.18,2.2,6.55-.06,6.55-.06a5.26,5.26,0,0,0,3.25,4.73,6.25,6.25,0,0,0,6.26-.88s.82,4.16,4.38,5.81,6.82-1,6.82-1,.19,2.78,3.82,4.28,6.46-1.94,6.46-1.94a3.8,3.8,0,0,0,2.78,3.73C327.88,196.49,330.21,196,331.84,195.4Z"/><path class="cls-10" d="M261,159.29s-11.18,35.76-11.15,39,4.73,16.81,21.21,25.32,26.17,7.2,28.32,5.63,31.72-32.86,31.72-32.86-3.12,2.7-6.11,1.64a3.8,3.8,0,0,1-2.77-3.73s-2.82,3.43-6.46,1.93-3.82-4.27-3.82-4.27-3.27,2.62-6.83,1-4.38-5.8-4.38-5.8a6.24,6.24,0,0,1-6.25.87,5.25,5.25,0,0,1-3.25-4.73s-3.37,2.26-6.55.07a7.48,7.48,0,0,1-3.27-5.53s-3.8,2.16-6.93-.13a4.49,4.49,0,0,1-1.53-5.57,6.2,6.2,0,0,1-6.1-1.53,4.06,4.06,0,0,1-.47-5.58S260.45,166,261,159.29Z"/><path class="cls-13" d="M278.1,139.36a12.57,12.57,0,0,1,5.21-2.3,17,17,0,0,1,5.78-.17,30.59,30.59,0,0,1,5.47,1.48,16.9,16.9,0,0,1,5,2.6c-1.83-.45-3.63-.74-5.43-1.1s-3.65-.73-5.35-1a29.14,29.14,0,0,0-5.29-.27A31.16,31.16,0,0,0,278.1,139.36Z"/><path class="cls-13" d="M334.15,140.43a12.48,12.48,0,0,1,.44,5.93,9.51,9.51,0,0,1-1,3,7.83,7.83,0,0,1-2.1,2.49,12.85,12.85,0,0,1-2.8,1.4,17,17,0,0,1-2.89.8,13.54,13.54,0,0,1-5.91-.06,34.5,34.5,0,0,0,5.51-1.44c.87-.33,1.74-.65,2.57-1a15.68,15.68,0,0,0,2.32-1.26,8.5,8.5,0,0,0,2.79-4.22A26.24,26.24,0,0,0,334.15,140.43Z"/><path class="cls-13" d="M329.65,135.05a7.77,7.77,0,0,1,2.1,3.06,8.13,8.13,0,0,1,.52,3.81,6.28,6.28,0,0,1-4.87,5.47,17.23,17.23,0,0,0,2-2.8,7.79,7.79,0,0,0,.91-2.9A22.81,22.81,0,0,0,329.65,135.05Z"/><path class="cls-13" d="M269.46,147.16a7.9,7.9,0,0,1,.79-.13C270,147.09,269.7,147.13,269.46,147.16Z"/><path class="cls-13" d="M291.52,151.94s-11.87-6.65-21.21-4.92a9.81,9.81,0,0,1,.3-1.67C273.16,144.4,280,143.38,291.52,151.94Z"/><path class="cls-13" d="M304.5,137.79a50,50,0,0,0-14.92-3.61,11.43,11.43,0,0,1,.41-2.42A31.08,31.08,0,0,1,304.5,137.79Z"/><path class="cls-13" d="M306.79,124.44h.12l.25,0c3.18.25,6,.45,7.88-.47,0,0,0,0,0,0a11.4,11.4,0,0,0,4.44-1.73S317.66,129.54,306.79,124.44Z"/><path class="cls-13" d="M335,154.45a17.09,17.09,0,0,1-11.74,3.81c-7.3-.33-11.37-.42-.37-1.15s14.22-8.4,14.22-8.4A20.58,20.58,0,0,1,335,154.45Z"/><path class="cls-13" d="M334.29,173a19.42,19.42,0,0,1-5.73,5.35h0s-3.37,1.71-9.64.48c-6.1-1.2-18.56-2.76-19.2-2.84.36,0,6.38-.3,18.36,1C329.49,178.17,333.71,173.66,334.29,173Z"/><path class="cls-13" d="M263.7,157.4a14.57,14.57,0,0,1,7.32-4,15.45,15.45,0,0,1,8.57.49c2.62.94,5.15,2,7.65,3.18a55,55,0,0,1,7.24,4c-2.66-.79-5.25-1.66-7.84-2.57l-7.7-2.73a13.61,13.61,0,0,0-1.86-.54l-.95-.21-1-.11a13.7,13.7,0,0,0-1.93-.12c-.65,0-1.3,0-1.95.13A20.72,20.72,0,0,0,263.7,157.4Z"/><path class="cls-13" d="M270.71,159.58a7.47,7.47,0,0,1,4.77-1.81,10.89,10.89,0,0,1,5.12,1.12l4.33,2.16c1.46.7,2.9,1.42,4.42,2.13a14.65,14.65,0,0,1-5-.68,27.18,27.18,0,0,1-4.65-1.81,14.54,14.54,0,0,0-4.31-1.36A12.21,12.21,0,0,0,270.71,159.58Z"/><path class="cls-13" d="M335.31,161.92a12.7,12.7,0,0,1-10,10.38,14,14,0,0,1-2.58.27l-1.29,0-1.21-.06c-3.25-.19-6.48-.43-9.71-.74s-6.43-.62-9.7-.77a47.15,47.15,0,0,1,9.77-.79c3.26,0,6.51.14,9.75.3l1.21.08h1.15a16.93,16.93,0,0,0,2.26-.17,13.62,13.62,0,0,0,4.26-1.5A15.83,15.83,0,0,0,335.31,161.92Z"/><path class="cls-11" d="M312.25,136.83a1.89,1.89,0,0,1-2.5.82,1.8,1.8,0,0,1-.69-2.46,1.75,1.75,0,0,1,2.38-.82A1.85,1.85,0,0,1,312.25,136.83Z"/><path class="cls-11" d="M315.83,163a1.73,1.73,0,0,1-2.27.75,1.63,1.63,0,0,1-.59-2.23,1.57,1.57,0,0,1,2.13-.75A1.67,1.67,0,0,1,315.83,163Z"/><path class="cls-11" d="M320.51,142a1.4,1.4,0,0,1-1.92.54,1.31,1.31,0,0,1-.57-1.82,1.29,1.29,0,0,1,1.81-.57A1.38,1.38,0,0,1,320.51,142Z"/><path class="cls-11" d="M311.9,76.35a1.41,1.41,0,0,1-1.92.55,1.31,1.31,0,0,1-.56-1.83,1.28,1.28,0,0,1,1.8-.57A1.38,1.38,0,0,1,311.9,76.35Z"/><path class="cls-11" d="M296.58,142.69a1.49,1.49,0,0,1-2.83.91,1.49,1.49,0,0,1,2.83-.91Z"/><path class="cls-11" d="M324.88,59.2a1.5,1.5,0,0,1-2.84.9,1.49,1.49,0,0,1,2.84-.9Z"/><path class="cls-11" d="M311.8,149.77a1.67,1.67,0,0,1-2.21.77,1.63,1.63,0,0,1-.61-2.23,1.57,1.57,0,0,1,2.14-.72A1.61,1.61,0,0,1,311.8,149.77Z"/><path class="cls-11" d="M353.32,45.75a1.66,1.66,0,0,1-2.21.76,1.63,1.63,0,0,1-.62-2.22,1.57,1.57,0,0,1,2.14-.72A1.61,1.61,0,0,1,353.32,45.75Z"/><path class="cls-11" d="M325.69,149.34a1.63,1.63,0,0,1-2.23.58,1.49,1.49,0,0,1-.68-2.08,1.52,1.52,0,0,1,2.1-.68A1.66,1.66,0,0,1,325.69,149.34Z"/><path class="cls-11" d="M351.78,79.53a1.63,1.63,0,0,1-2.23.57,1.49,1.49,0,0,1-.68-2.08,1.52,1.52,0,0,1,2.1-.68A1.66,1.66,0,0,1,351.78,79.53Z"/><path class="cls-11" d="M301.33,153.72a2.13,2.13,0,1,1-3.77-1.95,2.13,2.13,0,1,1,3.77,1.95Z"/><path class="cls-11" d="M329.29,71.52a2.13,2.13,0,1,1-3.77-2,2.13,2.13,0,1,1,3.77,2Z"/><g class="cls-14"><line class="cls-15" x1="265.94" y1="163.68" x2="249.51" y2="215.77"/><line class="cls-15" x1="274.29" y1="168.52" x2="254.9" y2="218.1"/><line class="cls-15" x1="283.92" y1="172.49" x2="260.78" y2="222.72"/><line class="cls-15" x1="294.91" y1="176.81" x2="268.4" y2="228.13"/><line class="cls-15" x1="304.3" y1="181.66" x2="275.13" y2="231.6"/><line class="cls-15" x1="315.55" y1="187.47" x2="281.92" y2="236.69"/><line class="cls-15" x1="324.57" y1="190.32" x2="287.88" y2="239.09"/></g><path class="cls-9" d="M203.67,197.36a52.75,52.75,0,0,1-6.88-.54c-17.12-2.48-26.42-8.54-37.91-15.68-1.57-1-3.2-2-4.88-3-14-8.39-16.82-21.95-13.94-30.52.41-1.24.82-2.46,1.25-3.68a.23.23,0,0,0,0-.09h0c2.52-7.16,5.92-13.78,17.13-18.58,13.16-5.63,32.47-.85,45.41,5.74,16.18,8.25,32.89,25.78,31.05,43a25.74,25.74,0,0,1-.43,2.72l0,.14q-.07.38-.18.72C231.11,190.51,218.73,197.49,203.67,197.36Z"/><path class="cls-16" d="M234.51,176.76c-3.25,15.39-19.32,22.73-37.73,20.06C177.32,194,168,186.54,154,178.16s-16.81-21.95-13.93-30.52c.41-1.24.81-2.46,1.25-3.68-.38,1.2-3.76,12.66,2.84,19.93,7,7.69,10.67,5.23,14.52,10.59s8.91,10.37,13.84,9.74,13.35,3.13,17.85,6.94,11.08.62,18.25,1.83,6.7-5.18,14.84-7C229.6,184.69,233.14,179.31,234.51,176.76Z"/><path class="cls-17" d="M203.52,151.64c0,1.46-3.81,3-5.9,3s-4.57-1.36-4.6-2.81,2.36-4.08,4.45-4.13S203.49,150.19,203.52,151.64Z"/><path class="cls-17" d="M211.29,168.5c.92-1.14,4.39-.15,5.86,1s2.27,3.62,1.35,4.76-4.05,1.6-5.52.43S210.38,169.63,211.29,168.5Z"/><path class="cls-17" d="M184.32,137.18c-.76,1.08-4.22.22-5.77-.86s-2.56-3.38-1.81-4.46,3.8-1.65,5.34-.56S185.07,136.1,184.32,137.18Z"/><path class="cls-17" d="M172,168c-.75,1.07-4.21.22-5.76-.87s-2.56-3.38-1.81-4.45,3.79-1.65,5.34-.57S172.76,167,172,168Z"/><path class="cls-17" d="M156.2,139.42c.66-1.13,4.22-.56,5.85.4s2.85,3.16,2.19,4.3-3.67,2-5.3,1S155.53,140.56,156.2,139.42Z"/><path class="cls-17" d="M212.12,146.08c.67-1.14,4.23-.56,5.86.39s2.85,3.17,2.18,4.3-3.66,2-5.29,1S211.46,147.21,212.12,146.08Z"/><path class="cls-17" d="M180.47,151.64c-.31,1.27-3.4,1.82-4.91,1.45s-3-2-2.65-3.31,2.58-2.88,4.08-2.51S180.79,150.36,180.47,151.64Z"/><path class="cls-17" d="M199.5,173.25c-.31,1.27-3.4,1.82-4.91,1.45s-3-2-2.66-3.31,2.58-2.88,4.09-2.51S199.81,172,199.5,173.25Z"/><path class="cls-16" d="M168.3,131.77c0,1-1,1.35-1.93,1.37s-1.59-.32-1.61-1.29a1.46,1.46,0,0,1,1.55-1.61A1.79,1.79,0,0,1,168.3,131.77Z"/><path class="cls-16" d="M197.22,138.63c0,1-1,1.34-1.93,1.36s-1.59-.31-1.61-1.29a1.47,1.47,0,0,1,1.55-1.61A1.79,1.79,0,0,1,197.22,138.63Z"/><path class="cls-16" d="M213.82,161.55c-1-.07-1.25-1.08-1.17-2.06s.47-1.55,1.44-1.47a1.45,1.45,0,0,1,1.45,1.69A1.8,1.8,0,0,1,213.82,161.55Z"/><path class="cls-16" d="M183.52,175.65c-.7.68-1.64.21-2.32-.49s-.84-1.39-.14-2.06a1.47,1.47,0,0,1,2.24,0A1.81,1.81,0,0,1,183.52,175.65Z"/><path class="cls-16" d="M152.43,147.49c0,1-1,1.34-1.93,1.36s-1.59-.31-1.61-1.29a1.47,1.47,0,0,1,1.55-1.61A1.79,1.79,0,0,1,152.43,147.49Z"/><path class="cls-16" d="M160.52,152.4c1,.15,1.15,1.18,1,2.14s-.59,1.51-1.56,1.36a1.47,1.47,0,0,1-1.31-1.81A1.8,1.8,0,0,1,160.52,152.4Z"/><path class="cls-16" d="M186.36,159.54c.46-.86,1.5-.7,2.35-.24s1.23,1.07.76,1.92a1.46,1.46,0,0,1-2.14.64A1.79,1.79,0,0,1,186.36,159.54Z"/><path class="cls-16" d="M185.4,144.08c0,1-1,1.35-1.94,1.37s-1.58-.32-1.61-1.3a1.47,1.47,0,0,1,1.55-1.61A1.8,1.8,0,0,1,185.4,144.08Z"/><path class="cls-16" d="M225.36,161.34c0-1,1-1.35,1.94-1.37s1.58.32,1.6,1.29a1.45,1.45,0,0,1-1.54,1.61A1.79,1.79,0,0,1,225.36,161.34Z"/><path class="cls-16" d="M208,180.36c0,1-1,1.35-1.93,1.37s-1.59-.32-1.61-1.3a1.46,1.46,0,0,1,1.54-1.61A1.8,1.8,0,0,1,208,180.36Z"/><path class="cls-9" d="M254,227.78c.75.56,1.46,1.13,2.13,1.74,11.67,10.55,9.94,28.14-1.64,42.7-12.22,15.41-23.38,19.75-37.64,27.6s-27.43,3.49-33.39-3.31c-.86-1-1.71-1.94-2.55-2.93l-.06-.07h0c-4.91-5.78-8.93-12.05-7.44-24.15,1.75-14.21,15.6-28.5,27.8-36.36C216.5,223.15,240.07,217.52,254,227.78Z"/><path class="cls-16" d="M256.17,229.52c11.67,10.55,9.94,28.14-1.64,42.7-12.22,15.41-23.38,19.75-37.64,27.6s-27.43,3.49-33.39-3.31c-.86-1-1.71-1.94-2.55-2.93.85.93,9.05,9.62,18.66,7.58,10.14-2.17,9.88-6.6,16.45-7.24s13.44-2.48,15.38-7.05,9.42-10,15-11.94,6.1-9.27,10.76-14.86-1.11-8.4,1.45-16.32C260.56,237.76,257.69,232,256.17,229.52Z"/><path class="cls-17" d="M218.81,243.8c1.28.7.73,4.67-.29,6.5s-3.43,3.23-4.7,2.53-2.29-4-1.28-5.85S217.54,243.09,218.81,243.8Z"/><path class="cls-17" d="M237.25,245.47c-.52-1.36,2.18-3.92,3.94-4.59s4.31-.14,4.84,1.22-.67,4.39-2.42,5.07S237.78,246.83,237.25,245.47Z"/><path class="cls-17" d="M196.8,253c.55,1.19-2,3.8-3.72,4.59s-4.24.52-4.79-.68.48-4.17,2.2-5S196.25,251.77,196.8,253Z"/><path class="cls-17" d="M221,275.84c.55,1.19-2,3.8-3.72,4.59s-4.24.52-4.79-.68.48-4.17,2.2-5S220.44,274.64,221,275.84Z"/><path class="cls-17" d="M184.51,278.43c-.65-1.14,1.65-3.93,3.29-4.86s4.17-.87,4.82.28-.14,4.16-1.78,5.09S185.16,279.58,184.51,278.43Z"/><path class="cls-17" d="M218.39,233.44c-.65-1.14,1.65-3.93,3.29-4.86s4.17-.87,4.82.27-.14,4.17-1.78,5.1S219,234.59,218.39,233.44Z"/><path class="cls-17" d="M207.21,263.67c.95.91-.07,3.77-1.15,4.89s-3.22,1.53-4.17.61a4,4,0,0,1-.08-4.72C202.88,263.33,206.26,262.75,207.21,263.67Z"/><path class="cls-17" d="M235.46,258.09c.94.91-.07,3.77-1.15,4.89s-3.22,1.53-4.17.62-1.17-3.61-.09-4.73S234.51,257.18,235.46,258.09Z"/><path class="cls-16" d="M184,264.12c.86.47.69,1.51.21,2.36s-1.07,1.21-1.92.74a1.46,1.46,0,0,1-.62-2.15A1.8,1.8,0,0,1,184,264.12Z"/><path class="cls-16" d="M204.46,242.57c.85.47.68,1.51.21,2.36s-1.07,1.21-1.93.74a1.47,1.47,0,0,1-.61-2.15A1.8,1.8,0,0,1,204.46,242.57Z"/><path class="cls-16" d="M212.64,238.72c-.55.81-1.57.54-2.37,0s-1.1-1.19-.55-2a1.47,1.47,0,0,1,2.2-.41A1.8,1.8,0,0,1,212.64,238.72Z"/><path class="cls-16" d="M229.57,273c.23.95-.64,1.52-1.59,1.75s-1.62,0-1.85-.91a1.46,1.46,0,0,1,1.16-1.91A1.79,1.79,0,0,1,229.57,273Z"/><path class="cls-16" d="M189.59,285.74c.85.47.68,1.51.21,2.36s-1.07,1.21-1.93.74a1.47,1.47,0,0,1-.61-2.15A1.8,1.8,0,0,1,189.59,285.74Z"/><path class="cls-16" d="M197.9,281.23c.62-.76,1.61-.41,2.36.21s1,1.27.39,2a1.46,1.46,0,0,1-2.22.23A1.8,1.8,0,0,1,197.9,281.23Z"/><path class="cls-16" d="M217.07,262.48c-.51-.83.15-1.65,1-2.15s1.54-.53,2,.31a1.46,1.46,0,0,1-.52,2.17A1.8,1.8,0,0,1,217.07,262.48Z"/><path class="cls-16" d="M230.25,236c.86.48.69,1.51.21,2.36s-1.07,1.22-1.92.74a1.46,1.46,0,0,1-.62-2.14A1.8,1.8,0,0,1,230.25,236Z"/><path class="cls-16" d="M239,233.21c-.85-.48-.68-1.51-.21-2.36s1.08-1.21,1.93-.74a1.47,1.47,0,0,1,.62,2.15A1.81,1.81,0,0,1,239,233.21Z"/><path class="cls-16" d="M245.94,254.26c.86.47.69,1.5.22,2.36s-1.08,1.21-1.93.74a1.47,1.47,0,0,1-.62-2.15A1.78,1.78,0,0,1,245.94,254.26Z"/><path class="cls-18" d="M335.72,109.63c-5.8,1.56-11.27.31-12.26-2.82a.41.41,0,0,0,0-.08c-.92-3.18,3.08-7,8.94-8.62s11.35-.28,12.28,2.9a2.06,2.06,0,0,1,.07.32C345.3,104.46,341.37,108.11,335.72,109.63Z"/><path class="cls-19" d="M335.72,109.63c-5.8,1.56-11.27.31-12.26-2.82,1.08.7,2.86,1.28,5.82,1.16,5.57-.22,5.17-2.16,8.38-1.93,2.9.21,5.8-2.1,7.06-4.71C345.3,104.46,341.37,108.11,335.72,109.63Z"/><path class="cls-20" d="M326.2,98.61c-.48.13-3.47,2.91-2.36,5.32s9,2.55,13.26.69,8.17-4.39,6-7.21-6.78-2.11-6.78-2.11Z"/><path class="cls-18" d="M334.15,102.38c-5.75,1.61-11.13.44-12.08-2.64,0,0,0-.06,0-.08-.88-3.14,3.11-7,8.92-8.63s11.23-.41,12.11,2.73c0,.1.05.21.07.31C343.69,97.15,339.76,100.81,334.15,102.38Z"/><path class="cls-19" d="M334.15,102.38c-5.75,1.61-11.13.44-12.08-2.64,1.06.67,2.81,1.22,5.74,1.07,5.5-.28,5.14-2.19,8.3-2,2.87.17,5.76-2.14,7-4.74C343.69,97.15,339.76,100.81,334.15,102.38Z"/></svg>